M48
; DRILL file {KiCad (5.1.4)-1} date 12/19/2019 5:17:42 PM
; FORMAT={-:-/ absolute / inch / decimal}
; #@! TF.CreationDate,2019-12-19T17:17:42-07:00
; #@! TF.GenerationSoftware,Kicad,Pcbnew,(5.1.4)-1
FMAT,2
INCH
T1C0.0150
T2C0.0157
T3C0.0197
T4C0.0472
%
G90
G05
T1
X5.684Y-4.553
X5.684Y-4.608
X5.706Y-3.104
X5.7675Y-3.3615
X5.785Y-3.418
X5.7851Y-3.3037
X5.7874Y-4.5039
X5.807Y-3.3615
X5.8225Y-4.61
X5.8225Y-4.535
X5.878Y-4.69
X5.884Y-4.6
X5.9133Y-3.3887
X5.98Y-4.5125
X5.98Y-4.6925
X6.07Y-4.559
X6.07Y-4.655
X6.074Y-4.408
X6.088Y-4.266
X6.155Y-4.6875
X6.16Y-4.3425
X6.226Y-4.258
X6.23Y-4.513
X6.2309Y-3.3248
X6.245Y-4.6025
X6.246Y-4.688
X6.2825Y-3.5425
X6.3175Y-3.4575
X6.3225Y-3.5125
X6.3225Y-3.8075
X6.3514Y-3.4539
X6.426Y-4.424
X6.432Y-4.626
X6.469Y-4.3
X6.4804Y-3.5009
X6.494Y-3.676
X6.4967Y-3.4641
X6.5089Y-3.9642
X6.528Y-3.676
X6.5328Y-3.7415
X6.5648Y-3.8614
X6.565Y-4.0625
X6.5949Y-3.9382
X6.5971Y-3.9766
X6.6175Y-3.955
X6.6225Y-3.85
X6.6325Y-4.15
X6.6439Y-3.9382
X6.6975Y-3.895
X6.6975Y-4.0741
X6.7175Y-3.8575
X6.7238Y-3.9624
T2
X4.73Y-3.44
X4.73Y-3.48
X4.73Y-4.425
X4.87Y-4.76
X4.87Y-4.8
T3
X6.6694Y-4.2593
X6.6818Y-3.6899
X6.7405Y-4.2595
T4
X4.912Y-3.8461
X4.912Y-3.9979
X5.045Y-3.5119
X5.2458Y-3.5119
X5.4466Y-3.5119
X5.0447Y-4.2836
X5.2447Y-4.2836
X5.4447Y-4.2836
T0
M30
