%TF.GenerationSoftware,KiCad,Pcbnew,(5.1.4)-1*%
%TF.CreationDate,2019-12-19T17:17:14-07:00*%
%TF.ProjectId,ypanel,7970616e-656c-42e6-9b69-6361645f7063,rev?*%
%TF.SameCoordinates,Original*%
%TF.FileFunction,Soldermask,Bot*%
%TF.FilePolarity,Negative*%
%FSLAX46Y46*%
G04 Gerber Fmt 4.6, Leading zero omitted, Abs format (unit mm)*
G04 Created by KiCad (PCBNEW (5.1.4)-1) date 2019-12-19 17:17:14*
%MOMM*%
%LPD*%
G04 APERTURE LIST*
%ADD10C,0.100000*%
%ADD11C,0.050000*%
%ADD12C,0.300000*%
%ADD13C,2.133600*%
%ADD14R,2.159000X2.159000*%
%ADD15C,1.101600*%
%ADD16C,1.701600*%
%ADD17C,1.625600*%
%ADD18R,2.101600X1.201600*%
%ADD19R,0.901600X0.901600*%
%ADD20R,1.601600X1.801600*%
%ADD21R,1.201600X0.351600*%
%ADD22C,1.151600*%
%ADD23C,0.976600*%
%ADD24C,0.691600*%
%ADD25R,0.827000X0.627000*%
%ADD26R,2.251600X2.251600*%
%ADD27R,1.001600X0.401600*%
%ADD28R,0.401600X1.001600*%
%ADD29R,4.521200X1.562100*%
G04 APERTURE END LIST*
D10*
X158291000Y-99002479D02*
G75*
G03X158291000Y-99002479I-11000000J0D01*
G01*
X166000000Y-118900000D02*
G75*
G03X166000000Y-118900000I-1100000J0D01*
G01*
X177000000Y-128000000D02*
X177000000Y-70000000D01*
D11*
X126172800Y-118876400D02*
G75*
G03X126172800Y-118876400I-1100000J0D01*
G01*
X126172800Y-79100000D02*
G75*
G03X126172800Y-79100000I-1100000J0D01*
G01*
D10*
X131024564Y-85002478D02*
G75*
G03X131024564Y-85002478I-1029564J0D01*
G01*
X137499564Y-85002478D02*
G75*
G03X137499564Y-85002478I-1029564J0D01*
G01*
X165995000Y-79102480D02*
G75*
G03X165995000Y-79102480I-1100000J0D01*
G01*
X137499564Y-113002480D02*
G75*
G03X137499564Y-113002480I-1029564J0D01*
G01*
X131024564Y-113002480D02*
G75*
G03X131024564Y-113002480I-1029564J0D01*
G01*
X177000000Y-70000000D02*
X113000000Y-70000000D01*
X113000000Y-128000000D02*
X177000000Y-128000000D01*
X113000000Y-70000000D02*
X113000000Y-128000000D01*
D12*
X139946285Y-87506928D02*
X140303428Y-86506928D01*
X140660571Y-87506928D01*
X141517714Y-88006928D02*
X141660571Y-88006928D01*
X141803428Y-87935500D01*
X141874857Y-87864071D01*
X141946285Y-87721214D01*
X142017714Y-87435500D01*
X142017714Y-87078357D01*
X141946285Y-86792642D01*
X141874857Y-86649785D01*
X141803428Y-86578357D01*
X141660571Y-86506928D01*
X141517714Y-86506928D01*
X141374857Y-86578357D01*
X141303428Y-86649785D01*
X141232000Y-86792642D01*
X141160571Y-87078357D01*
X141160571Y-87435500D01*
X141232000Y-87721214D01*
X141303428Y-87864071D01*
X141374857Y-87935500D01*
X141517714Y-88006928D01*
X143446285Y-86506928D02*
X142589142Y-86506928D01*
X143017714Y-86506928D02*
X143017714Y-88006928D01*
X142874857Y-87792642D01*
X142732000Y-87649785D01*
X142589142Y-87578357D01*
D13*
X124764800Y-97691060D03*
D14*
X124764800Y-101546660D03*
D15*
X169717720Y-93723460D03*
X171208700Y-108191300D03*
X169402760Y-108186220D03*
D10*
G36*
X131877205Y-102042280D02*
G01*
X131903015Y-102046109D01*
X131928324Y-102052448D01*
X131952891Y-102061239D01*
X131976478Y-102072394D01*
X131998857Y-102085808D01*
X132019814Y-102101351D01*
X132039147Y-102118873D01*
X132056669Y-102138206D01*
X132072212Y-102159163D01*
X132085626Y-102181542D01*
X132096781Y-102205129D01*
X132105572Y-102229696D01*
X132111911Y-102255005D01*
X132115740Y-102280815D01*
X132117020Y-102306875D01*
X132117020Y-103476725D01*
X132115740Y-103502785D01*
X132111911Y-103528595D01*
X132105572Y-103553904D01*
X132096781Y-103578471D01*
X132085626Y-103602058D01*
X132072212Y-103624437D01*
X132056669Y-103645394D01*
X132039147Y-103664727D01*
X132019814Y-103682249D01*
X131998857Y-103697792D01*
X131976478Y-103711206D01*
X131952891Y-103722361D01*
X131928324Y-103731152D01*
X131903015Y-103737491D01*
X131877205Y-103741320D01*
X131851145Y-103742600D01*
X129281295Y-103742600D01*
X129255235Y-103741320D01*
X129229425Y-103737491D01*
X129204116Y-103731152D01*
X129179549Y-103722361D01*
X129155962Y-103711206D01*
X129133583Y-103697792D01*
X129112626Y-103682249D01*
X129093293Y-103664727D01*
X129075771Y-103645394D01*
X129060228Y-103624437D01*
X129046814Y-103602058D01*
X129035659Y-103578471D01*
X129026868Y-103553904D01*
X129020529Y-103528595D01*
X129016700Y-103502785D01*
X129015420Y-103476725D01*
X129015420Y-102306875D01*
X129016700Y-102280815D01*
X129020529Y-102255005D01*
X129026868Y-102229696D01*
X129035659Y-102205129D01*
X129046814Y-102181542D01*
X129060228Y-102159163D01*
X129075771Y-102138206D01*
X129093293Y-102118873D01*
X129112626Y-102101351D01*
X129133583Y-102085808D01*
X129155962Y-102072394D01*
X129179549Y-102061239D01*
X129204116Y-102052448D01*
X129229425Y-102046109D01*
X129255235Y-102042280D01*
X129281295Y-102041000D01*
X131851145Y-102041000D01*
X131877205Y-102042280D01*
X131877205Y-102042280D01*
G37*
D16*
X130566220Y-102891800D03*
D10*
G36*
X131877205Y-95242280D02*
G01*
X131903015Y-95246109D01*
X131928324Y-95252448D01*
X131952891Y-95261239D01*
X131976478Y-95272394D01*
X131998857Y-95285808D01*
X132019814Y-95301351D01*
X132039147Y-95318873D01*
X132056669Y-95338206D01*
X132072212Y-95359163D01*
X132085626Y-95381542D01*
X132096781Y-95405129D01*
X132105572Y-95429696D01*
X132111911Y-95455005D01*
X132115740Y-95480815D01*
X132117020Y-95506875D01*
X132117020Y-96676725D01*
X132115740Y-96702785D01*
X132111911Y-96728595D01*
X132105572Y-96753904D01*
X132096781Y-96778471D01*
X132085626Y-96802058D01*
X132072212Y-96824437D01*
X132056669Y-96845394D01*
X132039147Y-96864727D01*
X132019814Y-96882249D01*
X131998857Y-96897792D01*
X131976478Y-96911206D01*
X131952891Y-96922361D01*
X131928324Y-96931152D01*
X131903015Y-96937491D01*
X131877205Y-96941320D01*
X131851145Y-96942600D01*
X129281295Y-96942600D01*
X129255235Y-96941320D01*
X129229425Y-96937491D01*
X129204116Y-96931152D01*
X129179549Y-96922361D01*
X129155962Y-96911206D01*
X129133583Y-96897792D01*
X129112626Y-96882249D01*
X129093293Y-96864727D01*
X129075771Y-96845394D01*
X129060228Y-96824437D01*
X129046814Y-96802058D01*
X129035659Y-96778471D01*
X129026868Y-96753904D01*
X129020529Y-96728595D01*
X129016700Y-96702785D01*
X129015420Y-96676725D01*
X129015420Y-95506875D01*
X129016700Y-95480815D01*
X129020529Y-95455005D01*
X129026868Y-95429696D01*
X129035659Y-95405129D01*
X129046814Y-95381542D01*
X129060228Y-95359163D01*
X129075771Y-95338206D01*
X129093293Y-95318873D01*
X129112626Y-95301351D01*
X129133583Y-95285808D01*
X129155962Y-95272394D01*
X129179549Y-95261239D01*
X129204116Y-95252448D01*
X129229425Y-95246109D01*
X129255235Y-95242280D01*
X129281295Y-95241000D01*
X131851145Y-95241000D01*
X131877205Y-95242280D01*
X131877205Y-95242280D01*
G37*
D16*
X130566220Y-96091800D03*
D10*
G36*
X135368614Y-99942326D02*
G01*
X135395348Y-99946292D01*
X135421564Y-99952859D01*
X135447011Y-99961964D01*
X135471443Y-99973519D01*
X135494624Y-99987413D01*
X135516332Y-100003513D01*
X135536357Y-100021663D01*
X135554507Y-100041688D01*
X135570607Y-100063396D01*
X135584501Y-100086577D01*
X135596056Y-100111009D01*
X135605161Y-100136456D01*
X135611728Y-100162672D01*
X135615694Y-100189406D01*
X135617020Y-100216400D01*
X135617020Y-100767200D01*
X135615694Y-100794194D01*
X135611728Y-100820928D01*
X135605161Y-100847144D01*
X135596056Y-100872591D01*
X135584501Y-100897023D01*
X135570607Y-100920204D01*
X135554507Y-100941912D01*
X135536357Y-100961937D01*
X135516332Y-100980087D01*
X135494624Y-100996187D01*
X135471443Y-101010081D01*
X135447011Y-101021636D01*
X135421564Y-101030741D01*
X135395348Y-101037308D01*
X135368614Y-101041274D01*
X135341620Y-101042600D01*
X130290820Y-101042600D01*
X130263826Y-101041274D01*
X130237092Y-101037308D01*
X130210876Y-101030741D01*
X130185429Y-101021636D01*
X130160997Y-101010081D01*
X130137816Y-100996187D01*
X130116108Y-100980087D01*
X130096083Y-100961937D01*
X130077933Y-100941912D01*
X130061833Y-100920204D01*
X130047939Y-100897023D01*
X130036384Y-100872591D01*
X130027279Y-100847144D01*
X130020712Y-100820928D01*
X130016746Y-100794194D01*
X130015420Y-100767200D01*
X130015420Y-100216400D01*
X130016746Y-100189406D01*
X130020712Y-100162672D01*
X130027279Y-100136456D01*
X130036384Y-100111009D01*
X130047939Y-100086577D01*
X130061833Y-100063396D01*
X130077933Y-100041688D01*
X130096083Y-100021663D01*
X130116108Y-100003513D01*
X130137816Y-99987413D01*
X130160997Y-99973519D01*
X130185429Y-99961964D01*
X130210876Y-99952859D01*
X130237092Y-99946292D01*
X130263826Y-99942326D01*
X130290820Y-99941000D01*
X135341620Y-99941000D01*
X135368614Y-99942326D01*
X135368614Y-99942326D01*
G37*
D15*
X132816220Y-100491800D03*
D10*
G36*
X135368614Y-97942326D02*
G01*
X135395348Y-97946292D01*
X135421564Y-97952859D01*
X135447011Y-97961964D01*
X135471443Y-97973519D01*
X135494624Y-97987413D01*
X135516332Y-98003513D01*
X135536357Y-98021663D01*
X135554507Y-98041688D01*
X135570607Y-98063396D01*
X135584501Y-98086577D01*
X135596056Y-98111009D01*
X135605161Y-98136456D01*
X135611728Y-98162672D01*
X135615694Y-98189406D01*
X135617020Y-98216400D01*
X135617020Y-98767200D01*
X135615694Y-98794194D01*
X135611728Y-98820928D01*
X135605161Y-98847144D01*
X135596056Y-98872591D01*
X135584501Y-98897023D01*
X135570607Y-98920204D01*
X135554507Y-98941912D01*
X135536357Y-98961937D01*
X135516332Y-98980087D01*
X135494624Y-98996187D01*
X135471443Y-99010081D01*
X135447011Y-99021636D01*
X135421564Y-99030741D01*
X135395348Y-99037308D01*
X135368614Y-99041274D01*
X135341620Y-99042600D01*
X130290820Y-99042600D01*
X130263826Y-99041274D01*
X130237092Y-99037308D01*
X130210876Y-99030741D01*
X130185429Y-99021636D01*
X130160997Y-99010081D01*
X130137816Y-98996187D01*
X130116108Y-98980087D01*
X130096083Y-98961937D01*
X130077933Y-98941912D01*
X130061833Y-98920204D01*
X130047939Y-98897023D01*
X130036384Y-98872591D01*
X130027279Y-98847144D01*
X130020712Y-98820928D01*
X130016746Y-98794194D01*
X130015420Y-98767200D01*
X130015420Y-98216400D01*
X130016746Y-98189406D01*
X130020712Y-98162672D01*
X130027279Y-98136456D01*
X130036384Y-98111009D01*
X130047939Y-98086577D01*
X130061833Y-98063396D01*
X130077933Y-98041688D01*
X130096083Y-98021663D01*
X130116108Y-98003513D01*
X130137816Y-97987413D01*
X130160997Y-97973519D01*
X130185429Y-97961964D01*
X130210876Y-97952859D01*
X130237092Y-97946292D01*
X130263826Y-97942326D01*
X130290820Y-97941000D01*
X135341620Y-97941000D01*
X135368614Y-97942326D01*
X135368614Y-97942326D01*
G37*
D15*
X132816220Y-98491800D03*
D17*
X128135380Y-108803440D03*
X133215380Y-108803440D03*
X138295380Y-108803440D03*
X138343320Y-89201940D03*
X133243320Y-89201940D03*
X128143320Y-89201940D03*
D18*
X161973500Y-93281500D03*
D19*
X163873500Y-93281500D03*
D20*
X166968000Y-91631600D03*
X166968000Y-83831600D03*
D21*
X163068000Y-89981600D03*
X163068000Y-89481600D03*
X163068000Y-88981600D03*
X163068000Y-88481600D03*
X163068000Y-87981600D03*
X163068000Y-87481600D03*
X163068000Y-86981600D03*
X163068000Y-86481600D03*
X163068000Y-85981600D03*
X163068000Y-85481600D03*
D22*
X157224838Y-111060338D03*
D10*
G36*
X158039142Y-111060338D02*
G01*
X157224838Y-111874642D01*
X156410534Y-111060338D01*
X157224838Y-110246034D01*
X158039142Y-111060338D01*
X158039142Y-111060338D01*
G37*
D22*
X155103517Y-111024983D03*
D10*
G36*
X154679253Y-109786415D02*
G01*
X156342085Y-111449247D01*
X155527781Y-112263551D01*
X153864949Y-110600719D01*
X154679253Y-109786415D01*
X154679253Y-109786415D01*
G37*
D22*
X157189483Y-108939017D03*
D10*
G36*
X156765219Y-107700449D02*
G01*
X158428051Y-109363281D01*
X157613747Y-110177585D01*
X155950915Y-108514753D01*
X156765219Y-107700449D01*
X156765219Y-107700449D01*
G37*
G36*
X155741381Y-84209776D02*
G01*
X155765081Y-84213291D01*
X155788323Y-84219113D01*
X155810882Y-84227185D01*
X155832542Y-84237429D01*
X155853092Y-84249747D01*
X155872337Y-84264019D01*
X155890090Y-84280110D01*
X155906181Y-84297863D01*
X155920453Y-84317108D01*
X155932771Y-84337658D01*
X155943015Y-84359318D01*
X155951087Y-84381877D01*
X155956909Y-84405119D01*
X155960424Y-84428819D01*
X155961600Y-84452750D01*
X155961600Y-85016050D01*
X155960424Y-85039981D01*
X155956909Y-85063681D01*
X155951087Y-85086923D01*
X155943015Y-85109482D01*
X155932771Y-85131142D01*
X155920453Y-85151692D01*
X155906181Y-85170937D01*
X155890090Y-85188690D01*
X155872337Y-85204781D01*
X155853092Y-85219053D01*
X155832542Y-85231371D01*
X155810882Y-85241615D01*
X155788323Y-85249687D01*
X155765081Y-85255509D01*
X155741381Y-85259024D01*
X155717450Y-85260200D01*
X155229150Y-85260200D01*
X155205219Y-85259024D01*
X155181519Y-85255509D01*
X155158277Y-85249687D01*
X155135718Y-85241615D01*
X155114058Y-85231371D01*
X155093508Y-85219053D01*
X155074263Y-85204781D01*
X155056510Y-85188690D01*
X155040419Y-85170937D01*
X155026147Y-85151692D01*
X155013829Y-85131142D01*
X155003585Y-85109482D01*
X154995513Y-85086923D01*
X154989691Y-85063681D01*
X154986176Y-85039981D01*
X154985000Y-85016050D01*
X154985000Y-84452750D01*
X154986176Y-84428819D01*
X154989691Y-84405119D01*
X154995513Y-84381877D01*
X155003585Y-84359318D01*
X155013829Y-84337658D01*
X155026147Y-84317108D01*
X155040419Y-84297863D01*
X155056510Y-84280110D01*
X155074263Y-84264019D01*
X155093508Y-84249747D01*
X155114058Y-84237429D01*
X155135718Y-84227185D01*
X155158277Y-84219113D01*
X155181519Y-84213291D01*
X155205219Y-84209776D01*
X155229150Y-84208600D01*
X155717450Y-84208600D01*
X155741381Y-84209776D01*
X155741381Y-84209776D01*
G37*
D23*
X155473300Y-84734400D03*
D10*
G36*
X157316381Y-84209776D02*
G01*
X157340081Y-84213291D01*
X157363323Y-84219113D01*
X157385882Y-84227185D01*
X157407542Y-84237429D01*
X157428092Y-84249747D01*
X157447337Y-84264019D01*
X157465090Y-84280110D01*
X157481181Y-84297863D01*
X157495453Y-84317108D01*
X157507771Y-84337658D01*
X157518015Y-84359318D01*
X157526087Y-84381877D01*
X157531909Y-84405119D01*
X157535424Y-84428819D01*
X157536600Y-84452750D01*
X157536600Y-85016050D01*
X157535424Y-85039981D01*
X157531909Y-85063681D01*
X157526087Y-85086923D01*
X157518015Y-85109482D01*
X157507771Y-85131142D01*
X157495453Y-85151692D01*
X157481181Y-85170937D01*
X157465090Y-85188690D01*
X157447337Y-85204781D01*
X157428092Y-85219053D01*
X157407542Y-85231371D01*
X157385882Y-85241615D01*
X157363323Y-85249687D01*
X157340081Y-85255509D01*
X157316381Y-85259024D01*
X157292450Y-85260200D01*
X156804150Y-85260200D01*
X156780219Y-85259024D01*
X156756519Y-85255509D01*
X156733277Y-85249687D01*
X156710718Y-85241615D01*
X156689058Y-85231371D01*
X156668508Y-85219053D01*
X156649263Y-85204781D01*
X156631510Y-85188690D01*
X156615419Y-85170937D01*
X156601147Y-85151692D01*
X156588829Y-85131142D01*
X156578585Y-85109482D01*
X156570513Y-85086923D01*
X156564691Y-85063681D01*
X156561176Y-85039981D01*
X156560000Y-85016050D01*
X156560000Y-84452750D01*
X156561176Y-84428819D01*
X156564691Y-84405119D01*
X156570513Y-84381877D01*
X156578585Y-84359318D01*
X156588829Y-84337658D01*
X156601147Y-84317108D01*
X156615419Y-84297863D01*
X156631510Y-84280110D01*
X156649263Y-84264019D01*
X156668508Y-84249747D01*
X156689058Y-84237429D01*
X156710718Y-84227185D01*
X156733277Y-84219113D01*
X156756519Y-84213291D01*
X156780219Y-84209776D01*
X156804150Y-84208600D01*
X157292450Y-84208600D01*
X157316381Y-84209776D01*
X157316381Y-84209776D01*
G37*
D23*
X157048300Y-84734400D03*
D10*
G36*
X161731691Y-100830693D02*
G01*
X161748475Y-100833182D01*
X161764934Y-100837305D01*
X161780910Y-100843021D01*
X161796248Y-100850276D01*
X161810802Y-100858999D01*
X161824431Y-100869106D01*
X161837003Y-100880501D01*
X161848398Y-100893073D01*
X161858505Y-100906702D01*
X161867228Y-100921256D01*
X161874483Y-100936594D01*
X161880199Y-100952570D01*
X161884322Y-100969029D01*
X161886811Y-100985813D01*
X161887644Y-101002760D01*
X161887644Y-101348560D01*
X161886811Y-101365507D01*
X161884322Y-101382291D01*
X161880199Y-101398750D01*
X161874483Y-101414726D01*
X161867228Y-101430064D01*
X161858505Y-101444618D01*
X161848398Y-101458247D01*
X161837003Y-101470819D01*
X161824431Y-101482214D01*
X161810802Y-101492321D01*
X161796248Y-101501044D01*
X161780910Y-101508299D01*
X161764934Y-101514015D01*
X161748475Y-101518138D01*
X161731691Y-101520627D01*
X161714744Y-101521460D01*
X161318944Y-101521460D01*
X161301997Y-101520627D01*
X161285213Y-101518138D01*
X161268754Y-101514015D01*
X161252778Y-101508299D01*
X161237440Y-101501044D01*
X161222886Y-101492321D01*
X161209257Y-101482214D01*
X161196685Y-101470819D01*
X161185290Y-101458247D01*
X161175183Y-101444618D01*
X161166460Y-101430064D01*
X161159205Y-101414726D01*
X161153489Y-101398750D01*
X161149366Y-101382291D01*
X161146877Y-101365507D01*
X161146044Y-101348560D01*
X161146044Y-101002760D01*
X161146877Y-100985813D01*
X161149366Y-100969029D01*
X161153489Y-100952570D01*
X161159205Y-100936594D01*
X161166460Y-100921256D01*
X161175183Y-100906702D01*
X161185290Y-100893073D01*
X161196685Y-100880501D01*
X161209257Y-100869106D01*
X161222886Y-100858999D01*
X161237440Y-100850276D01*
X161252778Y-100843021D01*
X161268754Y-100837305D01*
X161285213Y-100833182D01*
X161301997Y-100830693D01*
X161318944Y-100829860D01*
X161714744Y-100829860D01*
X161731691Y-100830693D01*
X161731691Y-100830693D01*
G37*
D24*
X161516844Y-101175660D03*
D10*
G36*
X161731691Y-99860693D02*
G01*
X161748475Y-99863182D01*
X161764934Y-99867305D01*
X161780910Y-99873021D01*
X161796248Y-99880276D01*
X161810802Y-99888999D01*
X161824431Y-99899106D01*
X161837003Y-99910501D01*
X161848398Y-99923073D01*
X161858505Y-99936702D01*
X161867228Y-99951256D01*
X161874483Y-99966594D01*
X161880199Y-99982570D01*
X161884322Y-99999029D01*
X161886811Y-100015813D01*
X161887644Y-100032760D01*
X161887644Y-100378560D01*
X161886811Y-100395507D01*
X161884322Y-100412291D01*
X161880199Y-100428750D01*
X161874483Y-100444726D01*
X161867228Y-100460064D01*
X161858505Y-100474618D01*
X161848398Y-100488247D01*
X161837003Y-100500819D01*
X161824431Y-100512214D01*
X161810802Y-100522321D01*
X161796248Y-100531044D01*
X161780910Y-100538299D01*
X161764934Y-100544015D01*
X161748475Y-100548138D01*
X161731691Y-100550627D01*
X161714744Y-100551460D01*
X161318944Y-100551460D01*
X161301997Y-100550627D01*
X161285213Y-100548138D01*
X161268754Y-100544015D01*
X161252778Y-100538299D01*
X161237440Y-100531044D01*
X161222886Y-100522321D01*
X161209257Y-100512214D01*
X161196685Y-100500819D01*
X161185290Y-100488247D01*
X161175183Y-100474618D01*
X161166460Y-100460064D01*
X161159205Y-100444726D01*
X161153489Y-100428750D01*
X161149366Y-100412291D01*
X161146877Y-100395507D01*
X161146044Y-100378560D01*
X161146044Y-100032760D01*
X161146877Y-100015813D01*
X161149366Y-99999029D01*
X161153489Y-99982570D01*
X161159205Y-99966594D01*
X161166460Y-99951256D01*
X161175183Y-99936702D01*
X161185290Y-99923073D01*
X161196685Y-99910501D01*
X161209257Y-99899106D01*
X161222886Y-99888999D01*
X161237440Y-99880276D01*
X161252778Y-99873021D01*
X161268754Y-99867305D01*
X161285213Y-99863182D01*
X161301997Y-99860693D01*
X161318944Y-99859860D01*
X161714744Y-99859860D01*
X161731691Y-99860693D01*
X161731691Y-99860693D01*
G37*
D24*
X161516844Y-100205660D03*
D25*
X167449500Y-94996000D03*
X168749500Y-94996000D03*
D26*
X168120844Y-100670660D03*
D27*
X166420844Y-99670660D03*
X166420844Y-100170660D03*
X166420844Y-100670660D03*
X166420844Y-101170660D03*
X166420844Y-101670660D03*
D28*
X167120844Y-102370660D03*
X167620844Y-102370660D03*
X168120844Y-102370660D03*
X168620844Y-102370660D03*
X169120844Y-102370660D03*
D27*
X169820844Y-101670660D03*
X169820844Y-101170660D03*
X169820844Y-100670660D03*
X169820844Y-100170660D03*
X169820844Y-99670660D03*
D28*
X169120844Y-98970660D03*
X168620844Y-98970660D03*
X168120844Y-98970660D03*
X167620844Y-98970660D03*
X167120844Y-98970660D03*
D19*
X162516500Y-107886500D03*
D18*
X164416500Y-107886500D03*
D10*
G36*
X172045847Y-97422033D02*
G01*
X172062631Y-97424522D01*
X172079090Y-97428645D01*
X172095066Y-97434361D01*
X172110404Y-97441616D01*
X172124958Y-97450339D01*
X172138587Y-97460446D01*
X172151159Y-97471841D01*
X172162554Y-97484413D01*
X172172661Y-97498042D01*
X172181384Y-97512596D01*
X172188639Y-97527934D01*
X172194355Y-97543910D01*
X172198478Y-97560369D01*
X172200967Y-97577153D01*
X172201800Y-97594100D01*
X172201800Y-97939900D01*
X172200967Y-97956847D01*
X172198478Y-97973631D01*
X172194355Y-97990090D01*
X172188639Y-98006066D01*
X172181384Y-98021404D01*
X172172661Y-98035958D01*
X172162554Y-98049587D01*
X172151159Y-98062159D01*
X172138587Y-98073554D01*
X172124958Y-98083661D01*
X172110404Y-98092384D01*
X172095066Y-98099639D01*
X172079090Y-98105355D01*
X172062631Y-98109478D01*
X172045847Y-98111967D01*
X172028900Y-98112800D01*
X171633100Y-98112800D01*
X171616153Y-98111967D01*
X171599369Y-98109478D01*
X171582910Y-98105355D01*
X171566934Y-98099639D01*
X171551596Y-98092384D01*
X171537042Y-98083661D01*
X171523413Y-98073554D01*
X171510841Y-98062159D01*
X171499446Y-98049587D01*
X171489339Y-98035958D01*
X171480616Y-98021404D01*
X171473361Y-98006066D01*
X171467645Y-97990090D01*
X171463522Y-97973631D01*
X171461033Y-97956847D01*
X171460200Y-97939900D01*
X171460200Y-97594100D01*
X171461033Y-97577153D01*
X171463522Y-97560369D01*
X171467645Y-97543910D01*
X171473361Y-97527934D01*
X171480616Y-97512596D01*
X171489339Y-97498042D01*
X171499446Y-97484413D01*
X171510841Y-97471841D01*
X171523413Y-97460446D01*
X171537042Y-97450339D01*
X171551596Y-97441616D01*
X171566934Y-97434361D01*
X171582910Y-97428645D01*
X171599369Y-97424522D01*
X171616153Y-97422033D01*
X171633100Y-97421200D01*
X172028900Y-97421200D01*
X172045847Y-97422033D01*
X172045847Y-97422033D01*
G37*
D24*
X171831000Y-97767000D03*
D10*
G36*
X172045847Y-96452033D02*
G01*
X172062631Y-96454522D01*
X172079090Y-96458645D01*
X172095066Y-96464361D01*
X172110404Y-96471616D01*
X172124958Y-96480339D01*
X172138587Y-96490446D01*
X172151159Y-96501841D01*
X172162554Y-96514413D01*
X172172661Y-96528042D01*
X172181384Y-96542596D01*
X172188639Y-96557934D01*
X172194355Y-96573910D01*
X172198478Y-96590369D01*
X172200967Y-96607153D01*
X172201800Y-96624100D01*
X172201800Y-96969900D01*
X172200967Y-96986847D01*
X172198478Y-97003631D01*
X172194355Y-97020090D01*
X172188639Y-97036066D01*
X172181384Y-97051404D01*
X172172661Y-97065958D01*
X172162554Y-97079587D01*
X172151159Y-97092159D01*
X172138587Y-97103554D01*
X172124958Y-97113661D01*
X172110404Y-97122384D01*
X172095066Y-97129639D01*
X172079090Y-97135355D01*
X172062631Y-97139478D01*
X172045847Y-97141967D01*
X172028900Y-97142800D01*
X171633100Y-97142800D01*
X171616153Y-97141967D01*
X171599369Y-97139478D01*
X171582910Y-97135355D01*
X171566934Y-97129639D01*
X171551596Y-97122384D01*
X171537042Y-97113661D01*
X171523413Y-97103554D01*
X171510841Y-97092159D01*
X171499446Y-97079587D01*
X171489339Y-97065958D01*
X171480616Y-97051404D01*
X171473361Y-97036066D01*
X171467645Y-97020090D01*
X171463522Y-97003631D01*
X171461033Y-96986847D01*
X171460200Y-96969900D01*
X171460200Y-96624100D01*
X171461033Y-96607153D01*
X171463522Y-96590369D01*
X171467645Y-96573910D01*
X171473361Y-96557934D01*
X171480616Y-96542596D01*
X171489339Y-96528042D01*
X171499446Y-96514413D01*
X171510841Y-96501841D01*
X171523413Y-96490446D01*
X171537042Y-96480339D01*
X171551596Y-96471616D01*
X171566934Y-96464361D01*
X171582910Y-96458645D01*
X171599369Y-96454522D01*
X171616153Y-96452033D01*
X171633100Y-96451200D01*
X172028900Y-96451200D01*
X172045847Y-96452033D01*
X172045847Y-96452033D01*
G37*
D24*
X171831000Y-96797000D03*
D10*
G36*
X172950347Y-98690033D02*
G01*
X172967131Y-98692522D01*
X172983590Y-98696645D01*
X172999566Y-98702361D01*
X173014904Y-98709616D01*
X173029458Y-98718339D01*
X173043087Y-98728446D01*
X173055659Y-98739841D01*
X173067054Y-98752413D01*
X173077161Y-98766042D01*
X173085884Y-98780596D01*
X173093139Y-98795934D01*
X173098855Y-98811910D01*
X173102978Y-98828369D01*
X173105467Y-98845153D01*
X173106300Y-98862100D01*
X173106300Y-99257900D01*
X173105467Y-99274847D01*
X173102978Y-99291631D01*
X173098855Y-99308090D01*
X173093139Y-99324066D01*
X173085884Y-99339404D01*
X173077161Y-99353958D01*
X173067054Y-99367587D01*
X173055659Y-99380159D01*
X173043087Y-99391554D01*
X173029458Y-99401661D01*
X173014904Y-99410384D01*
X172999566Y-99417639D01*
X172983590Y-99423355D01*
X172967131Y-99427478D01*
X172950347Y-99429967D01*
X172933400Y-99430800D01*
X172587600Y-99430800D01*
X172570653Y-99429967D01*
X172553869Y-99427478D01*
X172537410Y-99423355D01*
X172521434Y-99417639D01*
X172506096Y-99410384D01*
X172491542Y-99401661D01*
X172477913Y-99391554D01*
X172465341Y-99380159D01*
X172453946Y-99367587D01*
X172443839Y-99353958D01*
X172435116Y-99339404D01*
X172427861Y-99324066D01*
X172422145Y-99308090D01*
X172418022Y-99291631D01*
X172415533Y-99274847D01*
X172414700Y-99257900D01*
X172414700Y-98862100D01*
X172415533Y-98845153D01*
X172418022Y-98828369D01*
X172422145Y-98811910D01*
X172427861Y-98795934D01*
X172435116Y-98780596D01*
X172443839Y-98766042D01*
X172453946Y-98752413D01*
X172465341Y-98739841D01*
X172477913Y-98728446D01*
X172491542Y-98718339D01*
X172506096Y-98709616D01*
X172521434Y-98702361D01*
X172537410Y-98696645D01*
X172553869Y-98692522D01*
X172570653Y-98690033D01*
X172587600Y-98689200D01*
X172933400Y-98689200D01*
X172950347Y-98690033D01*
X172950347Y-98690033D01*
G37*
D24*
X172760500Y-99060000D03*
D10*
G36*
X171980347Y-98690033D02*
G01*
X171997131Y-98692522D01*
X172013590Y-98696645D01*
X172029566Y-98702361D01*
X172044904Y-98709616D01*
X172059458Y-98718339D01*
X172073087Y-98728446D01*
X172085659Y-98739841D01*
X172097054Y-98752413D01*
X172107161Y-98766042D01*
X172115884Y-98780596D01*
X172123139Y-98795934D01*
X172128855Y-98811910D01*
X172132978Y-98828369D01*
X172135467Y-98845153D01*
X172136300Y-98862100D01*
X172136300Y-99257900D01*
X172135467Y-99274847D01*
X172132978Y-99291631D01*
X172128855Y-99308090D01*
X172123139Y-99324066D01*
X172115884Y-99339404D01*
X172107161Y-99353958D01*
X172097054Y-99367587D01*
X172085659Y-99380159D01*
X172073087Y-99391554D01*
X172059458Y-99401661D01*
X172044904Y-99410384D01*
X172029566Y-99417639D01*
X172013590Y-99423355D01*
X171997131Y-99427478D01*
X171980347Y-99429967D01*
X171963400Y-99430800D01*
X171617600Y-99430800D01*
X171600653Y-99429967D01*
X171583869Y-99427478D01*
X171567410Y-99423355D01*
X171551434Y-99417639D01*
X171536096Y-99410384D01*
X171521542Y-99401661D01*
X171507913Y-99391554D01*
X171495341Y-99380159D01*
X171483946Y-99367587D01*
X171473839Y-99353958D01*
X171465116Y-99339404D01*
X171457861Y-99324066D01*
X171452145Y-99308090D01*
X171448022Y-99291631D01*
X171445533Y-99274847D01*
X171444700Y-99257900D01*
X171444700Y-98862100D01*
X171445533Y-98845153D01*
X171448022Y-98828369D01*
X171452145Y-98811910D01*
X171457861Y-98795934D01*
X171465116Y-98780596D01*
X171473839Y-98766042D01*
X171483946Y-98752413D01*
X171495341Y-98739841D01*
X171507913Y-98728446D01*
X171521542Y-98718339D01*
X171536096Y-98709616D01*
X171551434Y-98702361D01*
X171567410Y-98696645D01*
X171583869Y-98692522D01*
X171600653Y-98690033D01*
X171617600Y-98689200D01*
X171963400Y-98689200D01*
X171980347Y-98690033D01*
X171980347Y-98690033D01*
G37*
D24*
X171790500Y-99060000D03*
D10*
G36*
X160171347Y-96960033D02*
G01*
X160188131Y-96962522D01*
X160204590Y-96966645D01*
X160220566Y-96972361D01*
X160235904Y-96979616D01*
X160250458Y-96988339D01*
X160264087Y-96998446D01*
X160276659Y-97009841D01*
X160288054Y-97022413D01*
X160298161Y-97036042D01*
X160306884Y-97050596D01*
X160314139Y-97065934D01*
X160319855Y-97081910D01*
X160323978Y-97098369D01*
X160326467Y-97115153D01*
X160327300Y-97132100D01*
X160327300Y-97477900D01*
X160326467Y-97494847D01*
X160323978Y-97511631D01*
X160319855Y-97528090D01*
X160314139Y-97544066D01*
X160306884Y-97559404D01*
X160298161Y-97573958D01*
X160288054Y-97587587D01*
X160276659Y-97600159D01*
X160264087Y-97611554D01*
X160250458Y-97621661D01*
X160235904Y-97630384D01*
X160220566Y-97637639D01*
X160204590Y-97643355D01*
X160188131Y-97647478D01*
X160171347Y-97649967D01*
X160154400Y-97650800D01*
X159758600Y-97650800D01*
X159741653Y-97649967D01*
X159724869Y-97647478D01*
X159708410Y-97643355D01*
X159692434Y-97637639D01*
X159677096Y-97630384D01*
X159662542Y-97621661D01*
X159648913Y-97611554D01*
X159636341Y-97600159D01*
X159624946Y-97587587D01*
X159614839Y-97573958D01*
X159606116Y-97559404D01*
X159598861Y-97544066D01*
X159593145Y-97528090D01*
X159589022Y-97511631D01*
X159586533Y-97494847D01*
X159585700Y-97477900D01*
X159585700Y-97132100D01*
X159586533Y-97115153D01*
X159589022Y-97098369D01*
X159593145Y-97081910D01*
X159598861Y-97065934D01*
X159606116Y-97050596D01*
X159614839Y-97036042D01*
X159624946Y-97022413D01*
X159636341Y-97009841D01*
X159648913Y-96998446D01*
X159662542Y-96988339D01*
X159677096Y-96979616D01*
X159692434Y-96972361D01*
X159708410Y-96966645D01*
X159724869Y-96962522D01*
X159741653Y-96960033D01*
X159758600Y-96959200D01*
X160154400Y-96959200D01*
X160171347Y-96960033D01*
X160171347Y-96960033D01*
G37*
D24*
X159956500Y-97305000D03*
D10*
G36*
X160171347Y-97930033D02*
G01*
X160188131Y-97932522D01*
X160204590Y-97936645D01*
X160220566Y-97942361D01*
X160235904Y-97949616D01*
X160250458Y-97958339D01*
X160264087Y-97968446D01*
X160276659Y-97979841D01*
X160288054Y-97992413D01*
X160298161Y-98006042D01*
X160306884Y-98020596D01*
X160314139Y-98035934D01*
X160319855Y-98051910D01*
X160323978Y-98068369D01*
X160326467Y-98085153D01*
X160327300Y-98102100D01*
X160327300Y-98447900D01*
X160326467Y-98464847D01*
X160323978Y-98481631D01*
X160319855Y-98498090D01*
X160314139Y-98514066D01*
X160306884Y-98529404D01*
X160298161Y-98543958D01*
X160288054Y-98557587D01*
X160276659Y-98570159D01*
X160264087Y-98581554D01*
X160250458Y-98591661D01*
X160235904Y-98600384D01*
X160220566Y-98607639D01*
X160204590Y-98613355D01*
X160188131Y-98617478D01*
X160171347Y-98619967D01*
X160154400Y-98620800D01*
X159758600Y-98620800D01*
X159741653Y-98619967D01*
X159724869Y-98617478D01*
X159708410Y-98613355D01*
X159692434Y-98607639D01*
X159677096Y-98600384D01*
X159662542Y-98591661D01*
X159648913Y-98581554D01*
X159636341Y-98570159D01*
X159624946Y-98557587D01*
X159614839Y-98543958D01*
X159606116Y-98529404D01*
X159598861Y-98514066D01*
X159593145Y-98498090D01*
X159589022Y-98481631D01*
X159586533Y-98464847D01*
X159585700Y-98447900D01*
X159585700Y-98102100D01*
X159586533Y-98085153D01*
X159589022Y-98068369D01*
X159593145Y-98051910D01*
X159598861Y-98035934D01*
X159606116Y-98020596D01*
X159614839Y-98006042D01*
X159624946Y-97992413D01*
X159636341Y-97979841D01*
X159648913Y-97968446D01*
X159662542Y-97958339D01*
X159677096Y-97949616D01*
X159692434Y-97942361D01*
X159708410Y-97936645D01*
X159724869Y-97932522D01*
X159741653Y-97930033D01*
X159758600Y-97929200D01*
X160154400Y-97929200D01*
X160171347Y-97930033D01*
X160171347Y-97930033D01*
G37*
D24*
X159956500Y-98275000D03*
D10*
G36*
X163663847Y-100830693D02*
G01*
X163680631Y-100833182D01*
X163697090Y-100837305D01*
X163713066Y-100843021D01*
X163728404Y-100850276D01*
X163742958Y-100858999D01*
X163756587Y-100869106D01*
X163769159Y-100880501D01*
X163780554Y-100893073D01*
X163790661Y-100906702D01*
X163799384Y-100921256D01*
X163806639Y-100936594D01*
X163812355Y-100952570D01*
X163816478Y-100969029D01*
X163818967Y-100985813D01*
X163819800Y-101002760D01*
X163819800Y-101348560D01*
X163818967Y-101365507D01*
X163816478Y-101382291D01*
X163812355Y-101398750D01*
X163806639Y-101414726D01*
X163799384Y-101430064D01*
X163790661Y-101444618D01*
X163780554Y-101458247D01*
X163769159Y-101470819D01*
X163756587Y-101482214D01*
X163742958Y-101492321D01*
X163728404Y-101501044D01*
X163713066Y-101508299D01*
X163697090Y-101514015D01*
X163680631Y-101518138D01*
X163663847Y-101520627D01*
X163646900Y-101521460D01*
X163251100Y-101521460D01*
X163234153Y-101520627D01*
X163217369Y-101518138D01*
X163200910Y-101514015D01*
X163184934Y-101508299D01*
X163169596Y-101501044D01*
X163155042Y-101492321D01*
X163141413Y-101482214D01*
X163128841Y-101470819D01*
X163117446Y-101458247D01*
X163107339Y-101444618D01*
X163098616Y-101430064D01*
X163091361Y-101414726D01*
X163085645Y-101398750D01*
X163081522Y-101382291D01*
X163079033Y-101365507D01*
X163078200Y-101348560D01*
X163078200Y-101002760D01*
X163079033Y-100985813D01*
X163081522Y-100969029D01*
X163085645Y-100952570D01*
X163091361Y-100936594D01*
X163098616Y-100921256D01*
X163107339Y-100906702D01*
X163117446Y-100893073D01*
X163128841Y-100880501D01*
X163141413Y-100869106D01*
X163155042Y-100858999D01*
X163169596Y-100850276D01*
X163184934Y-100843021D01*
X163200910Y-100837305D01*
X163217369Y-100833182D01*
X163234153Y-100830693D01*
X163251100Y-100829860D01*
X163646900Y-100829860D01*
X163663847Y-100830693D01*
X163663847Y-100830693D01*
G37*
D24*
X163449000Y-101175660D03*
D10*
G36*
X163663847Y-99860693D02*
G01*
X163680631Y-99863182D01*
X163697090Y-99867305D01*
X163713066Y-99873021D01*
X163728404Y-99880276D01*
X163742958Y-99888999D01*
X163756587Y-99899106D01*
X163769159Y-99910501D01*
X163780554Y-99923073D01*
X163790661Y-99936702D01*
X163799384Y-99951256D01*
X163806639Y-99966594D01*
X163812355Y-99982570D01*
X163816478Y-99999029D01*
X163818967Y-100015813D01*
X163819800Y-100032760D01*
X163819800Y-100378560D01*
X163818967Y-100395507D01*
X163816478Y-100412291D01*
X163812355Y-100428750D01*
X163806639Y-100444726D01*
X163799384Y-100460064D01*
X163790661Y-100474618D01*
X163780554Y-100488247D01*
X163769159Y-100500819D01*
X163756587Y-100512214D01*
X163742958Y-100522321D01*
X163728404Y-100531044D01*
X163713066Y-100538299D01*
X163697090Y-100544015D01*
X163680631Y-100548138D01*
X163663847Y-100550627D01*
X163646900Y-100551460D01*
X163251100Y-100551460D01*
X163234153Y-100550627D01*
X163217369Y-100548138D01*
X163200910Y-100544015D01*
X163184934Y-100538299D01*
X163169596Y-100531044D01*
X163155042Y-100522321D01*
X163141413Y-100512214D01*
X163128841Y-100500819D01*
X163117446Y-100488247D01*
X163107339Y-100474618D01*
X163098616Y-100460064D01*
X163091361Y-100444726D01*
X163085645Y-100428750D01*
X163081522Y-100412291D01*
X163079033Y-100395507D01*
X163078200Y-100378560D01*
X163078200Y-100032760D01*
X163079033Y-100015813D01*
X163081522Y-99999029D01*
X163085645Y-99982570D01*
X163091361Y-99966594D01*
X163098616Y-99951256D01*
X163107339Y-99936702D01*
X163117446Y-99923073D01*
X163128841Y-99910501D01*
X163141413Y-99899106D01*
X163155042Y-99888999D01*
X163169596Y-99880276D01*
X163184934Y-99873021D01*
X163200910Y-99867305D01*
X163217369Y-99863182D01*
X163234153Y-99860693D01*
X163251100Y-99859860D01*
X163646900Y-99859860D01*
X163663847Y-99860693D01*
X163663847Y-99860693D01*
G37*
D24*
X163449000Y-100205660D03*
D10*
G36*
X171980347Y-99960033D02*
G01*
X171997131Y-99962522D01*
X172013590Y-99966645D01*
X172029566Y-99972361D01*
X172044904Y-99979616D01*
X172059458Y-99988339D01*
X172073087Y-99998446D01*
X172085659Y-100009841D01*
X172097054Y-100022413D01*
X172107161Y-100036042D01*
X172115884Y-100050596D01*
X172123139Y-100065934D01*
X172128855Y-100081910D01*
X172132978Y-100098369D01*
X172135467Y-100115153D01*
X172136300Y-100132100D01*
X172136300Y-100527900D01*
X172135467Y-100544847D01*
X172132978Y-100561631D01*
X172128855Y-100578090D01*
X172123139Y-100594066D01*
X172115884Y-100609404D01*
X172107161Y-100623958D01*
X172097054Y-100637587D01*
X172085659Y-100650159D01*
X172073087Y-100661554D01*
X172059458Y-100671661D01*
X172044904Y-100680384D01*
X172029566Y-100687639D01*
X172013590Y-100693355D01*
X171997131Y-100697478D01*
X171980347Y-100699967D01*
X171963400Y-100700800D01*
X171617600Y-100700800D01*
X171600653Y-100699967D01*
X171583869Y-100697478D01*
X171567410Y-100693355D01*
X171551434Y-100687639D01*
X171536096Y-100680384D01*
X171521542Y-100671661D01*
X171507913Y-100661554D01*
X171495341Y-100650159D01*
X171483946Y-100637587D01*
X171473839Y-100623958D01*
X171465116Y-100609404D01*
X171457861Y-100594066D01*
X171452145Y-100578090D01*
X171448022Y-100561631D01*
X171445533Y-100544847D01*
X171444700Y-100527900D01*
X171444700Y-100132100D01*
X171445533Y-100115153D01*
X171448022Y-100098369D01*
X171452145Y-100081910D01*
X171457861Y-100065934D01*
X171465116Y-100050596D01*
X171473839Y-100036042D01*
X171483946Y-100022413D01*
X171495341Y-100009841D01*
X171507913Y-99998446D01*
X171521542Y-99988339D01*
X171536096Y-99979616D01*
X171551434Y-99972361D01*
X171567410Y-99966645D01*
X171583869Y-99962522D01*
X171600653Y-99960033D01*
X171617600Y-99959200D01*
X171963400Y-99959200D01*
X171980347Y-99960033D01*
X171980347Y-99960033D01*
G37*
D24*
X171790500Y-100330000D03*
D10*
G36*
X172950347Y-99960033D02*
G01*
X172967131Y-99962522D01*
X172983590Y-99966645D01*
X172999566Y-99972361D01*
X173014904Y-99979616D01*
X173029458Y-99988339D01*
X173043087Y-99998446D01*
X173055659Y-100009841D01*
X173067054Y-100022413D01*
X173077161Y-100036042D01*
X173085884Y-100050596D01*
X173093139Y-100065934D01*
X173098855Y-100081910D01*
X173102978Y-100098369D01*
X173105467Y-100115153D01*
X173106300Y-100132100D01*
X173106300Y-100527900D01*
X173105467Y-100544847D01*
X173102978Y-100561631D01*
X173098855Y-100578090D01*
X173093139Y-100594066D01*
X173085884Y-100609404D01*
X173077161Y-100623958D01*
X173067054Y-100637587D01*
X173055659Y-100650159D01*
X173043087Y-100661554D01*
X173029458Y-100671661D01*
X173014904Y-100680384D01*
X172999566Y-100687639D01*
X172983590Y-100693355D01*
X172967131Y-100697478D01*
X172950347Y-100699967D01*
X172933400Y-100700800D01*
X172587600Y-100700800D01*
X172570653Y-100699967D01*
X172553869Y-100697478D01*
X172537410Y-100693355D01*
X172521434Y-100687639D01*
X172506096Y-100680384D01*
X172491542Y-100671661D01*
X172477913Y-100661554D01*
X172465341Y-100650159D01*
X172453946Y-100637587D01*
X172443839Y-100623958D01*
X172435116Y-100609404D01*
X172427861Y-100594066D01*
X172422145Y-100578090D01*
X172418022Y-100561631D01*
X172415533Y-100544847D01*
X172414700Y-100527900D01*
X172414700Y-100132100D01*
X172415533Y-100115153D01*
X172418022Y-100098369D01*
X172422145Y-100081910D01*
X172427861Y-100065934D01*
X172435116Y-100050596D01*
X172443839Y-100036042D01*
X172453946Y-100022413D01*
X172465341Y-100009841D01*
X172477913Y-99998446D01*
X172491542Y-99988339D01*
X172506096Y-99979616D01*
X172521434Y-99972361D01*
X172537410Y-99966645D01*
X172553869Y-99962522D01*
X172570653Y-99960033D01*
X172587600Y-99959200D01*
X172933400Y-99959200D01*
X172950347Y-99960033D01*
X172950347Y-99960033D01*
G37*
D24*
X172760500Y-100330000D03*
D10*
G36*
X169505847Y-103373533D02*
G01*
X169522631Y-103376022D01*
X169539090Y-103380145D01*
X169555066Y-103385861D01*
X169570404Y-103393116D01*
X169584958Y-103401839D01*
X169598587Y-103411946D01*
X169611159Y-103423341D01*
X169622554Y-103435913D01*
X169632661Y-103449542D01*
X169641384Y-103464096D01*
X169648639Y-103479434D01*
X169654355Y-103495410D01*
X169658478Y-103511869D01*
X169660967Y-103528653D01*
X169661800Y-103545600D01*
X169661800Y-103891400D01*
X169660967Y-103908347D01*
X169658478Y-103925131D01*
X169654355Y-103941590D01*
X169648639Y-103957566D01*
X169641384Y-103972904D01*
X169632661Y-103987458D01*
X169622554Y-104001087D01*
X169611159Y-104013659D01*
X169598587Y-104025054D01*
X169584958Y-104035161D01*
X169570404Y-104043884D01*
X169555066Y-104051139D01*
X169539090Y-104056855D01*
X169522631Y-104060978D01*
X169505847Y-104063467D01*
X169488900Y-104064300D01*
X169093100Y-104064300D01*
X169076153Y-104063467D01*
X169059369Y-104060978D01*
X169042910Y-104056855D01*
X169026934Y-104051139D01*
X169011596Y-104043884D01*
X168997042Y-104035161D01*
X168983413Y-104025054D01*
X168970841Y-104013659D01*
X168959446Y-104001087D01*
X168949339Y-103987458D01*
X168940616Y-103972904D01*
X168933361Y-103957566D01*
X168927645Y-103941590D01*
X168923522Y-103925131D01*
X168921033Y-103908347D01*
X168920200Y-103891400D01*
X168920200Y-103545600D01*
X168921033Y-103528653D01*
X168923522Y-103511869D01*
X168927645Y-103495410D01*
X168933361Y-103479434D01*
X168940616Y-103464096D01*
X168949339Y-103449542D01*
X168959446Y-103435913D01*
X168970841Y-103423341D01*
X168983413Y-103411946D01*
X168997042Y-103401839D01*
X169011596Y-103393116D01*
X169026934Y-103385861D01*
X169042910Y-103380145D01*
X169059369Y-103376022D01*
X169076153Y-103373533D01*
X169093100Y-103372700D01*
X169488900Y-103372700D01*
X169505847Y-103373533D01*
X169505847Y-103373533D01*
G37*
D24*
X169291000Y-103718500D03*
D10*
G36*
X169505847Y-104343533D02*
G01*
X169522631Y-104346022D01*
X169539090Y-104350145D01*
X169555066Y-104355861D01*
X169570404Y-104363116D01*
X169584958Y-104371839D01*
X169598587Y-104381946D01*
X169611159Y-104393341D01*
X169622554Y-104405913D01*
X169632661Y-104419542D01*
X169641384Y-104434096D01*
X169648639Y-104449434D01*
X169654355Y-104465410D01*
X169658478Y-104481869D01*
X169660967Y-104498653D01*
X169661800Y-104515600D01*
X169661800Y-104861400D01*
X169660967Y-104878347D01*
X169658478Y-104895131D01*
X169654355Y-104911590D01*
X169648639Y-104927566D01*
X169641384Y-104942904D01*
X169632661Y-104957458D01*
X169622554Y-104971087D01*
X169611159Y-104983659D01*
X169598587Y-104995054D01*
X169584958Y-105005161D01*
X169570404Y-105013884D01*
X169555066Y-105021139D01*
X169539090Y-105026855D01*
X169522631Y-105030978D01*
X169505847Y-105033467D01*
X169488900Y-105034300D01*
X169093100Y-105034300D01*
X169076153Y-105033467D01*
X169059369Y-105030978D01*
X169042910Y-105026855D01*
X169026934Y-105021139D01*
X169011596Y-105013884D01*
X168997042Y-105005161D01*
X168983413Y-104995054D01*
X168970841Y-104983659D01*
X168959446Y-104971087D01*
X168949339Y-104957458D01*
X168940616Y-104942904D01*
X168933361Y-104927566D01*
X168927645Y-104911590D01*
X168923522Y-104895131D01*
X168921033Y-104878347D01*
X168920200Y-104861400D01*
X168920200Y-104515600D01*
X168921033Y-104498653D01*
X168923522Y-104481869D01*
X168927645Y-104465410D01*
X168933361Y-104449434D01*
X168940616Y-104434096D01*
X168949339Y-104419542D01*
X168959446Y-104405913D01*
X168970841Y-104393341D01*
X168983413Y-104381946D01*
X168997042Y-104371839D01*
X169011596Y-104363116D01*
X169026934Y-104355861D01*
X169042910Y-104350145D01*
X169059369Y-104346022D01*
X169076153Y-104343533D01*
X169093100Y-104342700D01*
X169488900Y-104342700D01*
X169505847Y-104343533D01*
X169505847Y-104343533D01*
G37*
D24*
X169291000Y-104688500D03*
D10*
G36*
X172045847Y-103373533D02*
G01*
X172062631Y-103376022D01*
X172079090Y-103380145D01*
X172095066Y-103385861D01*
X172110404Y-103393116D01*
X172124958Y-103401839D01*
X172138587Y-103411946D01*
X172151159Y-103423341D01*
X172162554Y-103435913D01*
X172172661Y-103449542D01*
X172181384Y-103464096D01*
X172188639Y-103479434D01*
X172194355Y-103495410D01*
X172198478Y-103511869D01*
X172200967Y-103528653D01*
X172201800Y-103545600D01*
X172201800Y-103891400D01*
X172200967Y-103908347D01*
X172198478Y-103925131D01*
X172194355Y-103941590D01*
X172188639Y-103957566D01*
X172181384Y-103972904D01*
X172172661Y-103987458D01*
X172162554Y-104001087D01*
X172151159Y-104013659D01*
X172138587Y-104025054D01*
X172124958Y-104035161D01*
X172110404Y-104043884D01*
X172095066Y-104051139D01*
X172079090Y-104056855D01*
X172062631Y-104060978D01*
X172045847Y-104063467D01*
X172028900Y-104064300D01*
X171633100Y-104064300D01*
X171616153Y-104063467D01*
X171599369Y-104060978D01*
X171582910Y-104056855D01*
X171566934Y-104051139D01*
X171551596Y-104043884D01*
X171537042Y-104035161D01*
X171523413Y-104025054D01*
X171510841Y-104013659D01*
X171499446Y-104001087D01*
X171489339Y-103987458D01*
X171480616Y-103972904D01*
X171473361Y-103957566D01*
X171467645Y-103941590D01*
X171463522Y-103925131D01*
X171461033Y-103908347D01*
X171460200Y-103891400D01*
X171460200Y-103545600D01*
X171461033Y-103528653D01*
X171463522Y-103511869D01*
X171467645Y-103495410D01*
X171473361Y-103479434D01*
X171480616Y-103464096D01*
X171489339Y-103449542D01*
X171499446Y-103435913D01*
X171510841Y-103423341D01*
X171523413Y-103411946D01*
X171537042Y-103401839D01*
X171551596Y-103393116D01*
X171566934Y-103385861D01*
X171582910Y-103380145D01*
X171599369Y-103376022D01*
X171616153Y-103373533D01*
X171633100Y-103372700D01*
X172028900Y-103372700D01*
X172045847Y-103373533D01*
X172045847Y-103373533D01*
G37*
D24*
X171831000Y-103718500D03*
D10*
G36*
X172045847Y-104343533D02*
G01*
X172062631Y-104346022D01*
X172079090Y-104350145D01*
X172095066Y-104355861D01*
X172110404Y-104363116D01*
X172124958Y-104371839D01*
X172138587Y-104381946D01*
X172151159Y-104393341D01*
X172162554Y-104405913D01*
X172172661Y-104419542D01*
X172181384Y-104434096D01*
X172188639Y-104449434D01*
X172194355Y-104465410D01*
X172198478Y-104481869D01*
X172200967Y-104498653D01*
X172201800Y-104515600D01*
X172201800Y-104861400D01*
X172200967Y-104878347D01*
X172198478Y-104895131D01*
X172194355Y-104911590D01*
X172188639Y-104927566D01*
X172181384Y-104942904D01*
X172172661Y-104957458D01*
X172162554Y-104971087D01*
X172151159Y-104983659D01*
X172138587Y-104995054D01*
X172124958Y-105005161D01*
X172110404Y-105013884D01*
X172095066Y-105021139D01*
X172079090Y-105026855D01*
X172062631Y-105030978D01*
X172045847Y-105033467D01*
X172028900Y-105034300D01*
X171633100Y-105034300D01*
X171616153Y-105033467D01*
X171599369Y-105030978D01*
X171582910Y-105026855D01*
X171566934Y-105021139D01*
X171551596Y-105013884D01*
X171537042Y-105005161D01*
X171523413Y-104995054D01*
X171510841Y-104983659D01*
X171499446Y-104971087D01*
X171489339Y-104957458D01*
X171480616Y-104942904D01*
X171473361Y-104927566D01*
X171467645Y-104911590D01*
X171463522Y-104895131D01*
X171461033Y-104878347D01*
X171460200Y-104861400D01*
X171460200Y-104515600D01*
X171461033Y-104498653D01*
X171463522Y-104481869D01*
X171467645Y-104465410D01*
X171473361Y-104449434D01*
X171480616Y-104434096D01*
X171489339Y-104419542D01*
X171499446Y-104405913D01*
X171510841Y-104393341D01*
X171523413Y-104381946D01*
X171537042Y-104371839D01*
X171551596Y-104363116D01*
X171566934Y-104355861D01*
X171582910Y-104350145D01*
X171599369Y-104346022D01*
X171616153Y-104343533D01*
X171633100Y-104342700D01*
X172028900Y-104342700D01*
X172045847Y-104343533D01*
X172045847Y-104343533D01*
G37*
D24*
X171831000Y-104688500D03*
D10*
G36*
X170966347Y-103564033D02*
G01*
X170983131Y-103566522D01*
X170999590Y-103570645D01*
X171015566Y-103576361D01*
X171030904Y-103583616D01*
X171045458Y-103592339D01*
X171059087Y-103602446D01*
X171071659Y-103613841D01*
X171083054Y-103626413D01*
X171093161Y-103640042D01*
X171101884Y-103654596D01*
X171109139Y-103669934D01*
X171114855Y-103685910D01*
X171118978Y-103702369D01*
X171121467Y-103719153D01*
X171122300Y-103736100D01*
X171122300Y-104081900D01*
X171121467Y-104098847D01*
X171118978Y-104115631D01*
X171114855Y-104132090D01*
X171109139Y-104148066D01*
X171101884Y-104163404D01*
X171093161Y-104177958D01*
X171083054Y-104191587D01*
X171071659Y-104204159D01*
X171059087Y-104215554D01*
X171045458Y-104225661D01*
X171030904Y-104234384D01*
X171015566Y-104241639D01*
X170999590Y-104247355D01*
X170983131Y-104251478D01*
X170966347Y-104253967D01*
X170949400Y-104254800D01*
X170553600Y-104254800D01*
X170536653Y-104253967D01*
X170519869Y-104251478D01*
X170503410Y-104247355D01*
X170487434Y-104241639D01*
X170472096Y-104234384D01*
X170457542Y-104225661D01*
X170443913Y-104215554D01*
X170431341Y-104204159D01*
X170419946Y-104191587D01*
X170409839Y-104177958D01*
X170401116Y-104163404D01*
X170393861Y-104148066D01*
X170388145Y-104132090D01*
X170384022Y-104115631D01*
X170381533Y-104098847D01*
X170380700Y-104081900D01*
X170380700Y-103736100D01*
X170381533Y-103719153D01*
X170384022Y-103702369D01*
X170388145Y-103685910D01*
X170393861Y-103669934D01*
X170401116Y-103654596D01*
X170409839Y-103640042D01*
X170419946Y-103626413D01*
X170431341Y-103613841D01*
X170443913Y-103602446D01*
X170457542Y-103592339D01*
X170472096Y-103583616D01*
X170487434Y-103576361D01*
X170503410Y-103570645D01*
X170519869Y-103566522D01*
X170536653Y-103564033D01*
X170553600Y-103563200D01*
X170949400Y-103563200D01*
X170966347Y-103564033D01*
X170966347Y-103564033D01*
G37*
D24*
X170751500Y-103909000D03*
D10*
G36*
X170966347Y-104534033D02*
G01*
X170983131Y-104536522D01*
X170999590Y-104540645D01*
X171015566Y-104546361D01*
X171030904Y-104553616D01*
X171045458Y-104562339D01*
X171059087Y-104572446D01*
X171071659Y-104583841D01*
X171083054Y-104596413D01*
X171093161Y-104610042D01*
X171101884Y-104624596D01*
X171109139Y-104639934D01*
X171114855Y-104655910D01*
X171118978Y-104672369D01*
X171121467Y-104689153D01*
X171122300Y-104706100D01*
X171122300Y-105051900D01*
X171121467Y-105068847D01*
X171118978Y-105085631D01*
X171114855Y-105102090D01*
X171109139Y-105118066D01*
X171101884Y-105133404D01*
X171093161Y-105147958D01*
X171083054Y-105161587D01*
X171071659Y-105174159D01*
X171059087Y-105185554D01*
X171045458Y-105195661D01*
X171030904Y-105204384D01*
X171015566Y-105211639D01*
X170999590Y-105217355D01*
X170983131Y-105221478D01*
X170966347Y-105223967D01*
X170949400Y-105224800D01*
X170553600Y-105224800D01*
X170536653Y-105223967D01*
X170519869Y-105221478D01*
X170503410Y-105217355D01*
X170487434Y-105211639D01*
X170472096Y-105204384D01*
X170457542Y-105195661D01*
X170443913Y-105185554D01*
X170431341Y-105174159D01*
X170419946Y-105161587D01*
X170409839Y-105147958D01*
X170401116Y-105133404D01*
X170393861Y-105118066D01*
X170388145Y-105102090D01*
X170384022Y-105085631D01*
X170381533Y-105068847D01*
X170380700Y-105051900D01*
X170380700Y-104706100D01*
X170381533Y-104689153D01*
X170384022Y-104672369D01*
X170388145Y-104655910D01*
X170393861Y-104639934D01*
X170401116Y-104624596D01*
X170409839Y-104610042D01*
X170419946Y-104596413D01*
X170431341Y-104583841D01*
X170443913Y-104572446D01*
X170457542Y-104562339D01*
X170472096Y-104553616D01*
X170487434Y-104546361D01*
X170503410Y-104540645D01*
X170519869Y-104536522D01*
X170536653Y-104534033D01*
X170553600Y-104533200D01*
X170949400Y-104533200D01*
X170966347Y-104534033D01*
X170966347Y-104534033D01*
G37*
D24*
X170751500Y-104879000D03*
D10*
G36*
X172045847Y-101087533D02*
G01*
X172062631Y-101090022D01*
X172079090Y-101094145D01*
X172095066Y-101099861D01*
X172110404Y-101107116D01*
X172124958Y-101115839D01*
X172138587Y-101125946D01*
X172151159Y-101137341D01*
X172162554Y-101149913D01*
X172172661Y-101163542D01*
X172181384Y-101178096D01*
X172188639Y-101193434D01*
X172194355Y-101209410D01*
X172198478Y-101225869D01*
X172200967Y-101242653D01*
X172201800Y-101259600D01*
X172201800Y-101605400D01*
X172200967Y-101622347D01*
X172198478Y-101639131D01*
X172194355Y-101655590D01*
X172188639Y-101671566D01*
X172181384Y-101686904D01*
X172172661Y-101701458D01*
X172162554Y-101715087D01*
X172151159Y-101727659D01*
X172138587Y-101739054D01*
X172124958Y-101749161D01*
X172110404Y-101757884D01*
X172095066Y-101765139D01*
X172079090Y-101770855D01*
X172062631Y-101774978D01*
X172045847Y-101777467D01*
X172028900Y-101778300D01*
X171633100Y-101778300D01*
X171616153Y-101777467D01*
X171599369Y-101774978D01*
X171582910Y-101770855D01*
X171566934Y-101765139D01*
X171551596Y-101757884D01*
X171537042Y-101749161D01*
X171523413Y-101739054D01*
X171510841Y-101727659D01*
X171499446Y-101715087D01*
X171489339Y-101701458D01*
X171480616Y-101686904D01*
X171473361Y-101671566D01*
X171467645Y-101655590D01*
X171463522Y-101639131D01*
X171461033Y-101622347D01*
X171460200Y-101605400D01*
X171460200Y-101259600D01*
X171461033Y-101242653D01*
X171463522Y-101225869D01*
X171467645Y-101209410D01*
X171473361Y-101193434D01*
X171480616Y-101178096D01*
X171489339Y-101163542D01*
X171499446Y-101149913D01*
X171510841Y-101137341D01*
X171523413Y-101125946D01*
X171537042Y-101115839D01*
X171551596Y-101107116D01*
X171566934Y-101099861D01*
X171582910Y-101094145D01*
X171599369Y-101090022D01*
X171616153Y-101087533D01*
X171633100Y-101086700D01*
X172028900Y-101086700D01*
X172045847Y-101087533D01*
X172045847Y-101087533D01*
G37*
D24*
X171831000Y-101432500D03*
D10*
G36*
X172045847Y-102057533D02*
G01*
X172062631Y-102060022D01*
X172079090Y-102064145D01*
X172095066Y-102069861D01*
X172110404Y-102077116D01*
X172124958Y-102085839D01*
X172138587Y-102095946D01*
X172151159Y-102107341D01*
X172162554Y-102119913D01*
X172172661Y-102133542D01*
X172181384Y-102148096D01*
X172188639Y-102163434D01*
X172194355Y-102179410D01*
X172198478Y-102195869D01*
X172200967Y-102212653D01*
X172201800Y-102229600D01*
X172201800Y-102575400D01*
X172200967Y-102592347D01*
X172198478Y-102609131D01*
X172194355Y-102625590D01*
X172188639Y-102641566D01*
X172181384Y-102656904D01*
X172172661Y-102671458D01*
X172162554Y-102685087D01*
X172151159Y-102697659D01*
X172138587Y-102709054D01*
X172124958Y-102719161D01*
X172110404Y-102727884D01*
X172095066Y-102735139D01*
X172079090Y-102740855D01*
X172062631Y-102744978D01*
X172045847Y-102747467D01*
X172028900Y-102748300D01*
X171633100Y-102748300D01*
X171616153Y-102747467D01*
X171599369Y-102744978D01*
X171582910Y-102740855D01*
X171566934Y-102735139D01*
X171551596Y-102727884D01*
X171537042Y-102719161D01*
X171523413Y-102709054D01*
X171510841Y-102697659D01*
X171499446Y-102685087D01*
X171489339Y-102671458D01*
X171480616Y-102656904D01*
X171473361Y-102641566D01*
X171467645Y-102625590D01*
X171463522Y-102609131D01*
X171461033Y-102592347D01*
X171460200Y-102575400D01*
X171460200Y-102229600D01*
X171461033Y-102212653D01*
X171463522Y-102195869D01*
X171467645Y-102179410D01*
X171473361Y-102163434D01*
X171480616Y-102148096D01*
X171489339Y-102133542D01*
X171499446Y-102119913D01*
X171510841Y-102107341D01*
X171523413Y-102095946D01*
X171537042Y-102085839D01*
X171551596Y-102077116D01*
X171566934Y-102069861D01*
X171582910Y-102064145D01*
X171599369Y-102060022D01*
X171616153Y-102057533D01*
X171633100Y-102056700D01*
X172028900Y-102056700D01*
X172045847Y-102057533D01*
X172045847Y-102057533D01*
G37*
D24*
X171831000Y-102402500D03*
D10*
G36*
X168997847Y-95944033D02*
G01*
X169014631Y-95946522D01*
X169031090Y-95950645D01*
X169047066Y-95956361D01*
X169062404Y-95963616D01*
X169076958Y-95972339D01*
X169090587Y-95982446D01*
X169103159Y-95993841D01*
X169114554Y-96006413D01*
X169124661Y-96020042D01*
X169133384Y-96034596D01*
X169140639Y-96049934D01*
X169146355Y-96065910D01*
X169150478Y-96082369D01*
X169152967Y-96099153D01*
X169153800Y-96116100D01*
X169153800Y-96461900D01*
X169152967Y-96478847D01*
X169150478Y-96495631D01*
X169146355Y-96512090D01*
X169140639Y-96528066D01*
X169133384Y-96543404D01*
X169124661Y-96557958D01*
X169114554Y-96571587D01*
X169103159Y-96584159D01*
X169090587Y-96595554D01*
X169076958Y-96605661D01*
X169062404Y-96614384D01*
X169047066Y-96621639D01*
X169031090Y-96627355D01*
X169014631Y-96631478D01*
X168997847Y-96633967D01*
X168980900Y-96634800D01*
X168585100Y-96634800D01*
X168568153Y-96633967D01*
X168551369Y-96631478D01*
X168534910Y-96627355D01*
X168518934Y-96621639D01*
X168503596Y-96614384D01*
X168489042Y-96605661D01*
X168475413Y-96595554D01*
X168462841Y-96584159D01*
X168451446Y-96571587D01*
X168441339Y-96557958D01*
X168432616Y-96543404D01*
X168425361Y-96528066D01*
X168419645Y-96512090D01*
X168415522Y-96495631D01*
X168413033Y-96478847D01*
X168412200Y-96461900D01*
X168412200Y-96116100D01*
X168413033Y-96099153D01*
X168415522Y-96082369D01*
X168419645Y-96065910D01*
X168425361Y-96049934D01*
X168432616Y-96034596D01*
X168441339Y-96020042D01*
X168451446Y-96006413D01*
X168462841Y-95993841D01*
X168475413Y-95982446D01*
X168489042Y-95972339D01*
X168503596Y-95963616D01*
X168518934Y-95956361D01*
X168534910Y-95950645D01*
X168551369Y-95946522D01*
X168568153Y-95944033D01*
X168585100Y-95943200D01*
X168980900Y-95943200D01*
X168997847Y-95944033D01*
X168997847Y-95944033D01*
G37*
D24*
X168783000Y-96289000D03*
D10*
G36*
X168997847Y-96914033D02*
G01*
X169014631Y-96916522D01*
X169031090Y-96920645D01*
X169047066Y-96926361D01*
X169062404Y-96933616D01*
X169076958Y-96942339D01*
X169090587Y-96952446D01*
X169103159Y-96963841D01*
X169114554Y-96976413D01*
X169124661Y-96990042D01*
X169133384Y-97004596D01*
X169140639Y-97019934D01*
X169146355Y-97035910D01*
X169150478Y-97052369D01*
X169152967Y-97069153D01*
X169153800Y-97086100D01*
X169153800Y-97431900D01*
X169152967Y-97448847D01*
X169150478Y-97465631D01*
X169146355Y-97482090D01*
X169140639Y-97498066D01*
X169133384Y-97513404D01*
X169124661Y-97527958D01*
X169114554Y-97541587D01*
X169103159Y-97554159D01*
X169090587Y-97565554D01*
X169076958Y-97575661D01*
X169062404Y-97584384D01*
X169047066Y-97591639D01*
X169031090Y-97597355D01*
X169014631Y-97601478D01*
X168997847Y-97603967D01*
X168980900Y-97604800D01*
X168585100Y-97604800D01*
X168568153Y-97603967D01*
X168551369Y-97601478D01*
X168534910Y-97597355D01*
X168518934Y-97591639D01*
X168503596Y-97584384D01*
X168489042Y-97575661D01*
X168475413Y-97565554D01*
X168462841Y-97554159D01*
X168451446Y-97541587D01*
X168441339Y-97527958D01*
X168432616Y-97513404D01*
X168425361Y-97498066D01*
X168419645Y-97482090D01*
X168415522Y-97465631D01*
X168413033Y-97448847D01*
X168412200Y-97431900D01*
X168412200Y-97086100D01*
X168413033Y-97069153D01*
X168415522Y-97052369D01*
X168419645Y-97035910D01*
X168425361Y-97019934D01*
X168432616Y-97004596D01*
X168441339Y-96990042D01*
X168451446Y-96976413D01*
X168462841Y-96963841D01*
X168475413Y-96952446D01*
X168489042Y-96942339D01*
X168503596Y-96933616D01*
X168518934Y-96926361D01*
X168534910Y-96920645D01*
X168551369Y-96916522D01*
X168568153Y-96914033D01*
X168585100Y-96913200D01*
X168980900Y-96913200D01*
X168997847Y-96914033D01*
X168997847Y-96914033D01*
G37*
D24*
X168783000Y-97259000D03*
D10*
G36*
X160171347Y-95707533D02*
G01*
X160188131Y-95710022D01*
X160204590Y-95714145D01*
X160220566Y-95719861D01*
X160235904Y-95727116D01*
X160250458Y-95735839D01*
X160264087Y-95745946D01*
X160276659Y-95757341D01*
X160288054Y-95769913D01*
X160298161Y-95783542D01*
X160306884Y-95798096D01*
X160314139Y-95813434D01*
X160319855Y-95829410D01*
X160323978Y-95845869D01*
X160326467Y-95862653D01*
X160327300Y-95879600D01*
X160327300Y-96225400D01*
X160326467Y-96242347D01*
X160323978Y-96259131D01*
X160319855Y-96275590D01*
X160314139Y-96291566D01*
X160306884Y-96306904D01*
X160298161Y-96321458D01*
X160288054Y-96335087D01*
X160276659Y-96347659D01*
X160264087Y-96359054D01*
X160250458Y-96369161D01*
X160235904Y-96377884D01*
X160220566Y-96385139D01*
X160204590Y-96390855D01*
X160188131Y-96394978D01*
X160171347Y-96397467D01*
X160154400Y-96398300D01*
X159758600Y-96398300D01*
X159741653Y-96397467D01*
X159724869Y-96394978D01*
X159708410Y-96390855D01*
X159692434Y-96385139D01*
X159677096Y-96377884D01*
X159662542Y-96369161D01*
X159648913Y-96359054D01*
X159636341Y-96347659D01*
X159624946Y-96335087D01*
X159614839Y-96321458D01*
X159606116Y-96306904D01*
X159598861Y-96291566D01*
X159593145Y-96275590D01*
X159589022Y-96259131D01*
X159586533Y-96242347D01*
X159585700Y-96225400D01*
X159585700Y-95879600D01*
X159586533Y-95862653D01*
X159589022Y-95845869D01*
X159593145Y-95829410D01*
X159598861Y-95813434D01*
X159606116Y-95798096D01*
X159614839Y-95783542D01*
X159624946Y-95769913D01*
X159636341Y-95757341D01*
X159648913Y-95745946D01*
X159662542Y-95735839D01*
X159677096Y-95727116D01*
X159692434Y-95719861D01*
X159708410Y-95714145D01*
X159724869Y-95710022D01*
X159741653Y-95707533D01*
X159758600Y-95706700D01*
X160154400Y-95706700D01*
X160171347Y-95707533D01*
X160171347Y-95707533D01*
G37*
D24*
X159956500Y-96052500D03*
D10*
G36*
X160171347Y-94737533D02*
G01*
X160188131Y-94740022D01*
X160204590Y-94744145D01*
X160220566Y-94749861D01*
X160235904Y-94757116D01*
X160250458Y-94765839D01*
X160264087Y-94775946D01*
X160276659Y-94787341D01*
X160288054Y-94799913D01*
X160298161Y-94813542D01*
X160306884Y-94828096D01*
X160314139Y-94843434D01*
X160319855Y-94859410D01*
X160323978Y-94875869D01*
X160326467Y-94892653D01*
X160327300Y-94909600D01*
X160327300Y-95255400D01*
X160326467Y-95272347D01*
X160323978Y-95289131D01*
X160319855Y-95305590D01*
X160314139Y-95321566D01*
X160306884Y-95336904D01*
X160298161Y-95351458D01*
X160288054Y-95365087D01*
X160276659Y-95377659D01*
X160264087Y-95389054D01*
X160250458Y-95399161D01*
X160235904Y-95407884D01*
X160220566Y-95415139D01*
X160204590Y-95420855D01*
X160188131Y-95424978D01*
X160171347Y-95427467D01*
X160154400Y-95428300D01*
X159758600Y-95428300D01*
X159741653Y-95427467D01*
X159724869Y-95424978D01*
X159708410Y-95420855D01*
X159692434Y-95415139D01*
X159677096Y-95407884D01*
X159662542Y-95399161D01*
X159648913Y-95389054D01*
X159636341Y-95377659D01*
X159624946Y-95365087D01*
X159614839Y-95351458D01*
X159606116Y-95336904D01*
X159598861Y-95321566D01*
X159593145Y-95305590D01*
X159589022Y-95289131D01*
X159586533Y-95272347D01*
X159585700Y-95255400D01*
X159585700Y-94909600D01*
X159586533Y-94892653D01*
X159589022Y-94875869D01*
X159593145Y-94859410D01*
X159598861Y-94843434D01*
X159606116Y-94828096D01*
X159614839Y-94813542D01*
X159624946Y-94799913D01*
X159636341Y-94787341D01*
X159648913Y-94775946D01*
X159662542Y-94765839D01*
X159677096Y-94757116D01*
X159692434Y-94749861D01*
X159708410Y-94744145D01*
X159724869Y-94740022D01*
X159741653Y-94737533D01*
X159758600Y-94736700D01*
X160154400Y-94736700D01*
X160171347Y-94737533D01*
X160171347Y-94737533D01*
G37*
D24*
X159956500Y-95082500D03*
D10*
G36*
X161121847Y-84339033D02*
G01*
X161138631Y-84341522D01*
X161155090Y-84345645D01*
X161171066Y-84351361D01*
X161186404Y-84358616D01*
X161200958Y-84367339D01*
X161214587Y-84377446D01*
X161227159Y-84388841D01*
X161238554Y-84401413D01*
X161248661Y-84415042D01*
X161257384Y-84429596D01*
X161264639Y-84444934D01*
X161270355Y-84460910D01*
X161274478Y-84477369D01*
X161276967Y-84494153D01*
X161277800Y-84511100D01*
X161277800Y-84906900D01*
X161276967Y-84923847D01*
X161274478Y-84940631D01*
X161270355Y-84957090D01*
X161264639Y-84973066D01*
X161257384Y-84988404D01*
X161248661Y-85002958D01*
X161238554Y-85016587D01*
X161227159Y-85029159D01*
X161214587Y-85040554D01*
X161200958Y-85050661D01*
X161186404Y-85059384D01*
X161171066Y-85066639D01*
X161155090Y-85072355D01*
X161138631Y-85076478D01*
X161121847Y-85078967D01*
X161104900Y-85079800D01*
X160759100Y-85079800D01*
X160742153Y-85078967D01*
X160725369Y-85076478D01*
X160708910Y-85072355D01*
X160692934Y-85066639D01*
X160677596Y-85059384D01*
X160663042Y-85050661D01*
X160649413Y-85040554D01*
X160636841Y-85029159D01*
X160625446Y-85016587D01*
X160615339Y-85002958D01*
X160606616Y-84988404D01*
X160599361Y-84973066D01*
X160593645Y-84957090D01*
X160589522Y-84940631D01*
X160587033Y-84923847D01*
X160586200Y-84906900D01*
X160586200Y-84511100D01*
X160587033Y-84494153D01*
X160589522Y-84477369D01*
X160593645Y-84460910D01*
X160599361Y-84444934D01*
X160606616Y-84429596D01*
X160615339Y-84415042D01*
X160625446Y-84401413D01*
X160636841Y-84388841D01*
X160649413Y-84377446D01*
X160663042Y-84367339D01*
X160677596Y-84358616D01*
X160692934Y-84351361D01*
X160708910Y-84345645D01*
X160725369Y-84341522D01*
X160742153Y-84339033D01*
X160759100Y-84338200D01*
X161104900Y-84338200D01*
X161121847Y-84339033D01*
X161121847Y-84339033D01*
G37*
D24*
X160932000Y-84709000D03*
D10*
G36*
X162091847Y-84339033D02*
G01*
X162108631Y-84341522D01*
X162125090Y-84345645D01*
X162141066Y-84351361D01*
X162156404Y-84358616D01*
X162170958Y-84367339D01*
X162184587Y-84377446D01*
X162197159Y-84388841D01*
X162208554Y-84401413D01*
X162218661Y-84415042D01*
X162227384Y-84429596D01*
X162234639Y-84444934D01*
X162240355Y-84460910D01*
X162244478Y-84477369D01*
X162246967Y-84494153D01*
X162247800Y-84511100D01*
X162247800Y-84906900D01*
X162246967Y-84923847D01*
X162244478Y-84940631D01*
X162240355Y-84957090D01*
X162234639Y-84973066D01*
X162227384Y-84988404D01*
X162218661Y-85002958D01*
X162208554Y-85016587D01*
X162197159Y-85029159D01*
X162184587Y-85040554D01*
X162170958Y-85050661D01*
X162156404Y-85059384D01*
X162141066Y-85066639D01*
X162125090Y-85072355D01*
X162108631Y-85076478D01*
X162091847Y-85078967D01*
X162074900Y-85079800D01*
X161729100Y-85079800D01*
X161712153Y-85078967D01*
X161695369Y-85076478D01*
X161678910Y-85072355D01*
X161662934Y-85066639D01*
X161647596Y-85059384D01*
X161633042Y-85050661D01*
X161619413Y-85040554D01*
X161606841Y-85029159D01*
X161595446Y-85016587D01*
X161585339Y-85002958D01*
X161576616Y-84988404D01*
X161569361Y-84973066D01*
X161563645Y-84957090D01*
X161559522Y-84940631D01*
X161557033Y-84923847D01*
X161556200Y-84906900D01*
X161556200Y-84511100D01*
X161557033Y-84494153D01*
X161559522Y-84477369D01*
X161563645Y-84460910D01*
X161569361Y-84444934D01*
X161576616Y-84429596D01*
X161585339Y-84415042D01*
X161595446Y-84401413D01*
X161606841Y-84388841D01*
X161619413Y-84377446D01*
X161633042Y-84367339D01*
X161647596Y-84358616D01*
X161662934Y-84351361D01*
X161678910Y-84345645D01*
X161695369Y-84341522D01*
X161712153Y-84339033D01*
X161729100Y-84338200D01*
X162074900Y-84338200D01*
X162091847Y-84339033D01*
X162091847Y-84339033D01*
G37*
D24*
X161902000Y-84709000D03*
D10*
G36*
X160359847Y-85609033D02*
G01*
X160376631Y-85611522D01*
X160393090Y-85615645D01*
X160409066Y-85621361D01*
X160424404Y-85628616D01*
X160438958Y-85637339D01*
X160452587Y-85647446D01*
X160465159Y-85658841D01*
X160476554Y-85671413D01*
X160486661Y-85685042D01*
X160495384Y-85699596D01*
X160502639Y-85714934D01*
X160508355Y-85730910D01*
X160512478Y-85747369D01*
X160514967Y-85764153D01*
X160515800Y-85781100D01*
X160515800Y-86176900D01*
X160514967Y-86193847D01*
X160512478Y-86210631D01*
X160508355Y-86227090D01*
X160502639Y-86243066D01*
X160495384Y-86258404D01*
X160486661Y-86272958D01*
X160476554Y-86286587D01*
X160465159Y-86299159D01*
X160452587Y-86310554D01*
X160438958Y-86320661D01*
X160424404Y-86329384D01*
X160409066Y-86336639D01*
X160393090Y-86342355D01*
X160376631Y-86346478D01*
X160359847Y-86348967D01*
X160342900Y-86349800D01*
X159997100Y-86349800D01*
X159980153Y-86348967D01*
X159963369Y-86346478D01*
X159946910Y-86342355D01*
X159930934Y-86336639D01*
X159915596Y-86329384D01*
X159901042Y-86320661D01*
X159887413Y-86310554D01*
X159874841Y-86299159D01*
X159863446Y-86286587D01*
X159853339Y-86272958D01*
X159844616Y-86258404D01*
X159837361Y-86243066D01*
X159831645Y-86227090D01*
X159827522Y-86210631D01*
X159825033Y-86193847D01*
X159824200Y-86176900D01*
X159824200Y-85781100D01*
X159825033Y-85764153D01*
X159827522Y-85747369D01*
X159831645Y-85730910D01*
X159837361Y-85714934D01*
X159844616Y-85699596D01*
X159853339Y-85685042D01*
X159863446Y-85671413D01*
X159874841Y-85658841D01*
X159887413Y-85647446D01*
X159901042Y-85637339D01*
X159915596Y-85628616D01*
X159930934Y-85621361D01*
X159946910Y-85615645D01*
X159963369Y-85611522D01*
X159980153Y-85609033D01*
X159997100Y-85608200D01*
X160342900Y-85608200D01*
X160359847Y-85609033D01*
X160359847Y-85609033D01*
G37*
D24*
X160170000Y-85979000D03*
D10*
G36*
X161329847Y-85609033D02*
G01*
X161346631Y-85611522D01*
X161363090Y-85615645D01*
X161379066Y-85621361D01*
X161394404Y-85628616D01*
X161408958Y-85637339D01*
X161422587Y-85647446D01*
X161435159Y-85658841D01*
X161446554Y-85671413D01*
X161456661Y-85685042D01*
X161465384Y-85699596D01*
X161472639Y-85714934D01*
X161478355Y-85730910D01*
X161482478Y-85747369D01*
X161484967Y-85764153D01*
X161485800Y-85781100D01*
X161485800Y-86176900D01*
X161484967Y-86193847D01*
X161482478Y-86210631D01*
X161478355Y-86227090D01*
X161472639Y-86243066D01*
X161465384Y-86258404D01*
X161456661Y-86272958D01*
X161446554Y-86286587D01*
X161435159Y-86299159D01*
X161422587Y-86310554D01*
X161408958Y-86320661D01*
X161394404Y-86329384D01*
X161379066Y-86336639D01*
X161363090Y-86342355D01*
X161346631Y-86346478D01*
X161329847Y-86348967D01*
X161312900Y-86349800D01*
X160967100Y-86349800D01*
X160950153Y-86348967D01*
X160933369Y-86346478D01*
X160916910Y-86342355D01*
X160900934Y-86336639D01*
X160885596Y-86329384D01*
X160871042Y-86320661D01*
X160857413Y-86310554D01*
X160844841Y-86299159D01*
X160833446Y-86286587D01*
X160823339Y-86272958D01*
X160814616Y-86258404D01*
X160807361Y-86243066D01*
X160801645Y-86227090D01*
X160797522Y-86210631D01*
X160795033Y-86193847D01*
X160794200Y-86176900D01*
X160794200Y-85781100D01*
X160795033Y-85764153D01*
X160797522Y-85747369D01*
X160801645Y-85730910D01*
X160807361Y-85714934D01*
X160814616Y-85699596D01*
X160823339Y-85685042D01*
X160833446Y-85671413D01*
X160844841Y-85658841D01*
X160857413Y-85647446D01*
X160871042Y-85637339D01*
X160885596Y-85628616D01*
X160900934Y-85621361D01*
X160916910Y-85615645D01*
X160933369Y-85611522D01*
X160950153Y-85609033D01*
X160967100Y-85608200D01*
X161312900Y-85608200D01*
X161329847Y-85609033D01*
X161329847Y-85609033D01*
G37*
D24*
X161140000Y-85979000D03*
D10*
G36*
X168489847Y-104343533D02*
G01*
X168506631Y-104346022D01*
X168523090Y-104350145D01*
X168539066Y-104355861D01*
X168554404Y-104363116D01*
X168568958Y-104371839D01*
X168582587Y-104381946D01*
X168595159Y-104393341D01*
X168606554Y-104405913D01*
X168616661Y-104419542D01*
X168625384Y-104434096D01*
X168632639Y-104449434D01*
X168638355Y-104465410D01*
X168642478Y-104481869D01*
X168644967Y-104498653D01*
X168645800Y-104515600D01*
X168645800Y-104861400D01*
X168644967Y-104878347D01*
X168642478Y-104895131D01*
X168638355Y-104911590D01*
X168632639Y-104927566D01*
X168625384Y-104942904D01*
X168616661Y-104957458D01*
X168606554Y-104971087D01*
X168595159Y-104983659D01*
X168582587Y-104995054D01*
X168568958Y-105005161D01*
X168554404Y-105013884D01*
X168539066Y-105021139D01*
X168523090Y-105026855D01*
X168506631Y-105030978D01*
X168489847Y-105033467D01*
X168472900Y-105034300D01*
X168077100Y-105034300D01*
X168060153Y-105033467D01*
X168043369Y-105030978D01*
X168026910Y-105026855D01*
X168010934Y-105021139D01*
X167995596Y-105013884D01*
X167981042Y-105005161D01*
X167967413Y-104995054D01*
X167954841Y-104983659D01*
X167943446Y-104971087D01*
X167933339Y-104957458D01*
X167924616Y-104942904D01*
X167917361Y-104927566D01*
X167911645Y-104911590D01*
X167907522Y-104895131D01*
X167905033Y-104878347D01*
X167904200Y-104861400D01*
X167904200Y-104515600D01*
X167905033Y-104498653D01*
X167907522Y-104481869D01*
X167911645Y-104465410D01*
X167917361Y-104449434D01*
X167924616Y-104434096D01*
X167933339Y-104419542D01*
X167943446Y-104405913D01*
X167954841Y-104393341D01*
X167967413Y-104381946D01*
X167981042Y-104371839D01*
X167995596Y-104363116D01*
X168010934Y-104355861D01*
X168026910Y-104350145D01*
X168043369Y-104346022D01*
X168060153Y-104343533D01*
X168077100Y-104342700D01*
X168472900Y-104342700D01*
X168489847Y-104343533D01*
X168489847Y-104343533D01*
G37*
D24*
X168275000Y-104688500D03*
D10*
G36*
X168489847Y-103373533D02*
G01*
X168506631Y-103376022D01*
X168523090Y-103380145D01*
X168539066Y-103385861D01*
X168554404Y-103393116D01*
X168568958Y-103401839D01*
X168582587Y-103411946D01*
X168595159Y-103423341D01*
X168606554Y-103435913D01*
X168616661Y-103449542D01*
X168625384Y-103464096D01*
X168632639Y-103479434D01*
X168638355Y-103495410D01*
X168642478Y-103511869D01*
X168644967Y-103528653D01*
X168645800Y-103545600D01*
X168645800Y-103891400D01*
X168644967Y-103908347D01*
X168642478Y-103925131D01*
X168638355Y-103941590D01*
X168632639Y-103957566D01*
X168625384Y-103972904D01*
X168616661Y-103987458D01*
X168606554Y-104001087D01*
X168595159Y-104013659D01*
X168582587Y-104025054D01*
X168568958Y-104035161D01*
X168554404Y-104043884D01*
X168539066Y-104051139D01*
X168523090Y-104056855D01*
X168506631Y-104060978D01*
X168489847Y-104063467D01*
X168472900Y-104064300D01*
X168077100Y-104064300D01*
X168060153Y-104063467D01*
X168043369Y-104060978D01*
X168026910Y-104056855D01*
X168010934Y-104051139D01*
X167995596Y-104043884D01*
X167981042Y-104035161D01*
X167967413Y-104025054D01*
X167954841Y-104013659D01*
X167943446Y-104001087D01*
X167933339Y-103987458D01*
X167924616Y-103972904D01*
X167917361Y-103957566D01*
X167911645Y-103941590D01*
X167907522Y-103925131D01*
X167905033Y-103908347D01*
X167904200Y-103891400D01*
X167904200Y-103545600D01*
X167905033Y-103528653D01*
X167907522Y-103511869D01*
X167911645Y-103495410D01*
X167917361Y-103479434D01*
X167924616Y-103464096D01*
X167933339Y-103449542D01*
X167943446Y-103435913D01*
X167954841Y-103423341D01*
X167967413Y-103411946D01*
X167981042Y-103401839D01*
X167995596Y-103393116D01*
X168010934Y-103385861D01*
X168026910Y-103380145D01*
X168043369Y-103376022D01*
X168060153Y-103373533D01*
X168077100Y-103372700D01*
X168472900Y-103372700D01*
X168489847Y-103373533D01*
X168489847Y-103373533D01*
G37*
D24*
X168275000Y-103718500D03*
D29*
X163291520Y-105952290D03*
X163291520Y-102993190D03*
X163258500Y-98063050D03*
X163258500Y-95103950D03*
D10*
G36*
X160262081Y-100947876D02*
G01*
X160285781Y-100951391D01*
X160309023Y-100957213D01*
X160331582Y-100965285D01*
X160353242Y-100975529D01*
X160373792Y-100987847D01*
X160393037Y-101002119D01*
X160410790Y-101018210D01*
X160426881Y-101035963D01*
X160441153Y-101055208D01*
X160453471Y-101075758D01*
X160463715Y-101097418D01*
X160471787Y-101119977D01*
X160477609Y-101143219D01*
X160481124Y-101166919D01*
X160482300Y-101190850D01*
X160482300Y-101679150D01*
X160481124Y-101703081D01*
X160477609Y-101726781D01*
X160471787Y-101750023D01*
X160463715Y-101772582D01*
X160453471Y-101794242D01*
X160441153Y-101814792D01*
X160426881Y-101834037D01*
X160410790Y-101851790D01*
X160393037Y-101867881D01*
X160373792Y-101882153D01*
X160353242Y-101894471D01*
X160331582Y-101904715D01*
X160309023Y-101912787D01*
X160285781Y-101918609D01*
X160262081Y-101922124D01*
X160238150Y-101923300D01*
X159674850Y-101923300D01*
X159650919Y-101922124D01*
X159627219Y-101918609D01*
X159603977Y-101912787D01*
X159581418Y-101904715D01*
X159559758Y-101894471D01*
X159539208Y-101882153D01*
X159519963Y-101867881D01*
X159502210Y-101851790D01*
X159486119Y-101834037D01*
X159471847Y-101814792D01*
X159459529Y-101794242D01*
X159449285Y-101772582D01*
X159441213Y-101750023D01*
X159435391Y-101726781D01*
X159431876Y-101703081D01*
X159430700Y-101679150D01*
X159430700Y-101190850D01*
X159431876Y-101166919D01*
X159435391Y-101143219D01*
X159441213Y-101119977D01*
X159449285Y-101097418D01*
X159459529Y-101075758D01*
X159471847Y-101055208D01*
X159486119Y-101035963D01*
X159502210Y-101018210D01*
X159519963Y-101002119D01*
X159539208Y-100987847D01*
X159559758Y-100975529D01*
X159581418Y-100965285D01*
X159603977Y-100957213D01*
X159627219Y-100951391D01*
X159650919Y-100947876D01*
X159674850Y-100946700D01*
X160238150Y-100946700D01*
X160262081Y-100947876D01*
X160262081Y-100947876D01*
G37*
D23*
X159956500Y-101435000D03*
D10*
G36*
X160262081Y-99372876D02*
G01*
X160285781Y-99376391D01*
X160309023Y-99382213D01*
X160331582Y-99390285D01*
X160353242Y-99400529D01*
X160373792Y-99412847D01*
X160393037Y-99427119D01*
X160410790Y-99443210D01*
X160426881Y-99460963D01*
X160441153Y-99480208D01*
X160453471Y-99500758D01*
X160463715Y-99522418D01*
X160471787Y-99544977D01*
X160477609Y-99568219D01*
X160481124Y-99591919D01*
X160482300Y-99615850D01*
X160482300Y-100104150D01*
X160481124Y-100128081D01*
X160477609Y-100151781D01*
X160471787Y-100175023D01*
X160463715Y-100197582D01*
X160453471Y-100219242D01*
X160441153Y-100239792D01*
X160426881Y-100259037D01*
X160410790Y-100276790D01*
X160393037Y-100292881D01*
X160373792Y-100307153D01*
X160353242Y-100319471D01*
X160331582Y-100329715D01*
X160309023Y-100337787D01*
X160285781Y-100343609D01*
X160262081Y-100347124D01*
X160238150Y-100348300D01*
X159674850Y-100348300D01*
X159650919Y-100347124D01*
X159627219Y-100343609D01*
X159603977Y-100337787D01*
X159581418Y-100329715D01*
X159559758Y-100319471D01*
X159539208Y-100307153D01*
X159519963Y-100292881D01*
X159502210Y-100276790D01*
X159486119Y-100259037D01*
X159471847Y-100239792D01*
X159459529Y-100219242D01*
X159449285Y-100197582D01*
X159441213Y-100175023D01*
X159435391Y-100151781D01*
X159431876Y-100128081D01*
X159430700Y-100104150D01*
X159430700Y-99615850D01*
X159431876Y-99591919D01*
X159435391Y-99568219D01*
X159441213Y-99544977D01*
X159449285Y-99522418D01*
X159459529Y-99500758D01*
X159471847Y-99480208D01*
X159486119Y-99460963D01*
X159502210Y-99443210D01*
X159519963Y-99427119D01*
X159539208Y-99412847D01*
X159559758Y-99400529D01*
X159581418Y-99390285D01*
X159603977Y-99382213D01*
X159627219Y-99376391D01*
X159650919Y-99372876D01*
X159674850Y-99371700D01*
X160238150Y-99371700D01*
X160262081Y-99372876D01*
X160262081Y-99372876D01*
G37*
D23*
X159956500Y-99860000D03*
D10*
G36*
X166711847Y-104135533D02*
G01*
X166728631Y-104138022D01*
X166745090Y-104142145D01*
X166761066Y-104147861D01*
X166776404Y-104155116D01*
X166790958Y-104163839D01*
X166804587Y-104173946D01*
X166817159Y-104185341D01*
X166828554Y-104197913D01*
X166838661Y-104211542D01*
X166847384Y-104226096D01*
X166854639Y-104241434D01*
X166860355Y-104257410D01*
X166864478Y-104273869D01*
X166866967Y-104290653D01*
X166867800Y-104307600D01*
X166867800Y-104653400D01*
X166866967Y-104670347D01*
X166864478Y-104687131D01*
X166860355Y-104703590D01*
X166854639Y-104719566D01*
X166847384Y-104734904D01*
X166838661Y-104749458D01*
X166828554Y-104763087D01*
X166817159Y-104775659D01*
X166804587Y-104787054D01*
X166790958Y-104797161D01*
X166776404Y-104805884D01*
X166761066Y-104813139D01*
X166745090Y-104818855D01*
X166728631Y-104822978D01*
X166711847Y-104825467D01*
X166694900Y-104826300D01*
X166299100Y-104826300D01*
X166282153Y-104825467D01*
X166265369Y-104822978D01*
X166248910Y-104818855D01*
X166232934Y-104813139D01*
X166217596Y-104805884D01*
X166203042Y-104797161D01*
X166189413Y-104787054D01*
X166176841Y-104775659D01*
X166165446Y-104763087D01*
X166155339Y-104749458D01*
X166146616Y-104734904D01*
X166139361Y-104719566D01*
X166133645Y-104703590D01*
X166129522Y-104687131D01*
X166127033Y-104670347D01*
X166126200Y-104653400D01*
X166126200Y-104307600D01*
X166127033Y-104290653D01*
X166129522Y-104273869D01*
X166133645Y-104257410D01*
X166139361Y-104241434D01*
X166146616Y-104226096D01*
X166155339Y-104211542D01*
X166165446Y-104197913D01*
X166176841Y-104185341D01*
X166189413Y-104173946D01*
X166203042Y-104163839D01*
X166217596Y-104155116D01*
X166232934Y-104147861D01*
X166248910Y-104142145D01*
X166265369Y-104138022D01*
X166282153Y-104135533D01*
X166299100Y-104134700D01*
X166694900Y-104134700D01*
X166711847Y-104135533D01*
X166711847Y-104135533D01*
G37*
D24*
X166497000Y-104480500D03*
D10*
G36*
X166711847Y-105105533D02*
G01*
X166728631Y-105108022D01*
X166745090Y-105112145D01*
X166761066Y-105117861D01*
X166776404Y-105125116D01*
X166790958Y-105133839D01*
X166804587Y-105143946D01*
X166817159Y-105155341D01*
X166828554Y-105167913D01*
X166838661Y-105181542D01*
X166847384Y-105196096D01*
X166854639Y-105211434D01*
X166860355Y-105227410D01*
X166864478Y-105243869D01*
X166866967Y-105260653D01*
X166867800Y-105277600D01*
X166867800Y-105623400D01*
X166866967Y-105640347D01*
X166864478Y-105657131D01*
X166860355Y-105673590D01*
X166854639Y-105689566D01*
X166847384Y-105704904D01*
X166838661Y-105719458D01*
X166828554Y-105733087D01*
X166817159Y-105745659D01*
X166804587Y-105757054D01*
X166790958Y-105767161D01*
X166776404Y-105775884D01*
X166761066Y-105783139D01*
X166745090Y-105788855D01*
X166728631Y-105792978D01*
X166711847Y-105795467D01*
X166694900Y-105796300D01*
X166299100Y-105796300D01*
X166282153Y-105795467D01*
X166265369Y-105792978D01*
X166248910Y-105788855D01*
X166232934Y-105783139D01*
X166217596Y-105775884D01*
X166203042Y-105767161D01*
X166189413Y-105757054D01*
X166176841Y-105745659D01*
X166165446Y-105733087D01*
X166155339Y-105719458D01*
X166146616Y-105704904D01*
X166139361Y-105689566D01*
X166133645Y-105673590D01*
X166129522Y-105657131D01*
X166127033Y-105640347D01*
X166126200Y-105623400D01*
X166126200Y-105277600D01*
X166127033Y-105260653D01*
X166129522Y-105243869D01*
X166133645Y-105227410D01*
X166139361Y-105211434D01*
X166146616Y-105196096D01*
X166155339Y-105181542D01*
X166165446Y-105167913D01*
X166176841Y-105155341D01*
X166189413Y-105143946D01*
X166203042Y-105133839D01*
X166217596Y-105125116D01*
X166232934Y-105117861D01*
X166248910Y-105112145D01*
X166265369Y-105108022D01*
X166282153Y-105105533D01*
X166299100Y-105104700D01*
X166694900Y-105104700D01*
X166711847Y-105105533D01*
X166711847Y-105105533D01*
G37*
D24*
X166497000Y-105450500D03*
D10*
G36*
X170077347Y-95944033D02*
G01*
X170094131Y-95946522D01*
X170110590Y-95950645D01*
X170126566Y-95956361D01*
X170141904Y-95963616D01*
X170156458Y-95972339D01*
X170170087Y-95982446D01*
X170182659Y-95993841D01*
X170194054Y-96006413D01*
X170204161Y-96020042D01*
X170212884Y-96034596D01*
X170220139Y-96049934D01*
X170225855Y-96065910D01*
X170229978Y-96082369D01*
X170232467Y-96099153D01*
X170233300Y-96116100D01*
X170233300Y-96461900D01*
X170232467Y-96478847D01*
X170229978Y-96495631D01*
X170225855Y-96512090D01*
X170220139Y-96528066D01*
X170212884Y-96543404D01*
X170204161Y-96557958D01*
X170194054Y-96571587D01*
X170182659Y-96584159D01*
X170170087Y-96595554D01*
X170156458Y-96605661D01*
X170141904Y-96614384D01*
X170126566Y-96621639D01*
X170110590Y-96627355D01*
X170094131Y-96631478D01*
X170077347Y-96633967D01*
X170060400Y-96634800D01*
X169664600Y-96634800D01*
X169647653Y-96633967D01*
X169630869Y-96631478D01*
X169614410Y-96627355D01*
X169598434Y-96621639D01*
X169583096Y-96614384D01*
X169568542Y-96605661D01*
X169554913Y-96595554D01*
X169542341Y-96584159D01*
X169530946Y-96571587D01*
X169520839Y-96557958D01*
X169512116Y-96543404D01*
X169504861Y-96528066D01*
X169499145Y-96512090D01*
X169495022Y-96495631D01*
X169492533Y-96478847D01*
X169491700Y-96461900D01*
X169491700Y-96116100D01*
X169492533Y-96099153D01*
X169495022Y-96082369D01*
X169499145Y-96065910D01*
X169504861Y-96049934D01*
X169512116Y-96034596D01*
X169520839Y-96020042D01*
X169530946Y-96006413D01*
X169542341Y-95993841D01*
X169554913Y-95982446D01*
X169568542Y-95972339D01*
X169583096Y-95963616D01*
X169598434Y-95956361D01*
X169614410Y-95950645D01*
X169630869Y-95946522D01*
X169647653Y-95944033D01*
X169664600Y-95943200D01*
X170060400Y-95943200D01*
X170077347Y-95944033D01*
X170077347Y-95944033D01*
G37*
D24*
X169862500Y-96289000D03*
D10*
G36*
X170077347Y-96914033D02*
G01*
X170094131Y-96916522D01*
X170110590Y-96920645D01*
X170126566Y-96926361D01*
X170141904Y-96933616D01*
X170156458Y-96942339D01*
X170170087Y-96952446D01*
X170182659Y-96963841D01*
X170194054Y-96976413D01*
X170204161Y-96990042D01*
X170212884Y-97004596D01*
X170220139Y-97019934D01*
X170225855Y-97035910D01*
X170229978Y-97052369D01*
X170232467Y-97069153D01*
X170233300Y-97086100D01*
X170233300Y-97431900D01*
X170232467Y-97448847D01*
X170229978Y-97465631D01*
X170225855Y-97482090D01*
X170220139Y-97498066D01*
X170212884Y-97513404D01*
X170204161Y-97527958D01*
X170194054Y-97541587D01*
X170182659Y-97554159D01*
X170170087Y-97565554D01*
X170156458Y-97575661D01*
X170141904Y-97584384D01*
X170126566Y-97591639D01*
X170110590Y-97597355D01*
X170094131Y-97601478D01*
X170077347Y-97603967D01*
X170060400Y-97604800D01*
X169664600Y-97604800D01*
X169647653Y-97603967D01*
X169630869Y-97601478D01*
X169614410Y-97597355D01*
X169598434Y-97591639D01*
X169583096Y-97584384D01*
X169568542Y-97575661D01*
X169554913Y-97565554D01*
X169542341Y-97554159D01*
X169530946Y-97541587D01*
X169520839Y-97527958D01*
X169512116Y-97513404D01*
X169504861Y-97498066D01*
X169499145Y-97482090D01*
X169495022Y-97465631D01*
X169492533Y-97448847D01*
X169491700Y-97431900D01*
X169491700Y-97086100D01*
X169492533Y-97069153D01*
X169495022Y-97052369D01*
X169499145Y-97035910D01*
X169504861Y-97019934D01*
X169512116Y-97004596D01*
X169520839Y-96990042D01*
X169530946Y-96976413D01*
X169542341Y-96963841D01*
X169554913Y-96952446D01*
X169568542Y-96942339D01*
X169583096Y-96933616D01*
X169598434Y-96926361D01*
X169614410Y-96920645D01*
X169630869Y-96916522D01*
X169647653Y-96914033D01*
X169664600Y-96913200D01*
X170060400Y-96913200D01*
X170077347Y-96914033D01*
X170077347Y-96914033D01*
G37*
D24*
X169862500Y-97259000D03*
D10*
G36*
X160588447Y-91425633D02*
G01*
X160605231Y-91428122D01*
X160621690Y-91432245D01*
X160637666Y-91437961D01*
X160653004Y-91445216D01*
X160667558Y-91453939D01*
X160681187Y-91464046D01*
X160693759Y-91475441D01*
X160705154Y-91488013D01*
X160715261Y-91501642D01*
X160723984Y-91516196D01*
X160731239Y-91531534D01*
X160736955Y-91547510D01*
X160741078Y-91563969D01*
X160743567Y-91580753D01*
X160744400Y-91597700D01*
X160744400Y-91993500D01*
X160743567Y-92010447D01*
X160741078Y-92027231D01*
X160736955Y-92043690D01*
X160731239Y-92059666D01*
X160723984Y-92075004D01*
X160715261Y-92089558D01*
X160705154Y-92103187D01*
X160693759Y-92115759D01*
X160681187Y-92127154D01*
X160667558Y-92137261D01*
X160653004Y-92145984D01*
X160637666Y-92153239D01*
X160621690Y-92158955D01*
X160605231Y-92163078D01*
X160588447Y-92165567D01*
X160571500Y-92166400D01*
X160225700Y-92166400D01*
X160208753Y-92165567D01*
X160191969Y-92163078D01*
X160175510Y-92158955D01*
X160159534Y-92153239D01*
X160144196Y-92145984D01*
X160129642Y-92137261D01*
X160116013Y-92127154D01*
X160103441Y-92115759D01*
X160092046Y-92103187D01*
X160081939Y-92089558D01*
X160073216Y-92075004D01*
X160065961Y-92059666D01*
X160060245Y-92043690D01*
X160056122Y-92027231D01*
X160053633Y-92010447D01*
X160052800Y-91993500D01*
X160052800Y-91597700D01*
X160053633Y-91580753D01*
X160056122Y-91563969D01*
X160060245Y-91547510D01*
X160065961Y-91531534D01*
X160073216Y-91516196D01*
X160081939Y-91501642D01*
X160092046Y-91488013D01*
X160103441Y-91475441D01*
X160116013Y-91464046D01*
X160129642Y-91453939D01*
X160144196Y-91445216D01*
X160159534Y-91437961D01*
X160175510Y-91432245D01*
X160191969Y-91428122D01*
X160208753Y-91425633D01*
X160225700Y-91424800D01*
X160571500Y-91424800D01*
X160588447Y-91425633D01*
X160588447Y-91425633D01*
G37*
D24*
X160398600Y-91795600D03*
D10*
G36*
X161558447Y-91425633D02*
G01*
X161575231Y-91428122D01*
X161591690Y-91432245D01*
X161607666Y-91437961D01*
X161623004Y-91445216D01*
X161637558Y-91453939D01*
X161651187Y-91464046D01*
X161663759Y-91475441D01*
X161675154Y-91488013D01*
X161685261Y-91501642D01*
X161693984Y-91516196D01*
X161701239Y-91531534D01*
X161706955Y-91547510D01*
X161711078Y-91563969D01*
X161713567Y-91580753D01*
X161714400Y-91597700D01*
X161714400Y-91993500D01*
X161713567Y-92010447D01*
X161711078Y-92027231D01*
X161706955Y-92043690D01*
X161701239Y-92059666D01*
X161693984Y-92075004D01*
X161685261Y-92089558D01*
X161675154Y-92103187D01*
X161663759Y-92115759D01*
X161651187Y-92127154D01*
X161637558Y-92137261D01*
X161623004Y-92145984D01*
X161607666Y-92153239D01*
X161591690Y-92158955D01*
X161575231Y-92163078D01*
X161558447Y-92165567D01*
X161541500Y-92166400D01*
X161195700Y-92166400D01*
X161178753Y-92165567D01*
X161161969Y-92163078D01*
X161145510Y-92158955D01*
X161129534Y-92153239D01*
X161114196Y-92145984D01*
X161099642Y-92137261D01*
X161086013Y-92127154D01*
X161073441Y-92115759D01*
X161062046Y-92103187D01*
X161051939Y-92089558D01*
X161043216Y-92075004D01*
X161035961Y-92059666D01*
X161030245Y-92043690D01*
X161026122Y-92027231D01*
X161023633Y-92010447D01*
X161022800Y-91993500D01*
X161022800Y-91597700D01*
X161023633Y-91580753D01*
X161026122Y-91563969D01*
X161030245Y-91547510D01*
X161035961Y-91531534D01*
X161043216Y-91516196D01*
X161051939Y-91501642D01*
X161062046Y-91488013D01*
X161073441Y-91475441D01*
X161086013Y-91464046D01*
X161099642Y-91453939D01*
X161114196Y-91445216D01*
X161129534Y-91437961D01*
X161145510Y-91432245D01*
X161161969Y-91428122D01*
X161178753Y-91425633D01*
X161195700Y-91424800D01*
X161541500Y-91424800D01*
X161558447Y-91425633D01*
X161558447Y-91425633D01*
G37*
D24*
X161368600Y-91795600D03*
D10*
G36*
X167537347Y-95944033D02*
G01*
X167554131Y-95946522D01*
X167570590Y-95950645D01*
X167586566Y-95956361D01*
X167601904Y-95963616D01*
X167616458Y-95972339D01*
X167630087Y-95982446D01*
X167642659Y-95993841D01*
X167654054Y-96006413D01*
X167664161Y-96020042D01*
X167672884Y-96034596D01*
X167680139Y-96049934D01*
X167685855Y-96065910D01*
X167689978Y-96082369D01*
X167692467Y-96099153D01*
X167693300Y-96116100D01*
X167693300Y-96461900D01*
X167692467Y-96478847D01*
X167689978Y-96495631D01*
X167685855Y-96512090D01*
X167680139Y-96528066D01*
X167672884Y-96543404D01*
X167664161Y-96557958D01*
X167654054Y-96571587D01*
X167642659Y-96584159D01*
X167630087Y-96595554D01*
X167616458Y-96605661D01*
X167601904Y-96614384D01*
X167586566Y-96621639D01*
X167570590Y-96627355D01*
X167554131Y-96631478D01*
X167537347Y-96633967D01*
X167520400Y-96634800D01*
X167124600Y-96634800D01*
X167107653Y-96633967D01*
X167090869Y-96631478D01*
X167074410Y-96627355D01*
X167058434Y-96621639D01*
X167043096Y-96614384D01*
X167028542Y-96605661D01*
X167014913Y-96595554D01*
X167002341Y-96584159D01*
X166990946Y-96571587D01*
X166980839Y-96557958D01*
X166972116Y-96543404D01*
X166964861Y-96528066D01*
X166959145Y-96512090D01*
X166955022Y-96495631D01*
X166952533Y-96478847D01*
X166951700Y-96461900D01*
X166951700Y-96116100D01*
X166952533Y-96099153D01*
X166955022Y-96082369D01*
X166959145Y-96065910D01*
X166964861Y-96049934D01*
X166972116Y-96034596D01*
X166980839Y-96020042D01*
X166990946Y-96006413D01*
X167002341Y-95993841D01*
X167014913Y-95982446D01*
X167028542Y-95972339D01*
X167043096Y-95963616D01*
X167058434Y-95956361D01*
X167074410Y-95950645D01*
X167090869Y-95946522D01*
X167107653Y-95944033D01*
X167124600Y-95943200D01*
X167520400Y-95943200D01*
X167537347Y-95944033D01*
X167537347Y-95944033D01*
G37*
D24*
X167322500Y-96289000D03*
D10*
G36*
X167537347Y-96914033D02*
G01*
X167554131Y-96916522D01*
X167570590Y-96920645D01*
X167586566Y-96926361D01*
X167601904Y-96933616D01*
X167616458Y-96942339D01*
X167630087Y-96952446D01*
X167642659Y-96963841D01*
X167654054Y-96976413D01*
X167664161Y-96990042D01*
X167672884Y-97004596D01*
X167680139Y-97019934D01*
X167685855Y-97035910D01*
X167689978Y-97052369D01*
X167692467Y-97069153D01*
X167693300Y-97086100D01*
X167693300Y-97431900D01*
X167692467Y-97448847D01*
X167689978Y-97465631D01*
X167685855Y-97482090D01*
X167680139Y-97498066D01*
X167672884Y-97513404D01*
X167664161Y-97527958D01*
X167654054Y-97541587D01*
X167642659Y-97554159D01*
X167630087Y-97565554D01*
X167616458Y-97575661D01*
X167601904Y-97584384D01*
X167586566Y-97591639D01*
X167570590Y-97597355D01*
X167554131Y-97601478D01*
X167537347Y-97603967D01*
X167520400Y-97604800D01*
X167124600Y-97604800D01*
X167107653Y-97603967D01*
X167090869Y-97601478D01*
X167074410Y-97597355D01*
X167058434Y-97591639D01*
X167043096Y-97584384D01*
X167028542Y-97575661D01*
X167014913Y-97565554D01*
X167002341Y-97554159D01*
X166990946Y-97541587D01*
X166980839Y-97527958D01*
X166972116Y-97513404D01*
X166964861Y-97498066D01*
X166959145Y-97482090D01*
X166955022Y-97465631D01*
X166952533Y-97448847D01*
X166951700Y-97431900D01*
X166951700Y-97086100D01*
X166952533Y-97069153D01*
X166955022Y-97052369D01*
X166959145Y-97035910D01*
X166964861Y-97019934D01*
X166972116Y-97004596D01*
X166980839Y-96990042D01*
X166990946Y-96976413D01*
X167002341Y-96963841D01*
X167014913Y-96952446D01*
X167028542Y-96942339D01*
X167043096Y-96933616D01*
X167058434Y-96926361D01*
X167074410Y-96920645D01*
X167090869Y-96916522D01*
X167107653Y-96914033D01*
X167124600Y-96913200D01*
X167520400Y-96913200D01*
X167537347Y-96914033D01*
X167537347Y-96914033D01*
G37*
D24*
X167322500Y-97259000D03*
D10*
G36*
X169505847Y-106312033D02*
G01*
X169522631Y-106314522D01*
X169539090Y-106318645D01*
X169555066Y-106324361D01*
X169570404Y-106331616D01*
X169584958Y-106340339D01*
X169598587Y-106350446D01*
X169611159Y-106361841D01*
X169622554Y-106374413D01*
X169632661Y-106388042D01*
X169641384Y-106402596D01*
X169648639Y-106417934D01*
X169654355Y-106433910D01*
X169658478Y-106450369D01*
X169660967Y-106467153D01*
X169661800Y-106484100D01*
X169661800Y-106829900D01*
X169660967Y-106846847D01*
X169658478Y-106863631D01*
X169654355Y-106880090D01*
X169648639Y-106896066D01*
X169641384Y-106911404D01*
X169632661Y-106925958D01*
X169622554Y-106939587D01*
X169611159Y-106952159D01*
X169598587Y-106963554D01*
X169584958Y-106973661D01*
X169570404Y-106982384D01*
X169555066Y-106989639D01*
X169539090Y-106995355D01*
X169522631Y-106999478D01*
X169505847Y-107001967D01*
X169488900Y-107002800D01*
X169093100Y-107002800D01*
X169076153Y-107001967D01*
X169059369Y-106999478D01*
X169042910Y-106995355D01*
X169026934Y-106989639D01*
X169011596Y-106982384D01*
X168997042Y-106973661D01*
X168983413Y-106963554D01*
X168970841Y-106952159D01*
X168959446Y-106939587D01*
X168949339Y-106925958D01*
X168940616Y-106911404D01*
X168933361Y-106896066D01*
X168927645Y-106880090D01*
X168923522Y-106863631D01*
X168921033Y-106846847D01*
X168920200Y-106829900D01*
X168920200Y-106484100D01*
X168921033Y-106467153D01*
X168923522Y-106450369D01*
X168927645Y-106433910D01*
X168933361Y-106417934D01*
X168940616Y-106402596D01*
X168949339Y-106388042D01*
X168959446Y-106374413D01*
X168970841Y-106361841D01*
X168983413Y-106350446D01*
X168997042Y-106340339D01*
X169011596Y-106331616D01*
X169026934Y-106324361D01*
X169042910Y-106318645D01*
X169059369Y-106314522D01*
X169076153Y-106312033D01*
X169093100Y-106311200D01*
X169488900Y-106311200D01*
X169505847Y-106312033D01*
X169505847Y-106312033D01*
G37*
D24*
X169291000Y-106657000D03*
D10*
G36*
X169505847Y-105342033D02*
G01*
X169522631Y-105344522D01*
X169539090Y-105348645D01*
X169555066Y-105354361D01*
X169570404Y-105361616D01*
X169584958Y-105370339D01*
X169598587Y-105380446D01*
X169611159Y-105391841D01*
X169622554Y-105404413D01*
X169632661Y-105418042D01*
X169641384Y-105432596D01*
X169648639Y-105447934D01*
X169654355Y-105463910D01*
X169658478Y-105480369D01*
X169660967Y-105497153D01*
X169661800Y-105514100D01*
X169661800Y-105859900D01*
X169660967Y-105876847D01*
X169658478Y-105893631D01*
X169654355Y-105910090D01*
X169648639Y-105926066D01*
X169641384Y-105941404D01*
X169632661Y-105955958D01*
X169622554Y-105969587D01*
X169611159Y-105982159D01*
X169598587Y-105993554D01*
X169584958Y-106003661D01*
X169570404Y-106012384D01*
X169555066Y-106019639D01*
X169539090Y-106025355D01*
X169522631Y-106029478D01*
X169505847Y-106031967D01*
X169488900Y-106032800D01*
X169093100Y-106032800D01*
X169076153Y-106031967D01*
X169059369Y-106029478D01*
X169042910Y-106025355D01*
X169026934Y-106019639D01*
X169011596Y-106012384D01*
X168997042Y-106003661D01*
X168983413Y-105993554D01*
X168970841Y-105982159D01*
X168959446Y-105969587D01*
X168949339Y-105955958D01*
X168940616Y-105941404D01*
X168933361Y-105926066D01*
X168927645Y-105910090D01*
X168923522Y-105893631D01*
X168921033Y-105876847D01*
X168920200Y-105859900D01*
X168920200Y-105514100D01*
X168921033Y-105497153D01*
X168923522Y-105480369D01*
X168927645Y-105463910D01*
X168933361Y-105447934D01*
X168940616Y-105432596D01*
X168949339Y-105418042D01*
X168959446Y-105404413D01*
X168970841Y-105391841D01*
X168983413Y-105380446D01*
X168997042Y-105370339D01*
X169011596Y-105361616D01*
X169026934Y-105354361D01*
X169042910Y-105348645D01*
X169059369Y-105344522D01*
X169076153Y-105342033D01*
X169093100Y-105341200D01*
X169488900Y-105341200D01*
X169505847Y-105342033D01*
X169505847Y-105342033D01*
G37*
D24*
X169291000Y-105687000D03*
M02*
