%TF.GenerationSoftware,KiCad,Pcbnew,(5.1.4)-1*%
%TF.CreationDate,2019-12-19T17:17:14-07:00*%
%TF.ProjectId,ypanel,7970616e-656c-42e6-9b69-6361645f7063,rev?*%
%TF.SameCoordinates,Original*%
%TF.FileFunction,Legend,Top*%
%TF.FilePolarity,Positive*%
%FSLAX46Y46*%
G04 Gerber Fmt 4.6, Leading zero omitted, Abs format (unit mm)*
G04 Created by KiCad (PCBNEW (5.1.4)-1) date 2019-12-19 17:17:14*
%MOMM*%
%LPD*%
G04 APERTURE LIST*
%ADD10C,0.203200*%
%ADD11C,0.150000*%
%ADD12C,0.254000*%
%ADD13C,0.100000*%
%ADD14C,0.050000*%
%ADD15C,0.127000*%
%ADD16C,0.120000*%
%ADD17C,0.101600*%
%ADD18C,0.010000*%
G04 APERTURE END LIST*
D10*
X139924971Y-117531242D02*
X140795828Y-117531242D01*
X139924971Y-115550042D02*
X140795828Y-115550042D01*
X140360400Y-115985471D02*
X140360400Y-115114614D01*
D11*
X124785428Y-107430628D02*
X124785428Y-106668723D01*
X124642571Y-105859200D02*
X124690190Y-105716342D01*
X124737809Y-105668723D01*
X124833047Y-105621104D01*
X124975904Y-105621104D01*
X125071142Y-105668723D01*
X125118761Y-105716342D01*
X125166380Y-105811580D01*
X125166380Y-106192533D01*
X124166380Y-106192533D01*
X124166380Y-105859200D01*
X124214000Y-105763961D01*
X124261619Y-105716342D01*
X124356857Y-105668723D01*
X124452095Y-105668723D01*
X124547333Y-105716342D01*
X124594952Y-105763961D01*
X124642571Y-105859200D01*
X124642571Y-106192533D01*
X124880666Y-105240152D02*
X124880666Y-104763961D01*
X125166380Y-105335390D02*
X124166380Y-105002057D01*
X125166380Y-104668723D01*
X124166380Y-104478247D02*
X124166380Y-103906819D01*
X125166380Y-104192533D02*
X124166380Y-104192533D01*
X124166380Y-103716342D02*
X124166380Y-103144914D01*
X125166380Y-103430628D02*
X124166380Y-103430628D01*
X124734628Y-96000628D02*
X124734628Y-95238723D01*
X125115580Y-95619676D02*
X124353676Y-95619676D01*
X124591771Y-94429200D02*
X124639390Y-94286342D01*
X124687009Y-94238723D01*
X124782247Y-94191104D01*
X124925104Y-94191104D01*
X125020342Y-94238723D01*
X125067961Y-94286342D01*
X125115580Y-94381580D01*
X125115580Y-94762533D01*
X124115580Y-94762533D01*
X124115580Y-94429200D01*
X124163200Y-94333961D01*
X124210819Y-94286342D01*
X124306057Y-94238723D01*
X124401295Y-94238723D01*
X124496533Y-94286342D01*
X124544152Y-94333961D01*
X124591771Y-94429200D01*
X124591771Y-94762533D01*
X124829866Y-93810152D02*
X124829866Y-93333961D01*
X125115580Y-93905390D02*
X124115580Y-93572057D01*
X125115580Y-93238723D01*
X124115580Y-93048247D02*
X124115580Y-92476819D01*
X125115580Y-92762533D02*
X124115580Y-92762533D01*
X124115580Y-92286342D02*
X124115580Y-91714914D01*
X125115580Y-92000628D02*
X124115580Y-92000628D01*
D12*
X113030000Y-72999600D02*
X177017200Y-72999600D01*
X113000000Y-125000000D02*
X176987200Y-125000000D01*
D13*
X158291000Y-99002479D02*
G75*
G03X158291000Y-99002479I-11000000J0D01*
G01*
X166000000Y-118900000D02*
G75*
G03X166000000Y-118900000I-1100000J0D01*
G01*
X177000000Y-128000000D02*
X177000000Y-70000000D01*
D14*
X126172800Y-118876400D02*
G75*
G03X126172800Y-118876400I-1100000J0D01*
G01*
X126172800Y-79100000D02*
G75*
G03X126172800Y-79100000I-1100000J0D01*
G01*
D13*
X131024564Y-85002478D02*
G75*
G03X131024564Y-85002478I-1029564J0D01*
G01*
X137499564Y-85002478D02*
G75*
G03X137499564Y-85002478I-1029564J0D01*
G01*
X165995000Y-79102480D02*
G75*
G03X165995000Y-79102480I-1100000J0D01*
G01*
X137499564Y-113002480D02*
G75*
G03X137499564Y-113002480I-1029564J0D01*
G01*
X131024564Y-113002480D02*
G75*
G03X131024564Y-113002480I-1029564J0D01*
G01*
X177000000Y-70000000D02*
X113000000Y-70000000D01*
X113000000Y-128000000D02*
X177000000Y-128000000D01*
X113000000Y-70000000D02*
X113000000Y-128000000D01*
D10*
X148853071Y-85400242D02*
X149723928Y-85400242D01*
D15*
X146747290Y-87866461D02*
X146747290Y-87231461D01*
X146989195Y-87231461D01*
X147049671Y-87261700D01*
X147079909Y-87291938D01*
X147110147Y-87352414D01*
X147110147Y-87443128D01*
X147079909Y-87503604D01*
X147049671Y-87533842D01*
X146989195Y-87564080D01*
X146747290Y-87564080D01*
X147095028Y-83024738D02*
X147095028Y-83659738D01*
X146732171Y-83024738D01*
X146732171Y-83659738D01*
D10*
X144217571Y-85463742D02*
X145088428Y-85463742D01*
X144653000Y-85899171D02*
X144653000Y-85028314D01*
D16*
X145859500Y-85382100D02*
X145542000Y-85382100D01*
X147066000Y-85382100D02*
X146748500Y-85382100D01*
X146113500Y-85382100D02*
X146431000Y-85382100D01*
X147447000Y-85382100D02*
X147764500Y-85382100D01*
X148399500Y-85382100D02*
X148082000Y-85382100D01*
D10*
X159198480Y-106114340D02*
X159198480Y-108014340D01*
X159198480Y-106114340D02*
X159298480Y-106114340D01*
X159298480Y-106114340D02*
X159298480Y-108014340D01*
X166898480Y-106114340D02*
X166998480Y-106114340D01*
X166998480Y-106114340D02*
X166998480Y-108014340D01*
X166898480Y-106114340D02*
X166898480Y-108014340D01*
D16*
X163098480Y-90114340D02*
X163098480Y-88114340D01*
X163098480Y-105414340D02*
X163098480Y-103414340D01*
X162098480Y-104414340D02*
X164098480Y-104414340D01*
X167098480Y-108114340D02*
X159098480Y-108114340D01*
X167098480Y-85114340D02*
X167098480Y-108114340D01*
X159098480Y-85114340D02*
X167098480Y-85114340D01*
X159098480Y-108114340D02*
X159098480Y-85114340D01*
X138295380Y-118003440D02*
X128815380Y-122503440D01*
X128815380Y-122503440D02*
G75*
G03X128815380Y-122503440I-2000000J0D01*
G01*
X137465380Y-113003440D02*
G75*
G03X137465380Y-113003440I-1000000J0D01*
G01*
X130965380Y-113003440D02*
G75*
G03X130965380Y-113003440I-1000000J0D01*
G01*
X139615380Y-118003440D02*
X139615380Y-111503440D01*
X126815380Y-111503440D02*
X139615380Y-111503440D01*
X126815380Y-111503440D02*
X126815380Y-118003440D01*
X139615380Y-118003440D02*
X126815380Y-118003440D01*
X128115380Y-108803440D02*
X128115380Y-111403440D01*
X133215380Y-108803440D02*
X133215380Y-111403440D01*
X138315380Y-108803440D02*
X138315380Y-111403440D01*
X128143320Y-89201940D02*
X128143320Y-86601940D01*
X133243320Y-89201940D02*
X133243320Y-86601940D01*
X138343320Y-89201940D02*
X138343320Y-86601940D01*
X126843320Y-80001940D02*
X139643320Y-80001940D01*
X139643320Y-86501940D02*
X139643320Y-80001940D01*
X139643320Y-86501940D02*
X126843320Y-86501940D01*
X126843320Y-80001940D02*
X126843320Y-86501940D01*
X137493320Y-85001940D02*
G75*
G03X137493320Y-85001940I-1000000J0D01*
G01*
X130993320Y-85001940D02*
G75*
G03X130993320Y-85001940I-1000000J0D01*
G01*
X129143320Y-75231940D02*
G75*
G03X129143320Y-75231940I-2000000J0D01*
G01*
X129143320Y-75231940D02*
X138323320Y-80001940D01*
D17*
X142454600Y-115098700D02*
G75*
G02X142554600Y-115098700I50000J0D01*
G01*
X142554600Y-115098700D02*
G75*
G02X142454600Y-115098700I-50000J0D01*
G01*
D13*
X142354600Y-115098700D02*
G75*
G02X142654600Y-115098700I150000J0D01*
G01*
X142654600Y-115098700D02*
G75*
G02X142354600Y-115098700I-150000J0D01*
G01*
X144254600Y-117898700D02*
X145254600Y-117905700D01*
X144254600Y-115298700D02*
X145254600Y-115295700D01*
D16*
X175263000Y-98223500D02*
X175263000Y-100023500D01*
X175263000Y-100023500D02*
X172463000Y-100023500D01*
X172463000Y-100023500D02*
X172463000Y-98223500D01*
X172463000Y-98223500D02*
X175263000Y-98223500D01*
X173063000Y-100123500D02*
X173463000Y-100123500D01*
X120145000Y-98350500D02*
X120145000Y-100150500D01*
X120145000Y-100150500D02*
X117345000Y-100150500D01*
X117345000Y-100150500D02*
X117345000Y-98350500D01*
X117345000Y-98350500D02*
X120145000Y-98350500D01*
X117945000Y-100250500D02*
X118345000Y-100250500D01*
D10*
X115100000Y-95000000D02*
X115100000Y-96900000D01*
X115100000Y-95000000D02*
X115200000Y-95000000D01*
X115200000Y-95000000D02*
X115200000Y-96900000D01*
X122800000Y-95000000D02*
X122900000Y-95000000D01*
X122900000Y-95000000D02*
X122900000Y-96900000D01*
X122800000Y-95000000D02*
X122800000Y-96900000D01*
D16*
X119000000Y-79000000D02*
X119000000Y-77000000D01*
X119000000Y-94300000D02*
X119000000Y-92300000D01*
X118000000Y-93300000D02*
X120000000Y-93300000D01*
X123000000Y-97000000D02*
X115000000Y-97000000D01*
X123000000Y-74000000D02*
X123000000Y-97000000D01*
X115000000Y-74000000D02*
X123000000Y-74000000D01*
X115000000Y-97000000D02*
X115000000Y-74000000D01*
D10*
X167842100Y-122063000D02*
X167842100Y-123963000D01*
X167842100Y-122063000D02*
X167942100Y-122063000D01*
X167942100Y-122063000D02*
X167942100Y-123963000D01*
X175542100Y-122063000D02*
X175642100Y-122063000D01*
X175642100Y-122063000D02*
X175642100Y-123963000D01*
X175542100Y-122063000D02*
X175542100Y-123963000D01*
D16*
X171742100Y-106063000D02*
X171742100Y-104063000D01*
X171742100Y-121363000D02*
X171742100Y-119363000D01*
X170742100Y-120363000D02*
X172742100Y-120363000D01*
X175742100Y-124063000D02*
X167742100Y-124063000D01*
X175742100Y-101063000D02*
X175742100Y-124063000D01*
X167742100Y-101063000D02*
X175742100Y-101063000D01*
X167742100Y-124063000D02*
X167742100Y-101063000D01*
D10*
X161420300Y-82820340D02*
X163320300Y-82820340D01*
X161420300Y-82820340D02*
X161420300Y-82720340D01*
X161420300Y-82720340D02*
X163320300Y-82720340D01*
X161420300Y-75120340D02*
X161420300Y-75020340D01*
X161420300Y-75020340D02*
X163320300Y-75020340D01*
X161420300Y-75120340D02*
X163320300Y-75120340D01*
D16*
X145420300Y-78920340D02*
X143420300Y-78920340D01*
X160720300Y-78920340D02*
X158720300Y-78920340D01*
X159720300Y-79920340D02*
X159720300Y-77920340D01*
X163420300Y-74920340D02*
X163420300Y-82920340D01*
X140420300Y-74920340D02*
X163420300Y-74920340D01*
X140420300Y-82920340D02*
X140420300Y-74920340D01*
X163420300Y-82920340D02*
X140420300Y-82920340D01*
D10*
X122900000Y-103000000D02*
X122900000Y-101100000D01*
X122900000Y-103000000D02*
X122800000Y-103000000D01*
X122800000Y-103000000D02*
X122800000Y-101100000D01*
X115200000Y-103000000D02*
X115100000Y-103000000D01*
X115100000Y-103000000D02*
X115100000Y-101100000D01*
X115200000Y-103000000D02*
X115200000Y-101100000D01*
D16*
X119000000Y-119000000D02*
X119000000Y-121000000D01*
X119000000Y-103700000D02*
X119000000Y-105700000D01*
X120000000Y-104700000D02*
X118000000Y-104700000D01*
X115000000Y-101000000D02*
X123000000Y-101000000D01*
X115000000Y-124000000D02*
X115000000Y-101000000D01*
X123000000Y-124000000D02*
X115000000Y-124000000D01*
X123000000Y-101000000D02*
X123000000Y-124000000D01*
D10*
X167786220Y-94890080D02*
X167786220Y-96790080D01*
X167786220Y-94890080D02*
X167886220Y-94890080D01*
X167886220Y-94890080D02*
X167886220Y-96790080D01*
X175486220Y-94890080D02*
X175586220Y-94890080D01*
X175586220Y-94890080D02*
X175586220Y-96790080D01*
X175486220Y-94890080D02*
X175486220Y-96790080D01*
D16*
X171686220Y-78890080D02*
X171686220Y-76890080D01*
X171686220Y-94190080D02*
X171686220Y-92190080D01*
X170686220Y-93190080D02*
X172686220Y-93190080D01*
X175686220Y-96890080D02*
X167686220Y-96890080D01*
X175686220Y-73890080D02*
X175686220Y-96890080D01*
X167686220Y-73890080D02*
X175686220Y-73890080D01*
X167686220Y-96890080D02*
X167686220Y-73890080D01*
D18*
G36*
X143786594Y-119459375D02*
G01*
X143877989Y-119674234D01*
X143960086Y-119867753D01*
X144033698Y-120041890D01*
X144099637Y-120198606D01*
X144158714Y-120339861D01*
X144211741Y-120467615D01*
X144259530Y-120583828D01*
X144302893Y-120690460D01*
X144342642Y-120789472D01*
X144379589Y-120882823D01*
X144414545Y-120972474D01*
X144430993Y-121015125D01*
X144456452Y-121079988D01*
X144479303Y-121135616D01*
X144497841Y-121178063D01*
X144510364Y-121203381D01*
X144514600Y-121208799D01*
X144523091Y-121197795D01*
X144537329Y-121168632D01*
X144554558Y-121127086D01*
X144558526Y-121116725D01*
X144592743Y-121026352D01*
X144625809Y-120939730D01*
X144658519Y-120854901D01*
X144691673Y-120769910D01*
X144726068Y-120682799D01*
X144762500Y-120591612D01*
X144801767Y-120494391D01*
X144844668Y-120389180D01*
X144891998Y-120274021D01*
X144944557Y-120146959D01*
X145003140Y-120006035D01*
X145068546Y-119849294D01*
X145141572Y-119674779D01*
X145223016Y-119480532D01*
X145301210Y-119294275D01*
X145585245Y-118618000D01*
X147104993Y-118618000D01*
X147090097Y-118646575D01*
X147082261Y-118660691D01*
X147062614Y-118695706D01*
X147031839Y-118750405D01*
X146990623Y-118823573D01*
X146939651Y-118913995D01*
X146879608Y-119020457D01*
X146811180Y-119141745D01*
X146735051Y-119276644D01*
X146651908Y-119423939D01*
X146562436Y-119582416D01*
X146467319Y-119750860D01*
X146367244Y-119928057D01*
X146262896Y-120112793D01*
X146154960Y-120303852D01*
X146105400Y-120391570D01*
X145135600Y-122107990D01*
X145135600Y-124612400D01*
X143776700Y-124612400D01*
X143776700Y-122162388D01*
X142830550Y-120395234D01*
X142725014Y-120198090D01*
X142622783Y-120007058D01*
X142524496Y-119823336D01*
X142430793Y-119648121D01*
X142342312Y-119482610D01*
X142259694Y-119328000D01*
X142183576Y-119185490D01*
X142114599Y-119056277D01*
X142053402Y-118941557D01*
X142000625Y-118842529D01*
X141956905Y-118760390D01*
X141922883Y-118696337D01*
X141899199Y-118651568D01*
X141886490Y-118627280D01*
X141884400Y-118623039D01*
X141896736Y-118622142D01*
X141932292Y-118621296D01*
X141988886Y-118620515D01*
X142064337Y-118619814D01*
X142156465Y-118619207D01*
X142263088Y-118618707D01*
X142382027Y-118618330D01*
X142511099Y-118618090D01*
X142648125Y-118618000D01*
X143428319Y-118618000D01*
X143786594Y-119459375D01*
X143786594Y-119459375D01*
G37*
X143786594Y-119459375D02*
X143877989Y-119674234D01*
X143960086Y-119867753D01*
X144033698Y-120041890D01*
X144099637Y-120198606D01*
X144158714Y-120339861D01*
X144211741Y-120467615D01*
X144259530Y-120583828D01*
X144302893Y-120690460D01*
X144342642Y-120789472D01*
X144379589Y-120882823D01*
X144414545Y-120972474D01*
X144430993Y-121015125D01*
X144456452Y-121079988D01*
X144479303Y-121135616D01*
X144497841Y-121178063D01*
X144510364Y-121203381D01*
X144514600Y-121208799D01*
X144523091Y-121197795D01*
X144537329Y-121168632D01*
X144554558Y-121127086D01*
X144558526Y-121116725D01*
X144592743Y-121026352D01*
X144625809Y-120939730D01*
X144658519Y-120854901D01*
X144691673Y-120769910D01*
X144726068Y-120682799D01*
X144762500Y-120591612D01*
X144801767Y-120494391D01*
X144844668Y-120389180D01*
X144891998Y-120274021D01*
X144944557Y-120146959D01*
X145003140Y-120006035D01*
X145068546Y-119849294D01*
X145141572Y-119674779D01*
X145223016Y-119480532D01*
X145301210Y-119294275D01*
X145585245Y-118618000D01*
X147104993Y-118618000D01*
X147090097Y-118646575D01*
X147082261Y-118660691D01*
X147062614Y-118695706D01*
X147031839Y-118750405D01*
X146990623Y-118823573D01*
X146939651Y-118913995D01*
X146879608Y-119020457D01*
X146811180Y-119141745D01*
X146735051Y-119276644D01*
X146651908Y-119423939D01*
X146562436Y-119582416D01*
X146467319Y-119750860D01*
X146367244Y-119928057D01*
X146262896Y-120112793D01*
X146154960Y-120303852D01*
X146105400Y-120391570D01*
X145135600Y-122107990D01*
X145135600Y-124612400D01*
X143776700Y-124612400D01*
X143776700Y-122162388D01*
X142830550Y-120395234D01*
X142725014Y-120198090D01*
X142622783Y-120007058D01*
X142524496Y-119823336D01*
X142430793Y-119648121D01*
X142342312Y-119482610D01*
X142259694Y-119328000D01*
X142183576Y-119185490D01*
X142114599Y-119056277D01*
X142053402Y-118941557D01*
X142000625Y-118842529D01*
X141956905Y-118760390D01*
X141922883Y-118696337D01*
X141899199Y-118651568D01*
X141886490Y-118627280D01*
X141884400Y-118623039D01*
X141896736Y-118622142D01*
X141932292Y-118621296D01*
X141988886Y-118620515D01*
X142064337Y-118619814D01*
X142156465Y-118619207D01*
X142263088Y-118618707D01*
X142382027Y-118618330D01*
X142511099Y-118618090D01*
X142648125Y-118618000D01*
X143428319Y-118618000D01*
X143786594Y-119459375D01*
D11*
X132453475Y-116305820D02*
X132453475Y-117115344D01*
X132501094Y-117210582D01*
X132548713Y-117258201D01*
X132643951Y-117305820D01*
X132834427Y-117305820D01*
X132929665Y-117258201D01*
X132977284Y-117210582D01*
X133024903Y-117115344D01*
X133024903Y-116305820D01*
X133929665Y-116639154D02*
X133929665Y-117305820D01*
X133691570Y-116258201D02*
X133453475Y-116972487D01*
X134072522Y-116972487D01*
X132481415Y-80604320D02*
X132481415Y-81413844D01*
X132529034Y-81509082D01*
X132576653Y-81556701D01*
X132671891Y-81604320D01*
X132862367Y-81604320D01*
X132957605Y-81556701D01*
X133005224Y-81509082D01*
X133052843Y-81413844D01*
X133052843Y-80604320D01*
X133433796Y-80604320D02*
X134052843Y-80604320D01*
X133719510Y-80985273D01*
X133862367Y-80985273D01*
X133957605Y-81032892D01*
X134005224Y-81080511D01*
X134052843Y-81175749D01*
X134052843Y-81413844D01*
X134005224Y-81509082D01*
X133957605Y-81556701D01*
X133862367Y-81604320D01*
X133576653Y-81604320D01*
X133481415Y-81556701D01*
X133433796Y-81509082D01*
D15*
X145182166Y-117403033D02*
X144293166Y-117403033D01*
X145097500Y-116471700D02*
X145139833Y-116514033D01*
X145182166Y-116641033D01*
X145182166Y-116725700D01*
X145139833Y-116852700D01*
X145055166Y-116937366D01*
X144970500Y-116979700D01*
X144801166Y-117022033D01*
X144674166Y-117022033D01*
X144504833Y-116979700D01*
X144420166Y-116937366D01*
X144335500Y-116852700D01*
X144293166Y-116725700D01*
X144293166Y-116641033D01*
X144335500Y-116514033D01*
X144377833Y-116471700D01*
X144377833Y-116133033D02*
X144335500Y-116090700D01*
X144293166Y-116006033D01*
X144293166Y-115794366D01*
X144335500Y-115709700D01*
X144377833Y-115667366D01*
X144462500Y-115625033D01*
X144547166Y-115625033D01*
X144674166Y-115667366D01*
X145182166Y-116175366D01*
X145182166Y-115625033D01*
D11*
X168508514Y-99512380D02*
X168508514Y-98512380D01*
X168746609Y-98512380D01*
X168889466Y-98560000D01*
X168984704Y-98655238D01*
X169032323Y-98750476D01*
X169079942Y-98940952D01*
X169079942Y-99083809D01*
X169032323Y-99274285D01*
X168984704Y-99369523D01*
X168889466Y-99464761D01*
X168746609Y-99512380D01*
X168508514Y-99512380D01*
X170032323Y-99512380D02*
X169460895Y-99512380D01*
X169746609Y-99512380D02*
X169746609Y-98512380D01*
X169651371Y-98655238D01*
X169556133Y-98750476D01*
X169460895Y-98798095D01*
X170984704Y-99512380D02*
X170413276Y-99512380D01*
X170698990Y-99512380D02*
X170698990Y-98512380D01*
X170603752Y-98655238D01*
X170508514Y-98750476D01*
X170413276Y-98798095D01*
X113390514Y-99766380D02*
X113390514Y-98766380D01*
X113628609Y-98766380D01*
X113771466Y-98814000D01*
X113866704Y-98909238D01*
X113914323Y-99004476D01*
X113961942Y-99194952D01*
X113961942Y-99337809D01*
X113914323Y-99528285D01*
X113866704Y-99623523D01*
X113771466Y-99718761D01*
X113628609Y-99766380D01*
X113390514Y-99766380D01*
X114914323Y-99766380D02*
X114342895Y-99766380D01*
X114628609Y-99766380D02*
X114628609Y-98766380D01*
X114533371Y-98909238D01*
X114438133Y-99004476D01*
X114342895Y-99052095D01*
X115295276Y-98861619D02*
X115342895Y-98814000D01*
X115438133Y-98766380D01*
X115676228Y-98766380D01*
X115771466Y-98814000D01*
X115819085Y-98861619D01*
X115866704Y-98956857D01*
X115866704Y-99052095D01*
X115819085Y-99194952D01*
X115247657Y-99766380D01*
X115866704Y-99766380D01*
X155651295Y-123556780D02*
X155651295Y-124366304D01*
X155698914Y-124461542D01*
X155746533Y-124509161D01*
X155841771Y-124556780D01*
X156032247Y-124556780D01*
X156127485Y-124509161D01*
X156175104Y-124461542D01*
X156222723Y-124366304D01*
X156222723Y-123556780D01*
X157222723Y-124556780D02*
X156651295Y-124556780D01*
X156937009Y-124556780D02*
X156937009Y-123556780D01*
X156841771Y-123699638D01*
X156746533Y-123794876D01*
X156651295Y-123842495D01*
X125106133Y-110485180D02*
X124772800Y-110008990D01*
X124534704Y-110485180D02*
X124534704Y-109485180D01*
X124915657Y-109485180D01*
X125010895Y-109532800D01*
X125058514Y-109580419D01*
X125106133Y-109675657D01*
X125106133Y-109818514D01*
X125058514Y-109913752D01*
X125010895Y-109961371D01*
X124915657Y-110008990D01*
X124534704Y-110008990D01*
X126058514Y-110485180D02*
X125487085Y-110485180D01*
X125772800Y-110485180D02*
X125772800Y-109485180D01*
X125677561Y-109628038D01*
X125582323Y-109723276D01*
X125487085Y-109770895D01*
X144714933Y-113539542D02*
X144667314Y-113587161D01*
X144524457Y-113634780D01*
X144429219Y-113634780D01*
X144286361Y-113587161D01*
X144191123Y-113491923D01*
X144143504Y-113396685D01*
X144095885Y-113206209D01*
X144095885Y-113063352D01*
X144143504Y-112872876D01*
X144191123Y-112777638D01*
X144286361Y-112682400D01*
X144429219Y-112634780D01*
X144524457Y-112634780D01*
X144667314Y-112682400D01*
X144714933Y-112730019D01*
X145619695Y-112634780D02*
X145143504Y-112634780D01*
X145095885Y-113110971D01*
X145143504Y-113063352D01*
X145238742Y-113015733D01*
X145476838Y-113015733D01*
X145572076Y-113063352D01*
X145619695Y-113110971D01*
X145667314Y-113206209D01*
X145667314Y-113444304D01*
X145619695Y-113539542D01*
X145572076Y-113587161D01*
X145476838Y-113634780D01*
X145238742Y-113634780D01*
X145143504Y-113587161D01*
X145095885Y-113539542D01*
M02*
