%TF.GenerationSoftware,KiCad,Pcbnew,5.0.2-bee76a0~70~ubuntu18.04.1*%
%TF.CreationDate,2020-02-29T13:06:47-08:00*%
%TF.ProjectId,ypanel,7970616e-656c-42e6-9b69-6361645f7063,rev?*%
%TF.SameCoordinates,Original*%
%TF.FileFunction,Soldermask,Top*%
%TF.FilePolarity,Negative*%
%FSLAX46Y46*%
G04 Gerber Fmt 4.6, Leading zero omitted, Abs format (unit mm)*
G04 Created by KiCad (PCBNEW 5.0.2-bee76a0~70~ubuntu18.04.1) date Sat 29 Feb 2020 01:06:47 PM PST*
%MOMM*%
%LPD*%
G01*
G04 APERTURE LIST*
%ADD10C,0.100000*%
%ADD11C,0.300000*%
%ADD12C,0.050000*%
G04 APERTURE END LIST*
D10*
X151587000Y-99000001D02*
G75*
G03X151587000Y-99000001I-8000000J0D01*
G01*
X134779564Y-114100000D02*
G75*
G03X134779564Y-114100000I-1029564J0D01*
G01*
X141279564Y-114100000D02*
G75*
G03X141279564Y-114100000I-1029564J0D01*
G01*
X126375000Y-118900000D02*
G75*
G03X126375000Y-118900000I-1300000J0D01*
G01*
X140979564Y-83920436D02*
G75*
G03X140979564Y-83920436I-1029564J0D01*
G01*
X147479564Y-83920436D02*
G75*
G03X147479564Y-83920436I-1029564J0D01*
G01*
X176975000Y-70000000D02*
X176975000Y-128000000D01*
D11*
X134941428Y-97706085D02*
X133941428Y-98063228D01*
X134941428Y-98420371D01*
X135441428Y-99277514D02*
X135441428Y-99420371D01*
X135370000Y-99563228D01*
X135298571Y-99634657D01*
X135155714Y-99706085D01*
X134870000Y-99777514D01*
X134512857Y-99777514D01*
X134227142Y-99706085D01*
X134084285Y-99634657D01*
X134012857Y-99563228D01*
X133941428Y-99420371D01*
X133941428Y-99277514D01*
X134012857Y-99134657D01*
X134084285Y-99063228D01*
X134227142Y-98991800D01*
X134512857Y-98920371D01*
X134870000Y-98920371D01*
X135155714Y-98991800D01*
X135298571Y-99063228D01*
X135370000Y-99134657D01*
X135441428Y-99277514D01*
X133941428Y-101206085D02*
X133941428Y-100348942D01*
X133941428Y-100777514D02*
X135441428Y-100777514D01*
X135227142Y-100634657D01*
X135084285Y-100491800D01*
X135012857Y-100348942D01*
D10*
X166200000Y-118900000D02*
G75*
G03X166200000Y-118900000I-1300000J0D01*
G01*
D12*
X126372800Y-79100000D02*
G75*
G03X126372800Y-79100000I-1300000J0D01*
G01*
D10*
X166195000Y-79102480D02*
G75*
G03X166195000Y-79102480I-1300000J0D01*
G01*
X176975000Y-70000000D02*
X113000000Y-70000000D01*
X113000000Y-128000000D02*
X176975000Y-128000000D01*
X113000000Y-70000000D02*
X113000000Y-128000000D01*
G36*
X175491100Y-124112000D02*
X167993100Y-124112000D01*
X167993100Y-122014000D01*
X175491100Y-122014000D01*
X175491100Y-124112000D01*
X175491100Y-124112000D01*
G37*
G36*
X122749000Y-124049000D02*
X115251000Y-124049000D01*
X115251000Y-121951000D01*
X122749000Y-121951000D01*
X122749000Y-124049000D01*
X122749000Y-124049000D01*
G37*
G36*
X128903600Y-112447700D02*
X127805600Y-112447700D01*
X127805600Y-111649700D01*
X128903600Y-111649700D01*
X128903600Y-112447700D01*
X128903600Y-112447700D01*
G37*
G36*
X126003600Y-112447700D02*
X124905600Y-112447700D01*
X124905600Y-111649700D01*
X126003600Y-111649700D01*
X126003600Y-112447700D01*
X126003600Y-112447700D01*
G37*
G36*
X123916533Y-111710264D02*
X123944108Y-111718630D01*
X123969522Y-111732214D01*
X123991802Y-111750498D01*
X124010086Y-111772778D01*
X124023670Y-111798192D01*
X124032036Y-111825767D01*
X124035100Y-111856884D01*
X124035100Y-112245516D01*
X124032036Y-112276633D01*
X124023670Y-112304208D01*
X124010086Y-112329622D01*
X123991802Y-112351902D01*
X123969522Y-112370186D01*
X123944108Y-112383770D01*
X123916533Y-112392136D01*
X123885416Y-112395200D01*
X123446784Y-112395200D01*
X123415667Y-112392136D01*
X123388092Y-112383770D01*
X123362678Y-112370186D01*
X123340398Y-112351902D01*
X123322114Y-112329622D01*
X123308530Y-112304208D01*
X123300164Y-112276633D01*
X123297100Y-112245516D01*
X123297100Y-111856884D01*
X123300164Y-111825767D01*
X123308530Y-111798192D01*
X123322114Y-111772778D01*
X123340398Y-111750498D01*
X123362678Y-111732214D01*
X123388092Y-111718630D01*
X123415667Y-111710264D01*
X123446784Y-111707200D01*
X123885416Y-111707200D01*
X123916533Y-111710264D01*
X123916533Y-111710264D01*
G37*
G36*
X128903600Y-111497700D02*
X127805600Y-111497700D01*
X127805600Y-110699700D01*
X128903600Y-110699700D01*
X128903600Y-111497700D01*
X128903600Y-111497700D01*
G37*
G36*
X126003600Y-111497700D02*
X124905600Y-111497700D01*
X124905600Y-110699700D01*
X126003600Y-110699700D01*
X126003600Y-111497700D01*
X126003600Y-111497700D01*
G37*
G36*
X123916533Y-110734764D02*
X123944108Y-110743130D01*
X123969522Y-110756714D01*
X123991802Y-110774998D01*
X124010086Y-110797278D01*
X124023670Y-110822692D01*
X124032036Y-110850267D01*
X124035100Y-110881384D01*
X124035100Y-111275516D01*
X124032036Y-111306633D01*
X124023670Y-111334208D01*
X124010086Y-111359622D01*
X123991802Y-111381902D01*
X123969522Y-111400186D01*
X123944108Y-111413770D01*
X123916533Y-111422136D01*
X123885416Y-111425200D01*
X123446784Y-111425200D01*
X123415667Y-111422136D01*
X123388092Y-111413770D01*
X123362678Y-111400186D01*
X123340398Y-111381902D01*
X123322114Y-111359622D01*
X123308530Y-111334208D01*
X123300164Y-111306633D01*
X123297100Y-111275516D01*
X123297100Y-110881384D01*
X123300164Y-110850267D01*
X123308530Y-110822692D01*
X123322114Y-110797278D01*
X123340398Y-110774998D01*
X123362678Y-110756714D01*
X123388092Y-110743130D01*
X123415667Y-110734764D01*
X123446784Y-110731700D01*
X123885416Y-110731700D01*
X123916533Y-110734764D01*
X123916533Y-110734764D01*
G37*
G36*
X137112635Y-109095516D02*
X137236561Y-109120166D01*
X137318745Y-109154208D01*
X137384153Y-109181301D01*
X137516982Y-109270055D01*
X137629945Y-109383018D01*
X137714125Y-109509001D01*
X137718700Y-109515849D01*
X137736983Y-109559987D01*
X137779834Y-109663440D01*
X137804355Y-109786714D01*
X137811000Y-109820124D01*
X137811000Y-109979876D01*
X137779834Y-110136561D01*
X137735337Y-110243986D01*
X137718699Y-110284153D01*
X137629945Y-110416982D01*
X137516982Y-110529945D01*
X137384153Y-110618699D01*
X137384152Y-110618700D01*
X137384151Y-110618700D01*
X137236561Y-110679834D01*
X137079877Y-110711000D01*
X136920123Y-110711000D01*
X136763439Y-110679834D01*
X136615849Y-110618700D01*
X136615848Y-110618700D01*
X136615847Y-110618699D01*
X136483018Y-110529945D01*
X136370055Y-110416982D01*
X136281301Y-110284153D01*
X136264663Y-110243986D01*
X136220166Y-110136561D01*
X136189000Y-109979876D01*
X136189000Y-109820124D01*
X136195646Y-109786714D01*
X136220166Y-109663440D01*
X136263018Y-109559987D01*
X136281300Y-109515849D01*
X136285876Y-109509001D01*
X136370055Y-109383018D01*
X136483018Y-109270055D01*
X136615847Y-109181301D01*
X136681255Y-109154208D01*
X136763439Y-109120166D01*
X136887365Y-109095516D01*
X136920123Y-109089000D01*
X137079877Y-109089000D01*
X137112635Y-109095516D01*
X137112635Y-109095516D01*
G37*
G36*
X142192635Y-109095516D02*
X142316561Y-109120166D01*
X142398745Y-109154208D01*
X142464153Y-109181301D01*
X142596982Y-109270055D01*
X142709945Y-109383018D01*
X142794125Y-109509001D01*
X142798700Y-109515849D01*
X142816983Y-109559987D01*
X142859834Y-109663440D01*
X142884355Y-109786714D01*
X142891000Y-109820124D01*
X142891000Y-109979876D01*
X142859834Y-110136561D01*
X142815337Y-110243986D01*
X142798699Y-110284153D01*
X142709945Y-110416982D01*
X142596982Y-110529945D01*
X142464153Y-110618699D01*
X142464152Y-110618700D01*
X142464151Y-110618700D01*
X142316561Y-110679834D01*
X142159877Y-110711000D01*
X142000123Y-110711000D01*
X141843439Y-110679834D01*
X141695849Y-110618700D01*
X141695848Y-110618700D01*
X141695847Y-110618699D01*
X141563018Y-110529945D01*
X141450055Y-110416982D01*
X141361301Y-110284153D01*
X141344663Y-110243986D01*
X141300166Y-110136561D01*
X141269000Y-109979876D01*
X141269000Y-109820124D01*
X141275646Y-109786714D01*
X141300166Y-109663440D01*
X141343018Y-109559987D01*
X141361300Y-109515849D01*
X141365876Y-109509001D01*
X141450055Y-109383018D01*
X141563018Y-109270055D01*
X141695847Y-109181301D01*
X141761255Y-109154208D01*
X141843439Y-109120166D01*
X141967365Y-109095516D01*
X142000123Y-109089000D01*
X142159877Y-109089000D01*
X142192635Y-109095516D01*
X142192635Y-109095516D01*
G37*
G36*
X132032635Y-109095516D02*
X132156561Y-109120166D01*
X132238745Y-109154208D01*
X132304153Y-109181301D01*
X132436982Y-109270055D01*
X132549945Y-109383018D01*
X132634125Y-109509001D01*
X132638700Y-109515849D01*
X132656983Y-109559987D01*
X132699834Y-109663440D01*
X132724355Y-109786714D01*
X132731000Y-109820124D01*
X132731000Y-109979876D01*
X132699834Y-110136561D01*
X132655337Y-110243986D01*
X132638699Y-110284153D01*
X132549945Y-110416982D01*
X132436982Y-110529945D01*
X132304153Y-110618699D01*
X132304152Y-110618700D01*
X132304151Y-110618700D01*
X132156561Y-110679834D01*
X131999877Y-110711000D01*
X131840123Y-110711000D01*
X131683439Y-110679834D01*
X131535849Y-110618700D01*
X131535848Y-110618700D01*
X131535847Y-110618699D01*
X131403018Y-110529945D01*
X131290055Y-110416982D01*
X131232692Y-110331133D01*
X131205875Y-110290999D01*
X131199719Y-110283498D01*
X131192217Y-110277342D01*
X131183660Y-110272768D01*
X131174374Y-110269951D01*
X131164717Y-110269000D01*
X130840684Y-110269000D01*
X130809567Y-110265936D01*
X130781992Y-110257570D01*
X130756578Y-110243986D01*
X130734298Y-110225702D01*
X130716014Y-110203422D01*
X130702430Y-110178008D01*
X130694064Y-110150433D01*
X130691000Y-110119316D01*
X130691000Y-109680684D01*
X130694064Y-109649567D01*
X130702430Y-109621992D01*
X130716014Y-109596578D01*
X130734298Y-109574298D01*
X130756578Y-109556014D01*
X130781992Y-109542430D01*
X130809567Y-109534064D01*
X130840684Y-109531000D01*
X131164717Y-109531000D01*
X131174374Y-109530049D01*
X131183660Y-109527232D01*
X131192218Y-109522658D01*
X131199719Y-109516502D01*
X131205875Y-109509001D01*
X131290056Y-109383017D01*
X131403017Y-109270056D01*
X131444802Y-109242136D01*
X131535847Y-109181301D01*
X131601255Y-109154208D01*
X131683439Y-109120166D01*
X131807365Y-109095516D01*
X131840123Y-109089000D01*
X131999877Y-109089000D01*
X132032635Y-109095516D01*
X132032635Y-109095516D01*
G37*
G36*
X126003600Y-110547700D02*
X124905600Y-110547700D01*
X124905600Y-109749700D01*
X126003600Y-109749700D01*
X126003600Y-110547700D01*
X126003600Y-110547700D01*
G37*
G36*
X128903600Y-110547700D02*
X127805600Y-110547700D01*
X127805600Y-109749700D01*
X128903600Y-109749700D01*
X128903600Y-110547700D01*
X128903600Y-110547700D01*
G37*
G36*
X123916533Y-109764764D02*
X123944108Y-109773130D01*
X123969522Y-109786714D01*
X123991802Y-109804998D01*
X124010086Y-109827278D01*
X124023670Y-109852692D01*
X124032036Y-109880267D01*
X124035100Y-109911384D01*
X124035100Y-110300016D01*
X124032036Y-110331133D01*
X124023670Y-110358708D01*
X124010086Y-110384122D01*
X123991802Y-110406402D01*
X123969522Y-110424686D01*
X123944108Y-110438270D01*
X123916533Y-110446636D01*
X123885416Y-110449700D01*
X123446784Y-110449700D01*
X123415667Y-110446636D01*
X123388092Y-110438270D01*
X123362678Y-110424686D01*
X123340398Y-110406402D01*
X123322114Y-110384122D01*
X123308530Y-110358708D01*
X123300164Y-110331133D01*
X123297100Y-110300016D01*
X123297100Y-109911384D01*
X123300164Y-109880267D01*
X123308530Y-109852692D01*
X123322114Y-109827278D01*
X123340398Y-109804998D01*
X123362678Y-109786714D01*
X123388092Y-109773130D01*
X123415667Y-109764764D01*
X123446784Y-109761700D01*
X123885416Y-109761700D01*
X123916533Y-109764764D01*
X123916533Y-109764764D01*
G37*
G36*
X130290433Y-109534064D02*
X130318008Y-109542430D01*
X130343422Y-109556014D01*
X130365702Y-109574298D01*
X130383986Y-109596578D01*
X130397570Y-109621992D01*
X130405936Y-109649567D01*
X130409000Y-109680684D01*
X130409000Y-110119316D01*
X130405936Y-110150433D01*
X130397570Y-110178008D01*
X130383986Y-110203422D01*
X130365702Y-110225702D01*
X130343422Y-110243986D01*
X130318008Y-110257570D01*
X130290433Y-110265936D01*
X130259316Y-110269000D01*
X129870684Y-110269000D01*
X129839567Y-110265936D01*
X129811992Y-110257570D01*
X129786578Y-110243986D01*
X129764298Y-110225702D01*
X129746014Y-110203422D01*
X129732430Y-110178008D01*
X129724064Y-110150433D01*
X129721000Y-110119316D01*
X129721000Y-109680684D01*
X129724064Y-109649567D01*
X129732430Y-109621992D01*
X129746014Y-109596578D01*
X129764298Y-109574298D01*
X129786578Y-109556014D01*
X129811992Y-109542430D01*
X129839567Y-109534064D01*
X129870684Y-109531000D01*
X130259316Y-109531000D01*
X130290433Y-109534064D01*
X130290433Y-109534064D01*
G37*
G36*
X126772033Y-108510264D02*
X126799608Y-108518630D01*
X126825022Y-108532214D01*
X126847302Y-108550498D01*
X126865586Y-108572778D01*
X126879170Y-108598192D01*
X126887536Y-108625767D01*
X126890600Y-108656884D01*
X126890600Y-109095516D01*
X126887536Y-109126633D01*
X126879170Y-109154208D01*
X126865586Y-109179622D01*
X126847302Y-109201902D01*
X126825022Y-109220186D01*
X126799608Y-109233770D01*
X126772033Y-109242136D01*
X126740916Y-109245200D01*
X126352284Y-109245200D01*
X126321167Y-109242136D01*
X126293592Y-109233770D01*
X126268178Y-109220186D01*
X126245898Y-109201902D01*
X126227614Y-109179622D01*
X126214030Y-109154208D01*
X126205664Y-109126633D01*
X126202600Y-109095516D01*
X126202600Y-108656884D01*
X126205664Y-108625767D01*
X126214030Y-108598192D01*
X126227614Y-108572778D01*
X126245898Y-108550498D01*
X126268178Y-108532214D01*
X126293592Y-108518630D01*
X126321167Y-108510264D01*
X126352284Y-108507200D01*
X126740916Y-108507200D01*
X126772033Y-108510264D01*
X126772033Y-108510264D01*
G37*
G36*
X127742033Y-108510264D02*
X127769608Y-108518630D01*
X127795022Y-108532214D01*
X127817302Y-108550498D01*
X127835586Y-108572778D01*
X127849170Y-108598192D01*
X127857536Y-108625767D01*
X127860600Y-108656884D01*
X127860600Y-109095516D01*
X127857536Y-109126633D01*
X127849170Y-109154208D01*
X127835586Y-109179622D01*
X127817302Y-109201902D01*
X127795022Y-109220186D01*
X127769608Y-109233770D01*
X127742033Y-109242136D01*
X127710916Y-109245200D01*
X127322284Y-109245200D01*
X127291167Y-109242136D01*
X127263592Y-109233770D01*
X127238178Y-109220186D01*
X127215898Y-109201902D01*
X127197614Y-109179622D01*
X127184030Y-109154208D01*
X127175664Y-109126633D01*
X127172600Y-109095516D01*
X127172600Y-108656884D01*
X127175664Y-108625767D01*
X127184030Y-108598192D01*
X127197614Y-108572778D01*
X127215898Y-108550498D01*
X127238178Y-108532214D01*
X127263592Y-108518630D01*
X127291167Y-108510264D01*
X127322284Y-108507200D01*
X127710916Y-108507200D01*
X127742033Y-108510264D01*
X127742033Y-108510264D01*
G37*
G36*
X166847480Y-105299000D02*
X159349480Y-105299000D01*
X159349480Y-103201000D01*
X166847480Y-103201000D01*
X166847480Y-105299000D01*
X166847480Y-105299000D01*
G37*
G36*
X134599000Y-103699000D02*
X127101000Y-103699000D01*
X127101000Y-101601000D01*
X134599000Y-101601000D01*
X134599000Y-103699000D01*
X134599000Y-103699000D01*
G37*
G36*
X175491100Y-103112000D02*
X167993100Y-103112000D01*
X167993100Y-101014000D01*
X175491100Y-101014000D01*
X175491100Y-103112000D01*
X175491100Y-103112000D01*
G37*
G36*
X122749000Y-103049000D02*
X115251000Y-103049000D01*
X115251000Y-100951000D01*
X122749000Y-100951000D01*
X122749000Y-103049000D01*
X122749000Y-103049000D01*
G37*
G36*
X125844300Y-102626160D02*
X123685300Y-102626160D01*
X123685300Y-100467160D01*
X125844300Y-100467160D01*
X125844300Y-102626160D01*
X125844300Y-102626160D01*
G37*
G36*
X118944000Y-99999500D02*
X116146000Y-99999500D01*
X116146000Y-98501500D01*
X118944000Y-98501500D01*
X118944000Y-99999500D01*
X118944000Y-99999500D01*
G37*
G36*
X121344000Y-99999500D02*
X119846000Y-99999500D01*
X119846000Y-98501500D01*
X121344000Y-98501500D01*
X121344000Y-99999500D01*
X121344000Y-99999500D01*
G37*
G36*
X176462000Y-99872500D02*
X174964000Y-99872500D01*
X174964000Y-98374500D01*
X176462000Y-98374500D01*
X176462000Y-99872500D01*
X176462000Y-99872500D01*
G37*
G36*
X174062000Y-99872500D02*
X171264000Y-99872500D01*
X171264000Y-98374500D01*
X174062000Y-98374500D01*
X174062000Y-99872500D01*
X174062000Y-99872500D01*
G37*
G36*
X165510138Y-98122098D02*
X165610047Y-98163482D01*
X165610049Y-98163483D01*
X165699967Y-98223564D01*
X165776436Y-98300033D01*
X165836517Y-98389951D01*
X165877902Y-98489863D01*
X165899000Y-98595928D01*
X165899000Y-98704072D01*
X165877902Y-98810137D01*
X165836517Y-98910049D01*
X165776436Y-98999967D01*
X165699967Y-99076436D01*
X165610049Y-99136517D01*
X165610048Y-99136518D01*
X165610047Y-99136518D01*
X165510138Y-99177902D01*
X165457104Y-99188451D01*
X165404072Y-99199000D01*
X165295928Y-99199000D01*
X165189862Y-99177902D01*
X165089953Y-99136518D01*
X165089952Y-99136518D01*
X165089951Y-99136517D01*
X165000033Y-99076436D01*
X164923564Y-98999967D01*
X164863483Y-98910049D01*
X164822098Y-98810137D01*
X164801000Y-98704072D01*
X164801000Y-98595928D01*
X164822098Y-98489863D01*
X164863483Y-98389951D01*
X164923564Y-98300033D01*
X165000033Y-98223564D01*
X165089951Y-98163483D01*
X165089953Y-98163482D01*
X165189862Y-98122098D01*
X165295928Y-98101000D01*
X165404072Y-98101000D01*
X165510138Y-98122098D01*
X165510138Y-98122098D01*
G37*
G36*
X125075450Y-96666987D02*
X125140055Y-96693748D01*
X125269267Y-96747269D01*
X125363220Y-96810047D01*
X125443699Y-96863821D01*
X125592039Y-97012161D01*
X125616654Y-97049000D01*
X125708591Y-97186593D01*
X125788873Y-97380411D01*
X125829800Y-97586167D01*
X125829800Y-97795953D01*
X125788873Y-98001709D01*
X125708591Y-98195527D01*
X125638762Y-98300032D01*
X125592039Y-98369959D01*
X125443699Y-98518299D01*
X125385554Y-98557150D01*
X125269267Y-98634851D01*
X125140055Y-98688372D01*
X125075450Y-98715133D01*
X124869693Y-98756060D01*
X124659907Y-98756060D01*
X124454150Y-98715133D01*
X124389545Y-98688372D01*
X124260333Y-98634851D01*
X124144046Y-98557150D01*
X124085901Y-98518299D01*
X123937561Y-98369959D01*
X123890838Y-98300032D01*
X123821009Y-98195527D01*
X123740727Y-98001709D01*
X123699800Y-97795953D01*
X123699800Y-97586167D01*
X123740727Y-97380411D01*
X123821009Y-97186593D01*
X123912946Y-97049000D01*
X123937561Y-97012161D01*
X124085901Y-96863821D01*
X124166380Y-96810047D01*
X124260333Y-96747269D01*
X124389545Y-96693748D01*
X124454150Y-96666987D01*
X124659907Y-96626060D01*
X124869693Y-96626060D01*
X125075450Y-96666987D01*
X125075450Y-96666987D01*
G37*
G36*
X166160138Y-96022098D02*
X166260047Y-96063482D01*
X166260049Y-96063483D01*
X166349967Y-96123564D01*
X166426435Y-96200032D01*
X166486518Y-96289953D01*
X166527902Y-96389862D01*
X166549000Y-96495929D01*
X166549000Y-96604071D01*
X166527902Y-96710138D01*
X166486518Y-96810047D01*
X166486517Y-96810049D01*
X166426436Y-96899967D01*
X166349967Y-96976436D01*
X166260049Y-97036517D01*
X166260048Y-97036518D01*
X166260047Y-97036518D01*
X166160138Y-97077902D01*
X166107104Y-97088451D01*
X166054072Y-97099000D01*
X165945928Y-97099000D01*
X165892896Y-97088451D01*
X165839862Y-97077902D01*
X165739953Y-97036518D01*
X165739952Y-97036518D01*
X165739951Y-97036517D01*
X165650033Y-96976436D01*
X165573564Y-96899967D01*
X165513483Y-96810049D01*
X165513482Y-96810047D01*
X165472098Y-96710138D01*
X165451000Y-96604071D01*
X165451000Y-96495929D01*
X165472098Y-96389862D01*
X165513482Y-96289953D01*
X165573565Y-96200032D01*
X165650033Y-96123564D01*
X165739951Y-96063483D01*
X165739953Y-96063482D01*
X165839862Y-96022098D01*
X165945928Y-96001000D01*
X166054072Y-96001000D01*
X166160138Y-96022098D01*
X166160138Y-96022098D01*
G37*
G36*
X122749000Y-97049000D02*
X115251000Y-97049000D01*
X115251000Y-94951000D01*
X122749000Y-94951000D01*
X122749000Y-97049000D01*
X122749000Y-97049000D01*
G37*
G36*
X175435220Y-96939080D02*
X167937220Y-96939080D01*
X167937220Y-94841080D01*
X175435220Y-94841080D01*
X175435220Y-96939080D01*
X175435220Y-96939080D01*
G37*
G36*
X161427858Y-89245558D02*
X161527767Y-89286942D01*
X161527769Y-89286943D01*
X161617687Y-89347024D01*
X161694156Y-89423493D01*
X161754237Y-89513411D01*
X161795622Y-89613323D01*
X161816720Y-89719388D01*
X161816720Y-89827532D01*
X161795622Y-89933597D01*
X161754237Y-90033509D01*
X161694156Y-90123427D01*
X161617687Y-90199896D01*
X161527769Y-90259977D01*
X161527768Y-90259978D01*
X161527767Y-90259978D01*
X161427858Y-90301362D01*
X161374824Y-90311911D01*
X161321792Y-90322460D01*
X161213648Y-90322460D01*
X161160616Y-90311911D01*
X161107582Y-90301362D01*
X161007673Y-90259978D01*
X161007672Y-90259978D01*
X161007671Y-90259977D01*
X160917753Y-90199896D01*
X160841284Y-90123427D01*
X160781203Y-90033509D01*
X160739818Y-89933597D01*
X160718720Y-89827532D01*
X160718720Y-89719388D01*
X160739818Y-89613323D01*
X160781203Y-89513411D01*
X160841284Y-89423493D01*
X160917753Y-89347024D01*
X161007671Y-89286943D01*
X161007673Y-89286942D01*
X161107582Y-89245558D01*
X161213648Y-89224460D01*
X161321792Y-89224460D01*
X161427858Y-89245558D01*
X161427858Y-89245558D01*
G37*
G36*
X138258218Y-87304583D02*
X138336561Y-87320166D01*
X138484151Y-87381300D01*
X138484153Y-87381301D01*
X138616982Y-87470055D01*
X138729945Y-87583018D01*
X138818699Y-87715847D01*
X138879834Y-87863440D01*
X138911000Y-88020123D01*
X138911000Y-88179877D01*
X138879834Y-88336560D01*
X138818699Y-88484153D01*
X138729945Y-88616982D01*
X138616982Y-88729945D01*
X138484153Y-88818699D01*
X138484152Y-88818700D01*
X138484151Y-88818700D01*
X138336561Y-88879834D01*
X138179877Y-88911000D01*
X138020123Y-88911000D01*
X137941782Y-88895417D01*
X137863439Y-88879834D01*
X137715849Y-88818700D01*
X137715848Y-88818700D01*
X137715847Y-88818699D01*
X137583018Y-88729945D01*
X137470055Y-88616982D01*
X137381301Y-88484153D01*
X137320166Y-88336560D01*
X137289000Y-88179877D01*
X137289000Y-88020123D01*
X137320166Y-87863440D01*
X137381301Y-87715847D01*
X137470055Y-87583018D01*
X137583018Y-87470055D01*
X137715847Y-87381301D01*
X137715849Y-87381300D01*
X137863439Y-87320166D01*
X138020123Y-87289000D01*
X138179877Y-87289000D01*
X138258218Y-87304583D01*
X138258218Y-87304583D01*
G37*
G36*
X143358218Y-87304583D02*
X143436561Y-87320166D01*
X143584151Y-87381300D01*
X143584153Y-87381301D01*
X143716982Y-87470055D01*
X143829945Y-87583018D01*
X143918699Y-87715847D01*
X143979834Y-87863440D01*
X144011000Y-88020123D01*
X144011000Y-88179877D01*
X143979834Y-88336560D01*
X143918699Y-88484153D01*
X143829945Y-88616982D01*
X143716982Y-88729945D01*
X143584153Y-88818699D01*
X143584152Y-88818700D01*
X143584151Y-88818700D01*
X143436561Y-88879834D01*
X143279877Y-88911000D01*
X143120123Y-88911000D01*
X143041782Y-88895417D01*
X142963439Y-88879834D01*
X142815849Y-88818700D01*
X142815848Y-88818700D01*
X142815847Y-88818699D01*
X142683018Y-88729945D01*
X142570055Y-88616982D01*
X142481301Y-88484153D01*
X142420166Y-88336560D01*
X142389000Y-88179877D01*
X142389000Y-88020123D01*
X142420166Y-87863440D01*
X142481301Y-87715847D01*
X142570055Y-87583018D01*
X142683018Y-87470055D01*
X142815847Y-87381301D01*
X142815849Y-87381300D01*
X142963439Y-87320166D01*
X143120123Y-87289000D01*
X143279877Y-87289000D01*
X143358218Y-87304583D01*
X143358218Y-87304583D01*
G37*
G36*
X148458218Y-87304583D02*
X148536561Y-87320166D01*
X148684151Y-87381300D01*
X148684153Y-87381301D01*
X148816982Y-87470055D01*
X148929945Y-87583018D01*
X149018699Y-87715847D01*
X149079834Y-87863440D01*
X149111000Y-88020123D01*
X149111000Y-88179877D01*
X149079834Y-88336560D01*
X149018699Y-88484153D01*
X148929945Y-88616982D01*
X148816982Y-88729945D01*
X148684153Y-88818699D01*
X148684152Y-88818700D01*
X148684151Y-88818700D01*
X148536561Y-88879834D01*
X148379877Y-88911000D01*
X148220123Y-88911000D01*
X148141782Y-88895417D01*
X148063439Y-88879834D01*
X147915849Y-88818700D01*
X147915848Y-88818700D01*
X147915847Y-88818699D01*
X147783018Y-88729945D01*
X147670055Y-88616982D01*
X147581301Y-88484153D01*
X147520166Y-88336560D01*
X147489000Y-88179877D01*
X147489000Y-88020123D01*
X147520166Y-87863440D01*
X147581301Y-87715847D01*
X147670055Y-87583018D01*
X147783018Y-87470055D01*
X147915847Y-87381301D01*
X147915849Y-87381300D01*
X148063439Y-87320166D01*
X148220123Y-87289000D01*
X148379877Y-87289000D01*
X148458218Y-87304583D01*
X148458218Y-87304583D01*
G37*
G36*
X153587433Y-85664664D02*
X153615008Y-85673030D01*
X153640422Y-85686614D01*
X153662702Y-85704898D01*
X153680986Y-85727178D01*
X153694570Y-85752592D01*
X153702936Y-85780167D01*
X153706000Y-85811284D01*
X153706000Y-86249916D01*
X153702936Y-86281033D01*
X153694570Y-86308608D01*
X153680986Y-86334022D01*
X153662702Y-86356302D01*
X153640422Y-86374586D01*
X153615008Y-86388170D01*
X153587433Y-86396536D01*
X153556316Y-86399600D01*
X153167404Y-86399600D01*
X153136287Y-86396536D01*
X153108712Y-86388170D01*
X153083298Y-86374586D01*
X153061018Y-86356302D01*
X153042734Y-86334022D01*
X153029150Y-86308608D01*
X153020784Y-86281033D01*
X153017720Y-86249916D01*
X153017720Y-85811284D01*
X153020784Y-85780167D01*
X153029150Y-85752592D01*
X153042734Y-85727178D01*
X153061018Y-85704898D01*
X153083298Y-85686614D01*
X153108712Y-85673030D01*
X153136287Y-85664664D01*
X153167404Y-85661600D01*
X153556316Y-85661600D01*
X153587433Y-85664664D01*
X153587433Y-85664664D01*
G37*
G36*
X152617153Y-85664664D02*
X152644728Y-85673030D01*
X152670142Y-85686614D01*
X152692422Y-85704898D01*
X152710706Y-85727178D01*
X152724290Y-85752592D01*
X152732656Y-85780167D01*
X152735720Y-85811284D01*
X152735720Y-86249916D01*
X152732656Y-86281033D01*
X152724290Y-86308608D01*
X152710706Y-86334022D01*
X152692422Y-86356302D01*
X152670142Y-86374586D01*
X152644728Y-86388170D01*
X152617153Y-86396536D01*
X152586036Y-86399600D01*
X152197404Y-86399600D01*
X152166287Y-86396536D01*
X152138712Y-86388170D01*
X152113298Y-86374586D01*
X152091018Y-86356302D01*
X152072734Y-86334022D01*
X152059150Y-86308608D01*
X152050784Y-86281033D01*
X152047720Y-86249916D01*
X152047720Y-85811284D01*
X152050784Y-85780167D01*
X152059150Y-85752592D01*
X152072734Y-85727178D01*
X152091018Y-85704898D01*
X152113298Y-85686614D01*
X152138712Y-85673030D01*
X152166287Y-85664664D01*
X152197404Y-85661600D01*
X152586036Y-85661600D01*
X152617153Y-85664664D01*
X152617153Y-85664664D01*
G37*
G36*
X154557433Y-85664664D02*
X154585008Y-85673030D01*
X154610422Y-85686614D01*
X154632702Y-85704898D01*
X154650986Y-85727178D01*
X154664570Y-85752592D01*
X154672936Y-85780167D01*
X154676000Y-85811284D01*
X154676000Y-86249916D01*
X154672936Y-86281033D01*
X154664570Y-86308608D01*
X154650986Y-86334022D01*
X154632702Y-86356302D01*
X154610422Y-86374586D01*
X154585008Y-86388170D01*
X154557433Y-86396536D01*
X154526316Y-86399600D01*
X154137684Y-86399600D01*
X154106567Y-86396536D01*
X154078992Y-86388170D01*
X154053578Y-86374586D01*
X154031298Y-86356302D01*
X154013014Y-86334022D01*
X153999430Y-86308608D01*
X153991064Y-86281033D01*
X153988000Y-86249916D01*
X153988000Y-85811284D01*
X153991064Y-85780167D01*
X153999430Y-85752592D01*
X154013014Y-85727178D01*
X154031298Y-85704898D01*
X154053578Y-85686614D01*
X154078992Y-85673030D01*
X154106567Y-85664664D01*
X154137684Y-85661600D01*
X154526316Y-85661600D01*
X154557433Y-85664664D01*
X154557433Y-85664664D01*
G37*
G36*
X153587433Y-84267664D02*
X153615008Y-84276030D01*
X153640422Y-84289614D01*
X153662702Y-84307898D01*
X153680986Y-84330178D01*
X153694570Y-84355592D01*
X153702936Y-84383167D01*
X153706000Y-84414284D01*
X153706000Y-84852916D01*
X153702936Y-84884033D01*
X153694570Y-84911608D01*
X153680986Y-84937022D01*
X153662702Y-84959302D01*
X153640422Y-84977586D01*
X153615008Y-84991170D01*
X153587433Y-84999536D01*
X153556316Y-85002600D01*
X153167404Y-85002600D01*
X153136287Y-84999536D01*
X153108712Y-84991170D01*
X153083298Y-84977586D01*
X153061018Y-84959302D01*
X153042734Y-84937022D01*
X153029150Y-84911608D01*
X153020784Y-84884033D01*
X153017720Y-84852916D01*
X153017720Y-84414284D01*
X153020784Y-84383167D01*
X153029150Y-84355592D01*
X153042734Y-84330178D01*
X153061018Y-84307898D01*
X153083298Y-84289614D01*
X153108712Y-84276030D01*
X153136287Y-84267664D01*
X153167404Y-84264600D01*
X153556316Y-84264600D01*
X153587433Y-84267664D01*
X153587433Y-84267664D01*
G37*
G36*
X152617153Y-84267664D02*
X152644728Y-84276030D01*
X152670142Y-84289614D01*
X152692422Y-84307898D01*
X152710706Y-84330178D01*
X152724290Y-84355592D01*
X152732656Y-84383167D01*
X152735720Y-84414284D01*
X152735720Y-84852916D01*
X152732656Y-84884033D01*
X152724290Y-84911608D01*
X152710706Y-84937022D01*
X152692422Y-84959302D01*
X152670142Y-84977586D01*
X152644728Y-84991170D01*
X152617153Y-84999536D01*
X152586036Y-85002600D01*
X152197404Y-85002600D01*
X152166287Y-84999536D01*
X152138712Y-84991170D01*
X152113298Y-84977586D01*
X152091018Y-84959302D01*
X152072734Y-84937022D01*
X152059150Y-84911608D01*
X152050784Y-84884033D01*
X152047720Y-84852916D01*
X152047720Y-84414284D01*
X152050784Y-84383167D01*
X152059150Y-84355592D01*
X152072734Y-84330178D01*
X152091018Y-84307898D01*
X152113298Y-84289614D01*
X152138712Y-84276030D01*
X152166287Y-84267664D01*
X152197404Y-84264600D01*
X152586036Y-84264600D01*
X152617153Y-84267664D01*
X152617153Y-84267664D01*
G37*
G36*
X154557433Y-84267664D02*
X154585008Y-84276030D01*
X154610422Y-84289614D01*
X154632702Y-84307898D01*
X154650986Y-84330178D01*
X154664570Y-84355592D01*
X154672936Y-84383167D01*
X154676000Y-84414284D01*
X154676000Y-84852916D01*
X154672936Y-84884033D01*
X154664570Y-84911608D01*
X154650986Y-84937022D01*
X154632702Y-84959302D01*
X154610422Y-84977586D01*
X154585008Y-84991170D01*
X154557433Y-84999536D01*
X154526316Y-85002600D01*
X154137684Y-85002600D01*
X154106567Y-84999536D01*
X154078992Y-84991170D01*
X154053578Y-84977586D01*
X154031298Y-84959302D01*
X154013014Y-84937022D01*
X153999430Y-84911608D01*
X153991064Y-84884033D01*
X153988000Y-84852916D01*
X153988000Y-84414284D01*
X153991064Y-84383167D01*
X153999430Y-84355592D01*
X154013014Y-84330178D01*
X154031298Y-84307898D01*
X154053578Y-84289614D01*
X154078992Y-84276030D01*
X154106567Y-84267664D01*
X154137684Y-84264600D01*
X154526316Y-84264600D01*
X154557433Y-84267664D01*
X154557433Y-84267664D01*
G37*
G36*
X166847480Y-84299000D02*
X159349480Y-84299000D01*
X159349480Y-82201000D01*
X166847480Y-82201000D01*
X166847480Y-84299000D01*
X166847480Y-84299000D01*
G37*
G36*
X134599000Y-82699000D02*
X127101000Y-82699000D01*
X127101000Y-80601000D01*
X134599000Y-80601000D01*
X134599000Y-82699000D01*
X134599000Y-82699000D01*
G37*
G36*
X122749000Y-76049000D02*
X115251000Y-76049000D01*
X115251000Y-73951000D01*
X122749000Y-73951000D01*
X122749000Y-76049000D01*
X122749000Y-76049000D01*
G37*
G36*
X175435220Y-75939080D02*
X167937220Y-75939080D01*
X167937220Y-73841080D01*
X175435220Y-73841080D01*
X175435220Y-75939080D01*
X175435220Y-75939080D01*
G37*
M02*
