%TF.GenerationSoftware,KiCad,Pcbnew,5.0.2-bee76a0~70~ubuntu18.04.1*%
%TF.CreationDate,2020-02-29T17:25:56-08:00*%
%TF.ProjectId,ypanel,7970616e-656c-42e6-9b69-6361645f7063,rev?*%
%TF.SameCoordinates,Original*%
%TF.FileFunction,Paste,Bot*%
%TF.FilePolarity,Positive*%
%FSLAX46Y46*%
G04 Gerber Fmt 4.6, Leading zero omitted, Abs format (unit mm)*
G04 Created by KiCad (PCBNEW 5.0.2-bee76a0~70~ubuntu18.04.1) date Sat 29 Feb 2020 05:25:56 PM PST*
%MOMM*%
%LPD*%
G01*
G04 APERTURE LIST*
%ADD10C,0.100000*%
%ADD11C,0.050000*%
%ADD12C,0.318000*%
%ADD13R,1.500000X1.700000*%
%ADD14R,1.100000X0.250000*%
%ADD15C,1.600000*%
%ADD16C,1.000000*%
%ADD17R,2.000000X1.100000*%
%ADD18R,0.800000X0.800000*%
%ADD19C,0.875000*%
%ADD20C,0.590000*%
%ADD21R,0.700000X0.500000*%
%ADD22R,2.150000X2.150000*%
%ADD23R,0.900000X0.300000*%
%ADD24R,0.300000X0.900000*%
%ADD25R,4.394200X1.435100*%
%ADD26C,1.050000*%
G04 APERTURE END LIST*
D10*
X151587000Y-99000001D02*
G75*
G03X151587000Y-99000001I-8000000J0D01*
G01*
X134779564Y-114100000D02*
G75*
G03X134779564Y-114100000I-1029564J0D01*
G01*
X141279564Y-114100000D02*
G75*
G03X141279564Y-114100000I-1029564J0D01*
G01*
X126375000Y-118900000D02*
G75*
G03X126375000Y-118900000I-1300000J0D01*
G01*
X140979564Y-83920436D02*
G75*
G03X140979564Y-83920436I-1029564J0D01*
G01*
X147479564Y-83920436D02*
G75*
G03X147479564Y-83920436I-1029564J0D01*
G01*
X176975000Y-70000000D02*
X176975000Y-128000000D01*
X166200000Y-118900000D02*
G75*
G03X166200000Y-118900000I-1300000J0D01*
G01*
D11*
X126372800Y-79100000D02*
G75*
G03X126372800Y-79100000I-1300000J0D01*
G01*
D10*
X166195000Y-79102480D02*
G75*
G03X166195000Y-79102480I-1300000J0D01*
G01*
X176975000Y-70000000D02*
X113000000Y-70000000D01*
X113000000Y-128000000D02*
X176975000Y-128000000D01*
X113000000Y-70000000D02*
X113000000Y-128000000D01*
G36*
X151879986Y-111352792D02*
X151887736Y-111353684D01*
X151895362Y-111355331D01*
X151902790Y-111357718D01*
X151909948Y-111360821D01*
X151916768Y-111364611D01*
X151923183Y-111369051D01*
X151929132Y-111374098D01*
X151934557Y-111379704D01*
X151939407Y-111385815D01*
X151943635Y-111392372D01*
X152023135Y-111530070D01*
X152026700Y-111537010D01*
X152029567Y-111544266D01*
X152031709Y-111551767D01*
X152033106Y-111559443D01*
X152033743Y-111567219D01*
X152033616Y-111575020D01*
X152032724Y-111582770D01*
X152031077Y-111590396D01*
X152028691Y-111597824D01*
X152025587Y-111604982D01*
X152021798Y-111611801D01*
X152017358Y-111618217D01*
X152012310Y-111624166D01*
X152006704Y-111629591D01*
X152000593Y-111634441D01*
X151994036Y-111638669D01*
X151819964Y-111739169D01*
X151813024Y-111742734D01*
X151805768Y-111745601D01*
X151798266Y-111747743D01*
X151790591Y-111749140D01*
X151782815Y-111749777D01*
X151775014Y-111749650D01*
X151767264Y-111748758D01*
X151759638Y-111747111D01*
X151752210Y-111744724D01*
X151745052Y-111741621D01*
X151738232Y-111737831D01*
X151731817Y-111733391D01*
X151725868Y-111728344D01*
X151720443Y-111722738D01*
X151715593Y-111716627D01*
X151711365Y-111710070D01*
X151631865Y-111572372D01*
X151628300Y-111565432D01*
X151625433Y-111558176D01*
X151623291Y-111550675D01*
X151621894Y-111542999D01*
X151621257Y-111535223D01*
X151621384Y-111527422D01*
X151622276Y-111519672D01*
X151623923Y-111512046D01*
X151626309Y-111504618D01*
X151629413Y-111497460D01*
X151633202Y-111490641D01*
X151637642Y-111484225D01*
X151642690Y-111478276D01*
X151648296Y-111472851D01*
X151654407Y-111468001D01*
X151660964Y-111463773D01*
X151835036Y-111363273D01*
X151841976Y-111359708D01*
X151849232Y-111356841D01*
X151856734Y-111354699D01*
X151864409Y-111353302D01*
X151872185Y-111352665D01*
X151879986Y-111352792D01*
X151879986Y-111352792D01*
G37*
D12*
X151827500Y-111551221D03*
D10*
G36*
X152224986Y-111950350D02*
X152232736Y-111951242D01*
X152240362Y-111952889D01*
X152247790Y-111955276D01*
X152254948Y-111958379D01*
X152261768Y-111962169D01*
X152268183Y-111966609D01*
X152274132Y-111971656D01*
X152279557Y-111977262D01*
X152284407Y-111983373D01*
X152288635Y-111989930D01*
X152368135Y-112127628D01*
X152371700Y-112134568D01*
X152374567Y-112141824D01*
X152376709Y-112149325D01*
X152378106Y-112157001D01*
X152378743Y-112164777D01*
X152378616Y-112172578D01*
X152377724Y-112180328D01*
X152376077Y-112187954D01*
X152373691Y-112195382D01*
X152370587Y-112202540D01*
X152366798Y-112209359D01*
X152362358Y-112215775D01*
X152357310Y-112221724D01*
X152351704Y-112227149D01*
X152345593Y-112231999D01*
X152339036Y-112236227D01*
X152164964Y-112336727D01*
X152158024Y-112340292D01*
X152150768Y-112343159D01*
X152143266Y-112345301D01*
X152135591Y-112346698D01*
X152127815Y-112347335D01*
X152120014Y-112347208D01*
X152112264Y-112346316D01*
X152104638Y-112344669D01*
X152097210Y-112342282D01*
X152090052Y-112339179D01*
X152083232Y-112335389D01*
X152076817Y-112330949D01*
X152070868Y-112325902D01*
X152065443Y-112320296D01*
X152060593Y-112314185D01*
X152056365Y-112307628D01*
X151976865Y-112169930D01*
X151973300Y-112162990D01*
X151970433Y-112155734D01*
X151968291Y-112148233D01*
X151966894Y-112140557D01*
X151966257Y-112132781D01*
X151966384Y-112124980D01*
X151967276Y-112117230D01*
X151968923Y-112109604D01*
X151971309Y-112102176D01*
X151974413Y-112095018D01*
X151978202Y-112088199D01*
X151982642Y-112081783D01*
X151987690Y-112075834D01*
X151993296Y-112070409D01*
X151999407Y-112065559D01*
X152005964Y-112061331D01*
X152180036Y-111960831D01*
X152186976Y-111957266D01*
X152194232Y-111954399D01*
X152201734Y-111952257D01*
X152209409Y-111950860D01*
X152217185Y-111950223D01*
X152224986Y-111950350D01*
X152224986Y-111950350D01*
G37*
D12*
X152172500Y-112148779D03*
D10*
G36*
X151175020Y-112566384D02*
X151182770Y-112567276D01*
X151190396Y-112568923D01*
X151197824Y-112571309D01*
X151204982Y-112574413D01*
X151211801Y-112578202D01*
X151218217Y-112582642D01*
X151224166Y-112587690D01*
X151229591Y-112593296D01*
X151234441Y-112599407D01*
X151238669Y-112605964D01*
X151339169Y-112780036D01*
X151342734Y-112786976D01*
X151345601Y-112794232D01*
X151347743Y-112801734D01*
X151349140Y-112809409D01*
X151349777Y-112817185D01*
X151349650Y-112824986D01*
X151348758Y-112832736D01*
X151347111Y-112840362D01*
X151344724Y-112847790D01*
X151341621Y-112854948D01*
X151337831Y-112861768D01*
X151333391Y-112868183D01*
X151328344Y-112874132D01*
X151322738Y-112879557D01*
X151316627Y-112884407D01*
X151310070Y-112888635D01*
X151172372Y-112968135D01*
X151165432Y-112971700D01*
X151158176Y-112974567D01*
X151150675Y-112976709D01*
X151142999Y-112978106D01*
X151135223Y-112978743D01*
X151127422Y-112978616D01*
X151119672Y-112977724D01*
X151112046Y-112976077D01*
X151104618Y-112973691D01*
X151097460Y-112970587D01*
X151090641Y-112966798D01*
X151084225Y-112962358D01*
X151078276Y-112957310D01*
X151072851Y-112951704D01*
X151068001Y-112945593D01*
X151063773Y-112939036D01*
X150963273Y-112764964D01*
X150959708Y-112758024D01*
X150956841Y-112750768D01*
X150954699Y-112743266D01*
X150953302Y-112735591D01*
X150952665Y-112727815D01*
X150952792Y-112720014D01*
X150953684Y-112712264D01*
X150955331Y-112704638D01*
X150957718Y-112697210D01*
X150960821Y-112690052D01*
X150964611Y-112683232D01*
X150969051Y-112676817D01*
X150974098Y-112670868D01*
X150979704Y-112665443D01*
X150985815Y-112660593D01*
X150992372Y-112656365D01*
X151130070Y-112576865D01*
X151137010Y-112573300D01*
X151144266Y-112570433D01*
X151151767Y-112568291D01*
X151159443Y-112566894D01*
X151167219Y-112566257D01*
X151175020Y-112566384D01*
X151175020Y-112566384D01*
G37*
D12*
X151151221Y-112772500D03*
D10*
G36*
X151772578Y-112221384D02*
X151780328Y-112222276D01*
X151787954Y-112223923D01*
X151795382Y-112226309D01*
X151802540Y-112229413D01*
X151809359Y-112233202D01*
X151815775Y-112237642D01*
X151821724Y-112242690D01*
X151827149Y-112248296D01*
X151831999Y-112254407D01*
X151836227Y-112260964D01*
X151936727Y-112435036D01*
X151940292Y-112441976D01*
X151943159Y-112449232D01*
X151945301Y-112456734D01*
X151946698Y-112464409D01*
X151947335Y-112472185D01*
X151947208Y-112479986D01*
X151946316Y-112487736D01*
X151944669Y-112495362D01*
X151942282Y-112502790D01*
X151939179Y-112509948D01*
X151935389Y-112516768D01*
X151930949Y-112523183D01*
X151925902Y-112529132D01*
X151920296Y-112534557D01*
X151914185Y-112539407D01*
X151907628Y-112543635D01*
X151769930Y-112623135D01*
X151762990Y-112626700D01*
X151755734Y-112629567D01*
X151748233Y-112631709D01*
X151740557Y-112633106D01*
X151732781Y-112633743D01*
X151724980Y-112633616D01*
X151717230Y-112632724D01*
X151709604Y-112631077D01*
X151702176Y-112628691D01*
X151695018Y-112625587D01*
X151688199Y-112621798D01*
X151681783Y-112617358D01*
X151675834Y-112612310D01*
X151670409Y-112606704D01*
X151665559Y-112600593D01*
X151661331Y-112594036D01*
X151560831Y-112419964D01*
X151557266Y-112413024D01*
X151554399Y-112405768D01*
X151552257Y-112398266D01*
X151550860Y-112390591D01*
X151550223Y-112382815D01*
X151550350Y-112375014D01*
X151551242Y-112367264D01*
X151552889Y-112359638D01*
X151555276Y-112352210D01*
X151558379Y-112345052D01*
X151562169Y-112338232D01*
X151566609Y-112331817D01*
X151571656Y-112325868D01*
X151577262Y-112320443D01*
X151583373Y-112315593D01*
X151589930Y-112311365D01*
X151727628Y-112231865D01*
X151734568Y-112228300D01*
X151741824Y-112225433D01*
X151749325Y-112223291D01*
X151757001Y-112221894D01*
X151764777Y-112221257D01*
X151772578Y-112221384D01*
X151772578Y-112221384D01*
G37*
D12*
X151748779Y-112427500D03*
D10*
G36*
X150825020Y-111966384D02*
X150832770Y-111967276D01*
X150840396Y-111968923D01*
X150847824Y-111971309D01*
X150854982Y-111974413D01*
X150861801Y-111978202D01*
X150868217Y-111982642D01*
X150874166Y-111987690D01*
X150879591Y-111993296D01*
X150884441Y-111999407D01*
X150888669Y-112005964D01*
X150989169Y-112180036D01*
X150992734Y-112186976D01*
X150995601Y-112194232D01*
X150997743Y-112201734D01*
X150999140Y-112209409D01*
X150999777Y-112217185D01*
X150999650Y-112224986D01*
X150998758Y-112232736D01*
X150997111Y-112240362D01*
X150994724Y-112247790D01*
X150991621Y-112254948D01*
X150987831Y-112261768D01*
X150983391Y-112268183D01*
X150978344Y-112274132D01*
X150972738Y-112279557D01*
X150966627Y-112284407D01*
X150960070Y-112288635D01*
X150822372Y-112368135D01*
X150815432Y-112371700D01*
X150808176Y-112374567D01*
X150800675Y-112376709D01*
X150792999Y-112378106D01*
X150785223Y-112378743D01*
X150777422Y-112378616D01*
X150769672Y-112377724D01*
X150762046Y-112376077D01*
X150754618Y-112373691D01*
X150747460Y-112370587D01*
X150740641Y-112366798D01*
X150734225Y-112362358D01*
X150728276Y-112357310D01*
X150722851Y-112351704D01*
X150718001Y-112345593D01*
X150713773Y-112339036D01*
X150613273Y-112164964D01*
X150609708Y-112158024D01*
X150606841Y-112150768D01*
X150604699Y-112143266D01*
X150603302Y-112135591D01*
X150602665Y-112127815D01*
X150602792Y-112120014D01*
X150603684Y-112112264D01*
X150605331Y-112104638D01*
X150607718Y-112097210D01*
X150610821Y-112090052D01*
X150614611Y-112083232D01*
X150619051Y-112076817D01*
X150624098Y-112070868D01*
X150629704Y-112065443D01*
X150635815Y-112060593D01*
X150642372Y-112056365D01*
X150780070Y-111976865D01*
X150787010Y-111973300D01*
X150794266Y-111970433D01*
X150801767Y-111968291D01*
X150809443Y-111966894D01*
X150817219Y-111966257D01*
X150825020Y-111966384D01*
X150825020Y-111966384D01*
G37*
D12*
X150801221Y-112172500D03*
D10*
G36*
X151422578Y-111621384D02*
X151430328Y-111622276D01*
X151437954Y-111623923D01*
X151445382Y-111626309D01*
X151452540Y-111629413D01*
X151459359Y-111633202D01*
X151465775Y-111637642D01*
X151471724Y-111642690D01*
X151477149Y-111648296D01*
X151481999Y-111654407D01*
X151486227Y-111660964D01*
X151586727Y-111835036D01*
X151590292Y-111841976D01*
X151593159Y-111849232D01*
X151595301Y-111856734D01*
X151596698Y-111864409D01*
X151597335Y-111872185D01*
X151597208Y-111879986D01*
X151596316Y-111887736D01*
X151594669Y-111895362D01*
X151592282Y-111902790D01*
X151589179Y-111909948D01*
X151585389Y-111916768D01*
X151580949Y-111923183D01*
X151575902Y-111929132D01*
X151570296Y-111934557D01*
X151564185Y-111939407D01*
X151557628Y-111943635D01*
X151419930Y-112023135D01*
X151412990Y-112026700D01*
X151405734Y-112029567D01*
X151398233Y-112031709D01*
X151390557Y-112033106D01*
X151382781Y-112033743D01*
X151374980Y-112033616D01*
X151367230Y-112032724D01*
X151359604Y-112031077D01*
X151352176Y-112028691D01*
X151345018Y-112025587D01*
X151338199Y-112021798D01*
X151331783Y-112017358D01*
X151325834Y-112012310D01*
X151320409Y-112006704D01*
X151315559Y-112000593D01*
X151311331Y-111994036D01*
X151210831Y-111819964D01*
X151207266Y-111813024D01*
X151204399Y-111805768D01*
X151202257Y-111798266D01*
X151200860Y-111790591D01*
X151200223Y-111782815D01*
X151200350Y-111775014D01*
X151201242Y-111767264D01*
X151202889Y-111759638D01*
X151205276Y-111752210D01*
X151208379Y-111745052D01*
X151212169Y-111738232D01*
X151216609Y-111731817D01*
X151221656Y-111725868D01*
X151227262Y-111720443D01*
X151233373Y-111715593D01*
X151239930Y-111711365D01*
X151377628Y-111631865D01*
X151384568Y-111628300D01*
X151391824Y-111625433D01*
X151399325Y-111623291D01*
X151407001Y-111621894D01*
X151414777Y-111621257D01*
X151422578Y-111621384D01*
X151422578Y-111621384D01*
G37*
D12*
X151398779Y-111827500D03*
D13*
X160550000Y-107100000D03*
X160550000Y-114900000D03*
D14*
X164450000Y-108750000D03*
X164450000Y-109250000D03*
X164450000Y-109750000D03*
X164450000Y-110250000D03*
X164450000Y-110750000D03*
X164450000Y-111250000D03*
X164450000Y-111750000D03*
X164450000Y-112250000D03*
X164450000Y-112750000D03*
X164450000Y-113250000D03*
D10*
G36*
X130524504Y-102101204D02*
X130548773Y-102104804D01*
X130572571Y-102110765D01*
X130595671Y-102119030D01*
X130617849Y-102129520D01*
X130638893Y-102142133D01*
X130658598Y-102156747D01*
X130676777Y-102173223D01*
X130693253Y-102191402D01*
X130707867Y-102211107D01*
X130720480Y-102232151D01*
X130730970Y-102254329D01*
X130739235Y-102277429D01*
X130745196Y-102301227D01*
X130748796Y-102325496D01*
X130750000Y-102350000D01*
X130750000Y-103450000D01*
X130748796Y-103474504D01*
X130745196Y-103498773D01*
X130739235Y-103522571D01*
X130730970Y-103545671D01*
X130720480Y-103567849D01*
X130707867Y-103588893D01*
X130693253Y-103608598D01*
X130676777Y-103626777D01*
X130658598Y-103643253D01*
X130638893Y-103657867D01*
X130617849Y-103670480D01*
X130595671Y-103680970D01*
X130572571Y-103689235D01*
X130548773Y-103695196D01*
X130524504Y-103698796D01*
X130500000Y-103700000D01*
X128000000Y-103700000D01*
X127975496Y-103698796D01*
X127951227Y-103695196D01*
X127927429Y-103689235D01*
X127904329Y-103680970D01*
X127882151Y-103670480D01*
X127861107Y-103657867D01*
X127841402Y-103643253D01*
X127823223Y-103626777D01*
X127806747Y-103608598D01*
X127792133Y-103588893D01*
X127779520Y-103567849D01*
X127769030Y-103545671D01*
X127760765Y-103522571D01*
X127754804Y-103498773D01*
X127751204Y-103474504D01*
X127750000Y-103450000D01*
X127750000Y-102350000D01*
X127751204Y-102325496D01*
X127754804Y-102301227D01*
X127760765Y-102277429D01*
X127769030Y-102254329D01*
X127779520Y-102232151D01*
X127792133Y-102211107D01*
X127806747Y-102191402D01*
X127823223Y-102173223D01*
X127841402Y-102156747D01*
X127861107Y-102142133D01*
X127882151Y-102129520D01*
X127904329Y-102119030D01*
X127927429Y-102110765D01*
X127951227Y-102104804D01*
X127975496Y-102101204D01*
X128000000Y-102100000D01*
X130500000Y-102100000D01*
X130524504Y-102101204D01*
X130524504Y-102101204D01*
G37*
D15*
X129250000Y-102900000D03*
D10*
G36*
X130524504Y-95301204D02*
X130548773Y-95304804D01*
X130572571Y-95310765D01*
X130595671Y-95319030D01*
X130617849Y-95329520D01*
X130638893Y-95342133D01*
X130658598Y-95356747D01*
X130676777Y-95373223D01*
X130693253Y-95391402D01*
X130707867Y-95411107D01*
X130720480Y-95432151D01*
X130730970Y-95454329D01*
X130739235Y-95477429D01*
X130745196Y-95501227D01*
X130748796Y-95525496D01*
X130750000Y-95550000D01*
X130750000Y-96650000D01*
X130748796Y-96674504D01*
X130745196Y-96698773D01*
X130739235Y-96722571D01*
X130730970Y-96745671D01*
X130720480Y-96767849D01*
X130707867Y-96788893D01*
X130693253Y-96808598D01*
X130676777Y-96826777D01*
X130658598Y-96843253D01*
X130638893Y-96857867D01*
X130617849Y-96870480D01*
X130595671Y-96880970D01*
X130572571Y-96889235D01*
X130548773Y-96895196D01*
X130524504Y-96898796D01*
X130500000Y-96900000D01*
X128000000Y-96900000D01*
X127975496Y-96898796D01*
X127951227Y-96895196D01*
X127927429Y-96889235D01*
X127904329Y-96880970D01*
X127882151Y-96870480D01*
X127861107Y-96857867D01*
X127841402Y-96843253D01*
X127823223Y-96826777D01*
X127806747Y-96808598D01*
X127792133Y-96788893D01*
X127779520Y-96767849D01*
X127769030Y-96745671D01*
X127760765Y-96722571D01*
X127754804Y-96698773D01*
X127751204Y-96674504D01*
X127750000Y-96650000D01*
X127750000Y-95550000D01*
X127751204Y-95525496D01*
X127754804Y-95501227D01*
X127760765Y-95477429D01*
X127769030Y-95454329D01*
X127779520Y-95432151D01*
X127792133Y-95411107D01*
X127806747Y-95391402D01*
X127823223Y-95373223D01*
X127841402Y-95356747D01*
X127861107Y-95342133D01*
X127882151Y-95329520D01*
X127904329Y-95319030D01*
X127927429Y-95310765D01*
X127951227Y-95304804D01*
X127975496Y-95301204D01*
X128000000Y-95300000D01*
X130500000Y-95300000D01*
X130524504Y-95301204D01*
X130524504Y-95301204D01*
G37*
D15*
X129250000Y-96100000D03*
D10*
G36*
X134024504Y-100001204D02*
X134048773Y-100004804D01*
X134072571Y-100010765D01*
X134095671Y-100019030D01*
X134117849Y-100029520D01*
X134138893Y-100042133D01*
X134158598Y-100056747D01*
X134176777Y-100073223D01*
X134193253Y-100091402D01*
X134207867Y-100111107D01*
X134220480Y-100132151D01*
X134230970Y-100154329D01*
X134239235Y-100177429D01*
X134245196Y-100201227D01*
X134248796Y-100225496D01*
X134250000Y-100250000D01*
X134250000Y-100750000D01*
X134248796Y-100774504D01*
X134245196Y-100798773D01*
X134239235Y-100822571D01*
X134230970Y-100845671D01*
X134220480Y-100867849D01*
X134207867Y-100888893D01*
X134193253Y-100908598D01*
X134176777Y-100926777D01*
X134158598Y-100943253D01*
X134138893Y-100957867D01*
X134117849Y-100970480D01*
X134095671Y-100980970D01*
X134072571Y-100989235D01*
X134048773Y-100995196D01*
X134024504Y-100998796D01*
X134000000Y-101000000D01*
X129000000Y-101000000D01*
X128975496Y-100998796D01*
X128951227Y-100995196D01*
X128927429Y-100989235D01*
X128904329Y-100980970D01*
X128882151Y-100970480D01*
X128861107Y-100957867D01*
X128841402Y-100943253D01*
X128823223Y-100926777D01*
X128806747Y-100908598D01*
X128792133Y-100888893D01*
X128779520Y-100867849D01*
X128769030Y-100845671D01*
X128760765Y-100822571D01*
X128754804Y-100798773D01*
X128751204Y-100774504D01*
X128750000Y-100750000D01*
X128750000Y-100250000D01*
X128751204Y-100225496D01*
X128754804Y-100201227D01*
X128760765Y-100177429D01*
X128769030Y-100154329D01*
X128779520Y-100132151D01*
X128792133Y-100111107D01*
X128806747Y-100091402D01*
X128823223Y-100073223D01*
X128841402Y-100056747D01*
X128861107Y-100042133D01*
X128882151Y-100029520D01*
X128904329Y-100019030D01*
X128927429Y-100010765D01*
X128951227Y-100004804D01*
X128975496Y-100001204D01*
X129000000Y-100000000D01*
X134000000Y-100000000D01*
X134024504Y-100001204D01*
X134024504Y-100001204D01*
G37*
D16*
X131500000Y-100500000D03*
D10*
G36*
X134024504Y-98001204D02*
X134048773Y-98004804D01*
X134072571Y-98010765D01*
X134095671Y-98019030D01*
X134117849Y-98029520D01*
X134138893Y-98042133D01*
X134158598Y-98056747D01*
X134176777Y-98073223D01*
X134193253Y-98091402D01*
X134207867Y-98111107D01*
X134220480Y-98132151D01*
X134230970Y-98154329D01*
X134239235Y-98177429D01*
X134245196Y-98201227D01*
X134248796Y-98225496D01*
X134250000Y-98250000D01*
X134250000Y-98750000D01*
X134248796Y-98774504D01*
X134245196Y-98798773D01*
X134239235Y-98822571D01*
X134230970Y-98845671D01*
X134220480Y-98867849D01*
X134207867Y-98888893D01*
X134193253Y-98908598D01*
X134176777Y-98926777D01*
X134158598Y-98943253D01*
X134138893Y-98957867D01*
X134117849Y-98970480D01*
X134095671Y-98980970D01*
X134072571Y-98989235D01*
X134048773Y-98995196D01*
X134024504Y-98998796D01*
X134000000Y-99000000D01*
X129000000Y-99000000D01*
X128975496Y-98998796D01*
X128951227Y-98995196D01*
X128927429Y-98989235D01*
X128904329Y-98980970D01*
X128882151Y-98970480D01*
X128861107Y-98957867D01*
X128841402Y-98943253D01*
X128823223Y-98926777D01*
X128806747Y-98908598D01*
X128792133Y-98888893D01*
X128779520Y-98867849D01*
X128769030Y-98845671D01*
X128760765Y-98822571D01*
X128754804Y-98798773D01*
X128751204Y-98774504D01*
X128750000Y-98750000D01*
X128750000Y-98250000D01*
X128751204Y-98225496D01*
X128754804Y-98201227D01*
X128760765Y-98177429D01*
X128769030Y-98154329D01*
X128779520Y-98132151D01*
X128792133Y-98111107D01*
X128806747Y-98091402D01*
X128823223Y-98073223D01*
X128841402Y-98056747D01*
X128861107Y-98042133D01*
X128882151Y-98029520D01*
X128904329Y-98019030D01*
X128927429Y-98010765D01*
X128951227Y-98004804D01*
X128975496Y-98001204D01*
X129000000Y-98000000D01*
X134000000Y-98000000D01*
X134024504Y-98001204D01*
X134024504Y-98001204D01*
G37*
D16*
X131500000Y-98500000D03*
D17*
X153523500Y-89000000D03*
D18*
X155423500Y-89000000D03*
D10*
G36*
X155713491Y-84260453D02*
X155734726Y-84263603D01*
X155755550Y-84268819D01*
X155775762Y-84276051D01*
X155795168Y-84285230D01*
X155813581Y-84296266D01*
X155830824Y-84309054D01*
X155846730Y-84323470D01*
X155861146Y-84339376D01*
X155873934Y-84356619D01*
X155884970Y-84375032D01*
X155894149Y-84394438D01*
X155901381Y-84414650D01*
X155906597Y-84435474D01*
X155909747Y-84456709D01*
X155910800Y-84478150D01*
X155910800Y-84990650D01*
X155909747Y-85012091D01*
X155906597Y-85033326D01*
X155901381Y-85054150D01*
X155894149Y-85074362D01*
X155884970Y-85093768D01*
X155873934Y-85112181D01*
X155861146Y-85129424D01*
X155846730Y-85145330D01*
X155830824Y-85159746D01*
X155813581Y-85172534D01*
X155795168Y-85183570D01*
X155775762Y-85192749D01*
X155755550Y-85199981D01*
X155734726Y-85205197D01*
X155713491Y-85208347D01*
X155692050Y-85209400D01*
X155254550Y-85209400D01*
X155233109Y-85208347D01*
X155211874Y-85205197D01*
X155191050Y-85199981D01*
X155170838Y-85192749D01*
X155151432Y-85183570D01*
X155133019Y-85172534D01*
X155115776Y-85159746D01*
X155099870Y-85145330D01*
X155085454Y-85129424D01*
X155072666Y-85112181D01*
X155061630Y-85093768D01*
X155052451Y-85074362D01*
X155045219Y-85054150D01*
X155040003Y-85033326D01*
X155036853Y-85012091D01*
X155035800Y-84990650D01*
X155035800Y-84478150D01*
X155036853Y-84456709D01*
X155040003Y-84435474D01*
X155045219Y-84414650D01*
X155052451Y-84394438D01*
X155061630Y-84375032D01*
X155072666Y-84356619D01*
X155085454Y-84339376D01*
X155099870Y-84323470D01*
X155115776Y-84309054D01*
X155133019Y-84296266D01*
X155151432Y-84285230D01*
X155170838Y-84276051D01*
X155191050Y-84268819D01*
X155211874Y-84263603D01*
X155233109Y-84260453D01*
X155254550Y-84259400D01*
X155692050Y-84259400D01*
X155713491Y-84260453D01*
X155713491Y-84260453D01*
G37*
D19*
X155473300Y-84734400D03*
D10*
G36*
X157288491Y-84260453D02*
X157309726Y-84263603D01*
X157330550Y-84268819D01*
X157350762Y-84276051D01*
X157370168Y-84285230D01*
X157388581Y-84296266D01*
X157405824Y-84309054D01*
X157421730Y-84323470D01*
X157436146Y-84339376D01*
X157448934Y-84356619D01*
X157459970Y-84375032D01*
X157469149Y-84394438D01*
X157476381Y-84414650D01*
X157481597Y-84435474D01*
X157484747Y-84456709D01*
X157485800Y-84478150D01*
X157485800Y-84990650D01*
X157484747Y-85012091D01*
X157481597Y-85033326D01*
X157476381Y-85054150D01*
X157469149Y-85074362D01*
X157459970Y-85093768D01*
X157448934Y-85112181D01*
X157436146Y-85129424D01*
X157421730Y-85145330D01*
X157405824Y-85159746D01*
X157388581Y-85172534D01*
X157370168Y-85183570D01*
X157350762Y-85192749D01*
X157330550Y-85199981D01*
X157309726Y-85205197D01*
X157288491Y-85208347D01*
X157267050Y-85209400D01*
X156829550Y-85209400D01*
X156808109Y-85208347D01*
X156786874Y-85205197D01*
X156766050Y-85199981D01*
X156745838Y-85192749D01*
X156726432Y-85183570D01*
X156708019Y-85172534D01*
X156690776Y-85159746D01*
X156674870Y-85145330D01*
X156660454Y-85129424D01*
X156647666Y-85112181D01*
X156636630Y-85093768D01*
X156627451Y-85074362D01*
X156620219Y-85054150D01*
X156615003Y-85033326D01*
X156611853Y-85012091D01*
X156610800Y-84990650D01*
X156610800Y-84478150D01*
X156611853Y-84456709D01*
X156615003Y-84435474D01*
X156620219Y-84414650D01*
X156627451Y-84394438D01*
X156636630Y-84375032D01*
X156647666Y-84356619D01*
X156660454Y-84339376D01*
X156674870Y-84323470D01*
X156690776Y-84309054D01*
X156708019Y-84296266D01*
X156726432Y-84285230D01*
X156745838Y-84276051D01*
X156766050Y-84268819D01*
X156786874Y-84263603D01*
X156808109Y-84260453D01*
X156829550Y-84259400D01*
X157267050Y-84259400D01*
X157288491Y-84260453D01*
X157288491Y-84260453D01*
G37*
D19*
X157048300Y-84734400D03*
D10*
G36*
X153936958Y-96940710D02*
X153951276Y-96942834D01*
X153965317Y-96946351D01*
X153978946Y-96951228D01*
X153992031Y-96957417D01*
X154004447Y-96964858D01*
X154016073Y-96973481D01*
X154026798Y-96983202D01*
X154036519Y-96993927D01*
X154045142Y-97005553D01*
X154052583Y-97017969D01*
X154058772Y-97031054D01*
X154063649Y-97044683D01*
X154067166Y-97058724D01*
X154069290Y-97073042D01*
X154070000Y-97087500D01*
X154070000Y-97382500D01*
X154069290Y-97396958D01*
X154067166Y-97411276D01*
X154063649Y-97425317D01*
X154058772Y-97438946D01*
X154052583Y-97452031D01*
X154045142Y-97464447D01*
X154036519Y-97476073D01*
X154026798Y-97486798D01*
X154016073Y-97496519D01*
X154004447Y-97505142D01*
X153992031Y-97512583D01*
X153978946Y-97518772D01*
X153965317Y-97523649D01*
X153951276Y-97527166D01*
X153936958Y-97529290D01*
X153922500Y-97530000D01*
X153577500Y-97530000D01*
X153563042Y-97529290D01*
X153548724Y-97527166D01*
X153534683Y-97523649D01*
X153521054Y-97518772D01*
X153507969Y-97512583D01*
X153495553Y-97505142D01*
X153483927Y-97496519D01*
X153473202Y-97486798D01*
X153463481Y-97476073D01*
X153454858Y-97464447D01*
X153447417Y-97452031D01*
X153441228Y-97438946D01*
X153436351Y-97425317D01*
X153432834Y-97411276D01*
X153430710Y-97396958D01*
X153430000Y-97382500D01*
X153430000Y-97087500D01*
X153430710Y-97073042D01*
X153432834Y-97058724D01*
X153436351Y-97044683D01*
X153441228Y-97031054D01*
X153447417Y-97017969D01*
X153454858Y-97005553D01*
X153463481Y-96993927D01*
X153473202Y-96983202D01*
X153483927Y-96973481D01*
X153495553Y-96964858D01*
X153507969Y-96957417D01*
X153521054Y-96951228D01*
X153534683Y-96946351D01*
X153548724Y-96942834D01*
X153563042Y-96940710D01*
X153577500Y-96940000D01*
X153922500Y-96940000D01*
X153936958Y-96940710D01*
X153936958Y-96940710D01*
G37*
D20*
X153750000Y-97235000D03*
D10*
G36*
X153936958Y-95970710D02*
X153951276Y-95972834D01*
X153965317Y-95976351D01*
X153978946Y-95981228D01*
X153992031Y-95987417D01*
X154004447Y-95994858D01*
X154016073Y-96003481D01*
X154026798Y-96013202D01*
X154036519Y-96023927D01*
X154045142Y-96035553D01*
X154052583Y-96047969D01*
X154058772Y-96061054D01*
X154063649Y-96074683D01*
X154067166Y-96088724D01*
X154069290Y-96103042D01*
X154070000Y-96117500D01*
X154070000Y-96412500D01*
X154069290Y-96426958D01*
X154067166Y-96441276D01*
X154063649Y-96455317D01*
X154058772Y-96468946D01*
X154052583Y-96482031D01*
X154045142Y-96494447D01*
X154036519Y-96506073D01*
X154026798Y-96516798D01*
X154016073Y-96526519D01*
X154004447Y-96535142D01*
X153992031Y-96542583D01*
X153978946Y-96548772D01*
X153965317Y-96553649D01*
X153951276Y-96557166D01*
X153936958Y-96559290D01*
X153922500Y-96560000D01*
X153577500Y-96560000D01*
X153563042Y-96559290D01*
X153548724Y-96557166D01*
X153534683Y-96553649D01*
X153521054Y-96548772D01*
X153507969Y-96542583D01*
X153495553Y-96535142D01*
X153483927Y-96526519D01*
X153473202Y-96516798D01*
X153463481Y-96506073D01*
X153454858Y-96494447D01*
X153447417Y-96482031D01*
X153441228Y-96468946D01*
X153436351Y-96455317D01*
X153432834Y-96441276D01*
X153430710Y-96426958D01*
X153430000Y-96412500D01*
X153430000Y-96117500D01*
X153430710Y-96103042D01*
X153432834Y-96088724D01*
X153436351Y-96074683D01*
X153441228Y-96061054D01*
X153447417Y-96047969D01*
X153454858Y-96035553D01*
X153463481Y-96023927D01*
X153473202Y-96013202D01*
X153483927Y-96003481D01*
X153495553Y-95994858D01*
X153507969Y-95987417D01*
X153521054Y-95981228D01*
X153534683Y-95976351D01*
X153548724Y-95972834D01*
X153563042Y-95970710D01*
X153577500Y-95970000D01*
X153922500Y-95970000D01*
X153936958Y-95970710D01*
X153936958Y-95970710D01*
G37*
D20*
X153750000Y-96265000D03*
D21*
X158999500Y-91046000D03*
X160299500Y-91046000D03*
D22*
X159670844Y-96720660D03*
D23*
X157970844Y-95720660D03*
X157970844Y-96220660D03*
X157970844Y-96720660D03*
X157970844Y-97220660D03*
X157970844Y-97720660D03*
D24*
X158670844Y-98420660D03*
X159170844Y-98420660D03*
X159670844Y-98420660D03*
X160170844Y-98420660D03*
X160670844Y-98420660D03*
D23*
X161370844Y-97720660D03*
X161370844Y-97220660D03*
X161370844Y-96720660D03*
X161370844Y-96220660D03*
X161370844Y-95720660D03*
D24*
X160670844Y-95020660D03*
X160170844Y-95020660D03*
X159670844Y-95020660D03*
X159170844Y-95020660D03*
X158670844Y-95020660D03*
D18*
X154066500Y-103936500D03*
D17*
X155966500Y-103936500D03*
D10*
G36*
X163526958Y-94030710D02*
X163541276Y-94032834D01*
X163555317Y-94036351D01*
X163568946Y-94041228D01*
X163582031Y-94047417D01*
X163594447Y-94054858D01*
X163606073Y-94063481D01*
X163616798Y-94073202D01*
X163626519Y-94083927D01*
X163635142Y-94095553D01*
X163642583Y-94107969D01*
X163648772Y-94121054D01*
X163653649Y-94134683D01*
X163657166Y-94148724D01*
X163659290Y-94163042D01*
X163660000Y-94177500D01*
X163660000Y-94522500D01*
X163659290Y-94536958D01*
X163657166Y-94551276D01*
X163653649Y-94565317D01*
X163648772Y-94578946D01*
X163642583Y-94592031D01*
X163635142Y-94604447D01*
X163626519Y-94616073D01*
X163616798Y-94626798D01*
X163606073Y-94636519D01*
X163594447Y-94645142D01*
X163582031Y-94652583D01*
X163568946Y-94658772D01*
X163555317Y-94663649D01*
X163541276Y-94667166D01*
X163526958Y-94669290D01*
X163512500Y-94670000D01*
X163217500Y-94670000D01*
X163203042Y-94669290D01*
X163188724Y-94667166D01*
X163174683Y-94663649D01*
X163161054Y-94658772D01*
X163147969Y-94652583D01*
X163135553Y-94645142D01*
X163123927Y-94636519D01*
X163113202Y-94626798D01*
X163103481Y-94616073D01*
X163094858Y-94604447D01*
X163087417Y-94592031D01*
X163081228Y-94578946D01*
X163076351Y-94565317D01*
X163072834Y-94551276D01*
X163070710Y-94536958D01*
X163070000Y-94522500D01*
X163070000Y-94177500D01*
X163070710Y-94163042D01*
X163072834Y-94148724D01*
X163076351Y-94134683D01*
X163081228Y-94121054D01*
X163087417Y-94107969D01*
X163094858Y-94095553D01*
X163103481Y-94083927D01*
X163113202Y-94073202D01*
X163123927Y-94063481D01*
X163135553Y-94054858D01*
X163147969Y-94047417D01*
X163161054Y-94041228D01*
X163174683Y-94036351D01*
X163188724Y-94032834D01*
X163203042Y-94030710D01*
X163217500Y-94030000D01*
X163512500Y-94030000D01*
X163526958Y-94030710D01*
X163526958Y-94030710D01*
G37*
D20*
X163365000Y-94350000D03*
D10*
G36*
X164496958Y-94030710D02*
X164511276Y-94032834D01*
X164525317Y-94036351D01*
X164538946Y-94041228D01*
X164552031Y-94047417D01*
X164564447Y-94054858D01*
X164576073Y-94063481D01*
X164586798Y-94073202D01*
X164596519Y-94083927D01*
X164605142Y-94095553D01*
X164612583Y-94107969D01*
X164618772Y-94121054D01*
X164623649Y-94134683D01*
X164627166Y-94148724D01*
X164629290Y-94163042D01*
X164630000Y-94177500D01*
X164630000Y-94522500D01*
X164629290Y-94536958D01*
X164627166Y-94551276D01*
X164623649Y-94565317D01*
X164618772Y-94578946D01*
X164612583Y-94592031D01*
X164605142Y-94604447D01*
X164596519Y-94616073D01*
X164586798Y-94626798D01*
X164576073Y-94636519D01*
X164564447Y-94645142D01*
X164552031Y-94652583D01*
X164538946Y-94658772D01*
X164525317Y-94663649D01*
X164511276Y-94667166D01*
X164496958Y-94669290D01*
X164482500Y-94670000D01*
X164187500Y-94670000D01*
X164173042Y-94669290D01*
X164158724Y-94667166D01*
X164144683Y-94663649D01*
X164131054Y-94658772D01*
X164117969Y-94652583D01*
X164105553Y-94645142D01*
X164093927Y-94636519D01*
X164083202Y-94626798D01*
X164073481Y-94616073D01*
X164064858Y-94604447D01*
X164057417Y-94592031D01*
X164051228Y-94578946D01*
X164046351Y-94565317D01*
X164042834Y-94551276D01*
X164040710Y-94536958D01*
X164040000Y-94522500D01*
X164040000Y-94177500D01*
X164040710Y-94163042D01*
X164042834Y-94148724D01*
X164046351Y-94134683D01*
X164051228Y-94121054D01*
X164057417Y-94107969D01*
X164064858Y-94095553D01*
X164073481Y-94083927D01*
X164083202Y-94073202D01*
X164093927Y-94063481D01*
X164105553Y-94054858D01*
X164117969Y-94047417D01*
X164131054Y-94041228D01*
X164144683Y-94036351D01*
X164158724Y-94032834D01*
X164173042Y-94030710D01*
X164187500Y-94030000D01*
X164482500Y-94030000D01*
X164496958Y-94030710D01*
X164496958Y-94030710D01*
G37*
D20*
X164335000Y-94350000D03*
D10*
G36*
X164472458Y-95030710D02*
X164486776Y-95032834D01*
X164500817Y-95036351D01*
X164514446Y-95041228D01*
X164527531Y-95047417D01*
X164539947Y-95054858D01*
X164551573Y-95063481D01*
X164562298Y-95073202D01*
X164572019Y-95083927D01*
X164580642Y-95095553D01*
X164588083Y-95107969D01*
X164594272Y-95121054D01*
X164599149Y-95134683D01*
X164602666Y-95148724D01*
X164604790Y-95163042D01*
X164605500Y-95177500D01*
X164605500Y-95522500D01*
X164604790Y-95536958D01*
X164602666Y-95551276D01*
X164599149Y-95565317D01*
X164594272Y-95578946D01*
X164588083Y-95592031D01*
X164580642Y-95604447D01*
X164572019Y-95616073D01*
X164562298Y-95626798D01*
X164551573Y-95636519D01*
X164539947Y-95645142D01*
X164527531Y-95652583D01*
X164514446Y-95658772D01*
X164500817Y-95663649D01*
X164486776Y-95667166D01*
X164472458Y-95669290D01*
X164458000Y-95670000D01*
X164163000Y-95670000D01*
X164148542Y-95669290D01*
X164134224Y-95667166D01*
X164120183Y-95663649D01*
X164106554Y-95658772D01*
X164093469Y-95652583D01*
X164081053Y-95645142D01*
X164069427Y-95636519D01*
X164058702Y-95626798D01*
X164048981Y-95616073D01*
X164040358Y-95604447D01*
X164032917Y-95592031D01*
X164026728Y-95578946D01*
X164021851Y-95565317D01*
X164018334Y-95551276D01*
X164016210Y-95536958D01*
X164015500Y-95522500D01*
X164015500Y-95177500D01*
X164016210Y-95163042D01*
X164018334Y-95148724D01*
X164021851Y-95134683D01*
X164026728Y-95121054D01*
X164032917Y-95107969D01*
X164040358Y-95095553D01*
X164048981Y-95083927D01*
X164058702Y-95073202D01*
X164069427Y-95063481D01*
X164081053Y-95054858D01*
X164093469Y-95047417D01*
X164106554Y-95041228D01*
X164120183Y-95036351D01*
X164134224Y-95032834D01*
X164148542Y-95030710D01*
X164163000Y-95030000D01*
X164458000Y-95030000D01*
X164472458Y-95030710D01*
X164472458Y-95030710D01*
G37*
D20*
X164310500Y-95350000D03*
D10*
G36*
X163502458Y-95030710D02*
X163516776Y-95032834D01*
X163530817Y-95036351D01*
X163544446Y-95041228D01*
X163557531Y-95047417D01*
X163569947Y-95054858D01*
X163581573Y-95063481D01*
X163592298Y-95073202D01*
X163602019Y-95083927D01*
X163610642Y-95095553D01*
X163618083Y-95107969D01*
X163624272Y-95121054D01*
X163629149Y-95134683D01*
X163632666Y-95148724D01*
X163634790Y-95163042D01*
X163635500Y-95177500D01*
X163635500Y-95522500D01*
X163634790Y-95536958D01*
X163632666Y-95551276D01*
X163629149Y-95565317D01*
X163624272Y-95578946D01*
X163618083Y-95592031D01*
X163610642Y-95604447D01*
X163602019Y-95616073D01*
X163592298Y-95626798D01*
X163581573Y-95636519D01*
X163569947Y-95645142D01*
X163557531Y-95652583D01*
X163544446Y-95658772D01*
X163530817Y-95663649D01*
X163516776Y-95667166D01*
X163502458Y-95669290D01*
X163488000Y-95670000D01*
X163193000Y-95670000D01*
X163178542Y-95669290D01*
X163164224Y-95667166D01*
X163150183Y-95663649D01*
X163136554Y-95658772D01*
X163123469Y-95652583D01*
X163111053Y-95645142D01*
X163099427Y-95636519D01*
X163088702Y-95626798D01*
X163078981Y-95616073D01*
X163070358Y-95604447D01*
X163062917Y-95592031D01*
X163056728Y-95578946D01*
X163051851Y-95565317D01*
X163048334Y-95551276D01*
X163046210Y-95536958D01*
X163045500Y-95522500D01*
X163045500Y-95177500D01*
X163046210Y-95163042D01*
X163048334Y-95148724D01*
X163051851Y-95134683D01*
X163056728Y-95121054D01*
X163062917Y-95107969D01*
X163070358Y-95095553D01*
X163078981Y-95083927D01*
X163088702Y-95073202D01*
X163099427Y-95063481D01*
X163111053Y-95054858D01*
X163123469Y-95047417D01*
X163136554Y-95041228D01*
X163150183Y-95036351D01*
X163164224Y-95032834D01*
X163178542Y-95030710D01*
X163193000Y-95030000D01*
X163488000Y-95030000D01*
X163502458Y-95030710D01*
X163502458Y-95030710D01*
G37*
D20*
X163340500Y-95350000D03*
D10*
G36*
X162636958Y-92990710D02*
X162651276Y-92992834D01*
X162665317Y-92996351D01*
X162678946Y-93001228D01*
X162692031Y-93007417D01*
X162704447Y-93014858D01*
X162716073Y-93023481D01*
X162726798Y-93033202D01*
X162736519Y-93043927D01*
X162745142Y-93055553D01*
X162752583Y-93067969D01*
X162758772Y-93081054D01*
X162763649Y-93094683D01*
X162767166Y-93108724D01*
X162769290Y-93123042D01*
X162770000Y-93137500D01*
X162770000Y-93432500D01*
X162769290Y-93446958D01*
X162767166Y-93461276D01*
X162763649Y-93475317D01*
X162758772Y-93488946D01*
X162752583Y-93502031D01*
X162745142Y-93514447D01*
X162736519Y-93526073D01*
X162726798Y-93536798D01*
X162716073Y-93546519D01*
X162704447Y-93555142D01*
X162692031Y-93562583D01*
X162678946Y-93568772D01*
X162665317Y-93573649D01*
X162651276Y-93577166D01*
X162636958Y-93579290D01*
X162622500Y-93580000D01*
X162277500Y-93580000D01*
X162263042Y-93579290D01*
X162248724Y-93577166D01*
X162234683Y-93573649D01*
X162221054Y-93568772D01*
X162207969Y-93562583D01*
X162195553Y-93555142D01*
X162183927Y-93546519D01*
X162173202Y-93536798D01*
X162163481Y-93526073D01*
X162154858Y-93514447D01*
X162147417Y-93502031D01*
X162141228Y-93488946D01*
X162136351Y-93475317D01*
X162132834Y-93461276D01*
X162130710Y-93446958D01*
X162130000Y-93432500D01*
X162130000Y-93137500D01*
X162130710Y-93123042D01*
X162132834Y-93108724D01*
X162136351Y-93094683D01*
X162141228Y-93081054D01*
X162147417Y-93067969D01*
X162154858Y-93055553D01*
X162163481Y-93043927D01*
X162173202Y-93033202D01*
X162183927Y-93023481D01*
X162195553Y-93014858D01*
X162207969Y-93007417D01*
X162221054Y-93001228D01*
X162234683Y-92996351D01*
X162248724Y-92992834D01*
X162263042Y-92990710D01*
X162277500Y-92990000D01*
X162622500Y-92990000D01*
X162636958Y-92990710D01*
X162636958Y-92990710D01*
G37*
D20*
X162450000Y-93285000D03*
D10*
G36*
X162636958Y-92020710D02*
X162651276Y-92022834D01*
X162665317Y-92026351D01*
X162678946Y-92031228D01*
X162692031Y-92037417D01*
X162704447Y-92044858D01*
X162716073Y-92053481D01*
X162726798Y-92063202D01*
X162736519Y-92073927D01*
X162745142Y-92085553D01*
X162752583Y-92097969D01*
X162758772Y-92111054D01*
X162763649Y-92124683D01*
X162767166Y-92138724D01*
X162769290Y-92153042D01*
X162770000Y-92167500D01*
X162770000Y-92462500D01*
X162769290Y-92476958D01*
X162767166Y-92491276D01*
X162763649Y-92505317D01*
X162758772Y-92518946D01*
X162752583Y-92532031D01*
X162745142Y-92544447D01*
X162736519Y-92556073D01*
X162726798Y-92566798D01*
X162716073Y-92576519D01*
X162704447Y-92585142D01*
X162692031Y-92592583D01*
X162678946Y-92598772D01*
X162665317Y-92603649D01*
X162651276Y-92607166D01*
X162636958Y-92609290D01*
X162622500Y-92610000D01*
X162277500Y-92610000D01*
X162263042Y-92609290D01*
X162248724Y-92607166D01*
X162234683Y-92603649D01*
X162221054Y-92598772D01*
X162207969Y-92592583D01*
X162195553Y-92585142D01*
X162183927Y-92576519D01*
X162173202Y-92566798D01*
X162163481Y-92556073D01*
X162154858Y-92544447D01*
X162147417Y-92532031D01*
X162141228Y-92518946D01*
X162136351Y-92505317D01*
X162132834Y-92491276D01*
X162130710Y-92476958D01*
X162130000Y-92462500D01*
X162130000Y-92167500D01*
X162130710Y-92153042D01*
X162132834Y-92138724D01*
X162136351Y-92124683D01*
X162141228Y-92111054D01*
X162147417Y-92097969D01*
X162154858Y-92085553D01*
X162163481Y-92073927D01*
X162173202Y-92063202D01*
X162183927Y-92053481D01*
X162195553Y-92044858D01*
X162207969Y-92037417D01*
X162221054Y-92031228D01*
X162234683Y-92026351D01*
X162248724Y-92022834D01*
X162263042Y-92020710D01*
X162277500Y-92020000D01*
X162622500Y-92020000D01*
X162636958Y-92020710D01*
X162636958Y-92020710D01*
G37*
D20*
X162450000Y-92315000D03*
D10*
G36*
X154936958Y-96931370D02*
X154951276Y-96933494D01*
X154965317Y-96937011D01*
X154978946Y-96941888D01*
X154992031Y-96948077D01*
X155004447Y-96955518D01*
X155016073Y-96964141D01*
X155026798Y-96973862D01*
X155036519Y-96984587D01*
X155045142Y-96996213D01*
X155052583Y-97008629D01*
X155058772Y-97021714D01*
X155063649Y-97035343D01*
X155067166Y-97049384D01*
X155069290Y-97063702D01*
X155070000Y-97078160D01*
X155070000Y-97373160D01*
X155069290Y-97387618D01*
X155067166Y-97401936D01*
X155063649Y-97415977D01*
X155058772Y-97429606D01*
X155052583Y-97442691D01*
X155045142Y-97455107D01*
X155036519Y-97466733D01*
X155026798Y-97477458D01*
X155016073Y-97487179D01*
X155004447Y-97495802D01*
X154992031Y-97503243D01*
X154978946Y-97509432D01*
X154965317Y-97514309D01*
X154951276Y-97517826D01*
X154936958Y-97519950D01*
X154922500Y-97520660D01*
X154577500Y-97520660D01*
X154563042Y-97519950D01*
X154548724Y-97517826D01*
X154534683Y-97514309D01*
X154521054Y-97509432D01*
X154507969Y-97503243D01*
X154495553Y-97495802D01*
X154483927Y-97487179D01*
X154473202Y-97477458D01*
X154463481Y-97466733D01*
X154454858Y-97455107D01*
X154447417Y-97442691D01*
X154441228Y-97429606D01*
X154436351Y-97415977D01*
X154432834Y-97401936D01*
X154430710Y-97387618D01*
X154430000Y-97373160D01*
X154430000Y-97078160D01*
X154430710Y-97063702D01*
X154432834Y-97049384D01*
X154436351Y-97035343D01*
X154441228Y-97021714D01*
X154447417Y-97008629D01*
X154454858Y-96996213D01*
X154463481Y-96984587D01*
X154473202Y-96973862D01*
X154483927Y-96964141D01*
X154495553Y-96955518D01*
X154507969Y-96948077D01*
X154521054Y-96941888D01*
X154534683Y-96937011D01*
X154548724Y-96933494D01*
X154563042Y-96931370D01*
X154577500Y-96930660D01*
X154922500Y-96930660D01*
X154936958Y-96931370D01*
X154936958Y-96931370D01*
G37*
D20*
X154750000Y-97225660D03*
D10*
G36*
X154936958Y-95961370D02*
X154951276Y-95963494D01*
X154965317Y-95967011D01*
X154978946Y-95971888D01*
X154992031Y-95978077D01*
X155004447Y-95985518D01*
X155016073Y-95994141D01*
X155026798Y-96003862D01*
X155036519Y-96014587D01*
X155045142Y-96026213D01*
X155052583Y-96038629D01*
X155058772Y-96051714D01*
X155063649Y-96065343D01*
X155067166Y-96079384D01*
X155069290Y-96093702D01*
X155070000Y-96108160D01*
X155070000Y-96403160D01*
X155069290Y-96417618D01*
X155067166Y-96431936D01*
X155063649Y-96445977D01*
X155058772Y-96459606D01*
X155052583Y-96472691D01*
X155045142Y-96485107D01*
X155036519Y-96496733D01*
X155026798Y-96507458D01*
X155016073Y-96517179D01*
X155004447Y-96525802D01*
X154992031Y-96533243D01*
X154978946Y-96539432D01*
X154965317Y-96544309D01*
X154951276Y-96547826D01*
X154936958Y-96549950D01*
X154922500Y-96550660D01*
X154577500Y-96550660D01*
X154563042Y-96549950D01*
X154548724Y-96547826D01*
X154534683Y-96544309D01*
X154521054Y-96539432D01*
X154507969Y-96533243D01*
X154495553Y-96525802D01*
X154483927Y-96517179D01*
X154473202Y-96507458D01*
X154463481Y-96496733D01*
X154454858Y-96485107D01*
X154447417Y-96472691D01*
X154441228Y-96459606D01*
X154436351Y-96445977D01*
X154432834Y-96431936D01*
X154430710Y-96417618D01*
X154430000Y-96403160D01*
X154430000Y-96108160D01*
X154430710Y-96093702D01*
X154432834Y-96079384D01*
X154436351Y-96065343D01*
X154441228Y-96051714D01*
X154447417Y-96038629D01*
X154454858Y-96026213D01*
X154463481Y-96014587D01*
X154473202Y-96003862D01*
X154483927Y-95994141D01*
X154495553Y-95985518D01*
X154507969Y-95978077D01*
X154521054Y-95971888D01*
X154534683Y-95967011D01*
X154548724Y-95963494D01*
X154563042Y-95961370D01*
X154577500Y-95960660D01*
X154922500Y-95960660D01*
X154936958Y-95961370D01*
X154936958Y-95961370D01*
G37*
D20*
X154750000Y-96255660D03*
D10*
G36*
X163502458Y-96060710D02*
X163516776Y-96062834D01*
X163530817Y-96066351D01*
X163544446Y-96071228D01*
X163557531Y-96077417D01*
X163569947Y-96084858D01*
X163581573Y-96093481D01*
X163592298Y-96103202D01*
X163602019Y-96113927D01*
X163610642Y-96125553D01*
X163618083Y-96137969D01*
X163624272Y-96151054D01*
X163629149Y-96164683D01*
X163632666Y-96178724D01*
X163634790Y-96193042D01*
X163635500Y-96207500D01*
X163635500Y-96552500D01*
X163634790Y-96566958D01*
X163632666Y-96581276D01*
X163629149Y-96595317D01*
X163624272Y-96608946D01*
X163618083Y-96622031D01*
X163610642Y-96634447D01*
X163602019Y-96646073D01*
X163592298Y-96656798D01*
X163581573Y-96666519D01*
X163569947Y-96675142D01*
X163557531Y-96682583D01*
X163544446Y-96688772D01*
X163530817Y-96693649D01*
X163516776Y-96697166D01*
X163502458Y-96699290D01*
X163488000Y-96700000D01*
X163193000Y-96700000D01*
X163178542Y-96699290D01*
X163164224Y-96697166D01*
X163150183Y-96693649D01*
X163136554Y-96688772D01*
X163123469Y-96682583D01*
X163111053Y-96675142D01*
X163099427Y-96666519D01*
X163088702Y-96656798D01*
X163078981Y-96646073D01*
X163070358Y-96634447D01*
X163062917Y-96622031D01*
X163056728Y-96608946D01*
X163051851Y-96595317D01*
X163048334Y-96581276D01*
X163046210Y-96566958D01*
X163045500Y-96552500D01*
X163045500Y-96207500D01*
X163046210Y-96193042D01*
X163048334Y-96178724D01*
X163051851Y-96164683D01*
X163056728Y-96151054D01*
X163062917Y-96137969D01*
X163070358Y-96125553D01*
X163078981Y-96113927D01*
X163088702Y-96103202D01*
X163099427Y-96093481D01*
X163111053Y-96084858D01*
X163123469Y-96077417D01*
X163136554Y-96071228D01*
X163150183Y-96066351D01*
X163164224Y-96062834D01*
X163178542Y-96060710D01*
X163193000Y-96060000D01*
X163488000Y-96060000D01*
X163502458Y-96060710D01*
X163502458Y-96060710D01*
G37*
D20*
X163340500Y-96380000D03*
D10*
G36*
X164472458Y-96060710D02*
X164486776Y-96062834D01*
X164500817Y-96066351D01*
X164514446Y-96071228D01*
X164527531Y-96077417D01*
X164539947Y-96084858D01*
X164551573Y-96093481D01*
X164562298Y-96103202D01*
X164572019Y-96113927D01*
X164580642Y-96125553D01*
X164588083Y-96137969D01*
X164594272Y-96151054D01*
X164599149Y-96164683D01*
X164602666Y-96178724D01*
X164604790Y-96193042D01*
X164605500Y-96207500D01*
X164605500Y-96552500D01*
X164604790Y-96566958D01*
X164602666Y-96581276D01*
X164599149Y-96595317D01*
X164594272Y-96608946D01*
X164588083Y-96622031D01*
X164580642Y-96634447D01*
X164572019Y-96646073D01*
X164562298Y-96656798D01*
X164551573Y-96666519D01*
X164539947Y-96675142D01*
X164527531Y-96682583D01*
X164514446Y-96688772D01*
X164500817Y-96693649D01*
X164486776Y-96697166D01*
X164472458Y-96699290D01*
X164458000Y-96700000D01*
X164163000Y-96700000D01*
X164148542Y-96699290D01*
X164134224Y-96697166D01*
X164120183Y-96693649D01*
X164106554Y-96688772D01*
X164093469Y-96682583D01*
X164081053Y-96675142D01*
X164069427Y-96666519D01*
X164058702Y-96656798D01*
X164048981Y-96646073D01*
X164040358Y-96634447D01*
X164032917Y-96622031D01*
X164026728Y-96608946D01*
X164021851Y-96595317D01*
X164018334Y-96581276D01*
X164016210Y-96566958D01*
X164015500Y-96552500D01*
X164015500Y-96207500D01*
X164016210Y-96193042D01*
X164018334Y-96178724D01*
X164021851Y-96164683D01*
X164026728Y-96151054D01*
X164032917Y-96137969D01*
X164040358Y-96125553D01*
X164048981Y-96113927D01*
X164058702Y-96103202D01*
X164069427Y-96093481D01*
X164081053Y-96084858D01*
X164093469Y-96077417D01*
X164106554Y-96071228D01*
X164120183Y-96066351D01*
X164134224Y-96062834D01*
X164148542Y-96060710D01*
X164163000Y-96060000D01*
X164458000Y-96060000D01*
X164472458Y-96060710D01*
X164472458Y-96060710D01*
G37*
D20*
X164310500Y-96380000D03*
D10*
G36*
X162586958Y-100440710D02*
X162601276Y-100442834D01*
X162615317Y-100446351D01*
X162628946Y-100451228D01*
X162642031Y-100457417D01*
X162654447Y-100464858D01*
X162666073Y-100473481D01*
X162676798Y-100483202D01*
X162686519Y-100493927D01*
X162695142Y-100505553D01*
X162702583Y-100517969D01*
X162708772Y-100531054D01*
X162713649Y-100544683D01*
X162717166Y-100558724D01*
X162719290Y-100573042D01*
X162720000Y-100587500D01*
X162720000Y-100882500D01*
X162719290Y-100896958D01*
X162717166Y-100911276D01*
X162713649Y-100925317D01*
X162708772Y-100938946D01*
X162702583Y-100952031D01*
X162695142Y-100964447D01*
X162686519Y-100976073D01*
X162676798Y-100986798D01*
X162666073Y-100996519D01*
X162654447Y-101005142D01*
X162642031Y-101012583D01*
X162628946Y-101018772D01*
X162615317Y-101023649D01*
X162601276Y-101027166D01*
X162586958Y-101029290D01*
X162572500Y-101030000D01*
X162227500Y-101030000D01*
X162213042Y-101029290D01*
X162198724Y-101027166D01*
X162184683Y-101023649D01*
X162171054Y-101018772D01*
X162157969Y-101012583D01*
X162145553Y-101005142D01*
X162133927Y-100996519D01*
X162123202Y-100986798D01*
X162113481Y-100976073D01*
X162104858Y-100964447D01*
X162097417Y-100952031D01*
X162091228Y-100938946D01*
X162086351Y-100925317D01*
X162082834Y-100911276D01*
X162080710Y-100896958D01*
X162080000Y-100882500D01*
X162080000Y-100587500D01*
X162080710Y-100573042D01*
X162082834Y-100558724D01*
X162086351Y-100544683D01*
X162091228Y-100531054D01*
X162097417Y-100517969D01*
X162104858Y-100505553D01*
X162113481Y-100493927D01*
X162123202Y-100483202D01*
X162133927Y-100473481D01*
X162145553Y-100464858D01*
X162157969Y-100457417D01*
X162171054Y-100451228D01*
X162184683Y-100446351D01*
X162198724Y-100442834D01*
X162213042Y-100440710D01*
X162227500Y-100440000D01*
X162572500Y-100440000D01*
X162586958Y-100440710D01*
X162586958Y-100440710D01*
G37*
D20*
X162400000Y-100735000D03*
D10*
G36*
X162586958Y-99470710D02*
X162601276Y-99472834D01*
X162615317Y-99476351D01*
X162628946Y-99481228D01*
X162642031Y-99487417D01*
X162654447Y-99494858D01*
X162666073Y-99503481D01*
X162676798Y-99513202D01*
X162686519Y-99523927D01*
X162695142Y-99535553D01*
X162702583Y-99547969D01*
X162708772Y-99561054D01*
X162713649Y-99574683D01*
X162717166Y-99588724D01*
X162719290Y-99603042D01*
X162720000Y-99617500D01*
X162720000Y-99912500D01*
X162719290Y-99926958D01*
X162717166Y-99941276D01*
X162713649Y-99955317D01*
X162708772Y-99968946D01*
X162702583Y-99982031D01*
X162695142Y-99994447D01*
X162686519Y-100006073D01*
X162676798Y-100016798D01*
X162666073Y-100026519D01*
X162654447Y-100035142D01*
X162642031Y-100042583D01*
X162628946Y-100048772D01*
X162615317Y-100053649D01*
X162601276Y-100057166D01*
X162586958Y-100059290D01*
X162572500Y-100060000D01*
X162227500Y-100060000D01*
X162213042Y-100059290D01*
X162198724Y-100057166D01*
X162184683Y-100053649D01*
X162171054Y-100048772D01*
X162157969Y-100042583D01*
X162145553Y-100035142D01*
X162133927Y-100026519D01*
X162123202Y-100016798D01*
X162113481Y-100006073D01*
X162104858Y-99994447D01*
X162097417Y-99982031D01*
X162091228Y-99968946D01*
X162086351Y-99955317D01*
X162082834Y-99941276D01*
X162080710Y-99926958D01*
X162080000Y-99912500D01*
X162080000Y-99617500D01*
X162080710Y-99603042D01*
X162082834Y-99588724D01*
X162086351Y-99574683D01*
X162091228Y-99561054D01*
X162097417Y-99547969D01*
X162104858Y-99535553D01*
X162113481Y-99523927D01*
X162123202Y-99513202D01*
X162133927Y-99503481D01*
X162145553Y-99494858D01*
X162157969Y-99487417D01*
X162171054Y-99481228D01*
X162184683Y-99476351D01*
X162198724Y-99472834D01*
X162213042Y-99470710D01*
X162227500Y-99470000D01*
X162572500Y-99470000D01*
X162586958Y-99470710D01*
X162586958Y-99470710D01*
G37*
D20*
X162400000Y-99765000D03*
D10*
G36*
X163567958Y-99474210D02*
X163582276Y-99476334D01*
X163596317Y-99479851D01*
X163609946Y-99484728D01*
X163623031Y-99490917D01*
X163635447Y-99498358D01*
X163647073Y-99506981D01*
X163657798Y-99516702D01*
X163667519Y-99527427D01*
X163676142Y-99539053D01*
X163683583Y-99551469D01*
X163689772Y-99564554D01*
X163694649Y-99578183D01*
X163698166Y-99592224D01*
X163700290Y-99606542D01*
X163701000Y-99621000D01*
X163701000Y-99916000D01*
X163700290Y-99930458D01*
X163698166Y-99944776D01*
X163694649Y-99958817D01*
X163689772Y-99972446D01*
X163683583Y-99985531D01*
X163676142Y-99997947D01*
X163667519Y-100009573D01*
X163657798Y-100020298D01*
X163647073Y-100030019D01*
X163635447Y-100038642D01*
X163623031Y-100046083D01*
X163609946Y-100052272D01*
X163596317Y-100057149D01*
X163582276Y-100060666D01*
X163567958Y-100062790D01*
X163553500Y-100063500D01*
X163208500Y-100063500D01*
X163194042Y-100062790D01*
X163179724Y-100060666D01*
X163165683Y-100057149D01*
X163152054Y-100052272D01*
X163138969Y-100046083D01*
X163126553Y-100038642D01*
X163114927Y-100030019D01*
X163104202Y-100020298D01*
X163094481Y-100009573D01*
X163085858Y-99997947D01*
X163078417Y-99985531D01*
X163072228Y-99972446D01*
X163067351Y-99958817D01*
X163063834Y-99944776D01*
X163061710Y-99930458D01*
X163061000Y-99916000D01*
X163061000Y-99621000D01*
X163061710Y-99606542D01*
X163063834Y-99592224D01*
X163067351Y-99578183D01*
X163072228Y-99564554D01*
X163078417Y-99551469D01*
X163085858Y-99539053D01*
X163094481Y-99527427D01*
X163104202Y-99516702D01*
X163114927Y-99506981D01*
X163126553Y-99498358D01*
X163138969Y-99490917D01*
X163152054Y-99484728D01*
X163165683Y-99479851D01*
X163179724Y-99476334D01*
X163194042Y-99474210D01*
X163208500Y-99473500D01*
X163553500Y-99473500D01*
X163567958Y-99474210D01*
X163567958Y-99474210D01*
G37*
D20*
X163381000Y-99768500D03*
D10*
G36*
X163567958Y-100444210D02*
X163582276Y-100446334D01*
X163596317Y-100449851D01*
X163609946Y-100454728D01*
X163623031Y-100460917D01*
X163635447Y-100468358D01*
X163647073Y-100476981D01*
X163657798Y-100486702D01*
X163667519Y-100497427D01*
X163676142Y-100509053D01*
X163683583Y-100521469D01*
X163689772Y-100534554D01*
X163694649Y-100548183D01*
X163698166Y-100562224D01*
X163700290Y-100576542D01*
X163701000Y-100591000D01*
X163701000Y-100886000D01*
X163700290Y-100900458D01*
X163698166Y-100914776D01*
X163694649Y-100928817D01*
X163689772Y-100942446D01*
X163683583Y-100955531D01*
X163676142Y-100967947D01*
X163667519Y-100979573D01*
X163657798Y-100990298D01*
X163647073Y-101000019D01*
X163635447Y-101008642D01*
X163623031Y-101016083D01*
X163609946Y-101022272D01*
X163596317Y-101027149D01*
X163582276Y-101030666D01*
X163567958Y-101032790D01*
X163553500Y-101033500D01*
X163208500Y-101033500D01*
X163194042Y-101032790D01*
X163179724Y-101030666D01*
X163165683Y-101027149D01*
X163152054Y-101022272D01*
X163138969Y-101016083D01*
X163126553Y-101008642D01*
X163114927Y-101000019D01*
X163104202Y-100990298D01*
X163094481Y-100979573D01*
X163085858Y-100967947D01*
X163078417Y-100955531D01*
X163072228Y-100942446D01*
X163067351Y-100928817D01*
X163063834Y-100914776D01*
X163061710Y-100900458D01*
X163061000Y-100886000D01*
X163061000Y-100591000D01*
X163061710Y-100576542D01*
X163063834Y-100562224D01*
X163067351Y-100548183D01*
X163072228Y-100534554D01*
X163078417Y-100521469D01*
X163085858Y-100509053D01*
X163094481Y-100497427D01*
X163104202Y-100486702D01*
X163114927Y-100476981D01*
X163126553Y-100468358D01*
X163138969Y-100460917D01*
X163152054Y-100454728D01*
X163165683Y-100449851D01*
X163179724Y-100446334D01*
X163194042Y-100444210D01*
X163208500Y-100443500D01*
X163553500Y-100443500D01*
X163567958Y-100444210D01*
X163567958Y-100444210D01*
G37*
D20*
X163381000Y-100738500D03*
D10*
G36*
X161086958Y-99470710D02*
X161101276Y-99472834D01*
X161115317Y-99476351D01*
X161128946Y-99481228D01*
X161142031Y-99487417D01*
X161154447Y-99494858D01*
X161166073Y-99503481D01*
X161176798Y-99513202D01*
X161186519Y-99523927D01*
X161195142Y-99535553D01*
X161202583Y-99547969D01*
X161208772Y-99561054D01*
X161213649Y-99574683D01*
X161217166Y-99588724D01*
X161219290Y-99603042D01*
X161220000Y-99617500D01*
X161220000Y-99912500D01*
X161219290Y-99926958D01*
X161217166Y-99941276D01*
X161213649Y-99955317D01*
X161208772Y-99968946D01*
X161202583Y-99982031D01*
X161195142Y-99994447D01*
X161186519Y-100006073D01*
X161176798Y-100016798D01*
X161166073Y-100026519D01*
X161154447Y-100035142D01*
X161142031Y-100042583D01*
X161128946Y-100048772D01*
X161115317Y-100053649D01*
X161101276Y-100057166D01*
X161086958Y-100059290D01*
X161072500Y-100060000D01*
X160727500Y-100060000D01*
X160713042Y-100059290D01*
X160698724Y-100057166D01*
X160684683Y-100053649D01*
X160671054Y-100048772D01*
X160657969Y-100042583D01*
X160645553Y-100035142D01*
X160633927Y-100026519D01*
X160623202Y-100016798D01*
X160613481Y-100006073D01*
X160604858Y-99994447D01*
X160597417Y-99982031D01*
X160591228Y-99968946D01*
X160586351Y-99955317D01*
X160582834Y-99941276D01*
X160580710Y-99926958D01*
X160580000Y-99912500D01*
X160580000Y-99617500D01*
X160580710Y-99603042D01*
X160582834Y-99588724D01*
X160586351Y-99574683D01*
X160591228Y-99561054D01*
X160597417Y-99547969D01*
X160604858Y-99535553D01*
X160613481Y-99523927D01*
X160623202Y-99513202D01*
X160633927Y-99503481D01*
X160645553Y-99494858D01*
X160657969Y-99487417D01*
X160671054Y-99481228D01*
X160684683Y-99476351D01*
X160698724Y-99472834D01*
X160713042Y-99470710D01*
X160727500Y-99470000D01*
X161072500Y-99470000D01*
X161086958Y-99470710D01*
X161086958Y-99470710D01*
G37*
D20*
X160900000Y-99765000D03*
D10*
G36*
X161086958Y-100440710D02*
X161101276Y-100442834D01*
X161115317Y-100446351D01*
X161128946Y-100451228D01*
X161142031Y-100457417D01*
X161154447Y-100464858D01*
X161166073Y-100473481D01*
X161176798Y-100483202D01*
X161186519Y-100493927D01*
X161195142Y-100505553D01*
X161202583Y-100517969D01*
X161208772Y-100531054D01*
X161213649Y-100544683D01*
X161217166Y-100558724D01*
X161219290Y-100573042D01*
X161220000Y-100587500D01*
X161220000Y-100882500D01*
X161219290Y-100896958D01*
X161217166Y-100911276D01*
X161213649Y-100925317D01*
X161208772Y-100938946D01*
X161202583Y-100952031D01*
X161195142Y-100964447D01*
X161186519Y-100976073D01*
X161176798Y-100986798D01*
X161166073Y-100996519D01*
X161154447Y-101005142D01*
X161142031Y-101012583D01*
X161128946Y-101018772D01*
X161115317Y-101023649D01*
X161101276Y-101027166D01*
X161086958Y-101029290D01*
X161072500Y-101030000D01*
X160727500Y-101030000D01*
X160713042Y-101029290D01*
X160698724Y-101027166D01*
X160684683Y-101023649D01*
X160671054Y-101018772D01*
X160657969Y-101012583D01*
X160645553Y-101005142D01*
X160633927Y-100996519D01*
X160623202Y-100986798D01*
X160613481Y-100976073D01*
X160604858Y-100964447D01*
X160597417Y-100952031D01*
X160591228Y-100938946D01*
X160586351Y-100925317D01*
X160582834Y-100911276D01*
X160580710Y-100896958D01*
X160580000Y-100882500D01*
X160580000Y-100587500D01*
X160580710Y-100573042D01*
X160582834Y-100558724D01*
X160586351Y-100544683D01*
X160591228Y-100531054D01*
X160597417Y-100517969D01*
X160604858Y-100505553D01*
X160613481Y-100493927D01*
X160623202Y-100483202D01*
X160633927Y-100473481D01*
X160645553Y-100464858D01*
X160657969Y-100457417D01*
X160671054Y-100451228D01*
X160684683Y-100446351D01*
X160698724Y-100442834D01*
X160713042Y-100440710D01*
X160727500Y-100440000D01*
X161072500Y-100440000D01*
X161086958Y-100440710D01*
X161086958Y-100440710D01*
G37*
D20*
X160900000Y-100735000D03*
D10*
G36*
X163567958Y-97188210D02*
X163582276Y-97190334D01*
X163596317Y-97193851D01*
X163609946Y-97198728D01*
X163623031Y-97204917D01*
X163635447Y-97212358D01*
X163647073Y-97220981D01*
X163657798Y-97230702D01*
X163667519Y-97241427D01*
X163676142Y-97253053D01*
X163683583Y-97265469D01*
X163689772Y-97278554D01*
X163694649Y-97292183D01*
X163698166Y-97306224D01*
X163700290Y-97320542D01*
X163701000Y-97335000D01*
X163701000Y-97630000D01*
X163700290Y-97644458D01*
X163698166Y-97658776D01*
X163694649Y-97672817D01*
X163689772Y-97686446D01*
X163683583Y-97699531D01*
X163676142Y-97711947D01*
X163667519Y-97723573D01*
X163657798Y-97734298D01*
X163647073Y-97744019D01*
X163635447Y-97752642D01*
X163623031Y-97760083D01*
X163609946Y-97766272D01*
X163596317Y-97771149D01*
X163582276Y-97774666D01*
X163567958Y-97776790D01*
X163553500Y-97777500D01*
X163208500Y-97777500D01*
X163194042Y-97776790D01*
X163179724Y-97774666D01*
X163165683Y-97771149D01*
X163152054Y-97766272D01*
X163138969Y-97760083D01*
X163126553Y-97752642D01*
X163114927Y-97744019D01*
X163104202Y-97734298D01*
X163094481Y-97723573D01*
X163085858Y-97711947D01*
X163078417Y-97699531D01*
X163072228Y-97686446D01*
X163067351Y-97672817D01*
X163063834Y-97658776D01*
X163061710Y-97644458D01*
X163061000Y-97630000D01*
X163061000Y-97335000D01*
X163061710Y-97320542D01*
X163063834Y-97306224D01*
X163067351Y-97292183D01*
X163072228Y-97278554D01*
X163078417Y-97265469D01*
X163085858Y-97253053D01*
X163094481Y-97241427D01*
X163104202Y-97230702D01*
X163114927Y-97220981D01*
X163126553Y-97212358D01*
X163138969Y-97204917D01*
X163152054Y-97198728D01*
X163165683Y-97193851D01*
X163179724Y-97190334D01*
X163194042Y-97188210D01*
X163208500Y-97187500D01*
X163553500Y-97187500D01*
X163567958Y-97188210D01*
X163567958Y-97188210D01*
G37*
D20*
X163381000Y-97482500D03*
D10*
G36*
X163567958Y-98158210D02*
X163582276Y-98160334D01*
X163596317Y-98163851D01*
X163609946Y-98168728D01*
X163623031Y-98174917D01*
X163635447Y-98182358D01*
X163647073Y-98190981D01*
X163657798Y-98200702D01*
X163667519Y-98211427D01*
X163676142Y-98223053D01*
X163683583Y-98235469D01*
X163689772Y-98248554D01*
X163694649Y-98262183D01*
X163698166Y-98276224D01*
X163700290Y-98290542D01*
X163701000Y-98305000D01*
X163701000Y-98600000D01*
X163700290Y-98614458D01*
X163698166Y-98628776D01*
X163694649Y-98642817D01*
X163689772Y-98656446D01*
X163683583Y-98669531D01*
X163676142Y-98681947D01*
X163667519Y-98693573D01*
X163657798Y-98704298D01*
X163647073Y-98714019D01*
X163635447Y-98722642D01*
X163623031Y-98730083D01*
X163609946Y-98736272D01*
X163596317Y-98741149D01*
X163582276Y-98744666D01*
X163567958Y-98746790D01*
X163553500Y-98747500D01*
X163208500Y-98747500D01*
X163194042Y-98746790D01*
X163179724Y-98744666D01*
X163165683Y-98741149D01*
X163152054Y-98736272D01*
X163138969Y-98730083D01*
X163126553Y-98722642D01*
X163114927Y-98714019D01*
X163104202Y-98704298D01*
X163094481Y-98693573D01*
X163085858Y-98681947D01*
X163078417Y-98669531D01*
X163072228Y-98656446D01*
X163067351Y-98642817D01*
X163063834Y-98628776D01*
X163061710Y-98614458D01*
X163061000Y-98600000D01*
X163061000Y-98305000D01*
X163061710Y-98290542D01*
X163063834Y-98276224D01*
X163067351Y-98262183D01*
X163072228Y-98248554D01*
X163078417Y-98235469D01*
X163085858Y-98223053D01*
X163094481Y-98211427D01*
X163104202Y-98200702D01*
X163114927Y-98190981D01*
X163126553Y-98182358D01*
X163138969Y-98174917D01*
X163152054Y-98168728D01*
X163165683Y-98163851D01*
X163179724Y-98160334D01*
X163194042Y-98158210D01*
X163208500Y-98157500D01*
X163553500Y-98157500D01*
X163567958Y-98158210D01*
X163567958Y-98158210D01*
G37*
D20*
X163381000Y-98452500D03*
D10*
G36*
X160519958Y-92044710D02*
X160534276Y-92046834D01*
X160548317Y-92050351D01*
X160561946Y-92055228D01*
X160575031Y-92061417D01*
X160587447Y-92068858D01*
X160599073Y-92077481D01*
X160609798Y-92087202D01*
X160619519Y-92097927D01*
X160628142Y-92109553D01*
X160635583Y-92121969D01*
X160641772Y-92135054D01*
X160646649Y-92148683D01*
X160650166Y-92162724D01*
X160652290Y-92177042D01*
X160653000Y-92191500D01*
X160653000Y-92486500D01*
X160652290Y-92500958D01*
X160650166Y-92515276D01*
X160646649Y-92529317D01*
X160641772Y-92542946D01*
X160635583Y-92556031D01*
X160628142Y-92568447D01*
X160619519Y-92580073D01*
X160609798Y-92590798D01*
X160599073Y-92600519D01*
X160587447Y-92609142D01*
X160575031Y-92616583D01*
X160561946Y-92622772D01*
X160548317Y-92627649D01*
X160534276Y-92631166D01*
X160519958Y-92633290D01*
X160505500Y-92634000D01*
X160160500Y-92634000D01*
X160146042Y-92633290D01*
X160131724Y-92631166D01*
X160117683Y-92627649D01*
X160104054Y-92622772D01*
X160090969Y-92616583D01*
X160078553Y-92609142D01*
X160066927Y-92600519D01*
X160056202Y-92590798D01*
X160046481Y-92580073D01*
X160037858Y-92568447D01*
X160030417Y-92556031D01*
X160024228Y-92542946D01*
X160019351Y-92529317D01*
X160015834Y-92515276D01*
X160013710Y-92500958D01*
X160013000Y-92486500D01*
X160013000Y-92191500D01*
X160013710Y-92177042D01*
X160015834Y-92162724D01*
X160019351Y-92148683D01*
X160024228Y-92135054D01*
X160030417Y-92121969D01*
X160037858Y-92109553D01*
X160046481Y-92097927D01*
X160056202Y-92087202D01*
X160066927Y-92077481D01*
X160078553Y-92068858D01*
X160090969Y-92061417D01*
X160104054Y-92055228D01*
X160117683Y-92050351D01*
X160131724Y-92046834D01*
X160146042Y-92044710D01*
X160160500Y-92044000D01*
X160505500Y-92044000D01*
X160519958Y-92044710D01*
X160519958Y-92044710D01*
G37*
D20*
X160333000Y-92339000D03*
D10*
G36*
X160519958Y-93014710D02*
X160534276Y-93016834D01*
X160548317Y-93020351D01*
X160561946Y-93025228D01*
X160575031Y-93031417D01*
X160587447Y-93038858D01*
X160599073Y-93047481D01*
X160609798Y-93057202D01*
X160619519Y-93067927D01*
X160628142Y-93079553D01*
X160635583Y-93091969D01*
X160641772Y-93105054D01*
X160646649Y-93118683D01*
X160650166Y-93132724D01*
X160652290Y-93147042D01*
X160653000Y-93161500D01*
X160653000Y-93456500D01*
X160652290Y-93470958D01*
X160650166Y-93485276D01*
X160646649Y-93499317D01*
X160641772Y-93512946D01*
X160635583Y-93526031D01*
X160628142Y-93538447D01*
X160619519Y-93550073D01*
X160609798Y-93560798D01*
X160599073Y-93570519D01*
X160587447Y-93579142D01*
X160575031Y-93586583D01*
X160561946Y-93592772D01*
X160548317Y-93597649D01*
X160534276Y-93601166D01*
X160519958Y-93603290D01*
X160505500Y-93604000D01*
X160160500Y-93604000D01*
X160146042Y-93603290D01*
X160131724Y-93601166D01*
X160117683Y-93597649D01*
X160104054Y-93592772D01*
X160090969Y-93586583D01*
X160078553Y-93579142D01*
X160066927Y-93570519D01*
X160056202Y-93560798D01*
X160046481Y-93550073D01*
X160037858Y-93538447D01*
X160030417Y-93526031D01*
X160024228Y-93512946D01*
X160019351Y-93499317D01*
X160015834Y-93485276D01*
X160013710Y-93470958D01*
X160013000Y-93456500D01*
X160013000Y-93161500D01*
X160013710Y-93147042D01*
X160015834Y-93132724D01*
X160019351Y-93118683D01*
X160024228Y-93105054D01*
X160030417Y-93091969D01*
X160037858Y-93079553D01*
X160046481Y-93067927D01*
X160056202Y-93057202D01*
X160066927Y-93047481D01*
X160078553Y-93038858D01*
X160090969Y-93031417D01*
X160104054Y-93025228D01*
X160117683Y-93020351D01*
X160131724Y-93016834D01*
X160146042Y-93014710D01*
X160160500Y-93014000D01*
X160505500Y-93014000D01*
X160519958Y-93014710D01*
X160519958Y-93014710D01*
G37*
D20*
X160333000Y-93309000D03*
D10*
G36*
X163686958Y-92990710D02*
X163701276Y-92992834D01*
X163715317Y-92996351D01*
X163728946Y-93001228D01*
X163742031Y-93007417D01*
X163754447Y-93014858D01*
X163766073Y-93023481D01*
X163776798Y-93033202D01*
X163786519Y-93043927D01*
X163795142Y-93055553D01*
X163802583Y-93067969D01*
X163808772Y-93081054D01*
X163813649Y-93094683D01*
X163817166Y-93108724D01*
X163819290Y-93123042D01*
X163820000Y-93137500D01*
X163820000Y-93432500D01*
X163819290Y-93446958D01*
X163817166Y-93461276D01*
X163813649Y-93475317D01*
X163808772Y-93488946D01*
X163802583Y-93502031D01*
X163795142Y-93514447D01*
X163786519Y-93526073D01*
X163776798Y-93536798D01*
X163766073Y-93546519D01*
X163754447Y-93555142D01*
X163742031Y-93562583D01*
X163728946Y-93568772D01*
X163715317Y-93573649D01*
X163701276Y-93577166D01*
X163686958Y-93579290D01*
X163672500Y-93580000D01*
X163327500Y-93580000D01*
X163313042Y-93579290D01*
X163298724Y-93577166D01*
X163284683Y-93573649D01*
X163271054Y-93568772D01*
X163257969Y-93562583D01*
X163245553Y-93555142D01*
X163233927Y-93546519D01*
X163223202Y-93536798D01*
X163213481Y-93526073D01*
X163204858Y-93514447D01*
X163197417Y-93502031D01*
X163191228Y-93488946D01*
X163186351Y-93475317D01*
X163182834Y-93461276D01*
X163180710Y-93446958D01*
X163180000Y-93432500D01*
X163180000Y-93137500D01*
X163180710Y-93123042D01*
X163182834Y-93108724D01*
X163186351Y-93094683D01*
X163191228Y-93081054D01*
X163197417Y-93067969D01*
X163204858Y-93055553D01*
X163213481Y-93043927D01*
X163223202Y-93033202D01*
X163233927Y-93023481D01*
X163245553Y-93014858D01*
X163257969Y-93007417D01*
X163271054Y-93001228D01*
X163284683Y-92996351D01*
X163298724Y-92992834D01*
X163313042Y-92990710D01*
X163327500Y-92990000D01*
X163672500Y-92990000D01*
X163686958Y-92990710D01*
X163686958Y-92990710D01*
G37*
D20*
X163500000Y-93285000D03*
D10*
G36*
X163686958Y-92020710D02*
X163701276Y-92022834D01*
X163715317Y-92026351D01*
X163728946Y-92031228D01*
X163742031Y-92037417D01*
X163754447Y-92044858D01*
X163766073Y-92053481D01*
X163776798Y-92063202D01*
X163786519Y-92073927D01*
X163795142Y-92085553D01*
X163802583Y-92097969D01*
X163808772Y-92111054D01*
X163813649Y-92124683D01*
X163817166Y-92138724D01*
X163819290Y-92153042D01*
X163820000Y-92167500D01*
X163820000Y-92462500D01*
X163819290Y-92476958D01*
X163817166Y-92491276D01*
X163813649Y-92505317D01*
X163808772Y-92518946D01*
X163802583Y-92532031D01*
X163795142Y-92544447D01*
X163786519Y-92556073D01*
X163776798Y-92566798D01*
X163766073Y-92576519D01*
X163754447Y-92585142D01*
X163742031Y-92592583D01*
X163728946Y-92598772D01*
X163715317Y-92603649D01*
X163701276Y-92607166D01*
X163686958Y-92609290D01*
X163672500Y-92610000D01*
X163327500Y-92610000D01*
X163313042Y-92609290D01*
X163298724Y-92607166D01*
X163284683Y-92603649D01*
X163271054Y-92598772D01*
X163257969Y-92592583D01*
X163245553Y-92585142D01*
X163233927Y-92576519D01*
X163223202Y-92566798D01*
X163213481Y-92556073D01*
X163204858Y-92544447D01*
X163197417Y-92532031D01*
X163191228Y-92518946D01*
X163186351Y-92505317D01*
X163182834Y-92491276D01*
X163180710Y-92476958D01*
X163180000Y-92462500D01*
X163180000Y-92167500D01*
X163180710Y-92153042D01*
X163182834Y-92138724D01*
X163186351Y-92124683D01*
X163191228Y-92111054D01*
X163197417Y-92097969D01*
X163204858Y-92085553D01*
X163213481Y-92073927D01*
X163223202Y-92063202D01*
X163233927Y-92053481D01*
X163245553Y-92044858D01*
X163257969Y-92037417D01*
X163271054Y-92031228D01*
X163284683Y-92026351D01*
X163298724Y-92022834D01*
X163313042Y-92020710D01*
X163327500Y-92020000D01*
X163672500Y-92020000D01*
X163686958Y-92020710D01*
X163686958Y-92020710D01*
G37*
D20*
X163500000Y-92315000D03*
D10*
G36*
X161093958Y-84389710D02*
X161108276Y-84391834D01*
X161122317Y-84395351D01*
X161135946Y-84400228D01*
X161149031Y-84406417D01*
X161161447Y-84413858D01*
X161173073Y-84422481D01*
X161183798Y-84432202D01*
X161193519Y-84442927D01*
X161202142Y-84454553D01*
X161209583Y-84466969D01*
X161215772Y-84480054D01*
X161220649Y-84493683D01*
X161224166Y-84507724D01*
X161226290Y-84522042D01*
X161227000Y-84536500D01*
X161227000Y-84881500D01*
X161226290Y-84895958D01*
X161224166Y-84910276D01*
X161220649Y-84924317D01*
X161215772Y-84937946D01*
X161209583Y-84951031D01*
X161202142Y-84963447D01*
X161193519Y-84975073D01*
X161183798Y-84985798D01*
X161173073Y-84995519D01*
X161161447Y-85004142D01*
X161149031Y-85011583D01*
X161135946Y-85017772D01*
X161122317Y-85022649D01*
X161108276Y-85026166D01*
X161093958Y-85028290D01*
X161079500Y-85029000D01*
X160784500Y-85029000D01*
X160770042Y-85028290D01*
X160755724Y-85026166D01*
X160741683Y-85022649D01*
X160728054Y-85017772D01*
X160714969Y-85011583D01*
X160702553Y-85004142D01*
X160690927Y-84995519D01*
X160680202Y-84985798D01*
X160670481Y-84975073D01*
X160661858Y-84963447D01*
X160654417Y-84951031D01*
X160648228Y-84937946D01*
X160643351Y-84924317D01*
X160639834Y-84910276D01*
X160637710Y-84895958D01*
X160637000Y-84881500D01*
X160637000Y-84536500D01*
X160637710Y-84522042D01*
X160639834Y-84507724D01*
X160643351Y-84493683D01*
X160648228Y-84480054D01*
X160654417Y-84466969D01*
X160661858Y-84454553D01*
X160670481Y-84442927D01*
X160680202Y-84432202D01*
X160690927Y-84422481D01*
X160702553Y-84413858D01*
X160714969Y-84406417D01*
X160728054Y-84400228D01*
X160741683Y-84395351D01*
X160755724Y-84391834D01*
X160770042Y-84389710D01*
X160784500Y-84389000D01*
X161079500Y-84389000D01*
X161093958Y-84389710D01*
X161093958Y-84389710D01*
G37*
D20*
X160932000Y-84709000D03*
D10*
G36*
X162063958Y-84389710D02*
X162078276Y-84391834D01*
X162092317Y-84395351D01*
X162105946Y-84400228D01*
X162119031Y-84406417D01*
X162131447Y-84413858D01*
X162143073Y-84422481D01*
X162153798Y-84432202D01*
X162163519Y-84442927D01*
X162172142Y-84454553D01*
X162179583Y-84466969D01*
X162185772Y-84480054D01*
X162190649Y-84493683D01*
X162194166Y-84507724D01*
X162196290Y-84522042D01*
X162197000Y-84536500D01*
X162197000Y-84881500D01*
X162196290Y-84895958D01*
X162194166Y-84910276D01*
X162190649Y-84924317D01*
X162185772Y-84937946D01*
X162179583Y-84951031D01*
X162172142Y-84963447D01*
X162163519Y-84975073D01*
X162153798Y-84985798D01*
X162143073Y-84995519D01*
X162131447Y-85004142D01*
X162119031Y-85011583D01*
X162105946Y-85017772D01*
X162092317Y-85022649D01*
X162078276Y-85026166D01*
X162063958Y-85028290D01*
X162049500Y-85029000D01*
X161754500Y-85029000D01*
X161740042Y-85028290D01*
X161725724Y-85026166D01*
X161711683Y-85022649D01*
X161698054Y-85017772D01*
X161684969Y-85011583D01*
X161672553Y-85004142D01*
X161660927Y-84995519D01*
X161650202Y-84985798D01*
X161640481Y-84975073D01*
X161631858Y-84963447D01*
X161624417Y-84951031D01*
X161618228Y-84937946D01*
X161613351Y-84924317D01*
X161609834Y-84910276D01*
X161607710Y-84895958D01*
X161607000Y-84881500D01*
X161607000Y-84536500D01*
X161607710Y-84522042D01*
X161609834Y-84507724D01*
X161613351Y-84493683D01*
X161618228Y-84480054D01*
X161624417Y-84466969D01*
X161631858Y-84454553D01*
X161640481Y-84442927D01*
X161650202Y-84432202D01*
X161660927Y-84422481D01*
X161672553Y-84413858D01*
X161684969Y-84406417D01*
X161698054Y-84400228D01*
X161711683Y-84395351D01*
X161725724Y-84391834D01*
X161740042Y-84389710D01*
X161754500Y-84389000D01*
X162049500Y-84389000D01*
X162063958Y-84389710D01*
X162063958Y-84389710D01*
G37*
D20*
X161902000Y-84709000D03*
D10*
G36*
X160331958Y-85659710D02*
X160346276Y-85661834D01*
X160360317Y-85665351D01*
X160373946Y-85670228D01*
X160387031Y-85676417D01*
X160399447Y-85683858D01*
X160411073Y-85692481D01*
X160421798Y-85702202D01*
X160431519Y-85712927D01*
X160440142Y-85724553D01*
X160447583Y-85736969D01*
X160453772Y-85750054D01*
X160458649Y-85763683D01*
X160462166Y-85777724D01*
X160464290Y-85792042D01*
X160465000Y-85806500D01*
X160465000Y-86151500D01*
X160464290Y-86165958D01*
X160462166Y-86180276D01*
X160458649Y-86194317D01*
X160453772Y-86207946D01*
X160447583Y-86221031D01*
X160440142Y-86233447D01*
X160431519Y-86245073D01*
X160421798Y-86255798D01*
X160411073Y-86265519D01*
X160399447Y-86274142D01*
X160387031Y-86281583D01*
X160373946Y-86287772D01*
X160360317Y-86292649D01*
X160346276Y-86296166D01*
X160331958Y-86298290D01*
X160317500Y-86299000D01*
X160022500Y-86299000D01*
X160008042Y-86298290D01*
X159993724Y-86296166D01*
X159979683Y-86292649D01*
X159966054Y-86287772D01*
X159952969Y-86281583D01*
X159940553Y-86274142D01*
X159928927Y-86265519D01*
X159918202Y-86255798D01*
X159908481Y-86245073D01*
X159899858Y-86233447D01*
X159892417Y-86221031D01*
X159886228Y-86207946D01*
X159881351Y-86194317D01*
X159877834Y-86180276D01*
X159875710Y-86165958D01*
X159875000Y-86151500D01*
X159875000Y-85806500D01*
X159875710Y-85792042D01*
X159877834Y-85777724D01*
X159881351Y-85763683D01*
X159886228Y-85750054D01*
X159892417Y-85736969D01*
X159899858Y-85724553D01*
X159908481Y-85712927D01*
X159918202Y-85702202D01*
X159928927Y-85692481D01*
X159940553Y-85683858D01*
X159952969Y-85676417D01*
X159966054Y-85670228D01*
X159979683Y-85665351D01*
X159993724Y-85661834D01*
X160008042Y-85659710D01*
X160022500Y-85659000D01*
X160317500Y-85659000D01*
X160331958Y-85659710D01*
X160331958Y-85659710D01*
G37*
D20*
X160170000Y-85979000D03*
D10*
G36*
X161301958Y-85659710D02*
X161316276Y-85661834D01*
X161330317Y-85665351D01*
X161343946Y-85670228D01*
X161357031Y-85676417D01*
X161369447Y-85683858D01*
X161381073Y-85692481D01*
X161391798Y-85702202D01*
X161401519Y-85712927D01*
X161410142Y-85724553D01*
X161417583Y-85736969D01*
X161423772Y-85750054D01*
X161428649Y-85763683D01*
X161432166Y-85777724D01*
X161434290Y-85792042D01*
X161435000Y-85806500D01*
X161435000Y-86151500D01*
X161434290Y-86165958D01*
X161432166Y-86180276D01*
X161428649Y-86194317D01*
X161423772Y-86207946D01*
X161417583Y-86221031D01*
X161410142Y-86233447D01*
X161401519Y-86245073D01*
X161391798Y-86255798D01*
X161381073Y-86265519D01*
X161369447Y-86274142D01*
X161357031Y-86281583D01*
X161343946Y-86287772D01*
X161330317Y-86292649D01*
X161316276Y-86296166D01*
X161301958Y-86298290D01*
X161287500Y-86299000D01*
X160992500Y-86299000D01*
X160978042Y-86298290D01*
X160963724Y-86296166D01*
X160949683Y-86292649D01*
X160936054Y-86287772D01*
X160922969Y-86281583D01*
X160910553Y-86274142D01*
X160898927Y-86265519D01*
X160888202Y-86255798D01*
X160878481Y-86245073D01*
X160869858Y-86233447D01*
X160862417Y-86221031D01*
X160856228Y-86207946D01*
X160851351Y-86194317D01*
X160847834Y-86180276D01*
X160845710Y-86165958D01*
X160845000Y-86151500D01*
X160845000Y-85806500D01*
X160845710Y-85792042D01*
X160847834Y-85777724D01*
X160851351Y-85763683D01*
X160856228Y-85750054D01*
X160862417Y-85736969D01*
X160869858Y-85724553D01*
X160878481Y-85712927D01*
X160888202Y-85702202D01*
X160898927Y-85692481D01*
X160910553Y-85683858D01*
X160922969Y-85676417D01*
X160936054Y-85670228D01*
X160949683Y-85665351D01*
X160963724Y-85661834D01*
X160978042Y-85659710D01*
X160992500Y-85659000D01*
X161287500Y-85659000D01*
X161301958Y-85659710D01*
X161301958Y-85659710D01*
G37*
D20*
X161140000Y-85979000D03*
D10*
G36*
X160011958Y-100444210D02*
X160026276Y-100446334D01*
X160040317Y-100449851D01*
X160053946Y-100454728D01*
X160067031Y-100460917D01*
X160079447Y-100468358D01*
X160091073Y-100476981D01*
X160101798Y-100486702D01*
X160111519Y-100497427D01*
X160120142Y-100509053D01*
X160127583Y-100521469D01*
X160133772Y-100534554D01*
X160138649Y-100548183D01*
X160142166Y-100562224D01*
X160144290Y-100576542D01*
X160145000Y-100591000D01*
X160145000Y-100886000D01*
X160144290Y-100900458D01*
X160142166Y-100914776D01*
X160138649Y-100928817D01*
X160133772Y-100942446D01*
X160127583Y-100955531D01*
X160120142Y-100967947D01*
X160111519Y-100979573D01*
X160101798Y-100990298D01*
X160091073Y-101000019D01*
X160079447Y-101008642D01*
X160067031Y-101016083D01*
X160053946Y-101022272D01*
X160040317Y-101027149D01*
X160026276Y-101030666D01*
X160011958Y-101032790D01*
X159997500Y-101033500D01*
X159652500Y-101033500D01*
X159638042Y-101032790D01*
X159623724Y-101030666D01*
X159609683Y-101027149D01*
X159596054Y-101022272D01*
X159582969Y-101016083D01*
X159570553Y-101008642D01*
X159558927Y-101000019D01*
X159548202Y-100990298D01*
X159538481Y-100979573D01*
X159529858Y-100967947D01*
X159522417Y-100955531D01*
X159516228Y-100942446D01*
X159511351Y-100928817D01*
X159507834Y-100914776D01*
X159505710Y-100900458D01*
X159505000Y-100886000D01*
X159505000Y-100591000D01*
X159505710Y-100576542D01*
X159507834Y-100562224D01*
X159511351Y-100548183D01*
X159516228Y-100534554D01*
X159522417Y-100521469D01*
X159529858Y-100509053D01*
X159538481Y-100497427D01*
X159548202Y-100486702D01*
X159558927Y-100476981D01*
X159570553Y-100468358D01*
X159582969Y-100460917D01*
X159596054Y-100454728D01*
X159609683Y-100449851D01*
X159623724Y-100446334D01*
X159638042Y-100444210D01*
X159652500Y-100443500D01*
X159997500Y-100443500D01*
X160011958Y-100444210D01*
X160011958Y-100444210D01*
G37*
D20*
X159825000Y-100738500D03*
D10*
G36*
X160011958Y-99474210D02*
X160026276Y-99476334D01*
X160040317Y-99479851D01*
X160053946Y-99484728D01*
X160067031Y-99490917D01*
X160079447Y-99498358D01*
X160091073Y-99506981D01*
X160101798Y-99516702D01*
X160111519Y-99527427D01*
X160120142Y-99539053D01*
X160127583Y-99551469D01*
X160133772Y-99564554D01*
X160138649Y-99578183D01*
X160142166Y-99592224D01*
X160144290Y-99606542D01*
X160145000Y-99621000D01*
X160145000Y-99916000D01*
X160144290Y-99930458D01*
X160142166Y-99944776D01*
X160138649Y-99958817D01*
X160133772Y-99972446D01*
X160127583Y-99985531D01*
X160120142Y-99997947D01*
X160111519Y-100009573D01*
X160101798Y-100020298D01*
X160091073Y-100030019D01*
X160079447Y-100038642D01*
X160067031Y-100046083D01*
X160053946Y-100052272D01*
X160040317Y-100057149D01*
X160026276Y-100060666D01*
X160011958Y-100062790D01*
X159997500Y-100063500D01*
X159652500Y-100063500D01*
X159638042Y-100062790D01*
X159623724Y-100060666D01*
X159609683Y-100057149D01*
X159596054Y-100052272D01*
X159582969Y-100046083D01*
X159570553Y-100038642D01*
X159558927Y-100030019D01*
X159548202Y-100020298D01*
X159538481Y-100009573D01*
X159529858Y-99997947D01*
X159522417Y-99985531D01*
X159516228Y-99972446D01*
X159511351Y-99958817D01*
X159507834Y-99944776D01*
X159505710Y-99930458D01*
X159505000Y-99916000D01*
X159505000Y-99621000D01*
X159505710Y-99606542D01*
X159507834Y-99592224D01*
X159511351Y-99578183D01*
X159516228Y-99564554D01*
X159522417Y-99551469D01*
X159529858Y-99539053D01*
X159538481Y-99527427D01*
X159548202Y-99516702D01*
X159558927Y-99506981D01*
X159570553Y-99498358D01*
X159582969Y-99490917D01*
X159596054Y-99484728D01*
X159609683Y-99479851D01*
X159623724Y-99476334D01*
X159638042Y-99474210D01*
X159652500Y-99473500D01*
X159997500Y-99473500D01*
X160011958Y-99474210D01*
X160011958Y-99474210D01*
G37*
D20*
X159825000Y-99768500D03*
D25*
X154841520Y-102229550D03*
X154841520Y-99270450D03*
X154808500Y-94113050D03*
X154808500Y-91153950D03*
D10*
G36*
X156277691Y-97101053D02*
X156298926Y-97104203D01*
X156319750Y-97109419D01*
X156339962Y-97116651D01*
X156359368Y-97125830D01*
X156377781Y-97136866D01*
X156395024Y-97149654D01*
X156410930Y-97164070D01*
X156425346Y-97179976D01*
X156438134Y-97197219D01*
X156449170Y-97215632D01*
X156458349Y-97235038D01*
X156465581Y-97255250D01*
X156470797Y-97276074D01*
X156473947Y-97297309D01*
X156475000Y-97318750D01*
X156475000Y-97756250D01*
X156473947Y-97777691D01*
X156470797Y-97798926D01*
X156465581Y-97819750D01*
X156458349Y-97839962D01*
X156449170Y-97859368D01*
X156438134Y-97877781D01*
X156425346Y-97895024D01*
X156410930Y-97910930D01*
X156395024Y-97925346D01*
X156377781Y-97938134D01*
X156359368Y-97949170D01*
X156339962Y-97958349D01*
X156319750Y-97965581D01*
X156298926Y-97970797D01*
X156277691Y-97973947D01*
X156256250Y-97975000D01*
X155743750Y-97975000D01*
X155722309Y-97973947D01*
X155701074Y-97970797D01*
X155680250Y-97965581D01*
X155660038Y-97958349D01*
X155640632Y-97949170D01*
X155622219Y-97938134D01*
X155604976Y-97925346D01*
X155589070Y-97910930D01*
X155574654Y-97895024D01*
X155561866Y-97877781D01*
X155550830Y-97859368D01*
X155541651Y-97839962D01*
X155534419Y-97819750D01*
X155529203Y-97798926D01*
X155526053Y-97777691D01*
X155525000Y-97756250D01*
X155525000Y-97318750D01*
X155526053Y-97297309D01*
X155529203Y-97276074D01*
X155534419Y-97255250D01*
X155541651Y-97235038D01*
X155550830Y-97215632D01*
X155561866Y-97197219D01*
X155574654Y-97179976D01*
X155589070Y-97164070D01*
X155604976Y-97149654D01*
X155622219Y-97136866D01*
X155640632Y-97125830D01*
X155660038Y-97116651D01*
X155680250Y-97109419D01*
X155701074Y-97104203D01*
X155722309Y-97101053D01*
X155743750Y-97100000D01*
X156256250Y-97100000D01*
X156277691Y-97101053D01*
X156277691Y-97101053D01*
G37*
D19*
X156000000Y-97537500D03*
D10*
G36*
X156277691Y-95526053D02*
X156298926Y-95529203D01*
X156319750Y-95534419D01*
X156339962Y-95541651D01*
X156359368Y-95550830D01*
X156377781Y-95561866D01*
X156395024Y-95574654D01*
X156410930Y-95589070D01*
X156425346Y-95604976D01*
X156438134Y-95622219D01*
X156449170Y-95640632D01*
X156458349Y-95660038D01*
X156465581Y-95680250D01*
X156470797Y-95701074D01*
X156473947Y-95722309D01*
X156475000Y-95743750D01*
X156475000Y-96181250D01*
X156473947Y-96202691D01*
X156470797Y-96223926D01*
X156465581Y-96244750D01*
X156458349Y-96264962D01*
X156449170Y-96284368D01*
X156438134Y-96302781D01*
X156425346Y-96320024D01*
X156410930Y-96335930D01*
X156395024Y-96350346D01*
X156377781Y-96363134D01*
X156359368Y-96374170D01*
X156339962Y-96383349D01*
X156319750Y-96390581D01*
X156298926Y-96395797D01*
X156277691Y-96398947D01*
X156256250Y-96400000D01*
X155743750Y-96400000D01*
X155722309Y-96398947D01*
X155701074Y-96395797D01*
X155680250Y-96390581D01*
X155660038Y-96383349D01*
X155640632Y-96374170D01*
X155622219Y-96363134D01*
X155604976Y-96350346D01*
X155589070Y-96335930D01*
X155574654Y-96320024D01*
X155561866Y-96302781D01*
X155550830Y-96284368D01*
X155541651Y-96264962D01*
X155534419Y-96244750D01*
X155529203Y-96223926D01*
X155526053Y-96202691D01*
X155525000Y-96181250D01*
X155525000Y-95743750D01*
X155526053Y-95722309D01*
X155529203Y-95701074D01*
X155534419Y-95680250D01*
X155541651Y-95660038D01*
X155550830Y-95640632D01*
X155561866Y-95622219D01*
X155574654Y-95604976D01*
X155589070Y-95589070D01*
X155604976Y-95574654D01*
X155622219Y-95561866D01*
X155640632Y-95550830D01*
X155660038Y-95541651D01*
X155680250Y-95534419D01*
X155701074Y-95529203D01*
X155722309Y-95526053D01*
X155743750Y-95525000D01*
X156256250Y-95525000D01*
X156277691Y-95526053D01*
X156277691Y-95526053D01*
G37*
D19*
X156000000Y-95962500D03*
D10*
G36*
X158233958Y-100236210D02*
X158248276Y-100238334D01*
X158262317Y-100241851D01*
X158275946Y-100246728D01*
X158289031Y-100252917D01*
X158301447Y-100260358D01*
X158313073Y-100268981D01*
X158323798Y-100278702D01*
X158333519Y-100289427D01*
X158342142Y-100301053D01*
X158349583Y-100313469D01*
X158355772Y-100326554D01*
X158360649Y-100340183D01*
X158364166Y-100354224D01*
X158366290Y-100368542D01*
X158367000Y-100383000D01*
X158367000Y-100678000D01*
X158366290Y-100692458D01*
X158364166Y-100706776D01*
X158360649Y-100720817D01*
X158355772Y-100734446D01*
X158349583Y-100747531D01*
X158342142Y-100759947D01*
X158333519Y-100771573D01*
X158323798Y-100782298D01*
X158313073Y-100792019D01*
X158301447Y-100800642D01*
X158289031Y-100808083D01*
X158275946Y-100814272D01*
X158262317Y-100819149D01*
X158248276Y-100822666D01*
X158233958Y-100824790D01*
X158219500Y-100825500D01*
X157874500Y-100825500D01*
X157860042Y-100824790D01*
X157845724Y-100822666D01*
X157831683Y-100819149D01*
X157818054Y-100814272D01*
X157804969Y-100808083D01*
X157792553Y-100800642D01*
X157780927Y-100792019D01*
X157770202Y-100782298D01*
X157760481Y-100771573D01*
X157751858Y-100759947D01*
X157744417Y-100747531D01*
X157738228Y-100734446D01*
X157733351Y-100720817D01*
X157729834Y-100706776D01*
X157727710Y-100692458D01*
X157727000Y-100678000D01*
X157727000Y-100383000D01*
X157727710Y-100368542D01*
X157729834Y-100354224D01*
X157733351Y-100340183D01*
X157738228Y-100326554D01*
X157744417Y-100313469D01*
X157751858Y-100301053D01*
X157760481Y-100289427D01*
X157770202Y-100278702D01*
X157780927Y-100268981D01*
X157792553Y-100260358D01*
X157804969Y-100252917D01*
X157818054Y-100246728D01*
X157831683Y-100241851D01*
X157845724Y-100238334D01*
X157860042Y-100236210D01*
X157874500Y-100235500D01*
X158219500Y-100235500D01*
X158233958Y-100236210D01*
X158233958Y-100236210D01*
G37*
D20*
X158047000Y-100530500D03*
D10*
G36*
X158233958Y-101206210D02*
X158248276Y-101208334D01*
X158262317Y-101211851D01*
X158275946Y-101216728D01*
X158289031Y-101222917D01*
X158301447Y-101230358D01*
X158313073Y-101238981D01*
X158323798Y-101248702D01*
X158333519Y-101259427D01*
X158342142Y-101271053D01*
X158349583Y-101283469D01*
X158355772Y-101296554D01*
X158360649Y-101310183D01*
X158364166Y-101324224D01*
X158366290Y-101338542D01*
X158367000Y-101353000D01*
X158367000Y-101648000D01*
X158366290Y-101662458D01*
X158364166Y-101676776D01*
X158360649Y-101690817D01*
X158355772Y-101704446D01*
X158349583Y-101717531D01*
X158342142Y-101729947D01*
X158333519Y-101741573D01*
X158323798Y-101752298D01*
X158313073Y-101762019D01*
X158301447Y-101770642D01*
X158289031Y-101778083D01*
X158275946Y-101784272D01*
X158262317Y-101789149D01*
X158248276Y-101792666D01*
X158233958Y-101794790D01*
X158219500Y-101795500D01*
X157874500Y-101795500D01*
X157860042Y-101794790D01*
X157845724Y-101792666D01*
X157831683Y-101789149D01*
X157818054Y-101784272D01*
X157804969Y-101778083D01*
X157792553Y-101770642D01*
X157780927Y-101762019D01*
X157770202Y-101752298D01*
X157760481Y-101741573D01*
X157751858Y-101729947D01*
X157744417Y-101717531D01*
X157738228Y-101704446D01*
X157733351Y-101690817D01*
X157729834Y-101676776D01*
X157727710Y-101662458D01*
X157727000Y-101648000D01*
X157727000Y-101353000D01*
X157727710Y-101338542D01*
X157729834Y-101324224D01*
X157733351Y-101310183D01*
X157738228Y-101296554D01*
X157744417Y-101283469D01*
X157751858Y-101271053D01*
X157760481Y-101259427D01*
X157770202Y-101248702D01*
X157780927Y-101238981D01*
X157792553Y-101230358D01*
X157804969Y-101222917D01*
X157818054Y-101216728D01*
X157831683Y-101211851D01*
X157845724Y-101208334D01*
X157860042Y-101206210D01*
X157874500Y-101205500D01*
X158219500Y-101205500D01*
X158233958Y-101206210D01*
X158233958Y-101206210D01*
G37*
D20*
X158047000Y-101500500D03*
D10*
G36*
X161599458Y-92044710D02*
X161613776Y-92046834D01*
X161627817Y-92050351D01*
X161641446Y-92055228D01*
X161654531Y-92061417D01*
X161666947Y-92068858D01*
X161678573Y-92077481D01*
X161689298Y-92087202D01*
X161699019Y-92097927D01*
X161707642Y-92109553D01*
X161715083Y-92121969D01*
X161721272Y-92135054D01*
X161726149Y-92148683D01*
X161729666Y-92162724D01*
X161731790Y-92177042D01*
X161732500Y-92191500D01*
X161732500Y-92486500D01*
X161731790Y-92500958D01*
X161729666Y-92515276D01*
X161726149Y-92529317D01*
X161721272Y-92542946D01*
X161715083Y-92556031D01*
X161707642Y-92568447D01*
X161699019Y-92580073D01*
X161689298Y-92590798D01*
X161678573Y-92600519D01*
X161666947Y-92609142D01*
X161654531Y-92616583D01*
X161641446Y-92622772D01*
X161627817Y-92627649D01*
X161613776Y-92631166D01*
X161599458Y-92633290D01*
X161585000Y-92634000D01*
X161240000Y-92634000D01*
X161225542Y-92633290D01*
X161211224Y-92631166D01*
X161197183Y-92627649D01*
X161183554Y-92622772D01*
X161170469Y-92616583D01*
X161158053Y-92609142D01*
X161146427Y-92600519D01*
X161135702Y-92590798D01*
X161125981Y-92580073D01*
X161117358Y-92568447D01*
X161109917Y-92556031D01*
X161103728Y-92542946D01*
X161098851Y-92529317D01*
X161095334Y-92515276D01*
X161093210Y-92500958D01*
X161092500Y-92486500D01*
X161092500Y-92191500D01*
X161093210Y-92177042D01*
X161095334Y-92162724D01*
X161098851Y-92148683D01*
X161103728Y-92135054D01*
X161109917Y-92121969D01*
X161117358Y-92109553D01*
X161125981Y-92097927D01*
X161135702Y-92087202D01*
X161146427Y-92077481D01*
X161158053Y-92068858D01*
X161170469Y-92061417D01*
X161183554Y-92055228D01*
X161197183Y-92050351D01*
X161211224Y-92046834D01*
X161225542Y-92044710D01*
X161240000Y-92044000D01*
X161585000Y-92044000D01*
X161599458Y-92044710D01*
X161599458Y-92044710D01*
G37*
D20*
X161412500Y-92339000D03*
D10*
G36*
X161599458Y-93014710D02*
X161613776Y-93016834D01*
X161627817Y-93020351D01*
X161641446Y-93025228D01*
X161654531Y-93031417D01*
X161666947Y-93038858D01*
X161678573Y-93047481D01*
X161689298Y-93057202D01*
X161699019Y-93067927D01*
X161707642Y-93079553D01*
X161715083Y-93091969D01*
X161721272Y-93105054D01*
X161726149Y-93118683D01*
X161729666Y-93132724D01*
X161731790Y-93147042D01*
X161732500Y-93161500D01*
X161732500Y-93456500D01*
X161731790Y-93470958D01*
X161729666Y-93485276D01*
X161726149Y-93499317D01*
X161721272Y-93512946D01*
X161715083Y-93526031D01*
X161707642Y-93538447D01*
X161699019Y-93550073D01*
X161689298Y-93560798D01*
X161678573Y-93570519D01*
X161666947Y-93579142D01*
X161654531Y-93586583D01*
X161641446Y-93592772D01*
X161627817Y-93597649D01*
X161613776Y-93601166D01*
X161599458Y-93603290D01*
X161585000Y-93604000D01*
X161240000Y-93604000D01*
X161225542Y-93603290D01*
X161211224Y-93601166D01*
X161197183Y-93597649D01*
X161183554Y-93592772D01*
X161170469Y-93586583D01*
X161158053Y-93579142D01*
X161146427Y-93570519D01*
X161135702Y-93560798D01*
X161125981Y-93550073D01*
X161117358Y-93538447D01*
X161109917Y-93526031D01*
X161103728Y-93512946D01*
X161098851Y-93499317D01*
X161095334Y-93485276D01*
X161093210Y-93470958D01*
X161092500Y-93456500D01*
X161092500Y-93161500D01*
X161093210Y-93147042D01*
X161095334Y-93132724D01*
X161098851Y-93118683D01*
X161103728Y-93105054D01*
X161109917Y-93091969D01*
X161117358Y-93079553D01*
X161125981Y-93067927D01*
X161135702Y-93057202D01*
X161146427Y-93047481D01*
X161158053Y-93038858D01*
X161170469Y-93031417D01*
X161183554Y-93025228D01*
X161197183Y-93020351D01*
X161211224Y-93016834D01*
X161225542Y-93014710D01*
X161240000Y-93014000D01*
X161585000Y-93014000D01*
X161599458Y-93014710D01*
X161599458Y-93014710D01*
G37*
D20*
X161412500Y-93309000D03*
D10*
G36*
X151936958Y-89690710D02*
X151951276Y-89692834D01*
X151965317Y-89696351D01*
X151978946Y-89701228D01*
X151992031Y-89707417D01*
X152004447Y-89714858D01*
X152016073Y-89723481D01*
X152026798Y-89733202D01*
X152036519Y-89743927D01*
X152045142Y-89755553D01*
X152052583Y-89767969D01*
X152058772Y-89781054D01*
X152063649Y-89794683D01*
X152067166Y-89808724D01*
X152069290Y-89823042D01*
X152070000Y-89837500D01*
X152070000Y-90132500D01*
X152069290Y-90146958D01*
X152067166Y-90161276D01*
X152063649Y-90175317D01*
X152058772Y-90188946D01*
X152052583Y-90202031D01*
X152045142Y-90214447D01*
X152036519Y-90226073D01*
X152026798Y-90236798D01*
X152016073Y-90246519D01*
X152004447Y-90255142D01*
X151992031Y-90262583D01*
X151978946Y-90268772D01*
X151965317Y-90273649D01*
X151951276Y-90277166D01*
X151936958Y-90279290D01*
X151922500Y-90280000D01*
X151577500Y-90280000D01*
X151563042Y-90279290D01*
X151548724Y-90277166D01*
X151534683Y-90273649D01*
X151521054Y-90268772D01*
X151507969Y-90262583D01*
X151495553Y-90255142D01*
X151483927Y-90246519D01*
X151473202Y-90236798D01*
X151463481Y-90226073D01*
X151454858Y-90214447D01*
X151447417Y-90202031D01*
X151441228Y-90188946D01*
X151436351Y-90175317D01*
X151432834Y-90161276D01*
X151430710Y-90146958D01*
X151430000Y-90132500D01*
X151430000Y-89837500D01*
X151430710Y-89823042D01*
X151432834Y-89808724D01*
X151436351Y-89794683D01*
X151441228Y-89781054D01*
X151447417Y-89767969D01*
X151454858Y-89755553D01*
X151463481Y-89743927D01*
X151473202Y-89733202D01*
X151483927Y-89723481D01*
X151495553Y-89714858D01*
X151507969Y-89707417D01*
X151521054Y-89701228D01*
X151534683Y-89696351D01*
X151548724Y-89692834D01*
X151563042Y-89690710D01*
X151577500Y-89690000D01*
X151922500Y-89690000D01*
X151936958Y-89690710D01*
X151936958Y-89690710D01*
G37*
D20*
X151750000Y-89985000D03*
D10*
G36*
X151936958Y-88720710D02*
X151951276Y-88722834D01*
X151965317Y-88726351D01*
X151978946Y-88731228D01*
X151992031Y-88737417D01*
X152004447Y-88744858D01*
X152016073Y-88753481D01*
X152026798Y-88763202D01*
X152036519Y-88773927D01*
X152045142Y-88785553D01*
X152052583Y-88797969D01*
X152058772Y-88811054D01*
X152063649Y-88824683D01*
X152067166Y-88838724D01*
X152069290Y-88853042D01*
X152070000Y-88867500D01*
X152070000Y-89162500D01*
X152069290Y-89176958D01*
X152067166Y-89191276D01*
X152063649Y-89205317D01*
X152058772Y-89218946D01*
X152052583Y-89232031D01*
X152045142Y-89244447D01*
X152036519Y-89256073D01*
X152026798Y-89266798D01*
X152016073Y-89276519D01*
X152004447Y-89285142D01*
X151992031Y-89292583D01*
X151978946Y-89298772D01*
X151965317Y-89303649D01*
X151951276Y-89307166D01*
X151936958Y-89309290D01*
X151922500Y-89310000D01*
X151577500Y-89310000D01*
X151563042Y-89309290D01*
X151548724Y-89307166D01*
X151534683Y-89303649D01*
X151521054Y-89298772D01*
X151507969Y-89292583D01*
X151495553Y-89285142D01*
X151483927Y-89276519D01*
X151473202Y-89266798D01*
X151463481Y-89256073D01*
X151454858Y-89244447D01*
X151447417Y-89232031D01*
X151441228Y-89218946D01*
X151436351Y-89205317D01*
X151432834Y-89191276D01*
X151430710Y-89176958D01*
X151430000Y-89162500D01*
X151430000Y-88867500D01*
X151430710Y-88853042D01*
X151432834Y-88838724D01*
X151436351Y-88824683D01*
X151441228Y-88811054D01*
X151447417Y-88797969D01*
X151454858Y-88785553D01*
X151463481Y-88773927D01*
X151473202Y-88763202D01*
X151483927Y-88753481D01*
X151495553Y-88744858D01*
X151507969Y-88737417D01*
X151521054Y-88731228D01*
X151534683Y-88726351D01*
X151548724Y-88722834D01*
X151563042Y-88720710D01*
X151577500Y-88720000D01*
X151922500Y-88720000D01*
X151936958Y-88720710D01*
X151936958Y-88720710D01*
G37*
D20*
X151750000Y-89015000D03*
D10*
G36*
X159059458Y-92044710D02*
X159073776Y-92046834D01*
X159087817Y-92050351D01*
X159101446Y-92055228D01*
X159114531Y-92061417D01*
X159126947Y-92068858D01*
X159138573Y-92077481D01*
X159149298Y-92087202D01*
X159159019Y-92097927D01*
X159167642Y-92109553D01*
X159175083Y-92121969D01*
X159181272Y-92135054D01*
X159186149Y-92148683D01*
X159189666Y-92162724D01*
X159191790Y-92177042D01*
X159192500Y-92191500D01*
X159192500Y-92486500D01*
X159191790Y-92500958D01*
X159189666Y-92515276D01*
X159186149Y-92529317D01*
X159181272Y-92542946D01*
X159175083Y-92556031D01*
X159167642Y-92568447D01*
X159159019Y-92580073D01*
X159149298Y-92590798D01*
X159138573Y-92600519D01*
X159126947Y-92609142D01*
X159114531Y-92616583D01*
X159101446Y-92622772D01*
X159087817Y-92627649D01*
X159073776Y-92631166D01*
X159059458Y-92633290D01*
X159045000Y-92634000D01*
X158700000Y-92634000D01*
X158685542Y-92633290D01*
X158671224Y-92631166D01*
X158657183Y-92627649D01*
X158643554Y-92622772D01*
X158630469Y-92616583D01*
X158618053Y-92609142D01*
X158606427Y-92600519D01*
X158595702Y-92590798D01*
X158585981Y-92580073D01*
X158577358Y-92568447D01*
X158569917Y-92556031D01*
X158563728Y-92542946D01*
X158558851Y-92529317D01*
X158555334Y-92515276D01*
X158553210Y-92500958D01*
X158552500Y-92486500D01*
X158552500Y-92191500D01*
X158553210Y-92177042D01*
X158555334Y-92162724D01*
X158558851Y-92148683D01*
X158563728Y-92135054D01*
X158569917Y-92121969D01*
X158577358Y-92109553D01*
X158585981Y-92097927D01*
X158595702Y-92087202D01*
X158606427Y-92077481D01*
X158618053Y-92068858D01*
X158630469Y-92061417D01*
X158643554Y-92055228D01*
X158657183Y-92050351D01*
X158671224Y-92046834D01*
X158685542Y-92044710D01*
X158700000Y-92044000D01*
X159045000Y-92044000D01*
X159059458Y-92044710D01*
X159059458Y-92044710D01*
G37*
D20*
X158872500Y-92339000D03*
D10*
G36*
X159059458Y-93014710D02*
X159073776Y-93016834D01*
X159087817Y-93020351D01*
X159101446Y-93025228D01*
X159114531Y-93031417D01*
X159126947Y-93038858D01*
X159138573Y-93047481D01*
X159149298Y-93057202D01*
X159159019Y-93067927D01*
X159167642Y-93079553D01*
X159175083Y-93091969D01*
X159181272Y-93105054D01*
X159186149Y-93118683D01*
X159189666Y-93132724D01*
X159191790Y-93147042D01*
X159192500Y-93161500D01*
X159192500Y-93456500D01*
X159191790Y-93470958D01*
X159189666Y-93485276D01*
X159186149Y-93499317D01*
X159181272Y-93512946D01*
X159175083Y-93526031D01*
X159167642Y-93538447D01*
X159159019Y-93550073D01*
X159149298Y-93560798D01*
X159138573Y-93570519D01*
X159126947Y-93579142D01*
X159114531Y-93586583D01*
X159101446Y-93592772D01*
X159087817Y-93597649D01*
X159073776Y-93601166D01*
X159059458Y-93603290D01*
X159045000Y-93604000D01*
X158700000Y-93604000D01*
X158685542Y-93603290D01*
X158671224Y-93601166D01*
X158657183Y-93597649D01*
X158643554Y-93592772D01*
X158630469Y-93586583D01*
X158618053Y-93579142D01*
X158606427Y-93570519D01*
X158595702Y-93560798D01*
X158585981Y-93550073D01*
X158577358Y-93538447D01*
X158569917Y-93526031D01*
X158563728Y-93512946D01*
X158558851Y-93499317D01*
X158555334Y-93485276D01*
X158553210Y-93470958D01*
X158552500Y-93456500D01*
X158552500Y-93161500D01*
X158553210Y-93147042D01*
X158555334Y-93132724D01*
X158558851Y-93118683D01*
X158563728Y-93105054D01*
X158569917Y-93091969D01*
X158577358Y-93079553D01*
X158585981Y-93067927D01*
X158595702Y-93057202D01*
X158606427Y-93047481D01*
X158618053Y-93038858D01*
X158630469Y-93031417D01*
X158643554Y-93025228D01*
X158657183Y-93020351D01*
X158671224Y-93016834D01*
X158685542Y-93014710D01*
X158700000Y-93014000D01*
X159045000Y-93014000D01*
X159059458Y-93014710D01*
X159059458Y-93014710D01*
G37*
D20*
X158872500Y-93309000D03*
D10*
G36*
X161027958Y-102412710D02*
X161042276Y-102414834D01*
X161056317Y-102418351D01*
X161069946Y-102423228D01*
X161083031Y-102429417D01*
X161095447Y-102436858D01*
X161107073Y-102445481D01*
X161117798Y-102455202D01*
X161127519Y-102465927D01*
X161136142Y-102477553D01*
X161143583Y-102489969D01*
X161149772Y-102503054D01*
X161154649Y-102516683D01*
X161158166Y-102530724D01*
X161160290Y-102545042D01*
X161161000Y-102559500D01*
X161161000Y-102854500D01*
X161160290Y-102868958D01*
X161158166Y-102883276D01*
X161154649Y-102897317D01*
X161149772Y-102910946D01*
X161143583Y-102924031D01*
X161136142Y-102936447D01*
X161127519Y-102948073D01*
X161117798Y-102958798D01*
X161107073Y-102968519D01*
X161095447Y-102977142D01*
X161083031Y-102984583D01*
X161069946Y-102990772D01*
X161056317Y-102995649D01*
X161042276Y-102999166D01*
X161027958Y-103001290D01*
X161013500Y-103002000D01*
X160668500Y-103002000D01*
X160654042Y-103001290D01*
X160639724Y-102999166D01*
X160625683Y-102995649D01*
X160612054Y-102990772D01*
X160598969Y-102984583D01*
X160586553Y-102977142D01*
X160574927Y-102968519D01*
X160564202Y-102958798D01*
X160554481Y-102948073D01*
X160545858Y-102936447D01*
X160538417Y-102924031D01*
X160532228Y-102910946D01*
X160527351Y-102897317D01*
X160523834Y-102883276D01*
X160521710Y-102868958D01*
X160521000Y-102854500D01*
X160521000Y-102559500D01*
X160521710Y-102545042D01*
X160523834Y-102530724D01*
X160527351Y-102516683D01*
X160532228Y-102503054D01*
X160538417Y-102489969D01*
X160545858Y-102477553D01*
X160554481Y-102465927D01*
X160564202Y-102455202D01*
X160574927Y-102445481D01*
X160586553Y-102436858D01*
X160598969Y-102429417D01*
X160612054Y-102423228D01*
X160625683Y-102418351D01*
X160639724Y-102414834D01*
X160654042Y-102412710D01*
X160668500Y-102412000D01*
X161013500Y-102412000D01*
X161027958Y-102412710D01*
X161027958Y-102412710D01*
G37*
D20*
X160841000Y-102707000D03*
D10*
G36*
X161027958Y-101442710D02*
X161042276Y-101444834D01*
X161056317Y-101448351D01*
X161069946Y-101453228D01*
X161083031Y-101459417D01*
X161095447Y-101466858D01*
X161107073Y-101475481D01*
X161117798Y-101485202D01*
X161127519Y-101495927D01*
X161136142Y-101507553D01*
X161143583Y-101519969D01*
X161149772Y-101533054D01*
X161154649Y-101546683D01*
X161158166Y-101560724D01*
X161160290Y-101575042D01*
X161161000Y-101589500D01*
X161161000Y-101884500D01*
X161160290Y-101898958D01*
X161158166Y-101913276D01*
X161154649Y-101927317D01*
X161149772Y-101940946D01*
X161143583Y-101954031D01*
X161136142Y-101966447D01*
X161127519Y-101978073D01*
X161117798Y-101988798D01*
X161107073Y-101998519D01*
X161095447Y-102007142D01*
X161083031Y-102014583D01*
X161069946Y-102020772D01*
X161056317Y-102025649D01*
X161042276Y-102029166D01*
X161027958Y-102031290D01*
X161013500Y-102032000D01*
X160668500Y-102032000D01*
X160654042Y-102031290D01*
X160639724Y-102029166D01*
X160625683Y-102025649D01*
X160612054Y-102020772D01*
X160598969Y-102014583D01*
X160586553Y-102007142D01*
X160574927Y-101998519D01*
X160564202Y-101988798D01*
X160554481Y-101978073D01*
X160545858Y-101966447D01*
X160538417Y-101954031D01*
X160532228Y-101940946D01*
X160527351Y-101927317D01*
X160523834Y-101913276D01*
X160521710Y-101898958D01*
X160521000Y-101884500D01*
X160521000Y-101589500D01*
X160521710Y-101575042D01*
X160523834Y-101560724D01*
X160527351Y-101546683D01*
X160532228Y-101533054D01*
X160538417Y-101519969D01*
X160545858Y-101507553D01*
X160554481Y-101495927D01*
X160564202Y-101485202D01*
X160574927Y-101475481D01*
X160586553Y-101466858D01*
X160598969Y-101459417D01*
X160612054Y-101453228D01*
X160625683Y-101448351D01*
X160639724Y-101444834D01*
X160654042Y-101442710D01*
X160668500Y-101442000D01*
X161013500Y-101442000D01*
X161027958Y-101442710D01*
X161027958Y-101442710D01*
G37*
D20*
X160841000Y-101737000D03*
D26*
X148945226Y-109475000D03*
D10*
G36*
X149949889Y-110165128D02*
X149040563Y-110690128D01*
X147940563Y-108784872D01*
X148849889Y-108259872D01*
X149949889Y-110165128D01*
X149949889Y-110165128D01*
G37*
D16*
X150985113Y-110058189D03*
D10*
G36*
X151680626Y-110262852D02*
X150814600Y-110762852D01*
X150289600Y-109853526D01*
X151155626Y-109353526D01*
X151680626Y-110262852D01*
X151680626Y-110262852D01*
G37*
D26*
X151500000Y-108000000D03*
D10*
G36*
X152504663Y-108690128D02*
X151595337Y-109215128D01*
X150495337Y-107309872D01*
X151404663Y-106784872D01*
X152504663Y-108690128D01*
X152504663Y-108690128D01*
G37*
M02*
