%TF.GenerationSoftware,KiCad,Pcbnew,5.0.2-bee76a0~70~ubuntu18.04.1*%
%TF.CreationDate,2020-02-29T13:06:47-08:00*%
%TF.ProjectId,ypanel,7970616e-656c-42e6-9b69-6361645f7063,rev?*%
%TF.SameCoordinates,Original*%
%TF.FileFunction,Legend,Bot*%
%TF.FilePolarity,Positive*%
%FSLAX46Y46*%
G04 Gerber Fmt 4.6, Leading zero omitted, Abs format (unit mm)*
G04 Created by KiCad (PCBNEW 5.0.2-bee76a0~70~ubuntu18.04.1) date Sat 29 Feb 2020 01:06:47 PM PST*
%MOMM*%
%LPD*%
G01*
G04 APERTURE LIST*
%ADD10C,0.100000*%
%ADD11C,0.177800*%
%ADD12C,0.150000*%
%ADD13C,0.101600*%
%ADD14C,0.120000*%
%ADD15C,0.254000*%
%ADD16C,0.050000*%
%ADD17C,0.300000*%
%ADD18C,0.200000*%
%ADD19C,0.250000*%
%ADD20C,0.127000*%
G04 APERTURE END LIST*
D10*
X151587000Y-99000001D02*
G75*
G03X151587000Y-99000001I-8000000J0D01*
G01*
X134779564Y-114100000D02*
G75*
G03X134779564Y-114100000I-1029564J0D01*
G01*
X141279564Y-114100000D02*
G75*
G03X141279564Y-114100000I-1029564J0D01*
G01*
X126375000Y-118900000D02*
G75*
G03X126375000Y-118900000I-1300000J0D01*
G01*
X140979564Y-83920436D02*
G75*
G03X140979564Y-83920436I-1029564J0D01*
G01*
X147479564Y-83920436D02*
G75*
G03X147479564Y-83920436I-1029564J0D01*
G01*
X176975000Y-70000000D02*
X176975000Y-128000000D01*
D11*
X165214285Y-107952380D02*
X165785714Y-107952380D01*
X165500000Y-107952380D02*
X165500000Y-106952380D01*
X165595238Y-107095238D01*
X165690476Y-107190476D01*
X165785714Y-107238095D01*
X158638523Y-113136419D02*
X158590904Y-113088800D01*
X158495666Y-113041180D01*
X158257571Y-113041180D01*
X158162333Y-113088800D01*
X158114714Y-113136419D01*
X158067095Y-113231657D01*
X158067095Y-113326895D01*
X158114714Y-113469752D01*
X158686142Y-114041180D01*
X158067095Y-114041180D01*
X157638523Y-113945942D02*
X157590904Y-113993561D01*
X157638523Y-114041180D01*
X157686142Y-113993561D01*
X157638523Y-113945942D01*
X157638523Y-114041180D01*
X156733761Y-113374514D02*
X156733761Y-114041180D01*
X156971857Y-112993561D02*
X157209952Y-113707847D01*
X156590904Y-113707847D01*
X154924238Y-113088800D02*
X155019476Y-113041180D01*
X155162333Y-113041180D01*
X155305190Y-113088800D01*
X155400428Y-113184038D01*
X155448047Y-113279276D01*
X155495666Y-113469752D01*
X155495666Y-113612609D01*
X155448047Y-113803085D01*
X155400428Y-113898323D01*
X155305190Y-113993561D01*
X155162333Y-114041180D01*
X155067095Y-114041180D01*
X154924238Y-113993561D01*
X154876619Y-113945942D01*
X154876619Y-113612609D01*
X155067095Y-113612609D01*
X154448047Y-114041180D02*
X154448047Y-113041180D01*
X154448047Y-113517371D02*
X153876619Y-113517371D01*
X153876619Y-114041180D02*
X153876619Y-113041180D01*
X153495666Y-113374514D02*
X152971857Y-113374514D01*
X153495666Y-114041180D01*
X152971857Y-114041180D01*
D12*
X122232176Y-94164342D02*
X122279795Y-94211961D01*
X122422652Y-94259580D01*
X122517890Y-94259580D01*
X122660747Y-94211961D01*
X122755985Y-94116723D01*
X122803604Y-94021485D01*
X122851223Y-93831009D01*
X122851223Y-93688152D01*
X122803604Y-93497676D01*
X122755985Y-93402438D01*
X122660747Y-93307200D01*
X122517890Y-93259580D01*
X122422652Y-93259580D01*
X122279795Y-93307200D01*
X122232176Y-93354819D01*
X121375033Y-94259580D02*
X121375033Y-93735771D01*
X121422652Y-93640533D01*
X121517890Y-93592914D01*
X121708366Y-93592914D01*
X121803604Y-93640533D01*
X121375033Y-94211961D02*
X121470271Y-94259580D01*
X121708366Y-94259580D01*
X121803604Y-94211961D01*
X121851223Y-94116723D01*
X121851223Y-94021485D01*
X121803604Y-93926247D01*
X121708366Y-93878628D01*
X121470271Y-93878628D01*
X121375033Y-93831009D01*
X120898842Y-94259580D02*
X120898842Y-93259580D01*
X120898842Y-93640533D02*
X120803604Y-93592914D01*
X120613128Y-93592914D01*
X120517890Y-93640533D01*
X120470271Y-93688152D01*
X120422652Y-93783390D01*
X120422652Y-94069104D01*
X120470271Y-94164342D01*
X120517890Y-94211961D01*
X120613128Y-94259580D01*
X120803604Y-94259580D01*
X120898842Y-94211961D01*
X119851223Y-94259580D02*
X119946461Y-94211961D01*
X119994080Y-94116723D01*
X119994080Y-93259580D01*
X119089319Y-94211961D02*
X119184557Y-94259580D01*
X119375033Y-94259580D01*
X119470271Y-94211961D01*
X119517890Y-94116723D01*
X119517890Y-93735771D01*
X119470271Y-93640533D01*
X119375033Y-93592914D01*
X119184557Y-93592914D01*
X119089319Y-93640533D01*
X119041700Y-93735771D01*
X119041700Y-93831009D01*
X119517890Y-93926247D01*
X117851223Y-94259580D02*
X117851223Y-93259580D01*
X117470271Y-93259580D01*
X117375033Y-93307200D01*
X117327414Y-93354819D01*
X117279795Y-93450057D01*
X117279795Y-93592914D01*
X117327414Y-93688152D01*
X117375033Y-93735771D01*
X117470271Y-93783390D01*
X117851223Y-93783390D01*
X116851223Y-94259580D02*
X116851223Y-93592914D01*
X116851223Y-93259580D02*
X116898842Y-93307200D01*
X116851223Y-93354819D01*
X116803604Y-93307200D01*
X116851223Y-93259580D01*
X116851223Y-93354819D01*
X116375033Y-93592914D02*
X116375033Y-94259580D01*
X116375033Y-93688152D02*
X116327414Y-93640533D01*
X116232176Y-93592914D01*
X116089319Y-93592914D01*
X115994080Y-93640533D01*
X115946461Y-93735771D01*
X115946461Y-94259580D01*
X115327414Y-94259580D02*
X115422652Y-94211961D01*
X115470271Y-94164342D01*
X115517890Y-94069104D01*
X115517890Y-93783390D01*
X115470271Y-93688152D01*
X115422652Y-93640533D01*
X115327414Y-93592914D01*
X115184557Y-93592914D01*
X115089319Y-93640533D01*
X115041700Y-93688152D01*
X114994080Y-93783390D01*
X114994080Y-94069104D01*
X115041700Y-94164342D01*
X115089319Y-94211961D01*
X115184557Y-94259580D01*
X115327414Y-94259580D01*
X114136938Y-93592914D02*
X114136938Y-94259580D01*
X114565509Y-93592914D02*
X114565509Y-94116723D01*
X114517890Y-94211961D01*
X114422652Y-94259580D01*
X114279795Y-94259580D01*
X114184557Y-94211961D01*
X114136938Y-94164342D01*
X113803604Y-93592914D02*
X113422652Y-93592914D01*
X113660747Y-93259580D02*
X113660747Y-94116723D01*
X113613128Y-94211961D01*
X113517890Y-94259580D01*
X113422652Y-94259580D01*
X122279795Y-95909580D02*
X122851223Y-95909580D01*
X122565509Y-95909580D02*
X122565509Y-94909580D01*
X122660747Y-95052438D01*
X122755985Y-95147676D01*
X122851223Y-95195295D01*
X121851223Y-95814342D02*
X121803604Y-95861961D01*
X121851223Y-95909580D01*
X121898842Y-95861961D01*
X121851223Y-95814342D01*
X121851223Y-95909580D01*
X121041700Y-95385771D02*
X120898842Y-95433390D01*
X120851223Y-95481009D01*
X120803604Y-95576247D01*
X120803604Y-95719104D01*
X120851223Y-95814342D01*
X120898842Y-95861961D01*
X120994080Y-95909580D01*
X121375033Y-95909580D01*
X121375033Y-94909580D01*
X121041700Y-94909580D01*
X120946461Y-94957200D01*
X120898842Y-95004819D01*
X120851223Y-95100057D01*
X120851223Y-95195295D01*
X120898842Y-95290533D01*
X120946461Y-95338152D01*
X121041700Y-95385771D01*
X121375033Y-95385771D01*
X120422652Y-95623866D02*
X119946461Y-95623866D01*
X120517890Y-95909580D02*
X120184557Y-94909580D01*
X119851223Y-95909580D01*
X119660747Y-94909580D02*
X119089319Y-94909580D01*
X119375033Y-95909580D02*
X119375033Y-94909580D01*
X118898842Y-94909580D02*
X118327414Y-94909580D01*
X118613128Y-95909580D02*
X118613128Y-94909580D01*
X118232176Y-96004819D02*
X117470271Y-96004819D01*
X117232176Y-95909580D02*
X117232176Y-94909580D01*
X116851223Y-94909580D01*
X116755985Y-94957200D01*
X116708366Y-95004819D01*
X116660747Y-95100057D01*
X116660747Y-95242914D01*
X116708366Y-95338152D01*
X116755985Y-95385771D01*
X116851223Y-95433390D01*
X117232176Y-95433390D01*
X122851223Y-96654819D02*
X122803604Y-96607200D01*
X122708366Y-96559580D01*
X122470271Y-96559580D01*
X122375033Y-96607200D01*
X122327414Y-96654819D01*
X122279795Y-96750057D01*
X122279795Y-96845295D01*
X122327414Y-96988152D01*
X122898842Y-97559580D01*
X122279795Y-97559580D01*
X121851223Y-97464342D02*
X121803604Y-97511961D01*
X121851223Y-97559580D01*
X121898842Y-97511961D01*
X121851223Y-97464342D01*
X121851223Y-97559580D01*
X121041700Y-97035771D02*
X120898842Y-97083390D01*
X120851223Y-97131009D01*
X120803604Y-97226247D01*
X120803604Y-97369104D01*
X120851223Y-97464342D01*
X120898842Y-97511961D01*
X120994080Y-97559580D01*
X121375033Y-97559580D01*
X121375033Y-96559580D01*
X121041700Y-96559580D01*
X120946461Y-96607200D01*
X120898842Y-96654819D01*
X120851223Y-96750057D01*
X120851223Y-96845295D01*
X120898842Y-96940533D01*
X120946461Y-96988152D01*
X121041700Y-97035771D01*
X121375033Y-97035771D01*
X120422652Y-97273866D02*
X119946461Y-97273866D01*
X120517890Y-97559580D02*
X120184557Y-96559580D01*
X119851223Y-97559580D01*
X119660747Y-96559580D02*
X119089319Y-96559580D01*
X119375033Y-97559580D02*
X119375033Y-96559580D01*
X118898842Y-96559580D02*
X118327414Y-96559580D01*
X118613128Y-97559580D02*
X118613128Y-96559580D01*
X118232176Y-97654819D02*
X117470271Y-97654819D01*
X117232176Y-97559580D02*
X117232176Y-96559580D01*
X116660747Y-97559580D01*
X116660747Y-96559580D01*
X122898842Y-98209580D02*
X122279795Y-98209580D01*
X122613128Y-98590533D01*
X122470271Y-98590533D01*
X122375033Y-98638152D01*
X122327414Y-98685771D01*
X122279795Y-98781009D01*
X122279795Y-99019104D01*
X122327414Y-99114342D01*
X122375033Y-99161961D01*
X122470271Y-99209580D01*
X122755985Y-99209580D01*
X122851223Y-99161961D01*
X122898842Y-99114342D01*
X121851223Y-99114342D02*
X121803604Y-99161961D01*
X121851223Y-99209580D01*
X121898842Y-99161961D01*
X121851223Y-99114342D01*
X121851223Y-99209580D01*
X121422652Y-99161961D02*
X121279795Y-99209580D01*
X121041700Y-99209580D01*
X120946461Y-99161961D01*
X120898842Y-99114342D01*
X120851223Y-99019104D01*
X120851223Y-98923866D01*
X120898842Y-98828628D01*
X120946461Y-98781009D01*
X121041700Y-98733390D01*
X121232176Y-98685771D01*
X121327414Y-98638152D01*
X121375033Y-98590533D01*
X121422652Y-98495295D01*
X121422652Y-98400057D01*
X121375033Y-98304819D01*
X121327414Y-98257200D01*
X121232176Y-98209580D01*
X120994080Y-98209580D01*
X120851223Y-98257200D01*
X120422652Y-99209580D02*
X120422652Y-98209580D01*
X120184557Y-98209580D01*
X120041700Y-98257200D01*
X119946461Y-98352438D01*
X119898842Y-98447676D01*
X119851223Y-98638152D01*
X119851223Y-98781009D01*
X119898842Y-98971485D01*
X119946461Y-99066723D01*
X120041700Y-99161961D01*
X120184557Y-99209580D01*
X120422652Y-99209580D01*
X119470271Y-98923866D02*
X118994080Y-98923866D01*
X119565509Y-99209580D02*
X119232176Y-98209580D01*
X118898842Y-99209580D01*
X122375033Y-100192914D02*
X122375033Y-100859580D01*
X122613128Y-99811961D02*
X122851223Y-100526247D01*
X122232176Y-100526247D01*
X121851223Y-100764342D02*
X121803604Y-100811961D01*
X121851223Y-100859580D01*
X121898842Y-100811961D01*
X121851223Y-100764342D01*
X121851223Y-100859580D01*
X121422652Y-100811961D02*
X121279795Y-100859580D01*
X121041700Y-100859580D01*
X120946461Y-100811961D01*
X120898842Y-100764342D01*
X120851223Y-100669104D01*
X120851223Y-100573866D01*
X120898842Y-100478628D01*
X120946461Y-100431009D01*
X121041700Y-100383390D01*
X121232176Y-100335771D01*
X121327414Y-100288152D01*
X121375033Y-100240533D01*
X121422652Y-100145295D01*
X121422652Y-100050057D01*
X121375033Y-99954819D01*
X121327414Y-99907200D01*
X121232176Y-99859580D01*
X120994080Y-99859580D01*
X120851223Y-99907200D01*
X119851223Y-100764342D02*
X119898842Y-100811961D01*
X120041700Y-100859580D01*
X120136938Y-100859580D01*
X120279795Y-100811961D01*
X120375033Y-100716723D01*
X120422652Y-100621485D01*
X120470271Y-100431009D01*
X120470271Y-100288152D01*
X120422652Y-100097676D01*
X120375033Y-100002438D01*
X120279795Y-99907200D01*
X120136938Y-99859580D01*
X120041700Y-99859580D01*
X119898842Y-99907200D01*
X119851223Y-99954819D01*
X118946461Y-100859580D02*
X119422652Y-100859580D01*
X119422652Y-99859580D01*
X122327414Y-101509580D02*
X122803604Y-101509580D01*
X122851223Y-101985771D01*
X122803604Y-101938152D01*
X122708366Y-101890533D01*
X122470271Y-101890533D01*
X122375033Y-101938152D01*
X122327414Y-101985771D01*
X122279795Y-102081009D01*
X122279795Y-102319104D01*
X122327414Y-102414342D01*
X122375033Y-102461961D01*
X122470271Y-102509580D01*
X122708366Y-102509580D01*
X122803604Y-102461961D01*
X122851223Y-102414342D01*
X121851223Y-102414342D02*
X121803604Y-102461961D01*
X121851223Y-102509580D01*
X121898842Y-102461961D01*
X121851223Y-102414342D01*
X121851223Y-102509580D01*
X121041700Y-101985771D02*
X120898842Y-102033390D01*
X120851223Y-102081009D01*
X120803604Y-102176247D01*
X120803604Y-102319104D01*
X120851223Y-102414342D01*
X120898842Y-102461961D01*
X120994080Y-102509580D01*
X121375033Y-102509580D01*
X121375033Y-101509580D01*
X121041700Y-101509580D01*
X120946461Y-101557200D01*
X120898842Y-101604819D01*
X120851223Y-101700057D01*
X120851223Y-101795295D01*
X120898842Y-101890533D01*
X120946461Y-101938152D01*
X121041700Y-101985771D01*
X121375033Y-101985771D01*
X120375033Y-101509580D02*
X120375033Y-102319104D01*
X120327414Y-102414342D01*
X120279795Y-102461961D01*
X120184557Y-102509580D01*
X119994080Y-102509580D01*
X119898842Y-102461961D01*
X119851223Y-102414342D01*
X119803604Y-102319104D01*
X119803604Y-101509580D01*
X118755985Y-102509580D02*
X119089319Y-102033390D01*
X119327414Y-102509580D02*
X119327414Y-101509580D01*
X118946461Y-101509580D01*
X118851223Y-101557200D01*
X118803604Y-101604819D01*
X118755985Y-101700057D01*
X118755985Y-101842914D01*
X118803604Y-101938152D01*
X118851223Y-101985771D01*
X118946461Y-102033390D01*
X119327414Y-102033390D01*
X118327414Y-102509580D02*
X118327414Y-101509580D01*
X117755985Y-102509580D01*
X117755985Y-101509580D01*
X122375033Y-103159580D02*
X122565509Y-103159580D01*
X122660747Y-103207200D01*
X122708366Y-103254819D01*
X122803604Y-103397676D01*
X122851223Y-103588152D01*
X122851223Y-103969104D01*
X122803604Y-104064342D01*
X122755985Y-104111961D01*
X122660747Y-104159580D01*
X122470271Y-104159580D01*
X122375033Y-104111961D01*
X122327414Y-104064342D01*
X122279795Y-103969104D01*
X122279795Y-103731009D01*
X122327414Y-103635771D01*
X122375033Y-103588152D01*
X122470271Y-103540533D01*
X122660747Y-103540533D01*
X122755985Y-103588152D01*
X122803604Y-103635771D01*
X122851223Y-103731009D01*
X121851223Y-104064342D02*
X121803604Y-104111961D01*
X121851223Y-104159580D01*
X121898842Y-104111961D01*
X121851223Y-104064342D01*
X121851223Y-104159580D01*
X121470271Y-103159580D02*
X120851223Y-103159580D01*
X121184557Y-103540533D01*
X121041700Y-103540533D01*
X120946461Y-103588152D01*
X120898842Y-103635771D01*
X120851223Y-103731009D01*
X120851223Y-103969104D01*
X120898842Y-104064342D01*
X120946461Y-104111961D01*
X121041700Y-104159580D01*
X121327414Y-104159580D01*
X121422652Y-104111961D01*
X121470271Y-104064342D01*
X120565509Y-103159580D02*
X120232176Y-104159580D01*
X119898842Y-103159580D01*
X119660747Y-103159580D02*
X119041700Y-103159580D01*
X119375033Y-103540533D01*
X119232176Y-103540533D01*
X119136938Y-103588152D01*
X119089319Y-103635771D01*
X119041700Y-103731009D01*
X119041700Y-103969104D01*
X119089319Y-104064342D01*
X119136938Y-104111961D01*
X119232176Y-104159580D01*
X119517890Y-104159580D01*
X119613128Y-104111961D01*
X119660747Y-104064342D01*
X122898842Y-104809580D02*
X122232176Y-104809580D01*
X122660747Y-105809580D01*
X121851223Y-105714342D02*
X121803604Y-105761961D01*
X121851223Y-105809580D01*
X121898842Y-105761961D01*
X121851223Y-105714342D01*
X121851223Y-105809580D01*
X120851223Y-104857200D02*
X120946461Y-104809580D01*
X121089319Y-104809580D01*
X121232176Y-104857200D01*
X121327414Y-104952438D01*
X121375033Y-105047676D01*
X121422652Y-105238152D01*
X121422652Y-105381009D01*
X121375033Y-105571485D01*
X121327414Y-105666723D01*
X121232176Y-105761961D01*
X121089319Y-105809580D01*
X120994080Y-105809580D01*
X120851223Y-105761961D01*
X120803604Y-105714342D01*
X120803604Y-105381009D01*
X120994080Y-105381009D01*
X120375033Y-105809580D02*
X120375033Y-104809580D01*
X119803604Y-105809580D01*
X119803604Y-104809580D01*
X119327414Y-105809580D02*
X119327414Y-104809580D01*
X119089319Y-104809580D01*
X118946461Y-104857200D01*
X118851223Y-104952438D01*
X118803604Y-105047676D01*
X118755985Y-105238152D01*
X118755985Y-105381009D01*
X118803604Y-105571485D01*
X118851223Y-105666723D01*
X118946461Y-105761961D01*
X119089319Y-105809580D01*
X119327414Y-105809580D01*
X122660747Y-106888152D02*
X122755985Y-106840533D01*
X122803604Y-106792914D01*
X122851223Y-106697676D01*
X122851223Y-106650057D01*
X122803604Y-106554819D01*
X122755985Y-106507200D01*
X122660747Y-106459580D01*
X122470271Y-106459580D01*
X122375033Y-106507200D01*
X122327414Y-106554819D01*
X122279795Y-106650057D01*
X122279795Y-106697676D01*
X122327414Y-106792914D01*
X122375033Y-106840533D01*
X122470271Y-106888152D01*
X122660747Y-106888152D01*
X122755985Y-106935771D01*
X122803604Y-106983390D01*
X122851223Y-107078628D01*
X122851223Y-107269104D01*
X122803604Y-107364342D01*
X122755985Y-107411961D01*
X122660747Y-107459580D01*
X122470271Y-107459580D01*
X122375033Y-107411961D01*
X122327414Y-107364342D01*
X122279795Y-107269104D01*
X122279795Y-107078628D01*
X122327414Y-106983390D01*
X122375033Y-106935771D01*
X122470271Y-106888152D01*
X121851223Y-107364342D02*
X121803604Y-107411961D01*
X121851223Y-107459580D01*
X121898842Y-107411961D01*
X121851223Y-107364342D01*
X121851223Y-107459580D01*
X120851223Y-106507200D02*
X120946461Y-106459580D01*
X121089319Y-106459580D01*
X121232176Y-106507200D01*
X121327414Y-106602438D01*
X121375033Y-106697676D01*
X121422652Y-106888152D01*
X121422652Y-107031009D01*
X121375033Y-107221485D01*
X121327414Y-107316723D01*
X121232176Y-107411961D01*
X121089319Y-107459580D01*
X120994080Y-107459580D01*
X120851223Y-107411961D01*
X120803604Y-107364342D01*
X120803604Y-107031009D01*
X120994080Y-107031009D01*
X120375033Y-107459580D02*
X120375033Y-106459580D01*
X119803604Y-107459580D01*
X119803604Y-106459580D01*
X119327414Y-107459580D02*
X119327414Y-106459580D01*
X119089319Y-106459580D01*
X118946461Y-106507200D01*
X118851223Y-106602438D01*
X118803604Y-106697676D01*
X118755985Y-106888152D01*
X118755985Y-107031009D01*
X118803604Y-107221485D01*
X118851223Y-107316723D01*
X118946461Y-107411961D01*
X119089319Y-107459580D01*
X119327414Y-107459580D01*
X122755985Y-109109580D02*
X122565509Y-109109580D01*
X122470271Y-109061961D01*
X122422652Y-109014342D01*
X122327414Y-108871485D01*
X122279795Y-108681009D01*
X122279795Y-108300057D01*
X122327414Y-108204819D01*
X122375033Y-108157200D01*
X122470271Y-108109580D01*
X122660747Y-108109580D01*
X122755985Y-108157200D01*
X122803604Y-108204819D01*
X122851223Y-108300057D01*
X122851223Y-108538152D01*
X122803604Y-108633390D01*
X122755985Y-108681009D01*
X122660747Y-108728628D01*
X122470271Y-108728628D01*
X122375033Y-108681009D01*
X122327414Y-108633390D01*
X122279795Y-108538152D01*
X121851223Y-109014342D02*
X121803604Y-109061961D01*
X121851223Y-109109580D01*
X121898842Y-109061961D01*
X121851223Y-109014342D01*
X121851223Y-109109580D01*
X120803604Y-109014342D02*
X120851223Y-109061961D01*
X120994080Y-109109580D01*
X121089319Y-109109580D01*
X121232176Y-109061961D01*
X121327414Y-108966723D01*
X121375033Y-108871485D01*
X121422652Y-108681009D01*
X121422652Y-108538152D01*
X121375033Y-108347676D01*
X121327414Y-108252438D01*
X121232176Y-108157200D01*
X121089319Y-108109580D01*
X120994080Y-108109580D01*
X120851223Y-108157200D01*
X120803604Y-108204819D01*
X120184557Y-108109580D02*
X119994080Y-108109580D01*
X119898842Y-108157200D01*
X119803604Y-108252438D01*
X119755985Y-108442914D01*
X119755985Y-108776247D01*
X119803604Y-108966723D01*
X119898842Y-109061961D01*
X119994080Y-109109580D01*
X120184557Y-109109580D01*
X120279795Y-109061961D01*
X120375033Y-108966723D01*
X120422652Y-108776247D01*
X120422652Y-108442914D01*
X120375033Y-108252438D01*
X120279795Y-108157200D01*
X120184557Y-108109580D01*
X119327414Y-109109580D02*
X119327414Y-108109580D01*
X118375033Y-109109580D02*
X118851223Y-109109580D01*
X118851223Y-108109580D01*
X118279795Y-109204819D02*
X117517890Y-109204819D01*
X117279795Y-109109580D02*
X117279795Y-108109580D01*
X116708366Y-109109580D01*
X116708366Y-108109580D01*
X122279795Y-110759580D02*
X122851223Y-110759580D01*
X122565509Y-110759580D02*
X122565509Y-109759580D01*
X122660747Y-109902438D01*
X122755985Y-109997676D01*
X122851223Y-110045295D01*
X121660747Y-109759580D02*
X121565509Y-109759580D01*
X121470271Y-109807200D01*
X121422652Y-109854819D01*
X121375033Y-109950057D01*
X121327414Y-110140533D01*
X121327414Y-110378628D01*
X121375033Y-110569104D01*
X121422652Y-110664342D01*
X121470271Y-110711961D01*
X121565509Y-110759580D01*
X121660747Y-110759580D01*
X121755985Y-110711961D01*
X121803604Y-110664342D01*
X121851223Y-110569104D01*
X121898842Y-110378628D01*
X121898842Y-110140533D01*
X121851223Y-109950057D01*
X121803604Y-109854819D01*
X121755985Y-109807200D01*
X121660747Y-109759580D01*
X120898842Y-110664342D02*
X120851223Y-110711961D01*
X120898842Y-110759580D01*
X120946461Y-110711961D01*
X120898842Y-110664342D01*
X120898842Y-110759580D01*
X119851223Y-110664342D02*
X119898842Y-110711961D01*
X120041700Y-110759580D01*
X120136938Y-110759580D01*
X120279795Y-110711961D01*
X120375033Y-110616723D01*
X120422652Y-110521485D01*
X120470271Y-110331009D01*
X120470271Y-110188152D01*
X120422652Y-109997676D01*
X120375033Y-109902438D01*
X120279795Y-109807200D01*
X120136938Y-109759580D01*
X120041700Y-109759580D01*
X119898842Y-109807200D01*
X119851223Y-109854819D01*
X119232176Y-109759580D02*
X119041700Y-109759580D01*
X118946461Y-109807200D01*
X118851223Y-109902438D01*
X118803604Y-110092914D01*
X118803604Y-110426247D01*
X118851223Y-110616723D01*
X118946461Y-110711961D01*
X119041700Y-110759580D01*
X119232176Y-110759580D01*
X119327414Y-110711961D01*
X119422652Y-110616723D01*
X119470271Y-110426247D01*
X119470271Y-110092914D01*
X119422652Y-109902438D01*
X119327414Y-109807200D01*
X119232176Y-109759580D01*
X118375033Y-110759580D02*
X118375033Y-109759580D01*
X117422652Y-110759580D02*
X117898842Y-110759580D01*
X117898842Y-109759580D01*
X117327414Y-110854819D02*
X116565509Y-110854819D01*
X116327414Y-110759580D02*
X116327414Y-109759580D01*
X115946461Y-109759580D01*
X115851223Y-109807200D01*
X115803604Y-109854819D01*
X115755985Y-109950057D01*
X115755985Y-110092914D01*
X115803604Y-110188152D01*
X115851223Y-110235771D01*
X115946461Y-110283390D01*
X116327414Y-110283390D01*
D13*
X168880571Y-96119000D02*
X168953142Y-96082714D01*
X169062000Y-96082714D01*
X169170857Y-96119000D01*
X169243428Y-96191571D01*
X169279714Y-96264142D01*
X169316000Y-96409285D01*
X169316000Y-96518142D01*
X169279714Y-96663285D01*
X169243428Y-96735857D01*
X169170857Y-96808428D01*
X169062000Y-96844714D01*
X168989428Y-96844714D01*
X168880571Y-96808428D01*
X168844285Y-96772142D01*
X168844285Y-96518142D01*
X168989428Y-96518142D01*
X168517714Y-96844714D02*
X168517714Y-96082714D01*
X168082285Y-96844714D01*
X168082285Y-96082714D01*
X167719428Y-96844714D02*
X167719428Y-96082714D01*
X167538000Y-96082714D01*
X167429142Y-96119000D01*
X167356571Y-96191571D01*
X167320285Y-96264142D01*
X167284000Y-96409285D01*
X167284000Y-96518142D01*
X167320285Y-96663285D01*
X167356571Y-96735857D01*
X167429142Y-96808428D01*
X167538000Y-96844714D01*
X167719428Y-96844714D01*
X169193428Y-98182714D02*
X168721714Y-98182714D01*
X168975714Y-98473000D01*
X168866857Y-98473000D01*
X168794285Y-98509285D01*
X168758000Y-98545571D01*
X168721714Y-98618142D01*
X168721714Y-98799571D01*
X168758000Y-98872142D01*
X168794285Y-98908428D01*
X168866857Y-98944714D01*
X169084571Y-98944714D01*
X169157142Y-98908428D01*
X169193428Y-98872142D01*
X168504000Y-98182714D02*
X168250000Y-98944714D01*
X167996000Y-98182714D01*
X167814571Y-98182714D02*
X167342857Y-98182714D01*
X167596857Y-98473000D01*
X167488000Y-98473000D01*
X167415428Y-98509285D01*
X167379142Y-98545571D01*
X167342857Y-98618142D01*
X167342857Y-98799571D01*
X167379142Y-98872142D01*
X167415428Y-98908428D01*
X167488000Y-98944714D01*
X167705714Y-98944714D01*
X167778285Y-98908428D01*
X167814571Y-98872142D01*
X175039020Y-93331574D02*
X174785020Y-94093574D01*
X174531020Y-93331574D01*
X174313305Y-94057288D02*
X174204448Y-94093574D01*
X174023020Y-94093574D01*
X173950448Y-94057288D01*
X173914162Y-94021002D01*
X173877877Y-93948431D01*
X173877877Y-93875860D01*
X173914162Y-93803288D01*
X173950448Y-93767002D01*
X174023020Y-93730717D01*
X174168162Y-93694431D01*
X174240734Y-93658145D01*
X174277020Y-93621860D01*
X174313305Y-93549288D01*
X174313305Y-93476717D01*
X174277020Y-93404145D01*
X174240734Y-93367860D01*
X174168162Y-93331574D01*
X173986734Y-93331574D01*
X173877877Y-93367860D01*
X173406162Y-93331574D02*
X173261020Y-93331574D01*
X173188448Y-93367860D01*
X173115877Y-93440431D01*
X173079591Y-93585574D01*
X173079591Y-93839574D01*
X173115877Y-93984717D01*
X173188448Y-94057288D01*
X173261020Y-94093574D01*
X173406162Y-94093574D01*
X173478734Y-94057288D01*
X173551305Y-93984717D01*
X173587591Y-93839574D01*
X173587591Y-93585574D01*
X173551305Y-93440431D01*
X173478734Y-93367860D01*
X173406162Y-93331574D01*
X172390162Y-94093574D02*
X172753020Y-94093574D01*
X172753020Y-93331574D01*
X172172448Y-93875860D02*
X171809591Y-93875860D01*
X172245020Y-94093574D02*
X171991020Y-93331574D01*
X171737020Y-94093574D01*
X171047591Y-94093574D02*
X171301591Y-93730717D01*
X171483020Y-94093574D02*
X171483020Y-93331574D01*
X171192734Y-93331574D01*
X171120162Y-93367860D01*
X171083877Y-93404145D01*
X171047591Y-93476717D01*
X171047591Y-93585574D01*
X171083877Y-93658145D01*
X171120162Y-93694431D01*
X171192734Y-93730717D01*
X171483020Y-93730717D01*
D14*
X156011200Y-92624800D02*
X156011200Y-94555200D01*
X157027200Y-92624800D02*
X156011200Y-92624800D01*
X157027200Y-94555200D02*
X157027200Y-92624800D01*
X156011200Y-94555200D02*
X157027200Y-94555200D01*
D15*
X113000000Y-125000000D02*
X176987200Y-125000000D01*
X113030000Y-72999600D02*
X177017200Y-72999600D01*
D10*
X166200000Y-118900000D02*
G75*
G03X166200000Y-118900000I-1300000J0D01*
G01*
D16*
X126372800Y-79100000D02*
G75*
G03X126372800Y-79100000I-1300000J0D01*
G01*
D10*
X166195000Y-79102480D02*
G75*
G03X166195000Y-79102480I-1300000J0D01*
G01*
X121804809Y-89229380D02*
X121852428Y-89253190D01*
X121947666Y-89253190D01*
X121995285Y-89229380D01*
X122019095Y-89205571D01*
X122042904Y-89157952D01*
X122042904Y-89015095D01*
X122019095Y-88967476D01*
X121995285Y-88943666D01*
X121947666Y-88919857D01*
X121852428Y-88919857D01*
X121804809Y-88943666D01*
X121519095Y-89253190D02*
X121566714Y-89229380D01*
X121590523Y-89205571D01*
X121614333Y-89157952D01*
X121614333Y-89015095D01*
X121590523Y-88967476D01*
X121566714Y-88943666D01*
X121519095Y-88919857D01*
X121447666Y-88919857D01*
X121400047Y-88943666D01*
X121376238Y-88967476D01*
X121352428Y-89015095D01*
X121352428Y-89157952D01*
X121376238Y-89205571D01*
X121400047Y-89229380D01*
X121447666Y-89253190D01*
X121519095Y-89253190D01*
X121138142Y-89253190D02*
X121138142Y-88919857D01*
X121138142Y-88753190D02*
X121161952Y-88777000D01*
X121138142Y-88800809D01*
X121114333Y-88777000D01*
X121138142Y-88753190D01*
X121138142Y-88800809D01*
X120828619Y-89253190D02*
X120876238Y-89229380D01*
X120900047Y-89181761D01*
X120900047Y-88753190D01*
X120757190Y-89300809D02*
X120376238Y-89300809D01*
X120257190Y-88919857D02*
X120257190Y-89419857D01*
X120257190Y-88943666D02*
X120209571Y-88919857D01*
X120114333Y-88919857D01*
X120066714Y-88943666D01*
X120042904Y-88967476D01*
X120019095Y-89015095D01*
X120019095Y-89157952D01*
X120042904Y-89205571D01*
X120066714Y-89229380D01*
X120114333Y-89253190D01*
X120209571Y-89253190D01*
X120257190Y-89229380D01*
X121677809Y-86816380D02*
X121725428Y-86840190D01*
X121820666Y-86840190D01*
X121868285Y-86816380D01*
X121892095Y-86792571D01*
X121915904Y-86744952D01*
X121915904Y-86602095D01*
X121892095Y-86554476D01*
X121868285Y-86530666D01*
X121820666Y-86506857D01*
X121725428Y-86506857D01*
X121677809Y-86530666D01*
X121392095Y-86840190D02*
X121439714Y-86816380D01*
X121463523Y-86792571D01*
X121487333Y-86744952D01*
X121487333Y-86602095D01*
X121463523Y-86554476D01*
X121439714Y-86530666D01*
X121392095Y-86506857D01*
X121320666Y-86506857D01*
X121273047Y-86530666D01*
X121249238Y-86554476D01*
X121225428Y-86602095D01*
X121225428Y-86744952D01*
X121249238Y-86792571D01*
X121273047Y-86816380D01*
X121320666Y-86840190D01*
X121392095Y-86840190D01*
X121011142Y-86840190D02*
X121011142Y-86506857D01*
X121011142Y-86340190D02*
X121034952Y-86364000D01*
X121011142Y-86387809D01*
X120987333Y-86364000D01*
X121011142Y-86340190D01*
X121011142Y-86387809D01*
X120701619Y-86840190D02*
X120749238Y-86816380D01*
X120773047Y-86768761D01*
X120773047Y-86340190D01*
X120630190Y-86887809D02*
X120249238Y-86887809D01*
X120130190Y-86506857D02*
X120130190Y-86840190D01*
X120130190Y-86554476D02*
X120106380Y-86530666D01*
X120058761Y-86506857D01*
X119987333Y-86506857D01*
X119939714Y-86530666D01*
X119915904Y-86578285D01*
X119915904Y-86840190D01*
D17*
X153414285Y-79621428D02*
X153771428Y-78621428D01*
X154128571Y-79621428D01*
X154985714Y-80121428D02*
X155128571Y-80121428D01*
X155271428Y-80050000D01*
X155342857Y-79978571D01*
X155414285Y-79835714D01*
X155485714Y-79550000D01*
X155485714Y-79192857D01*
X155414285Y-78907142D01*
X155342857Y-78764285D01*
X155271428Y-78692857D01*
X155128571Y-78621428D01*
X154985714Y-78621428D01*
X154842857Y-78692857D01*
X154771428Y-78764285D01*
X154700000Y-78907142D01*
X154628571Y-79192857D01*
X154628571Y-79550000D01*
X154700000Y-79835714D01*
X154771428Y-79978571D01*
X154842857Y-80050000D01*
X154985714Y-80121428D01*
X156057142Y-79978571D02*
X156128571Y-80050000D01*
X156271428Y-80121428D01*
X156628571Y-80121428D01*
X156771428Y-80050000D01*
X156842857Y-79978571D01*
X156914285Y-79835714D01*
X156914285Y-79692857D01*
X156842857Y-79478571D01*
X155985714Y-78621428D01*
X156914285Y-78621428D01*
D14*
X152304520Y-119382960D02*
G75*
G02X149260774Y-119054102I-1332859J1913849D01*
G01*
X150018520Y-118976560D02*
G75*
G02X149171232Y-118783552I-390089J243807D01*
G01*
X150025578Y-118969223D02*
G75*
G02X152329919Y-118925761I1161342J-464537D01*
G01*
X155415248Y-118824117D02*
G75*
G02X152372520Y-119400360I-1899729J1709756D01*
G01*
X155632520Y-118375360D02*
G75*
G02X154616520Y-118883360I-635000J0D01*
G01*
X152311578Y-118918822D02*
G75*
G02X154615919Y-118875360I1161342J-464537D01*
G01*
D12*
X134945428Y-93051571D02*
X134945428Y-93813476D01*
X135326380Y-93432523D02*
X134564476Y-93432523D01*
X134802571Y-94623000D02*
X134850190Y-94765857D01*
X134897809Y-94813476D01*
X134993047Y-94861095D01*
X135135904Y-94861095D01*
X135231142Y-94813476D01*
X135278761Y-94765857D01*
X135326380Y-94670619D01*
X135326380Y-94289666D01*
X134326380Y-94289666D01*
X134326380Y-94623000D01*
X134374000Y-94718238D01*
X134421619Y-94765857D01*
X134516857Y-94813476D01*
X134612095Y-94813476D01*
X134707333Y-94765857D01*
X134754952Y-94718238D01*
X134802571Y-94623000D01*
X134802571Y-94289666D01*
X135040666Y-95242047D02*
X135040666Y-95718238D01*
X135326380Y-95146809D02*
X134326380Y-95480142D01*
X135326380Y-95813476D01*
X134326380Y-96003952D02*
X134326380Y-96575380D01*
X135326380Y-96289666D02*
X134326380Y-96289666D01*
X134326380Y-96765857D02*
X134326380Y-97337285D01*
X135326380Y-97051571D02*
X134326380Y-97051571D01*
X134945428Y-101560571D02*
X134945428Y-102322476D01*
X134802571Y-103132000D02*
X134850190Y-103274857D01*
X134897809Y-103322476D01*
X134993047Y-103370095D01*
X135135904Y-103370095D01*
X135231142Y-103322476D01*
X135278761Y-103274857D01*
X135326380Y-103179619D01*
X135326380Y-102798666D01*
X134326380Y-102798666D01*
X134326380Y-103132000D01*
X134374000Y-103227238D01*
X134421619Y-103274857D01*
X134516857Y-103322476D01*
X134612095Y-103322476D01*
X134707333Y-103274857D01*
X134754952Y-103227238D01*
X134802571Y-103132000D01*
X134802571Y-102798666D01*
X135040666Y-103751047D02*
X135040666Y-104227238D01*
X135326380Y-103655809D02*
X134326380Y-103989142D01*
X135326380Y-104322476D01*
X134326380Y-104512952D02*
X134326380Y-105084380D01*
X135326380Y-104798666D02*
X134326380Y-104798666D01*
X134326380Y-105274857D02*
X134326380Y-105846285D01*
X135326380Y-105560571D02*
X134326380Y-105560571D01*
D10*
X176975000Y-70000000D02*
X113000000Y-70000000D01*
X113000000Y-128000000D02*
X176975000Y-128000000D01*
X113000000Y-70000000D02*
X113000000Y-128000000D01*
D18*
X164450000Y-106750000D02*
X164450000Y-108300000D01*
X164450000Y-115250000D02*
X164450000Y-113700000D01*
X164450000Y-106750000D02*
X161600000Y-106750000D01*
X164450000Y-115250000D02*
X161600000Y-115250000D01*
X159570000Y-115250000D02*
X159570000Y-106750000D01*
D14*
X161967720Y-89773460D02*
G75*
G03X161967720Y-89773460I-700000J0D01*
G01*
X166700000Y-96550000D02*
G75*
G03X166700000Y-96550000I-700000J0D01*
G01*
X166050000Y-98650000D02*
G75*
G03X166050000Y-98650000I-700000J0D01*
G01*
X126640000Y-103585000D02*
X127490000Y-103585000D01*
X126640000Y-95415000D02*
X126640000Y-103585000D01*
X127490000Y-95415000D02*
X126640000Y-95415000D01*
X131860000Y-103585000D02*
X131860000Y-101260000D01*
X131010000Y-103585000D02*
X131860000Y-103585000D01*
X131860000Y-97740000D02*
X134250000Y-97740000D01*
X131860000Y-95415000D02*
X131860000Y-97740000D01*
X131010000Y-95415000D02*
X131860000Y-95415000D01*
D18*
X152361500Y-89026000D02*
G75*
G03X152361500Y-89026000I-19000J0D01*
G01*
D14*
X156423579Y-85244400D02*
X156098021Y-85244400D01*
X156423579Y-84224400D02*
X156098021Y-84224400D01*
D19*
X158045844Y-94570660D02*
G75*
G03X158045844Y-94570660I-125000J0D01*
G01*
D18*
X157166500Y-103910500D02*
G75*
G03X157166500Y-103910500I-19000J0D01*
G01*
D15*
X154968520Y-98210000D02*
G75*
G03X154968520Y-98210000I-127000J0D01*
G01*
D20*
X152892070Y-101429450D02*
X152892070Y-100070550D01*
X156790970Y-100070550D02*
X156790970Y-101429450D01*
D15*
X154935500Y-90093500D02*
G75*
G03X154935500Y-90093500I-127000J0D01*
G01*
D20*
X152859050Y-93312950D02*
X152859050Y-91954050D01*
X156757950Y-91954050D02*
X156757950Y-93312950D01*
D14*
X156510000Y-96587221D02*
X156510000Y-96912779D01*
X155490000Y-96587221D02*
X155490000Y-96912779D01*
X150711747Y-106884705D02*
X148373479Y-108234705D01*
X151560792Y-109535294D02*
X151875792Y-110080890D01*
X149690177Y-110615294D02*
X150244434Y-110295294D01*
X152115049Y-109215294D02*
X151560792Y-109535294D01*
D12*
X153091559Y-111570528D02*
X153329655Y-111982921D01*
X154195680Y-111482921D01*
X153838537Y-110864331D02*
X153529013Y-110328220D01*
X153365766Y-110807371D01*
X153294337Y-110683653D01*
X153205479Y-110624984D01*
X153140430Y-110607555D01*
X153034142Y-110613934D01*
X152827945Y-110732982D01*
X152769276Y-110821840D01*
X152751846Y-110886889D01*
X152758226Y-110993177D01*
X152901083Y-111240613D01*
X152989942Y-111299282D01*
X153054990Y-111316712D01*
X150135302Y-114337866D02*
X150200350Y-114355295D01*
X150347878Y-114325106D01*
X150430356Y-114277487D01*
X150530265Y-114164819D01*
X150565124Y-114034722D01*
X150558745Y-113928434D01*
X150504746Y-113739667D01*
X150433317Y-113615949D01*
X150296840Y-113474801D01*
X150207982Y-113416132D01*
X150077884Y-113381273D01*
X149930356Y-113411462D01*
X149847878Y-113459081D01*
X149747969Y-113571749D01*
X149730540Y-113636798D01*
X149358134Y-114896535D02*
X149853006Y-114610821D01*
X149605570Y-114753678D02*
X149105570Y-113887652D01*
X149259478Y-113963751D01*
X149389575Y-113998611D01*
X149495863Y-113992231D01*
X148569459Y-114197176D02*
X148033348Y-114506700D01*
X148512500Y-114669948D01*
X148388782Y-114741376D01*
X148330113Y-114830235D01*
X148312683Y-114895283D01*
X148319063Y-115001572D01*
X148438110Y-115207768D01*
X148526969Y-115266437D01*
X148592017Y-115283867D01*
X148698306Y-115277487D01*
X148945741Y-115134630D01*
X149004411Y-115045772D01*
X149021840Y-114980723D01*
X149185302Y-113037866D02*
X149250350Y-113055295D01*
X149397878Y-113025106D01*
X149480356Y-112977487D01*
X149580265Y-112864819D01*
X149615124Y-112734722D01*
X149608745Y-112628434D01*
X149554746Y-112439667D01*
X149483317Y-112315949D01*
X149346840Y-112174801D01*
X149257982Y-112116132D01*
X149127884Y-112081273D01*
X148980356Y-112111462D01*
X148897878Y-112159081D01*
X148797969Y-112271749D01*
X148780540Y-112336798D01*
X148408134Y-113596535D02*
X148903006Y-113310821D01*
X148655570Y-113453678D02*
X148155570Y-112587652D01*
X148309478Y-112663751D01*
X148439575Y-112698611D01*
X148545863Y-112692231D01*
X147625839Y-113003464D02*
X147560790Y-112986034D01*
X147454502Y-112992414D01*
X147248306Y-113111462D01*
X147189637Y-113200320D01*
X147172207Y-113265369D01*
X147178586Y-113371657D01*
X147226206Y-113454136D01*
X147338873Y-113554044D01*
X148119459Y-113763201D01*
X147583348Y-114072725D01*
D15*
X161070483Y-110948526D02*
X161977626Y-110948526D01*
X162159055Y-110888050D01*
X162280007Y-110767098D01*
X162340483Y-110585669D01*
X162340483Y-110464717D01*
X162340483Y-112218526D02*
X162340483Y-111492812D01*
X162340483Y-111855669D02*
X161070483Y-111855669D01*
X161251912Y-111734717D01*
X161372864Y-111613764D01*
X161433340Y-111492812D01*
D12*
X127231660Y-98988866D02*
X127945946Y-98988866D01*
X128088803Y-98941247D01*
X128184041Y-98846009D01*
X128231660Y-98703152D01*
X128231660Y-98607914D01*
X127564994Y-99893628D02*
X128231660Y-99893628D01*
X127184041Y-99655533D02*
X127898327Y-99417438D01*
X127898327Y-100036485D01*
D13*
X155575285Y-88194714D02*
X155575285Y-87432714D01*
X155393857Y-87432714D01*
X155285000Y-87469000D01*
X155212428Y-87541571D01*
X155176142Y-87614142D01*
X155139857Y-87759285D01*
X155139857Y-87868142D01*
X155176142Y-88013285D01*
X155212428Y-88085857D01*
X155285000Y-88158428D01*
X155393857Y-88194714D01*
X155575285Y-88194714D01*
X154885857Y-87432714D02*
X154414142Y-87432714D01*
X154668142Y-87723000D01*
X154559285Y-87723000D01*
X154486714Y-87759285D01*
X154450428Y-87795571D01*
X154414142Y-87868142D01*
X154414142Y-88049571D01*
X154450428Y-88122142D01*
X154486714Y-88158428D01*
X154559285Y-88194714D01*
X154777000Y-88194714D01*
X154849571Y-88158428D01*
X154885857Y-88122142D01*
X153942428Y-87432714D02*
X153869857Y-87432714D01*
X153797285Y-87469000D01*
X153761000Y-87505285D01*
X153724714Y-87577857D01*
X153688428Y-87723000D01*
X153688428Y-87904428D01*
X153724714Y-88049571D01*
X153761000Y-88122142D01*
X153797285Y-88158428D01*
X153869857Y-88194714D01*
X153942428Y-88194714D01*
X154015000Y-88158428D01*
X154051285Y-88122142D01*
X154087571Y-88049571D01*
X154123857Y-87904428D01*
X154123857Y-87723000D01*
X154087571Y-87577857D01*
X154051285Y-87505285D01*
X154015000Y-87469000D01*
X153942428Y-87432714D01*
X156277000Y-86322142D02*
X156313285Y-86358428D01*
X156422142Y-86394714D01*
X156494714Y-86394714D01*
X156603571Y-86358428D01*
X156676142Y-86285857D01*
X156712428Y-86213285D01*
X156748714Y-86068142D01*
X156748714Y-85959285D01*
X156712428Y-85814142D01*
X156676142Y-85741571D01*
X156603571Y-85669000D01*
X156494714Y-85632714D01*
X156422142Y-85632714D01*
X156313285Y-85669000D01*
X156277000Y-85705285D01*
X155623857Y-85632714D02*
X155769000Y-85632714D01*
X155841571Y-85669000D01*
X155877857Y-85705285D01*
X155950428Y-85814142D01*
X155986714Y-85959285D01*
X155986714Y-86249571D01*
X155950428Y-86322142D01*
X155914142Y-86358428D01*
X155841571Y-86394714D01*
X155696428Y-86394714D01*
X155623857Y-86358428D01*
X155587571Y-86322142D01*
X155551285Y-86249571D01*
X155551285Y-86068142D01*
X155587571Y-85995571D01*
X155623857Y-85959285D01*
X155696428Y-85923000D01*
X155841571Y-85923000D01*
X155914142Y-85959285D01*
X155950428Y-85995571D01*
X155986714Y-86068142D01*
X152577000Y-97972142D02*
X152613285Y-98008428D01*
X152722142Y-98044714D01*
X152794714Y-98044714D01*
X152903571Y-98008428D01*
X152976142Y-97935857D01*
X153012428Y-97863285D01*
X153048714Y-97718142D01*
X153048714Y-97609285D01*
X153012428Y-97464142D01*
X152976142Y-97391571D01*
X152903571Y-97319000D01*
X152794714Y-97282714D01*
X152722142Y-97282714D01*
X152613285Y-97319000D01*
X152577000Y-97355285D01*
X152214142Y-98044714D02*
X152069000Y-98044714D01*
X151996428Y-98008428D01*
X151960142Y-97972142D01*
X151887571Y-97863285D01*
X151851285Y-97718142D01*
X151851285Y-97427857D01*
X151887571Y-97355285D01*
X151923857Y-97319000D01*
X151996428Y-97282714D01*
X152141571Y-97282714D01*
X152214142Y-97319000D01*
X152250428Y-97355285D01*
X152286714Y-97427857D01*
X152286714Y-97609285D01*
X152250428Y-97681857D01*
X152214142Y-97718142D01*
X152141571Y-97754428D01*
X151996428Y-97754428D01*
X151923857Y-97718142D01*
X151887571Y-97681857D01*
X151851285Y-97609285D01*
X160155925Y-90196914D02*
X160155925Y-89434914D01*
X159974497Y-89434914D01*
X159865640Y-89471200D01*
X159793068Y-89543771D01*
X159756782Y-89616342D01*
X159720497Y-89761485D01*
X159720497Y-89870342D01*
X159756782Y-90015485D01*
X159793068Y-90088057D01*
X159865640Y-90160628D01*
X159974497Y-90196914D01*
X160155925Y-90196914D01*
X158994782Y-90196914D02*
X159430211Y-90196914D01*
X159212497Y-90196914D02*
X159212497Y-89434914D01*
X159285068Y-89543771D01*
X159357640Y-89616342D01*
X159430211Y-89652628D01*
X159253558Y-96140088D02*
X159870415Y-96140088D01*
X159942986Y-96176374D01*
X159979272Y-96212660D01*
X160015558Y-96285231D01*
X160015558Y-96430374D01*
X159979272Y-96502945D01*
X159942986Y-96539231D01*
X159870415Y-96575517D01*
X159253558Y-96575517D01*
X159326129Y-96902088D02*
X159289844Y-96938374D01*
X159253558Y-97010945D01*
X159253558Y-97192374D01*
X159289844Y-97264945D01*
X159326129Y-97301231D01*
X159398701Y-97337517D01*
X159471272Y-97337517D01*
X159580129Y-97301231D01*
X160015558Y-96865802D01*
X160015558Y-97337517D01*
X158562428Y-104594714D02*
X158562428Y-103832714D01*
X158381000Y-103832714D01*
X158272142Y-103869000D01*
X158199571Y-103941571D01*
X158163285Y-104014142D01*
X158127000Y-104159285D01*
X158127000Y-104268142D01*
X158163285Y-104413285D01*
X158199571Y-104485857D01*
X158272142Y-104558428D01*
X158381000Y-104594714D01*
X158562428Y-104594714D01*
X157836714Y-103905285D02*
X157800428Y-103869000D01*
X157727857Y-103832714D01*
X157546428Y-103832714D01*
X157473857Y-103869000D01*
X157437571Y-103905285D01*
X157401285Y-103977857D01*
X157401285Y-104050428D01*
X157437571Y-104159285D01*
X157873000Y-104594714D01*
X157401285Y-104594714D01*
X166227000Y-93644714D02*
X166481000Y-93281857D01*
X166662428Y-93644714D02*
X166662428Y-92882714D01*
X166372142Y-92882714D01*
X166299571Y-92919000D01*
X166263285Y-92955285D01*
X166227000Y-93027857D01*
X166227000Y-93136714D01*
X166263285Y-93209285D01*
X166299571Y-93245571D01*
X166372142Y-93281857D01*
X166662428Y-93281857D01*
X165973000Y-92882714D02*
X165501285Y-92882714D01*
X165755285Y-93173000D01*
X165646428Y-93173000D01*
X165573857Y-93209285D01*
X165537571Y-93245571D01*
X165501285Y-93318142D01*
X165501285Y-93499571D01*
X165537571Y-93572142D01*
X165573857Y-93608428D01*
X165646428Y-93644714D01*
X165864142Y-93644714D01*
X165936714Y-93608428D01*
X165973000Y-93572142D01*
X166277000Y-94694714D02*
X166531000Y-94331857D01*
X166712428Y-94694714D02*
X166712428Y-93932714D01*
X166422142Y-93932714D01*
X166349571Y-93969000D01*
X166313285Y-94005285D01*
X166277000Y-94077857D01*
X166277000Y-94186714D01*
X166313285Y-94259285D01*
X166349571Y-94295571D01*
X166422142Y-94331857D01*
X166712428Y-94331857D01*
X165986714Y-94005285D02*
X165950428Y-93969000D01*
X165877857Y-93932714D01*
X165696428Y-93932714D01*
X165623857Y-93969000D01*
X165587571Y-94005285D01*
X165551285Y-94077857D01*
X165551285Y-94150428D01*
X165587571Y-94259285D01*
X166023000Y-94694714D01*
X165551285Y-94694714D01*
X165044714Y-90160142D02*
X164681857Y-89906142D01*
X165044714Y-89724714D02*
X164282714Y-89724714D01*
X164282714Y-90015000D01*
X164319000Y-90087571D01*
X164355285Y-90123857D01*
X164427857Y-90160142D01*
X164536714Y-90160142D01*
X164609285Y-90123857D01*
X164645571Y-90087571D01*
X164681857Y-90015000D01*
X164681857Y-89724714D01*
X165044714Y-90885857D02*
X165044714Y-90450428D01*
X165044714Y-90668142D02*
X164282714Y-90668142D01*
X164391571Y-90595571D01*
X164464142Y-90523000D01*
X164500428Y-90450428D01*
X164282714Y-91139857D02*
X164282714Y-91611571D01*
X164573000Y-91357571D01*
X164573000Y-91466428D01*
X164609285Y-91539000D01*
X164645571Y-91575285D01*
X164718142Y-91611571D01*
X164899571Y-91611571D01*
X164972142Y-91575285D01*
X165008428Y-91539000D01*
X165044714Y-91466428D01*
X165044714Y-91248714D01*
X165008428Y-91176142D01*
X164972142Y-91139857D01*
X152577000Y-96822142D02*
X152613285Y-96858428D01*
X152722142Y-96894714D01*
X152794714Y-96894714D01*
X152903571Y-96858428D01*
X152976142Y-96785857D01*
X153012428Y-96713285D01*
X153048714Y-96568142D01*
X153048714Y-96459285D01*
X153012428Y-96314142D01*
X152976142Y-96241571D01*
X152903571Y-96169000D01*
X152794714Y-96132714D01*
X152722142Y-96132714D01*
X152613285Y-96169000D01*
X152577000Y-96205285D01*
X152141571Y-96459285D02*
X152214142Y-96423000D01*
X152250428Y-96386714D01*
X152286714Y-96314142D01*
X152286714Y-96277857D01*
X152250428Y-96205285D01*
X152214142Y-96169000D01*
X152141571Y-96132714D01*
X151996428Y-96132714D01*
X151923857Y-96169000D01*
X151887571Y-96205285D01*
X151851285Y-96277857D01*
X151851285Y-96314142D01*
X151887571Y-96386714D01*
X151923857Y-96423000D01*
X151996428Y-96459285D01*
X152141571Y-96459285D01*
X152214142Y-96495571D01*
X152250428Y-96531857D01*
X152286714Y-96604428D01*
X152286714Y-96749571D01*
X152250428Y-96822142D01*
X152214142Y-96858428D01*
X152141571Y-96894714D01*
X151996428Y-96894714D01*
X151923857Y-96858428D01*
X151887571Y-96822142D01*
X151851285Y-96749571D01*
X151851285Y-96604428D01*
X151887571Y-96531857D01*
X151923857Y-96495571D01*
X151996428Y-96459285D01*
X166277000Y-95694714D02*
X166531000Y-95331857D01*
X166712428Y-95694714D02*
X166712428Y-94932714D01*
X166422142Y-94932714D01*
X166349571Y-94969000D01*
X166313285Y-95005285D01*
X166277000Y-95077857D01*
X166277000Y-95186714D01*
X166313285Y-95259285D01*
X166349571Y-95295571D01*
X166422142Y-95331857D01*
X166712428Y-95331857D01*
X165623857Y-95186714D02*
X165623857Y-95694714D01*
X165805285Y-94896428D02*
X165986714Y-95440714D01*
X165515000Y-95440714D01*
X166094714Y-100073000D02*
X165731857Y-99819000D01*
X166094714Y-99637571D02*
X165332714Y-99637571D01*
X165332714Y-99927857D01*
X165369000Y-100000428D01*
X165405285Y-100036714D01*
X165477857Y-100073000D01*
X165586714Y-100073000D01*
X165659285Y-100036714D01*
X165695571Y-100000428D01*
X165731857Y-99927857D01*
X165731857Y-99637571D01*
X165659285Y-100508428D02*
X165623000Y-100435857D01*
X165586714Y-100399571D01*
X165514142Y-100363285D01*
X165477857Y-100363285D01*
X165405285Y-100399571D01*
X165369000Y-100435857D01*
X165332714Y-100508428D01*
X165332714Y-100653571D01*
X165369000Y-100726142D01*
X165405285Y-100762428D01*
X165477857Y-100798714D01*
X165514142Y-100798714D01*
X165586714Y-100762428D01*
X165623000Y-100726142D01*
X165659285Y-100653571D01*
X165659285Y-100508428D01*
X165695571Y-100435857D01*
X165731857Y-100399571D01*
X165804428Y-100363285D01*
X165949571Y-100363285D01*
X166022142Y-100399571D01*
X166058428Y-100435857D01*
X166094714Y-100508428D01*
X166094714Y-100653571D01*
X166058428Y-100726142D01*
X166022142Y-100762428D01*
X165949571Y-100798714D01*
X165804428Y-100798714D01*
X165731857Y-100762428D01*
X165695571Y-100726142D01*
X165659285Y-100653571D01*
X167094714Y-100073000D02*
X166731857Y-99819000D01*
X167094714Y-99637571D02*
X166332714Y-99637571D01*
X166332714Y-99927857D01*
X166369000Y-100000428D01*
X166405285Y-100036714D01*
X166477857Y-100073000D01*
X166586714Y-100073000D01*
X166659285Y-100036714D01*
X166695571Y-100000428D01*
X166731857Y-99927857D01*
X166731857Y-99637571D01*
X166332714Y-100726142D02*
X166332714Y-100581000D01*
X166369000Y-100508428D01*
X166405285Y-100472142D01*
X166514142Y-100399571D01*
X166659285Y-100363285D01*
X166949571Y-100363285D01*
X167022142Y-100399571D01*
X167058428Y-100435857D01*
X167094714Y-100508428D01*
X167094714Y-100653571D01*
X167058428Y-100726142D01*
X167022142Y-100762428D01*
X166949571Y-100798714D01*
X166768142Y-100798714D01*
X166695571Y-100762428D01*
X166659285Y-100726142D01*
X166623000Y-100653571D01*
X166623000Y-100508428D01*
X166659285Y-100435857D01*
X166695571Y-100399571D01*
X166768142Y-100363285D01*
X165044714Y-100073000D02*
X164681857Y-99819000D01*
X165044714Y-99637571D02*
X164282714Y-99637571D01*
X164282714Y-99927857D01*
X164319000Y-100000428D01*
X164355285Y-100036714D01*
X164427857Y-100073000D01*
X164536714Y-100073000D01*
X164609285Y-100036714D01*
X164645571Y-100000428D01*
X164681857Y-99927857D01*
X164681857Y-99637571D01*
X164282714Y-100327000D02*
X164282714Y-100835000D01*
X165044714Y-100508428D01*
X164694714Y-97473000D02*
X164331857Y-97219000D01*
X164694714Y-97037571D02*
X163932714Y-97037571D01*
X163932714Y-97327857D01*
X163969000Y-97400428D01*
X164005285Y-97436714D01*
X164077857Y-97473000D01*
X164186714Y-97473000D01*
X164259285Y-97436714D01*
X164295571Y-97400428D01*
X164331857Y-97327857D01*
X164331857Y-97037571D01*
X163932714Y-98162428D02*
X163932714Y-97799571D01*
X164295571Y-97763285D01*
X164259285Y-97799571D01*
X164223000Y-97872142D01*
X164223000Y-98053571D01*
X164259285Y-98126142D01*
X164295571Y-98162428D01*
X164368142Y-98198714D01*
X164549571Y-98198714D01*
X164622142Y-98162428D01*
X164658428Y-98126142D01*
X164694714Y-98053571D01*
X164694714Y-97872142D01*
X164658428Y-97799571D01*
X164622142Y-97763285D01*
X162894714Y-90160142D02*
X162531857Y-89906142D01*
X162894714Y-89724714D02*
X162132714Y-89724714D01*
X162132714Y-90015000D01*
X162169000Y-90087571D01*
X162205285Y-90123857D01*
X162277857Y-90160142D01*
X162386714Y-90160142D01*
X162459285Y-90123857D01*
X162495571Y-90087571D01*
X162531857Y-90015000D01*
X162531857Y-89724714D01*
X162894714Y-90885857D02*
X162894714Y-90450428D01*
X162894714Y-90668142D02*
X162132714Y-90668142D01*
X162241571Y-90595571D01*
X162314142Y-90523000D01*
X162350428Y-90450428D01*
X162894714Y-91611571D02*
X162894714Y-91176142D01*
X162894714Y-91393857D02*
X162132714Y-91393857D01*
X162241571Y-91321285D01*
X162314142Y-91248714D01*
X162350428Y-91176142D01*
X166244714Y-90160142D02*
X165881857Y-89906142D01*
X166244714Y-89724714D02*
X165482714Y-89724714D01*
X165482714Y-90015000D01*
X165519000Y-90087571D01*
X165555285Y-90123857D01*
X165627857Y-90160142D01*
X165736714Y-90160142D01*
X165809285Y-90123857D01*
X165845571Y-90087571D01*
X165881857Y-90015000D01*
X165881857Y-89724714D01*
X166244714Y-90885857D02*
X166244714Y-90450428D01*
X166244714Y-90668142D02*
X165482714Y-90668142D01*
X165591571Y-90595571D01*
X165664142Y-90523000D01*
X165700428Y-90450428D01*
X165555285Y-91176142D02*
X165519000Y-91212428D01*
X165482714Y-91285000D01*
X165482714Y-91466428D01*
X165519000Y-91539000D01*
X165555285Y-91575285D01*
X165627857Y-91611571D01*
X165700428Y-91611571D01*
X165809285Y-91575285D01*
X166244714Y-91139857D01*
X166244714Y-91611571D01*
X164089857Y-85544714D02*
X164343857Y-85181857D01*
X164525285Y-85544714D02*
X164525285Y-84782714D01*
X164235000Y-84782714D01*
X164162428Y-84819000D01*
X164126142Y-84855285D01*
X164089857Y-84927857D01*
X164089857Y-85036714D01*
X164126142Y-85109285D01*
X164162428Y-85145571D01*
X164235000Y-85181857D01*
X164525285Y-85181857D01*
X163364142Y-85544714D02*
X163799571Y-85544714D01*
X163581857Y-85544714D02*
X163581857Y-84782714D01*
X163654428Y-84891571D01*
X163727000Y-84964142D01*
X163799571Y-85000428D01*
X162711000Y-85036714D02*
X162711000Y-85544714D01*
X162892428Y-84746428D02*
X163073857Y-85290714D01*
X162602142Y-85290714D01*
X158960457Y-86374514D02*
X159214457Y-86011657D01*
X159395885Y-86374514D02*
X159395885Y-85612514D01*
X159105600Y-85612514D01*
X159033028Y-85648800D01*
X158996742Y-85685085D01*
X158960457Y-85757657D01*
X158960457Y-85866514D01*
X158996742Y-85939085D01*
X159033028Y-85975371D01*
X159105600Y-86011657D01*
X159395885Y-86011657D01*
X158234742Y-86374514D02*
X158670171Y-86374514D01*
X158452457Y-86374514D02*
X158452457Y-85612514D01*
X158525028Y-85721371D01*
X158597600Y-85793942D01*
X158670171Y-85830228D01*
X157545314Y-85612514D02*
X157908171Y-85612514D01*
X157944457Y-85975371D01*
X157908171Y-85939085D01*
X157835600Y-85902800D01*
X157654171Y-85902800D01*
X157581600Y-85939085D01*
X157545314Y-85975371D01*
X157509028Y-86047942D01*
X157509028Y-86229371D01*
X157545314Y-86301942D01*
X157581600Y-86338228D01*
X157654171Y-86374514D01*
X157835600Y-86374514D01*
X157908171Y-86338228D01*
X157944457Y-86301942D01*
X159294714Y-100173000D02*
X158931857Y-99919000D01*
X159294714Y-99737571D02*
X158532714Y-99737571D01*
X158532714Y-100027857D01*
X158569000Y-100100428D01*
X158605285Y-100136714D01*
X158677857Y-100173000D01*
X158786714Y-100173000D01*
X158859285Y-100136714D01*
X158895571Y-100100428D01*
X158931857Y-100027857D01*
X158931857Y-99737571D01*
X159294714Y-100898714D02*
X159294714Y-100463285D01*
X159294714Y-100681000D02*
X158532714Y-100681000D01*
X158641571Y-100608428D01*
X158714142Y-100535857D01*
X158750428Y-100463285D01*
X153139857Y-95772142D02*
X153176142Y-95808428D01*
X153285000Y-95844714D01*
X153357571Y-95844714D01*
X153466428Y-95808428D01*
X153539000Y-95735857D01*
X153575285Y-95663285D01*
X153611571Y-95518142D01*
X153611571Y-95409285D01*
X153575285Y-95264142D01*
X153539000Y-95191571D01*
X153466428Y-95119000D01*
X153357571Y-95082714D01*
X153285000Y-95082714D01*
X153176142Y-95119000D01*
X153139857Y-95155285D01*
X152414142Y-95844714D02*
X152849571Y-95844714D01*
X152631857Y-95844714D02*
X152631857Y-95082714D01*
X152704428Y-95191571D01*
X152777000Y-95264142D01*
X152849571Y-95300428D01*
X151688428Y-95844714D02*
X152123857Y-95844714D01*
X151906142Y-95844714D02*
X151906142Y-95082714D01*
X151978714Y-95191571D01*
X152051285Y-95264142D01*
X152123857Y-95300428D01*
X158422142Y-102573000D02*
X158458428Y-102536714D01*
X158494714Y-102427857D01*
X158494714Y-102355285D01*
X158458428Y-102246428D01*
X158385857Y-102173857D01*
X158313285Y-102137571D01*
X158168142Y-102101285D01*
X158059285Y-102101285D01*
X157914142Y-102137571D01*
X157841571Y-102173857D01*
X157769000Y-102246428D01*
X157732714Y-102355285D01*
X157732714Y-102427857D01*
X157769000Y-102536714D01*
X157805285Y-102573000D01*
X157732714Y-102827000D02*
X157732714Y-103335000D01*
X158494714Y-103008428D01*
X163872142Y-90223000D02*
X163908428Y-90186714D01*
X163944714Y-90077857D01*
X163944714Y-90005285D01*
X163908428Y-89896428D01*
X163835857Y-89823857D01*
X163763285Y-89787571D01*
X163618142Y-89751285D01*
X163509285Y-89751285D01*
X163364142Y-89787571D01*
X163291571Y-89823857D01*
X163219000Y-89896428D01*
X163182714Y-90005285D01*
X163182714Y-90077857D01*
X163219000Y-90186714D01*
X163255285Y-90223000D01*
X163436714Y-90876142D02*
X163944714Y-90876142D01*
X163146428Y-90694714D02*
X163690714Y-90513285D01*
X163690714Y-90985000D01*
X151971342Y-91151000D02*
X152007628Y-91114714D01*
X152043914Y-91005857D01*
X152043914Y-90933285D01*
X152007628Y-90824428D01*
X151935057Y-90751857D01*
X151862485Y-90715571D01*
X151717342Y-90679285D01*
X151608485Y-90679285D01*
X151463342Y-90715571D01*
X151390771Y-90751857D01*
X151318200Y-90824428D01*
X151281914Y-90933285D01*
X151281914Y-91005857D01*
X151318200Y-91114714D01*
X151354485Y-91151000D01*
X151354485Y-91441285D02*
X151318200Y-91477571D01*
X151281914Y-91550142D01*
X151281914Y-91731571D01*
X151318200Y-91804142D01*
X151354485Y-91840428D01*
X151427057Y-91876714D01*
X151499628Y-91876714D01*
X151608485Y-91840428D01*
X152043914Y-91405000D01*
X152043914Y-91876714D01*
X158065142Y-92697000D02*
X158101428Y-92660714D01*
X158137714Y-92551857D01*
X158137714Y-92479285D01*
X158101428Y-92370428D01*
X158028857Y-92297857D01*
X157956285Y-92261571D01*
X157811142Y-92225285D01*
X157702285Y-92225285D01*
X157557142Y-92261571D01*
X157484571Y-92297857D01*
X157412000Y-92370428D01*
X157375714Y-92479285D01*
X157375714Y-92551857D01*
X157412000Y-92660714D01*
X157448285Y-92697000D01*
X157375714Y-92951000D02*
X157375714Y-93422714D01*
X157666000Y-93168714D01*
X157666000Y-93277571D01*
X157702285Y-93350142D01*
X157738571Y-93386428D01*
X157811142Y-93422714D01*
X157992571Y-93422714D01*
X158065142Y-93386428D01*
X158101428Y-93350142D01*
X158137714Y-93277571D01*
X158137714Y-93059857D01*
X158101428Y-92987285D01*
X158065142Y-92951000D01*
X161172142Y-103823000D02*
X161208428Y-103786714D01*
X161244714Y-103677857D01*
X161244714Y-103605285D01*
X161208428Y-103496428D01*
X161135857Y-103423857D01*
X161063285Y-103387571D01*
X160918142Y-103351285D01*
X160809285Y-103351285D01*
X160664142Y-103387571D01*
X160591571Y-103423857D01*
X160519000Y-103496428D01*
X160482714Y-103605285D01*
X160482714Y-103677857D01*
X160519000Y-103786714D01*
X160555285Y-103823000D01*
X161244714Y-104548714D02*
X161244714Y-104113285D01*
X161244714Y-104331000D02*
X160482714Y-104331000D01*
X160591571Y-104258428D01*
X160664142Y-104185857D01*
X160700428Y-104113285D01*
D12*
X154290918Y-107114865D02*
X153672329Y-107472008D01*
X153572420Y-107584676D01*
X153537561Y-107714774D01*
X153567750Y-107862301D01*
X153615369Y-107944780D01*
X153994154Y-106791330D02*
X154011584Y-106726282D01*
X154005204Y-106619993D01*
X153886156Y-106413797D01*
X153797298Y-106355128D01*
X153732249Y-106337698D01*
X153625961Y-106344078D01*
X153543482Y-106391697D01*
X153443574Y-106504365D01*
X153234417Y-107284951D01*
X152924893Y-106748840D01*
D15*
G36*
X154151136Y-118464359D02*
X154443294Y-118805211D01*
X154449917Y-118812363D01*
X154754717Y-119117163D01*
X154795919Y-119144693D01*
X154826437Y-119150763D01*
X154245937Y-119463340D01*
X153522731Y-119559768D01*
X152700661Y-119463054D01*
X152367530Y-119272693D01*
X152320536Y-119256974D01*
X152271104Y-119260435D01*
X152243706Y-119271467D01*
X151703711Y-119566010D01*
X151130469Y-119661550D01*
X150502417Y-119613238D01*
X149829976Y-119373081D01*
X149748218Y-119301543D01*
X149779061Y-119288662D01*
X150033061Y-119136262D01*
X150073390Y-119097807D01*
X150363020Y-118663362D01*
X150726566Y-118436146D01*
X151192494Y-118342961D01*
X151597220Y-118387930D01*
X151910959Y-118612030D01*
X152211510Y-118996624D01*
X152249053Y-119028966D01*
X152296115Y-119044478D01*
X152345532Y-119040800D01*
X152389779Y-119018491D01*
X152422121Y-118980948D01*
X152433170Y-118955088D01*
X152468983Y-118836320D01*
X152785000Y-118475158D01*
X153297634Y-118288746D01*
X153797453Y-118243308D01*
X154151136Y-118464359D01*
X154151136Y-118464359D01*
G37*
X154151136Y-118464359D02*
X154443294Y-118805211D01*
X154449917Y-118812363D01*
X154754717Y-119117163D01*
X154795919Y-119144693D01*
X154826437Y-119150763D01*
X154245937Y-119463340D01*
X153522731Y-119559768D01*
X152700661Y-119463054D01*
X152367530Y-119272693D01*
X152320536Y-119256974D01*
X152271104Y-119260435D01*
X152243706Y-119271467D01*
X151703711Y-119566010D01*
X151130469Y-119661550D01*
X150502417Y-119613238D01*
X149829976Y-119373081D01*
X149748218Y-119301543D01*
X149779061Y-119288662D01*
X150033061Y-119136262D01*
X150073390Y-119097807D01*
X150363020Y-118663362D01*
X150726566Y-118436146D01*
X151192494Y-118342961D01*
X151597220Y-118387930D01*
X151910959Y-118612030D01*
X152211510Y-118996624D01*
X152249053Y-119028966D01*
X152296115Y-119044478D01*
X152345532Y-119040800D01*
X152389779Y-119018491D01*
X152422121Y-118980948D01*
X152433170Y-118955088D01*
X152468983Y-118836320D01*
X152785000Y-118475158D01*
X153297634Y-118288746D01*
X153797453Y-118243308D01*
X154151136Y-118464359D01*
M02*
