%TF.GenerationSoftware,KiCad,Pcbnew,(5.1.4)-1*%
%TF.CreationDate,2019-12-19T17:17:14-07:00*%
%TF.ProjectId,ypanel,7970616e-656c-42e6-9b69-6361645f7063,rev?*%
%TF.SameCoordinates,Original*%
%TF.FileFunction,Copper,L4,Inr*%
%TF.FilePolarity,Positive*%
%FSLAX46Y46*%
G04 Gerber Fmt 4.6, Leading zero omitted, Abs format (unit mm)*
G04 Created by KiCad (PCBNEW (5.1.4)-1) date 2019-12-19 17:17:14*
%MOMM*%
%LPD*%
G04 APERTURE LIST*
%ADD10C,0.100000*%
%ADD11C,0.050000*%
%ADD12C,2.032000*%
%ADD13R,2.032000X2.032000*%
%ADD14C,1.000000*%
%ADD15C,1.524000*%
%ADD16C,0.584200*%
%ADD17C,0.800000*%
%ADD18C,0.299720*%
%ADD19C,0.127000*%
G04 APERTURE END LIST*
D10*
X158291000Y-99002479D02*
G75*
G03X158291000Y-99002479I-11000000J0D01*
G01*
X166000000Y-118900000D02*
G75*
G03X166000000Y-118900000I-1100000J0D01*
G01*
X177000000Y-128000000D02*
X177000000Y-70000000D01*
D11*
X126172800Y-118876400D02*
G75*
G03X126172800Y-118876400I-1100000J0D01*
G01*
X126172800Y-79100000D02*
G75*
G03X126172800Y-79100000I-1100000J0D01*
G01*
D10*
X131024564Y-85002478D02*
G75*
G03X131024564Y-85002478I-1029564J0D01*
G01*
X137499564Y-85002478D02*
G75*
G03X137499564Y-85002478I-1029564J0D01*
G01*
X165995000Y-79102480D02*
G75*
G03X165995000Y-79102480I-1100000J0D01*
G01*
X137499564Y-113002480D02*
G75*
G03X137499564Y-113002480I-1029564J0D01*
G01*
X131024564Y-113002480D02*
G75*
G03X131024564Y-113002480I-1029564J0D01*
G01*
X177000000Y-70000000D02*
X113000000Y-70000000D01*
X113000000Y-128000000D02*
X177000000Y-128000000D01*
X113000000Y-70000000D02*
X113000000Y-128000000D01*
D12*
X124764800Y-97691060D03*
D13*
X124764800Y-101546660D03*
D14*
X169717720Y-93723460D03*
X171208700Y-108191300D03*
X169402760Y-108186220D03*
D15*
X128135380Y-108803440D03*
X133215380Y-108803440D03*
X138295380Y-108803440D03*
X138343320Y-89201940D03*
X133243320Y-89201940D03*
X128143320Y-89201940D03*
D16*
X150197820Y-86072980D03*
X144932400Y-78841600D03*
X144373606Y-117043200D03*
X147000000Y-114400000D03*
X168084500Y-100457000D03*
X166751000Y-103187500D03*
X168755844Y-100030260D03*
X167511244Y-100030260D03*
X167566506Y-101006322D03*
X158623000Y-116903500D03*
X154178000Y-118237000D03*
X151892000Y-114617500D03*
X151892000Y-119189500D03*
X156337000Y-119062500D03*
X170624500Y-97980500D03*
X164602160Y-88922860D03*
X166745807Y-98079012D03*
X163372800Y-117500400D03*
X163220400Y-112369600D03*
X154279600Y-111963200D03*
X158140400Y-108153200D03*
X154635200Y-108356400D03*
X158242000Y-114630200D03*
X149453600Y-116840000D03*
X149301200Y-119126000D03*
X158648400Y-119075200D03*
X154178000Y-115798600D03*
X168465500Y-105410000D03*
X170116500Y-98933000D03*
X165933120Y-95034100D03*
X144373600Y-115646200D03*
X165016180Y-87988140D03*
X164312600Y-109220000D03*
X165326844Y-100690660D03*
X158264860Y-84449920D03*
X147891492Y-117094000D03*
X161325108Y-87728617D03*
X147891500Y-115189000D03*
X160464500Y-87820500D03*
X160591500Y-89217500D03*
X146940597Y-83915157D03*
X159575500Y-89979500D03*
X146939000Y-86817200D03*
D17*
X120142000Y-112395000D03*
X123698000Y-120904000D03*
X120142000Y-88392000D03*
X123698000Y-121920000D03*
X120142000Y-87376000D03*
D16*
X146494500Y-85382100D03*
X147497800Y-85382100D03*
X165811200Y-93370400D03*
X164947600Y-93370400D03*
X170784890Y-100643886D03*
X170116500Y-103482122D03*
X160591500Y-96710500D03*
X168211500Y-97790000D03*
X156464000Y-110299500D03*
D18*
X168407080Y-95034100D02*
X169717720Y-93723460D01*
X165933120Y-95034100D02*
X168407080Y-95034100D01*
D19*
X123063000Y-121920000D02*
X123698000Y-121920000D01*
X114173000Y-124333000D02*
X123063000Y-124333000D01*
X114173000Y-74168000D02*
X114173000Y-124333000D01*
X122809000Y-74168000D02*
X114173000Y-74168000D01*
X122809000Y-81153000D02*
X122809000Y-74168000D01*
X126238000Y-81153000D02*
X122809000Y-81153000D01*
X127127000Y-80264000D02*
X126238000Y-81153000D01*
X127127000Y-74168000D02*
X127127000Y-80264000D01*
X162814000Y-74168000D02*
X127127000Y-74168000D01*
X162814000Y-81153000D02*
X162814000Y-74168000D01*
X167132000Y-81153000D02*
X162814000Y-81153000D01*
X167132000Y-74168000D02*
X167132000Y-81153000D01*
X175895000Y-123825000D02*
X175895000Y-74168000D01*
X167132000Y-123825000D02*
X175895000Y-123825000D01*
X167132000Y-116840000D02*
X167132000Y-123825000D01*
X162814000Y-116840000D02*
X167132000Y-116840000D01*
X162814000Y-123825000D02*
X162814000Y-116840000D01*
X127127000Y-123825000D02*
X162814000Y-123825000D01*
X127127000Y-117729000D02*
X127127000Y-123825000D01*
X126238000Y-116840000D02*
X127127000Y-117729000D01*
X122809000Y-116840000D02*
X126238000Y-116840000D01*
X122809000Y-124079000D02*
X122809000Y-116840000D01*
X114427000Y-124079000D02*
X122809000Y-124079000D01*
X114427000Y-74422000D02*
X114427000Y-124079000D01*
X122555000Y-74422000D02*
X114427000Y-74422000D01*
X122555000Y-81407000D02*
X122555000Y-74422000D01*
X126365000Y-81407000D02*
X122555000Y-81407000D01*
X127381000Y-80391000D02*
X126365000Y-81407000D01*
X127381000Y-74422000D02*
X127381000Y-80391000D01*
X162560000Y-74422000D02*
X127381000Y-74422000D01*
X162560000Y-81407000D02*
X162560000Y-74422000D01*
X167386000Y-81407000D02*
X162560000Y-81407000D01*
X167386000Y-74422000D02*
X167386000Y-81407000D01*
X175641000Y-74422000D02*
X167386000Y-74422000D01*
X175641000Y-123571000D02*
X175641000Y-74422000D01*
X167386000Y-123571000D02*
X175641000Y-123571000D01*
X167386000Y-116586000D02*
X167386000Y-123571000D01*
X162560000Y-116586000D02*
X167386000Y-116586000D01*
X162560000Y-123571000D02*
X162560000Y-116586000D01*
X127381000Y-117602000D02*
X127381000Y-123571000D01*
X126365000Y-116586000D02*
X127381000Y-117602000D01*
X122555000Y-116586000D02*
X126365000Y-116586000D01*
X122555000Y-123825000D02*
X122555000Y-116586000D01*
X114681000Y-123825000D02*
X122555000Y-123825000D01*
X114681000Y-74676000D02*
X114681000Y-123825000D01*
X122301000Y-74676000D02*
X114681000Y-74676000D01*
X122301000Y-81661000D02*
X122301000Y-74676000D01*
X126492000Y-81661000D02*
X122301000Y-81661000D01*
X127635000Y-80518000D02*
X126492000Y-81661000D01*
X127635000Y-74676000D02*
X127635000Y-80518000D01*
X162306000Y-74676000D02*
X127635000Y-74676000D01*
X162306000Y-81661000D02*
X162306000Y-74676000D01*
X167640000Y-81661000D02*
X162306000Y-81661000D01*
X167640000Y-74676000D02*
X167640000Y-81661000D01*
X175387000Y-74676000D02*
X167640000Y-74676000D01*
X167640000Y-116332000D02*
X167640000Y-123317000D01*
X162306000Y-123317000D02*
X162306000Y-116332000D01*
X127635000Y-123317000D02*
X162306000Y-123317000D01*
X126492000Y-116332000D02*
X127635000Y-117475000D01*
X122301000Y-116332000D02*
X126492000Y-116332000D01*
X122301000Y-123571000D02*
X122301000Y-116332000D01*
X114935000Y-123571000D02*
X122301000Y-123571000D01*
X114935000Y-74930000D02*
X114935000Y-123571000D01*
X122047000Y-74930000D02*
X114935000Y-74930000D01*
X122047000Y-81915000D02*
X122047000Y-74930000D01*
X126619000Y-81915000D02*
X122047000Y-81915000D01*
X127889000Y-80645000D02*
X126619000Y-81915000D01*
X127889000Y-74930000D02*
X127889000Y-80645000D01*
X162052000Y-74930000D02*
X127889000Y-74930000D01*
X162052000Y-81915000D02*
X162052000Y-74930000D01*
X167894000Y-81915000D02*
X162052000Y-81915000D01*
X167894000Y-74930000D02*
X167894000Y-81915000D01*
X175133000Y-74930000D02*
X167894000Y-74930000D01*
X175133000Y-123063000D02*
X175133000Y-74930000D01*
X167894000Y-123063000D02*
X175133000Y-123063000D01*
X167894000Y-116078000D02*
X167894000Y-123063000D01*
X162052000Y-116078000D02*
X167894000Y-116078000D01*
X162052000Y-123063000D02*
X162052000Y-116078000D01*
X127889000Y-123063000D02*
X162052000Y-123063000D01*
X127889000Y-117348000D02*
X127889000Y-123063000D01*
X126619000Y-116078000D02*
X127889000Y-117348000D01*
X122047000Y-116078000D02*
X126619000Y-116078000D01*
X115189000Y-123317000D02*
X122047000Y-123317000D01*
X115189000Y-75184000D02*
X115189000Y-123317000D01*
X121793000Y-75184000D02*
X115189000Y-75184000D01*
X121793000Y-82169000D02*
X121793000Y-75184000D01*
X126746000Y-82169000D02*
X121793000Y-82169000D01*
X128143000Y-80772000D02*
X126746000Y-82169000D01*
X128143000Y-75184000D02*
X128143000Y-80772000D01*
X161798000Y-75184000D02*
X128143000Y-75184000D01*
X161798000Y-82169000D02*
X161798000Y-75184000D01*
X168148000Y-82169000D02*
X161798000Y-82169000D01*
X168148000Y-75184000D02*
X168148000Y-82169000D01*
X174879000Y-75184000D02*
X168148000Y-75184000D01*
X174879000Y-122809000D02*
X174879000Y-75184000D01*
X168148000Y-122809000D02*
X174879000Y-122809000D01*
X168148000Y-115824000D02*
X168148000Y-122809000D01*
X161798000Y-115824000D02*
X168148000Y-115824000D01*
X161798000Y-122809000D02*
X161798000Y-115824000D01*
X128143000Y-122809000D02*
X161798000Y-122809000D01*
X128143000Y-117221000D02*
X128143000Y-122809000D01*
X126746000Y-115824000D02*
X128143000Y-117221000D01*
X121793000Y-115824000D02*
X126746000Y-115824000D01*
X121793000Y-123063000D02*
X121793000Y-115824000D01*
X115443000Y-123063000D02*
X121793000Y-123063000D01*
X115443000Y-75438000D02*
X115443000Y-123063000D01*
X121539000Y-75438000D02*
X115443000Y-75438000D01*
X121539000Y-82423000D02*
X121539000Y-75438000D01*
X126873000Y-82423000D02*
X121539000Y-82423000D01*
X128397000Y-80899000D02*
X126873000Y-82423000D01*
X128397000Y-75438000D02*
X128397000Y-80899000D01*
X161544000Y-75438000D02*
X128397000Y-75438000D01*
X161544000Y-82423000D02*
X161544000Y-75438000D01*
X168402000Y-82423000D02*
X161544000Y-82423000D01*
X168402000Y-75438000D02*
X168402000Y-82423000D01*
X174625000Y-75438000D02*
X168402000Y-75438000D01*
X174625000Y-122555000D02*
X174625000Y-75438000D01*
X168402000Y-115570000D02*
X168402000Y-122555000D01*
X161544000Y-122555000D02*
X161544000Y-115570000D01*
X128397000Y-117094000D02*
X128397000Y-122555000D01*
X126873000Y-115570000D02*
X128397000Y-117094000D01*
X121539000Y-115570000D02*
X126873000Y-115570000D01*
X121539000Y-122809000D02*
X121539000Y-115570000D01*
X115697000Y-122809000D02*
X121539000Y-122809000D01*
X115697000Y-75692000D02*
X115697000Y-122809000D01*
X121285000Y-75692000D02*
X115697000Y-75692000D01*
X121285000Y-82677000D02*
X121285000Y-75692000D01*
X127000000Y-82677000D02*
X121285000Y-82677000D01*
X128651000Y-75692000D02*
X128651000Y-81026000D01*
X161290000Y-75692000D02*
X128651000Y-75692000D01*
X161290000Y-82677000D02*
X161290000Y-75692000D01*
X168656000Y-82677000D02*
X161290000Y-82677000D01*
X168656000Y-75692000D02*
X168656000Y-82677000D01*
X174371000Y-75692000D02*
X168656000Y-75692000D01*
X174371000Y-122301000D02*
X174371000Y-75692000D01*
X168656000Y-122301000D02*
X174371000Y-122301000D01*
X168656000Y-115316000D02*
X168656000Y-122301000D01*
X161290000Y-122301000D02*
X161290000Y-115316000D01*
X128651000Y-122301000D02*
X161290000Y-122301000D01*
X128651000Y-116967000D02*
X128651000Y-122301000D01*
X127000000Y-115316000D02*
X128651000Y-116967000D01*
X121285000Y-115316000D02*
X127000000Y-115316000D01*
X121285000Y-122555000D02*
X121285000Y-115316000D01*
X115951000Y-122555000D02*
X121285000Y-122555000D01*
X115951000Y-75946000D02*
X115951000Y-122555000D01*
X121031000Y-75946000D02*
X115951000Y-75946000D01*
X121031000Y-82931000D02*
X121031000Y-75946000D01*
X127127000Y-82931000D02*
X121031000Y-82931000D01*
X128905000Y-81153000D02*
X127127000Y-82931000D01*
X128905000Y-75946000D02*
X128905000Y-81153000D01*
X161036000Y-82931000D02*
X161036000Y-75946000D01*
X168910000Y-82931000D02*
X161036000Y-82931000D01*
X168910000Y-75946000D02*
X168910000Y-82931000D01*
X174117000Y-75946000D02*
X168910000Y-75946000D01*
X169926000Y-121031000D02*
X173101000Y-121031000D01*
X160020000Y-114046000D02*
X169926000Y-114046000D01*
X160020000Y-121031000D02*
X160020000Y-114046000D01*
X121031000Y-122301000D02*
X121031000Y-115062000D01*
X129921000Y-121031000D02*
X160020000Y-121031000D01*
X127635000Y-114046000D02*
X129921000Y-116332000D01*
X127635000Y-117475000D02*
X127635000Y-123317000D01*
X130683000Y-120269000D02*
X159258000Y-120269000D01*
X168910000Y-122047000D02*
X174117000Y-122047000D01*
X120015000Y-114046000D02*
X127635000Y-114046000D01*
X120015000Y-121285000D02*
X120015000Y-114046000D01*
X117221000Y-121285000D02*
X120015000Y-121285000D01*
X117221000Y-77216000D02*
X117221000Y-121285000D01*
X119761000Y-77216000D02*
X117221000Y-77216000D01*
X119761000Y-84201000D02*
X119761000Y-77216000D01*
X130175000Y-81788000D02*
X127762000Y-84201000D01*
X130175000Y-77216000D02*
X130175000Y-81788000D01*
X159766000Y-77216000D02*
X130175000Y-77216000D01*
X159766000Y-84201000D02*
X159766000Y-77216000D01*
X170180000Y-84201000D02*
X159766000Y-84201000D01*
X170180000Y-77216000D02*
X170180000Y-84201000D01*
X172847000Y-77216000D02*
X170180000Y-77216000D01*
X170180000Y-120777000D02*
X172847000Y-120777000D01*
X122047000Y-123317000D02*
X122047000Y-116078000D01*
X120142000Y-112395000D02*
X119380000Y-112395000D01*
X170180000Y-113792000D02*
X170180000Y-120777000D01*
X159766000Y-113792000D02*
X170180000Y-113792000D01*
X130175000Y-120777000D02*
X159766000Y-120777000D01*
X170688000Y-113284000D02*
X170688000Y-120269000D01*
X130175000Y-116205000D02*
X130175000Y-120777000D01*
X127762000Y-113792000D02*
X130175000Y-116205000D01*
X119761000Y-113792000D02*
X127762000Y-113792000D01*
X119761000Y-121031000D02*
X119761000Y-113792000D01*
X117475000Y-121031000D02*
X119761000Y-121031000D01*
X117475000Y-77470000D02*
X117475000Y-121031000D01*
X119507000Y-77470000D02*
X117475000Y-77470000D01*
X119380000Y-112395000D02*
X119253000Y-112522000D01*
X119507000Y-84455000D02*
X119507000Y-77470000D01*
X127889000Y-84455000D02*
X119507000Y-84455000D01*
X130429000Y-77470000D02*
X130429000Y-81915000D01*
X159512000Y-77470000D02*
X130429000Y-77470000D01*
X159512000Y-84455000D02*
X159512000Y-77470000D01*
X127381000Y-123571000D02*
X162560000Y-123571000D01*
X119253000Y-112522000D02*
X119253000Y-113284000D01*
X170434000Y-84455000D02*
X159512000Y-84455000D01*
X169926000Y-114046000D02*
X169926000Y-121031000D01*
X120777000Y-114808000D02*
X127254000Y-114808000D01*
X128397000Y-122555000D02*
X161544000Y-122555000D01*
X170688000Y-84709000D02*
X159258000Y-84709000D01*
X120523000Y-76454000D02*
X116459000Y-76454000D01*
X130429000Y-81915000D02*
X127889000Y-84455000D01*
X175387000Y-123317000D02*
X175387000Y-74676000D01*
X159258000Y-120269000D02*
X159258000Y-113284000D01*
X159512000Y-120523000D02*
X159512000Y-113538000D01*
X127762000Y-84201000D02*
X119761000Y-84201000D01*
X119507000Y-113538000D02*
X127889000Y-113538000D01*
X172593000Y-120523000D02*
X172593000Y-77470000D01*
X162306000Y-116332000D02*
X167640000Y-116332000D01*
X159258000Y-113284000D02*
X170688000Y-113284000D01*
X128905000Y-116840000D02*
X128905000Y-122047000D01*
X119253000Y-77724000D02*
X117729000Y-77724000D01*
X172847000Y-120777000D02*
X172847000Y-77216000D01*
X128651000Y-81026000D02*
X127000000Y-82677000D01*
X172339000Y-120269000D02*
X172339000Y-77724000D01*
X129413000Y-116586000D02*
X129413000Y-121539000D01*
X173101000Y-121031000D02*
X173101000Y-76962000D01*
X127381000Y-83439000D02*
X120523000Y-83439000D01*
X172593000Y-77470000D02*
X170434000Y-77470000D01*
X175895000Y-74168000D02*
X167132000Y-74168000D01*
X119253000Y-113284000D02*
X128016000Y-113284000D01*
X159512000Y-113538000D02*
X170434000Y-113538000D01*
X161036000Y-75946000D02*
X128905000Y-75946000D01*
X170688000Y-77724000D02*
X170688000Y-84709000D01*
X173355000Y-76708000D02*
X169672000Y-76708000D01*
X161290000Y-115316000D02*
X168656000Y-115316000D01*
X172339000Y-77724000D02*
X170688000Y-77724000D01*
X160274000Y-83693000D02*
X160274000Y-76708000D01*
X117729000Y-120777000D02*
X119507000Y-120777000D01*
X119507000Y-120777000D02*
X119507000Y-113538000D01*
X129921000Y-116332000D02*
X129921000Y-121031000D01*
X123063000Y-124333000D02*
X123063000Y-121920000D01*
X130683000Y-115951000D02*
X130683000Y-120269000D01*
X129667000Y-116459000D02*
X129667000Y-121285000D01*
X130429000Y-116078000D02*
X130429000Y-120523000D01*
X161544000Y-115570000D02*
X168402000Y-115570000D01*
X159258000Y-77724000D02*
X130683000Y-77724000D01*
X127508000Y-114300000D02*
X129667000Y-116459000D01*
X159766000Y-120777000D02*
X159766000Y-113792000D01*
X167640000Y-123317000D02*
X175387000Y-123317000D01*
X128016000Y-113284000D02*
X130683000Y-115951000D01*
X130429000Y-120523000D02*
X159512000Y-120523000D01*
X117729000Y-77724000D02*
X117729000Y-120777000D01*
X127889000Y-113538000D02*
X130429000Y-116078000D01*
X170434000Y-113538000D02*
X170434000Y-120523000D01*
X168402000Y-122555000D02*
X174625000Y-122555000D01*
X130683000Y-77724000D02*
X130683000Y-82042000D01*
X160274000Y-121285000D02*
X160274000Y-114300000D01*
X170434000Y-120523000D02*
X172593000Y-120523000D01*
X170434000Y-77470000D02*
X170434000Y-84455000D01*
X173101000Y-76962000D02*
X169926000Y-76962000D01*
X120777000Y-76200000D02*
X116205000Y-76200000D01*
X169926000Y-76962000D02*
X169926000Y-83947000D01*
X129159000Y-76200000D02*
X129159000Y-81280000D01*
X169926000Y-83947000D02*
X160020000Y-83947000D01*
X160020000Y-83947000D02*
X160020000Y-76962000D01*
X160020000Y-76962000D02*
X129921000Y-76962000D01*
X129921000Y-76962000D02*
X129921000Y-81661000D01*
X129921000Y-81661000D02*
X127635000Y-83947000D01*
X127635000Y-83947000D02*
X120015000Y-83947000D01*
X120015000Y-83947000D02*
X120015000Y-76962000D01*
X120015000Y-76962000D02*
X116967000Y-76962000D01*
X119253000Y-84709000D02*
X119253000Y-77724000D01*
X116967000Y-76962000D02*
X116967000Y-121539000D01*
X116967000Y-121539000D02*
X120269000Y-121539000D01*
X120269000Y-121539000D02*
X120269000Y-114300000D01*
X120269000Y-114300000D02*
X127508000Y-114300000D01*
X129667000Y-121285000D02*
X160274000Y-121285000D01*
X160274000Y-114300000D02*
X169672000Y-114300000D01*
X128016000Y-84709000D02*
X119253000Y-84709000D01*
X169672000Y-114300000D02*
X169672000Y-121285000D01*
X169672000Y-121285000D02*
X173355000Y-121285000D01*
X173355000Y-121285000D02*
X173355000Y-76708000D01*
X169672000Y-76708000D02*
X169672000Y-83693000D01*
X169672000Y-83693000D02*
X160274000Y-83693000D01*
X160274000Y-76708000D02*
X129667000Y-76708000D01*
X129667000Y-76708000D02*
X129667000Y-81534000D01*
X129667000Y-81534000D02*
X127508000Y-83693000D01*
X127508000Y-83693000D02*
X120269000Y-83693000D01*
X120269000Y-83693000D02*
X120269000Y-76708000D01*
X120269000Y-76708000D02*
X116713000Y-76708000D01*
X116713000Y-76708000D02*
X116713000Y-121793000D01*
X116713000Y-121793000D02*
X120523000Y-121793000D01*
X120523000Y-121793000D02*
X120523000Y-114554000D01*
X120523000Y-114554000D02*
X127381000Y-114554000D01*
X127381000Y-114554000D02*
X129413000Y-116586000D01*
X129413000Y-121539000D02*
X160528000Y-121539000D01*
X160528000Y-121539000D02*
X160528000Y-114554000D01*
X160528000Y-114554000D02*
X169418000Y-114554000D01*
X169418000Y-114554000D02*
X169418000Y-121539000D01*
X169418000Y-121539000D02*
X173609000Y-121539000D01*
X173609000Y-121539000D02*
X173609000Y-76454000D01*
X173609000Y-76454000D02*
X169418000Y-76454000D01*
X169418000Y-76454000D02*
X169418000Y-83439000D01*
X169418000Y-83439000D02*
X160528000Y-83439000D01*
X160528000Y-83439000D02*
X160528000Y-76454000D01*
X160528000Y-76454000D02*
X129413000Y-76454000D01*
X129413000Y-76454000D02*
X129413000Y-81407000D01*
X129413000Y-81407000D02*
X127381000Y-83439000D01*
X120523000Y-83439000D02*
X120523000Y-76454000D01*
X116459000Y-76454000D02*
X116459000Y-122047000D01*
X116459000Y-122047000D02*
X120777000Y-122047000D01*
X120777000Y-122047000D02*
X120777000Y-114808000D01*
X127254000Y-114808000D02*
X129159000Y-116713000D01*
X129159000Y-116713000D02*
X129159000Y-121793000D01*
X130683000Y-82042000D02*
X128016000Y-84709000D01*
X129159000Y-121793000D02*
X160782000Y-121793000D01*
X160782000Y-121793000D02*
X160782000Y-114808000D01*
X160782000Y-114808000D02*
X169164000Y-114808000D01*
X169164000Y-114808000D02*
X169164000Y-121793000D01*
X169164000Y-121793000D02*
X173863000Y-121793000D01*
X173863000Y-121793000D02*
X173863000Y-76200000D01*
X173863000Y-76200000D02*
X169164000Y-76200000D01*
X169164000Y-76200000D02*
X169164000Y-83185000D01*
X169164000Y-83185000D02*
X160782000Y-83185000D01*
X160782000Y-83185000D02*
X160782000Y-76200000D01*
X160782000Y-76200000D02*
X129159000Y-76200000D01*
X129159000Y-81280000D02*
X127254000Y-83185000D01*
X127254000Y-83185000D02*
X120777000Y-83185000D01*
X120777000Y-83185000D02*
X120777000Y-76200000D01*
X116205000Y-76200000D02*
X116205000Y-122301000D01*
X116205000Y-122301000D02*
X121031000Y-122301000D01*
X121031000Y-115062000D02*
X127127000Y-115062000D01*
X170688000Y-120269000D02*
X172339000Y-120269000D01*
X127127000Y-115062000D02*
X128905000Y-116840000D01*
X128905000Y-122047000D02*
X161036000Y-122047000D01*
X161036000Y-122047000D02*
X161036000Y-115062000D01*
X161036000Y-115062000D02*
X168910000Y-115062000D01*
X168910000Y-115062000D02*
X168910000Y-122047000D01*
X159258000Y-84709000D02*
X159258000Y-77724000D01*
X174117000Y-122047000D02*
X174117000Y-75946000D01*
D18*
X167132000Y-96710500D02*
X160591500Y-96710500D01*
X168211500Y-97790000D02*
X167132000Y-96710500D01*
M02*
