%TF.GenerationSoftware,KiCad,Pcbnew,(5.1.4)-1*%
%TF.CreationDate,2019-12-19T17:17:14-07:00*%
%TF.ProjectId,ypanel,7970616e-656c-42e6-9b69-6361645f7063,rev?*%
%TF.SameCoordinates,Original*%
%TF.FileFunction,Soldermask,Top*%
%TF.FilePolarity,Negative*%
%FSLAX46Y46*%
G04 Gerber Fmt 4.6, Leading zero omitted, Abs format (unit mm)*
G04 Created by KiCad (PCBNEW (5.1.4)-1) date 2019-12-19 17:17:14*
%MOMM*%
%LPD*%
G04 APERTURE LIST*
%ADD10C,0.300000*%
%ADD11C,0.100000*%
%ADD12C,0.050000*%
%ADD13R,7.501600X2.101600*%
%ADD14C,2.133600*%
%ADD15R,2.159000X2.159000*%
%ADD16C,1.101600*%
%ADD17C,1.625600*%
%ADD18R,1.101600X0.801600*%
%ADD19R,2.801600X1.501600*%
%ADD20R,1.501600X1.501600*%
%ADD21R,3.301600X3.301600*%
%ADD22R,2.301600X2.301600*%
%ADD23R,2.101600X7.501600*%
%ADD24C,0.691600*%
G04 APERTURE END LIST*
D10*
X134941428Y-97706085D02*
X133941428Y-98063228D01*
X134941428Y-98420371D01*
X135441428Y-99277514D02*
X135441428Y-99420371D01*
X135370000Y-99563228D01*
X135298571Y-99634657D01*
X135155714Y-99706085D01*
X134870000Y-99777514D01*
X134512857Y-99777514D01*
X134227142Y-99706085D01*
X134084285Y-99634657D01*
X134012857Y-99563228D01*
X133941428Y-99420371D01*
X133941428Y-99277514D01*
X134012857Y-99134657D01*
X134084285Y-99063228D01*
X134227142Y-98991800D01*
X134512857Y-98920371D01*
X134870000Y-98920371D01*
X135155714Y-98991800D01*
X135298571Y-99063228D01*
X135370000Y-99134657D01*
X135441428Y-99277514D01*
X133941428Y-101206085D02*
X133941428Y-100348942D01*
X133941428Y-100777514D02*
X135441428Y-100777514D01*
X135227142Y-100634657D01*
X135084285Y-100491800D01*
X135012857Y-100348942D01*
D11*
X158291000Y-99002479D02*
G75*
G03X158291000Y-99002479I-11000000J0D01*
G01*
X166000000Y-118900000D02*
G75*
G03X166000000Y-118900000I-1100000J0D01*
G01*
X177000000Y-128000000D02*
X177000000Y-70000000D01*
D12*
X126172800Y-118876400D02*
G75*
G03X126172800Y-118876400I-1100000J0D01*
G01*
X126172800Y-79100000D02*
G75*
G03X126172800Y-79100000I-1100000J0D01*
G01*
D11*
X131024564Y-85002478D02*
G75*
G03X131024564Y-85002478I-1029564J0D01*
G01*
X137499564Y-85002478D02*
G75*
G03X137499564Y-85002478I-1029564J0D01*
G01*
X165995000Y-79102480D02*
G75*
G03X165995000Y-79102480I-1100000J0D01*
G01*
X137499564Y-113002480D02*
G75*
G03X137499564Y-113002480I-1029564J0D01*
G01*
X131024564Y-113002480D02*
G75*
G03X131024564Y-113002480I-1029564J0D01*
G01*
X177000000Y-70000000D02*
X113000000Y-70000000D01*
X113000000Y-128000000D02*
X177000000Y-128000000D01*
X113000000Y-70000000D02*
X113000000Y-128000000D01*
G36*
X158080180Y-118570480D02*
G01*
X158080180Y-115170480D01*
X154680180Y-115170480D01*
X154680180Y-118570480D01*
X158080180Y-118570480D01*
G37*
X158080180Y-118570480D02*
X158080180Y-115170480D01*
X154680180Y-115170480D01*
X154680180Y-118570480D01*
X158080180Y-118570480D01*
G36*
X162580180Y-123070480D02*
G01*
X162580180Y-119670480D01*
X159180180Y-119670480D01*
X159180180Y-123070480D01*
X162580180Y-123070480D01*
G37*
X162580180Y-123070480D02*
X162580180Y-119670480D01*
X159180180Y-119670480D01*
X159180180Y-123070480D01*
X162580180Y-123070480D01*
G36*
X158080180Y-123070480D02*
G01*
X158080180Y-119670480D01*
X154680180Y-119670480D01*
X154680180Y-123070480D01*
X158080180Y-123070480D01*
G37*
X158080180Y-123070480D02*
X158080180Y-119670480D01*
X154680180Y-119670480D01*
X154680180Y-123070480D01*
X158080180Y-123070480D01*
G36*
X153580180Y-123070480D02*
G01*
X153580180Y-119670480D01*
X150180180Y-119670480D01*
X150180180Y-123070480D01*
X153580180Y-123070480D01*
G37*
X153580180Y-123070480D02*
X153580180Y-119670480D01*
X150180180Y-119670480D01*
X150180180Y-123070480D01*
X153580180Y-123070480D01*
G36*
X162580180Y-118570480D02*
G01*
X162580180Y-115170480D01*
X159180180Y-115170480D01*
X159180180Y-118570480D01*
X162580180Y-118570480D01*
G37*
X162580180Y-118570480D02*
X162580180Y-115170480D01*
X159180180Y-115170480D01*
X159180180Y-118570480D01*
X162580180Y-118570480D01*
G36*
X153580180Y-118570480D02*
G01*
X153580180Y-115170480D01*
X150180180Y-115170480D01*
X150180180Y-118570480D01*
X153580180Y-118570480D01*
G37*
X153580180Y-118570480D02*
X153580180Y-115170480D01*
X150180180Y-115170480D01*
X150180180Y-118570480D01*
X153580180Y-118570480D01*
G36*
X153580180Y-114070480D02*
G01*
X153580180Y-110670480D01*
X150180180Y-110670480D01*
X150180180Y-114070480D01*
X153580180Y-114070480D01*
G37*
X153580180Y-114070480D02*
X153580180Y-110670480D01*
X150180180Y-110670480D01*
X150180180Y-114070480D01*
X153580180Y-114070480D01*
G36*
X162580180Y-114070480D02*
G01*
X162580180Y-110670480D01*
X159180180Y-110670480D01*
X159180180Y-114070480D01*
X162580180Y-114070480D01*
G37*
X162580180Y-114070480D02*
X162580180Y-110670480D01*
X159180180Y-110670480D01*
X159180180Y-114070480D01*
X162580180Y-114070480D01*
G36*
X157580180Y-111570480D02*
G01*
X157580180Y-109170480D01*
X155180180Y-109170480D01*
X155180180Y-111570480D01*
X157580180Y-111570480D01*
G37*
X157580180Y-111570480D02*
X157580180Y-109170480D01*
X155180180Y-109170480D01*
X155180180Y-111570480D01*
X157580180Y-111570480D01*
D13*
X163098480Y-86114340D03*
X163098480Y-107114340D03*
D14*
X124764800Y-97691060D03*
D15*
X124764800Y-101546660D03*
D16*
X169717720Y-93723460D03*
X171208700Y-108191300D03*
X169402760Y-108186220D03*
D17*
X128135380Y-108803440D03*
X133215380Y-108803440D03*
X138295380Y-108803440D03*
X138343320Y-89201940D03*
X133243320Y-89201940D03*
X128143320Y-89201940D03*
D18*
X146204600Y-115648700D03*
X146204600Y-116598700D03*
X146204600Y-117548700D03*
X143304600Y-117548700D03*
X143304600Y-116598700D03*
X143304600Y-115648700D03*
D19*
X172663000Y-99123500D03*
D20*
X175713000Y-99123500D03*
D19*
X117545000Y-99250500D03*
D20*
X120595000Y-99250500D03*
D21*
X160880180Y-121370480D03*
X156380180Y-121370480D03*
X151880180Y-121370480D03*
X160880180Y-116870480D03*
X156380180Y-116870480D03*
X151880180Y-116870480D03*
X160880180Y-112370480D03*
D22*
X156380180Y-110370480D03*
D21*
X151880180Y-112370480D03*
D13*
X119000000Y-75000000D03*
X119000000Y-96000000D03*
X171742100Y-102063000D03*
X171742100Y-123063000D03*
D23*
X141420300Y-78920340D03*
X162420300Y-78920340D03*
D13*
X119000000Y-123000000D03*
X119000000Y-102000000D03*
X171686220Y-74890080D03*
X171686220Y-95890080D03*
D11*
G36*
X126023847Y-108215033D02*
G01*
X126040631Y-108217522D01*
X126057090Y-108221645D01*
X126073066Y-108227361D01*
X126088404Y-108234616D01*
X126102958Y-108243339D01*
X126116587Y-108253446D01*
X126129159Y-108264841D01*
X126140554Y-108277413D01*
X126150661Y-108291042D01*
X126159384Y-108305596D01*
X126166639Y-108320934D01*
X126172355Y-108336910D01*
X126176478Y-108353369D01*
X126178967Y-108370153D01*
X126179800Y-108387100D01*
X126179800Y-108782900D01*
X126178967Y-108799847D01*
X126176478Y-108816631D01*
X126172355Y-108833090D01*
X126166639Y-108849066D01*
X126159384Y-108864404D01*
X126150661Y-108878958D01*
X126140554Y-108892587D01*
X126129159Y-108905159D01*
X126116587Y-108916554D01*
X126102958Y-108926661D01*
X126088404Y-108935384D01*
X126073066Y-108942639D01*
X126057090Y-108948355D01*
X126040631Y-108952478D01*
X126023847Y-108954967D01*
X126006900Y-108955800D01*
X125661100Y-108955800D01*
X125644153Y-108954967D01*
X125627369Y-108952478D01*
X125610910Y-108948355D01*
X125594934Y-108942639D01*
X125579596Y-108935384D01*
X125565042Y-108926661D01*
X125551413Y-108916554D01*
X125538841Y-108905159D01*
X125527446Y-108892587D01*
X125517339Y-108878958D01*
X125508616Y-108864404D01*
X125501361Y-108849066D01*
X125495645Y-108833090D01*
X125491522Y-108816631D01*
X125489033Y-108799847D01*
X125488200Y-108782900D01*
X125488200Y-108387100D01*
X125489033Y-108370153D01*
X125491522Y-108353369D01*
X125495645Y-108336910D01*
X125501361Y-108320934D01*
X125508616Y-108305596D01*
X125517339Y-108291042D01*
X125527446Y-108277413D01*
X125538841Y-108264841D01*
X125551413Y-108253446D01*
X125565042Y-108243339D01*
X125579596Y-108234616D01*
X125594934Y-108227361D01*
X125610910Y-108221645D01*
X125627369Y-108217522D01*
X125644153Y-108215033D01*
X125661100Y-108214200D01*
X126006900Y-108214200D01*
X126023847Y-108215033D01*
X126023847Y-108215033D01*
G37*
D24*
X125834000Y-108585000D03*
D11*
G36*
X125053847Y-108215033D02*
G01*
X125070631Y-108217522D01*
X125087090Y-108221645D01*
X125103066Y-108227361D01*
X125118404Y-108234616D01*
X125132958Y-108243339D01*
X125146587Y-108253446D01*
X125159159Y-108264841D01*
X125170554Y-108277413D01*
X125180661Y-108291042D01*
X125189384Y-108305596D01*
X125196639Y-108320934D01*
X125202355Y-108336910D01*
X125206478Y-108353369D01*
X125208967Y-108370153D01*
X125209800Y-108387100D01*
X125209800Y-108782900D01*
X125208967Y-108799847D01*
X125206478Y-108816631D01*
X125202355Y-108833090D01*
X125196639Y-108849066D01*
X125189384Y-108864404D01*
X125180661Y-108878958D01*
X125170554Y-108892587D01*
X125159159Y-108905159D01*
X125146587Y-108916554D01*
X125132958Y-108926661D01*
X125118404Y-108935384D01*
X125103066Y-108942639D01*
X125087090Y-108948355D01*
X125070631Y-108952478D01*
X125053847Y-108954967D01*
X125036900Y-108955800D01*
X124691100Y-108955800D01*
X124674153Y-108954967D01*
X124657369Y-108952478D01*
X124640910Y-108948355D01*
X124624934Y-108942639D01*
X124609596Y-108935384D01*
X124595042Y-108926661D01*
X124581413Y-108916554D01*
X124568841Y-108905159D01*
X124557446Y-108892587D01*
X124547339Y-108878958D01*
X124538616Y-108864404D01*
X124531361Y-108849066D01*
X124525645Y-108833090D01*
X124521522Y-108816631D01*
X124519033Y-108799847D01*
X124518200Y-108782900D01*
X124518200Y-108387100D01*
X124519033Y-108370153D01*
X124521522Y-108353369D01*
X124525645Y-108336910D01*
X124531361Y-108320934D01*
X124538616Y-108305596D01*
X124547339Y-108291042D01*
X124557446Y-108277413D01*
X124568841Y-108264841D01*
X124581413Y-108253446D01*
X124595042Y-108243339D01*
X124609596Y-108234616D01*
X124624934Y-108227361D01*
X124640910Y-108221645D01*
X124657369Y-108217522D01*
X124674153Y-108215033D01*
X124691100Y-108214200D01*
X125036900Y-108214200D01*
X125053847Y-108215033D01*
X125053847Y-108215033D01*
G37*
D24*
X124864000Y-108585000D03*
D11*
G36*
X144586447Y-114006233D02*
G01*
X144603231Y-114008722D01*
X144619690Y-114012845D01*
X144635666Y-114018561D01*
X144651004Y-114025816D01*
X144665558Y-114034539D01*
X144679187Y-114044646D01*
X144691759Y-114056041D01*
X144703154Y-114068613D01*
X144713261Y-114082242D01*
X144721984Y-114096796D01*
X144729239Y-114112134D01*
X144734955Y-114128110D01*
X144739078Y-114144569D01*
X144741567Y-114161353D01*
X144742400Y-114178300D01*
X144742400Y-114574100D01*
X144741567Y-114591047D01*
X144739078Y-114607831D01*
X144734955Y-114624290D01*
X144729239Y-114640266D01*
X144721984Y-114655604D01*
X144713261Y-114670158D01*
X144703154Y-114683787D01*
X144691759Y-114696359D01*
X144679187Y-114707754D01*
X144665558Y-114717861D01*
X144651004Y-114726584D01*
X144635666Y-114733839D01*
X144619690Y-114739555D01*
X144603231Y-114743678D01*
X144586447Y-114746167D01*
X144569500Y-114747000D01*
X144223700Y-114747000D01*
X144206753Y-114746167D01*
X144189969Y-114743678D01*
X144173510Y-114739555D01*
X144157534Y-114733839D01*
X144142196Y-114726584D01*
X144127642Y-114717861D01*
X144114013Y-114707754D01*
X144101441Y-114696359D01*
X144090046Y-114683787D01*
X144079939Y-114670158D01*
X144071216Y-114655604D01*
X144063961Y-114640266D01*
X144058245Y-114624290D01*
X144054122Y-114607831D01*
X144051633Y-114591047D01*
X144050800Y-114574100D01*
X144050800Y-114178300D01*
X144051633Y-114161353D01*
X144054122Y-114144569D01*
X144058245Y-114128110D01*
X144063961Y-114112134D01*
X144071216Y-114096796D01*
X144079939Y-114082242D01*
X144090046Y-114068613D01*
X144101441Y-114056041D01*
X144114013Y-114044646D01*
X144127642Y-114034539D01*
X144142196Y-114025816D01*
X144157534Y-114018561D01*
X144173510Y-114012845D01*
X144189969Y-114008722D01*
X144206753Y-114006233D01*
X144223700Y-114005400D01*
X144569500Y-114005400D01*
X144586447Y-114006233D01*
X144586447Y-114006233D01*
G37*
D24*
X144396600Y-114376200D03*
D11*
G36*
X145556447Y-114006233D02*
G01*
X145573231Y-114008722D01*
X145589690Y-114012845D01*
X145605666Y-114018561D01*
X145621004Y-114025816D01*
X145635558Y-114034539D01*
X145649187Y-114044646D01*
X145661759Y-114056041D01*
X145673154Y-114068613D01*
X145683261Y-114082242D01*
X145691984Y-114096796D01*
X145699239Y-114112134D01*
X145704955Y-114128110D01*
X145709078Y-114144569D01*
X145711567Y-114161353D01*
X145712400Y-114178300D01*
X145712400Y-114574100D01*
X145711567Y-114591047D01*
X145709078Y-114607831D01*
X145704955Y-114624290D01*
X145699239Y-114640266D01*
X145691984Y-114655604D01*
X145683261Y-114670158D01*
X145673154Y-114683787D01*
X145661759Y-114696359D01*
X145649187Y-114707754D01*
X145635558Y-114717861D01*
X145621004Y-114726584D01*
X145605666Y-114733839D01*
X145589690Y-114739555D01*
X145573231Y-114743678D01*
X145556447Y-114746167D01*
X145539500Y-114747000D01*
X145193700Y-114747000D01*
X145176753Y-114746167D01*
X145159969Y-114743678D01*
X145143510Y-114739555D01*
X145127534Y-114733839D01*
X145112196Y-114726584D01*
X145097642Y-114717861D01*
X145084013Y-114707754D01*
X145071441Y-114696359D01*
X145060046Y-114683787D01*
X145049939Y-114670158D01*
X145041216Y-114655604D01*
X145033961Y-114640266D01*
X145028245Y-114624290D01*
X145024122Y-114607831D01*
X145021633Y-114591047D01*
X145020800Y-114574100D01*
X145020800Y-114178300D01*
X145021633Y-114161353D01*
X145024122Y-114144569D01*
X145028245Y-114128110D01*
X145033961Y-114112134D01*
X145041216Y-114096796D01*
X145049939Y-114082242D01*
X145060046Y-114068613D01*
X145071441Y-114056041D01*
X145084013Y-114044646D01*
X145097642Y-114034539D01*
X145112196Y-114025816D01*
X145127534Y-114018561D01*
X145143510Y-114012845D01*
X145159969Y-114008722D01*
X145176753Y-114006233D01*
X145193700Y-114005400D01*
X145539500Y-114005400D01*
X145556447Y-114006233D01*
X145556447Y-114006233D01*
G37*
D24*
X145366600Y-114376200D03*
D11*
G36*
X147151847Y-84313633D02*
G01*
X147168631Y-84316122D01*
X147185090Y-84320245D01*
X147201066Y-84325961D01*
X147216404Y-84333216D01*
X147230958Y-84341939D01*
X147244587Y-84352046D01*
X147257159Y-84363441D01*
X147268554Y-84376013D01*
X147278661Y-84389642D01*
X147287384Y-84404196D01*
X147294639Y-84419534D01*
X147300355Y-84435510D01*
X147304478Y-84451969D01*
X147306967Y-84468753D01*
X147307800Y-84485700D01*
X147307800Y-84881500D01*
X147306967Y-84898447D01*
X147304478Y-84915231D01*
X147300355Y-84931690D01*
X147294639Y-84947666D01*
X147287384Y-84963004D01*
X147278661Y-84977558D01*
X147268554Y-84991187D01*
X147257159Y-85003759D01*
X147244587Y-85015154D01*
X147230958Y-85025261D01*
X147216404Y-85033984D01*
X147201066Y-85041239D01*
X147185090Y-85046955D01*
X147168631Y-85051078D01*
X147151847Y-85053567D01*
X147134900Y-85054400D01*
X146789100Y-85054400D01*
X146772153Y-85053567D01*
X146755369Y-85051078D01*
X146738910Y-85046955D01*
X146722934Y-85041239D01*
X146707596Y-85033984D01*
X146693042Y-85025261D01*
X146679413Y-85015154D01*
X146666841Y-85003759D01*
X146655446Y-84991187D01*
X146645339Y-84977558D01*
X146636616Y-84963004D01*
X146629361Y-84947666D01*
X146623645Y-84931690D01*
X146619522Y-84915231D01*
X146617033Y-84898447D01*
X146616200Y-84881500D01*
X146616200Y-84485700D01*
X146617033Y-84468753D01*
X146619522Y-84451969D01*
X146623645Y-84435510D01*
X146629361Y-84419534D01*
X146636616Y-84404196D01*
X146645339Y-84389642D01*
X146655446Y-84376013D01*
X146666841Y-84363441D01*
X146679413Y-84352046D01*
X146693042Y-84341939D01*
X146707596Y-84333216D01*
X146722934Y-84325961D01*
X146738910Y-84320245D01*
X146755369Y-84316122D01*
X146772153Y-84313633D01*
X146789100Y-84312800D01*
X147134900Y-84312800D01*
X147151847Y-84313633D01*
X147151847Y-84313633D01*
G37*
D24*
X146962000Y-84683600D03*
D11*
G36*
X148121847Y-84313633D02*
G01*
X148138631Y-84316122D01*
X148155090Y-84320245D01*
X148171066Y-84325961D01*
X148186404Y-84333216D01*
X148200958Y-84341939D01*
X148214587Y-84352046D01*
X148227159Y-84363441D01*
X148238554Y-84376013D01*
X148248661Y-84389642D01*
X148257384Y-84404196D01*
X148264639Y-84419534D01*
X148270355Y-84435510D01*
X148274478Y-84451969D01*
X148276967Y-84468753D01*
X148277800Y-84485700D01*
X148277800Y-84881500D01*
X148276967Y-84898447D01*
X148274478Y-84915231D01*
X148270355Y-84931690D01*
X148264639Y-84947666D01*
X148257384Y-84963004D01*
X148248661Y-84977558D01*
X148238554Y-84991187D01*
X148227159Y-85003759D01*
X148214587Y-85015154D01*
X148200958Y-85025261D01*
X148186404Y-85033984D01*
X148171066Y-85041239D01*
X148155090Y-85046955D01*
X148138631Y-85051078D01*
X148121847Y-85053567D01*
X148104900Y-85054400D01*
X147759100Y-85054400D01*
X147742153Y-85053567D01*
X147725369Y-85051078D01*
X147708910Y-85046955D01*
X147692934Y-85041239D01*
X147677596Y-85033984D01*
X147663042Y-85025261D01*
X147649413Y-85015154D01*
X147636841Y-85003759D01*
X147625446Y-84991187D01*
X147615339Y-84977558D01*
X147606616Y-84963004D01*
X147599361Y-84947666D01*
X147593645Y-84931690D01*
X147589522Y-84915231D01*
X147587033Y-84898447D01*
X147586200Y-84881500D01*
X147586200Y-84485700D01*
X147587033Y-84468753D01*
X147589522Y-84451969D01*
X147593645Y-84435510D01*
X147599361Y-84419534D01*
X147606616Y-84404196D01*
X147615339Y-84389642D01*
X147625446Y-84376013D01*
X147636841Y-84363441D01*
X147649413Y-84352046D01*
X147663042Y-84341939D01*
X147677596Y-84333216D01*
X147692934Y-84325961D01*
X147708910Y-84320245D01*
X147725369Y-84316122D01*
X147742153Y-84313633D01*
X147759100Y-84312800D01*
X148104900Y-84312800D01*
X148121847Y-84313633D01*
X148121847Y-84313633D01*
G37*
D24*
X147932000Y-84683600D03*
D11*
G36*
X146181567Y-84313633D02*
G01*
X146198351Y-84316122D01*
X146214810Y-84320245D01*
X146230786Y-84325961D01*
X146246124Y-84333216D01*
X146260678Y-84341939D01*
X146274307Y-84352046D01*
X146286879Y-84363441D01*
X146298274Y-84376013D01*
X146308381Y-84389642D01*
X146317104Y-84404196D01*
X146324359Y-84419534D01*
X146330075Y-84435510D01*
X146334198Y-84451969D01*
X146336687Y-84468753D01*
X146337520Y-84485700D01*
X146337520Y-84881500D01*
X146336687Y-84898447D01*
X146334198Y-84915231D01*
X146330075Y-84931690D01*
X146324359Y-84947666D01*
X146317104Y-84963004D01*
X146308381Y-84977558D01*
X146298274Y-84991187D01*
X146286879Y-85003759D01*
X146274307Y-85015154D01*
X146260678Y-85025261D01*
X146246124Y-85033984D01*
X146230786Y-85041239D01*
X146214810Y-85046955D01*
X146198351Y-85051078D01*
X146181567Y-85053567D01*
X146164620Y-85054400D01*
X145818820Y-85054400D01*
X145801873Y-85053567D01*
X145785089Y-85051078D01*
X145768630Y-85046955D01*
X145752654Y-85041239D01*
X145737316Y-85033984D01*
X145722762Y-85025261D01*
X145709133Y-85015154D01*
X145696561Y-85003759D01*
X145685166Y-84991187D01*
X145675059Y-84977558D01*
X145666336Y-84963004D01*
X145659081Y-84947666D01*
X145653365Y-84931690D01*
X145649242Y-84915231D01*
X145646753Y-84898447D01*
X145645920Y-84881500D01*
X145645920Y-84485700D01*
X145646753Y-84468753D01*
X145649242Y-84451969D01*
X145653365Y-84435510D01*
X145659081Y-84419534D01*
X145666336Y-84404196D01*
X145675059Y-84389642D01*
X145685166Y-84376013D01*
X145696561Y-84363441D01*
X145709133Y-84352046D01*
X145722762Y-84341939D01*
X145737316Y-84333216D01*
X145752654Y-84325961D01*
X145768630Y-84320245D01*
X145785089Y-84316122D01*
X145801873Y-84313633D01*
X145818820Y-84312800D01*
X146164620Y-84312800D01*
X146181567Y-84313633D01*
X146181567Y-84313633D01*
G37*
D24*
X145991720Y-84683600D03*
D11*
G36*
X147151567Y-84313633D02*
G01*
X147168351Y-84316122D01*
X147184810Y-84320245D01*
X147200786Y-84325961D01*
X147216124Y-84333216D01*
X147230678Y-84341939D01*
X147244307Y-84352046D01*
X147256879Y-84363441D01*
X147268274Y-84376013D01*
X147278381Y-84389642D01*
X147287104Y-84404196D01*
X147294359Y-84419534D01*
X147300075Y-84435510D01*
X147304198Y-84451969D01*
X147306687Y-84468753D01*
X147307520Y-84485700D01*
X147307520Y-84881500D01*
X147306687Y-84898447D01*
X147304198Y-84915231D01*
X147300075Y-84931690D01*
X147294359Y-84947666D01*
X147287104Y-84963004D01*
X147278381Y-84977558D01*
X147268274Y-84991187D01*
X147256879Y-85003759D01*
X147244307Y-85015154D01*
X147230678Y-85025261D01*
X147216124Y-85033984D01*
X147200786Y-85041239D01*
X147184810Y-85046955D01*
X147168351Y-85051078D01*
X147151567Y-85053567D01*
X147134620Y-85054400D01*
X146788820Y-85054400D01*
X146771873Y-85053567D01*
X146755089Y-85051078D01*
X146738630Y-85046955D01*
X146722654Y-85041239D01*
X146707316Y-85033984D01*
X146692762Y-85025261D01*
X146679133Y-85015154D01*
X146666561Y-85003759D01*
X146655166Y-84991187D01*
X146645059Y-84977558D01*
X146636336Y-84963004D01*
X146629081Y-84947666D01*
X146623365Y-84931690D01*
X146619242Y-84915231D01*
X146616753Y-84898447D01*
X146615920Y-84881500D01*
X146615920Y-84485700D01*
X146616753Y-84468753D01*
X146619242Y-84451969D01*
X146623365Y-84435510D01*
X146629081Y-84419534D01*
X146636336Y-84404196D01*
X146645059Y-84389642D01*
X146655166Y-84376013D01*
X146666561Y-84363441D01*
X146679133Y-84352046D01*
X146692762Y-84341939D01*
X146707316Y-84333216D01*
X146722654Y-84325961D01*
X146738630Y-84320245D01*
X146755089Y-84316122D01*
X146771873Y-84313633D01*
X146788820Y-84312800D01*
X147134620Y-84312800D01*
X147151567Y-84313633D01*
X147151567Y-84313633D01*
G37*
D24*
X146961720Y-84683600D03*
D11*
G36*
X147151847Y-85710633D02*
G01*
X147168631Y-85713122D01*
X147185090Y-85717245D01*
X147201066Y-85722961D01*
X147216404Y-85730216D01*
X147230958Y-85738939D01*
X147244587Y-85749046D01*
X147257159Y-85760441D01*
X147268554Y-85773013D01*
X147278661Y-85786642D01*
X147287384Y-85801196D01*
X147294639Y-85816534D01*
X147300355Y-85832510D01*
X147304478Y-85848969D01*
X147306967Y-85865753D01*
X147307800Y-85882700D01*
X147307800Y-86278500D01*
X147306967Y-86295447D01*
X147304478Y-86312231D01*
X147300355Y-86328690D01*
X147294639Y-86344666D01*
X147287384Y-86360004D01*
X147278661Y-86374558D01*
X147268554Y-86388187D01*
X147257159Y-86400759D01*
X147244587Y-86412154D01*
X147230958Y-86422261D01*
X147216404Y-86430984D01*
X147201066Y-86438239D01*
X147185090Y-86443955D01*
X147168631Y-86448078D01*
X147151847Y-86450567D01*
X147134900Y-86451400D01*
X146789100Y-86451400D01*
X146772153Y-86450567D01*
X146755369Y-86448078D01*
X146738910Y-86443955D01*
X146722934Y-86438239D01*
X146707596Y-86430984D01*
X146693042Y-86422261D01*
X146679413Y-86412154D01*
X146666841Y-86400759D01*
X146655446Y-86388187D01*
X146645339Y-86374558D01*
X146636616Y-86360004D01*
X146629361Y-86344666D01*
X146623645Y-86328690D01*
X146619522Y-86312231D01*
X146617033Y-86295447D01*
X146616200Y-86278500D01*
X146616200Y-85882700D01*
X146617033Y-85865753D01*
X146619522Y-85848969D01*
X146623645Y-85832510D01*
X146629361Y-85816534D01*
X146636616Y-85801196D01*
X146645339Y-85786642D01*
X146655446Y-85773013D01*
X146666841Y-85760441D01*
X146679413Y-85749046D01*
X146693042Y-85738939D01*
X146707596Y-85730216D01*
X146722934Y-85722961D01*
X146738910Y-85717245D01*
X146755369Y-85713122D01*
X146772153Y-85710633D01*
X146789100Y-85709800D01*
X147134900Y-85709800D01*
X147151847Y-85710633D01*
X147151847Y-85710633D01*
G37*
D24*
X146962000Y-86080600D03*
D11*
G36*
X148121847Y-85710633D02*
G01*
X148138631Y-85713122D01*
X148155090Y-85717245D01*
X148171066Y-85722961D01*
X148186404Y-85730216D01*
X148200958Y-85738939D01*
X148214587Y-85749046D01*
X148227159Y-85760441D01*
X148238554Y-85773013D01*
X148248661Y-85786642D01*
X148257384Y-85801196D01*
X148264639Y-85816534D01*
X148270355Y-85832510D01*
X148274478Y-85848969D01*
X148276967Y-85865753D01*
X148277800Y-85882700D01*
X148277800Y-86278500D01*
X148276967Y-86295447D01*
X148274478Y-86312231D01*
X148270355Y-86328690D01*
X148264639Y-86344666D01*
X148257384Y-86360004D01*
X148248661Y-86374558D01*
X148238554Y-86388187D01*
X148227159Y-86400759D01*
X148214587Y-86412154D01*
X148200958Y-86422261D01*
X148186404Y-86430984D01*
X148171066Y-86438239D01*
X148155090Y-86443955D01*
X148138631Y-86448078D01*
X148121847Y-86450567D01*
X148104900Y-86451400D01*
X147759100Y-86451400D01*
X147742153Y-86450567D01*
X147725369Y-86448078D01*
X147708910Y-86443955D01*
X147692934Y-86438239D01*
X147677596Y-86430984D01*
X147663042Y-86422261D01*
X147649413Y-86412154D01*
X147636841Y-86400759D01*
X147625446Y-86388187D01*
X147615339Y-86374558D01*
X147606616Y-86360004D01*
X147599361Y-86344666D01*
X147593645Y-86328690D01*
X147589522Y-86312231D01*
X147587033Y-86295447D01*
X147586200Y-86278500D01*
X147586200Y-85882700D01*
X147587033Y-85865753D01*
X147589522Y-85848969D01*
X147593645Y-85832510D01*
X147599361Y-85816534D01*
X147606616Y-85801196D01*
X147615339Y-85786642D01*
X147625446Y-85773013D01*
X147636841Y-85760441D01*
X147649413Y-85749046D01*
X147663042Y-85738939D01*
X147677596Y-85730216D01*
X147692934Y-85722961D01*
X147708910Y-85717245D01*
X147725369Y-85713122D01*
X147742153Y-85710633D01*
X147759100Y-85709800D01*
X148104900Y-85709800D01*
X148121847Y-85710633D01*
X148121847Y-85710633D01*
G37*
D24*
X147932000Y-86080600D03*
D11*
G36*
X146181567Y-85710633D02*
G01*
X146198351Y-85713122D01*
X146214810Y-85717245D01*
X146230786Y-85722961D01*
X146246124Y-85730216D01*
X146260678Y-85738939D01*
X146274307Y-85749046D01*
X146286879Y-85760441D01*
X146298274Y-85773013D01*
X146308381Y-85786642D01*
X146317104Y-85801196D01*
X146324359Y-85816534D01*
X146330075Y-85832510D01*
X146334198Y-85848969D01*
X146336687Y-85865753D01*
X146337520Y-85882700D01*
X146337520Y-86278500D01*
X146336687Y-86295447D01*
X146334198Y-86312231D01*
X146330075Y-86328690D01*
X146324359Y-86344666D01*
X146317104Y-86360004D01*
X146308381Y-86374558D01*
X146298274Y-86388187D01*
X146286879Y-86400759D01*
X146274307Y-86412154D01*
X146260678Y-86422261D01*
X146246124Y-86430984D01*
X146230786Y-86438239D01*
X146214810Y-86443955D01*
X146198351Y-86448078D01*
X146181567Y-86450567D01*
X146164620Y-86451400D01*
X145818820Y-86451400D01*
X145801873Y-86450567D01*
X145785089Y-86448078D01*
X145768630Y-86443955D01*
X145752654Y-86438239D01*
X145737316Y-86430984D01*
X145722762Y-86422261D01*
X145709133Y-86412154D01*
X145696561Y-86400759D01*
X145685166Y-86388187D01*
X145675059Y-86374558D01*
X145666336Y-86360004D01*
X145659081Y-86344666D01*
X145653365Y-86328690D01*
X145649242Y-86312231D01*
X145646753Y-86295447D01*
X145645920Y-86278500D01*
X145645920Y-85882700D01*
X145646753Y-85865753D01*
X145649242Y-85848969D01*
X145653365Y-85832510D01*
X145659081Y-85816534D01*
X145666336Y-85801196D01*
X145675059Y-85786642D01*
X145685166Y-85773013D01*
X145696561Y-85760441D01*
X145709133Y-85749046D01*
X145722762Y-85738939D01*
X145737316Y-85730216D01*
X145752654Y-85722961D01*
X145768630Y-85717245D01*
X145785089Y-85713122D01*
X145801873Y-85710633D01*
X145818820Y-85709800D01*
X146164620Y-85709800D01*
X146181567Y-85710633D01*
X146181567Y-85710633D01*
G37*
D24*
X145991720Y-86080600D03*
D11*
G36*
X147151567Y-85710633D02*
G01*
X147168351Y-85713122D01*
X147184810Y-85717245D01*
X147200786Y-85722961D01*
X147216124Y-85730216D01*
X147230678Y-85738939D01*
X147244307Y-85749046D01*
X147256879Y-85760441D01*
X147268274Y-85773013D01*
X147278381Y-85786642D01*
X147287104Y-85801196D01*
X147294359Y-85816534D01*
X147300075Y-85832510D01*
X147304198Y-85848969D01*
X147306687Y-85865753D01*
X147307520Y-85882700D01*
X147307520Y-86278500D01*
X147306687Y-86295447D01*
X147304198Y-86312231D01*
X147300075Y-86328690D01*
X147294359Y-86344666D01*
X147287104Y-86360004D01*
X147278381Y-86374558D01*
X147268274Y-86388187D01*
X147256879Y-86400759D01*
X147244307Y-86412154D01*
X147230678Y-86422261D01*
X147216124Y-86430984D01*
X147200786Y-86438239D01*
X147184810Y-86443955D01*
X147168351Y-86448078D01*
X147151567Y-86450567D01*
X147134620Y-86451400D01*
X146788820Y-86451400D01*
X146771873Y-86450567D01*
X146755089Y-86448078D01*
X146738630Y-86443955D01*
X146722654Y-86438239D01*
X146707316Y-86430984D01*
X146692762Y-86422261D01*
X146679133Y-86412154D01*
X146666561Y-86400759D01*
X146655166Y-86388187D01*
X146645059Y-86374558D01*
X146636336Y-86360004D01*
X146629081Y-86344666D01*
X146623365Y-86328690D01*
X146619242Y-86312231D01*
X146616753Y-86295447D01*
X146615920Y-86278500D01*
X146615920Y-85882700D01*
X146616753Y-85865753D01*
X146619242Y-85848969D01*
X146623365Y-85832510D01*
X146629081Y-85816534D01*
X146636336Y-85801196D01*
X146645059Y-85786642D01*
X146655166Y-85773013D01*
X146666561Y-85760441D01*
X146679133Y-85749046D01*
X146692762Y-85738939D01*
X146707316Y-85730216D01*
X146722654Y-85722961D01*
X146738630Y-85717245D01*
X146755089Y-85713122D01*
X146771873Y-85710633D01*
X146788820Y-85709800D01*
X147134620Y-85709800D01*
X147151567Y-85710633D01*
X147151567Y-85710633D01*
G37*
D24*
X146961720Y-86080600D03*
D11*
G36*
X141730947Y-116236233D02*
G01*
X141747731Y-116238722D01*
X141764190Y-116242845D01*
X141780166Y-116248561D01*
X141795504Y-116255816D01*
X141810058Y-116264539D01*
X141823687Y-116274646D01*
X141836259Y-116286041D01*
X141847654Y-116298613D01*
X141857761Y-116312242D01*
X141866484Y-116326796D01*
X141873739Y-116342134D01*
X141879455Y-116358110D01*
X141883578Y-116374569D01*
X141886067Y-116391353D01*
X141886900Y-116408300D01*
X141886900Y-116754100D01*
X141886067Y-116771047D01*
X141883578Y-116787831D01*
X141879455Y-116804290D01*
X141873739Y-116820266D01*
X141866484Y-116835604D01*
X141857761Y-116850158D01*
X141847654Y-116863787D01*
X141836259Y-116876359D01*
X141823687Y-116887754D01*
X141810058Y-116897861D01*
X141795504Y-116906584D01*
X141780166Y-116913839D01*
X141764190Y-116919555D01*
X141747731Y-116923678D01*
X141730947Y-116926167D01*
X141714000Y-116927000D01*
X141318200Y-116927000D01*
X141301253Y-116926167D01*
X141284469Y-116923678D01*
X141268010Y-116919555D01*
X141252034Y-116913839D01*
X141236696Y-116906584D01*
X141222142Y-116897861D01*
X141208513Y-116887754D01*
X141195941Y-116876359D01*
X141184546Y-116863787D01*
X141174439Y-116850158D01*
X141165716Y-116835604D01*
X141158461Y-116820266D01*
X141152745Y-116804290D01*
X141148622Y-116787831D01*
X141146133Y-116771047D01*
X141145300Y-116754100D01*
X141145300Y-116408300D01*
X141146133Y-116391353D01*
X141148622Y-116374569D01*
X141152745Y-116358110D01*
X141158461Y-116342134D01*
X141165716Y-116326796D01*
X141174439Y-116312242D01*
X141184546Y-116298613D01*
X141195941Y-116286041D01*
X141208513Y-116274646D01*
X141222142Y-116264539D01*
X141236696Y-116255816D01*
X141252034Y-116248561D01*
X141268010Y-116242845D01*
X141284469Y-116238722D01*
X141301253Y-116236233D01*
X141318200Y-116235400D01*
X141714000Y-116235400D01*
X141730947Y-116236233D01*
X141730947Y-116236233D01*
G37*
D24*
X141516100Y-116581200D03*
D11*
G36*
X141730947Y-117206233D02*
G01*
X141747731Y-117208722D01*
X141764190Y-117212845D01*
X141780166Y-117218561D01*
X141795504Y-117225816D01*
X141810058Y-117234539D01*
X141823687Y-117244646D01*
X141836259Y-117256041D01*
X141847654Y-117268613D01*
X141857761Y-117282242D01*
X141866484Y-117296796D01*
X141873739Y-117312134D01*
X141879455Y-117328110D01*
X141883578Y-117344569D01*
X141886067Y-117361353D01*
X141886900Y-117378300D01*
X141886900Y-117724100D01*
X141886067Y-117741047D01*
X141883578Y-117757831D01*
X141879455Y-117774290D01*
X141873739Y-117790266D01*
X141866484Y-117805604D01*
X141857761Y-117820158D01*
X141847654Y-117833787D01*
X141836259Y-117846359D01*
X141823687Y-117857754D01*
X141810058Y-117867861D01*
X141795504Y-117876584D01*
X141780166Y-117883839D01*
X141764190Y-117889555D01*
X141747731Y-117893678D01*
X141730947Y-117896167D01*
X141714000Y-117897000D01*
X141318200Y-117897000D01*
X141301253Y-117896167D01*
X141284469Y-117893678D01*
X141268010Y-117889555D01*
X141252034Y-117883839D01*
X141236696Y-117876584D01*
X141222142Y-117867861D01*
X141208513Y-117857754D01*
X141195941Y-117846359D01*
X141184546Y-117833787D01*
X141174439Y-117820158D01*
X141165716Y-117805604D01*
X141158461Y-117790266D01*
X141152745Y-117774290D01*
X141148622Y-117757831D01*
X141146133Y-117741047D01*
X141145300Y-117724100D01*
X141145300Y-117378300D01*
X141146133Y-117361353D01*
X141148622Y-117344569D01*
X141152745Y-117328110D01*
X141158461Y-117312134D01*
X141165716Y-117296796D01*
X141174439Y-117282242D01*
X141184546Y-117268613D01*
X141195941Y-117256041D01*
X141208513Y-117244646D01*
X141222142Y-117234539D01*
X141236696Y-117225816D01*
X141252034Y-117218561D01*
X141268010Y-117212845D01*
X141284469Y-117208722D01*
X141301253Y-117206233D01*
X141318200Y-117205400D01*
X141714000Y-117205400D01*
X141730947Y-117206233D01*
X141730947Y-117206233D01*
G37*
D24*
X141516100Y-117551200D03*
D11*
G36*
X141730947Y-115260733D02*
G01*
X141747731Y-115263222D01*
X141764190Y-115267345D01*
X141780166Y-115273061D01*
X141795504Y-115280316D01*
X141810058Y-115289039D01*
X141823687Y-115299146D01*
X141836259Y-115310541D01*
X141847654Y-115323113D01*
X141857761Y-115336742D01*
X141866484Y-115351296D01*
X141873739Y-115366634D01*
X141879455Y-115382610D01*
X141883578Y-115399069D01*
X141886067Y-115415853D01*
X141886900Y-115432800D01*
X141886900Y-115778600D01*
X141886067Y-115795547D01*
X141883578Y-115812331D01*
X141879455Y-115828790D01*
X141873739Y-115844766D01*
X141866484Y-115860104D01*
X141857761Y-115874658D01*
X141847654Y-115888287D01*
X141836259Y-115900859D01*
X141823687Y-115912254D01*
X141810058Y-115922361D01*
X141795504Y-115931084D01*
X141780166Y-115938339D01*
X141764190Y-115944055D01*
X141747731Y-115948178D01*
X141730947Y-115950667D01*
X141714000Y-115951500D01*
X141318200Y-115951500D01*
X141301253Y-115950667D01*
X141284469Y-115948178D01*
X141268010Y-115944055D01*
X141252034Y-115938339D01*
X141236696Y-115931084D01*
X141222142Y-115922361D01*
X141208513Y-115912254D01*
X141195941Y-115900859D01*
X141184546Y-115888287D01*
X141174439Y-115874658D01*
X141165716Y-115860104D01*
X141158461Y-115844766D01*
X141152745Y-115828790D01*
X141148622Y-115812331D01*
X141146133Y-115795547D01*
X141145300Y-115778600D01*
X141145300Y-115432800D01*
X141146133Y-115415853D01*
X141148622Y-115399069D01*
X141152745Y-115382610D01*
X141158461Y-115366634D01*
X141165716Y-115351296D01*
X141174439Y-115336742D01*
X141184546Y-115323113D01*
X141195941Y-115310541D01*
X141208513Y-115299146D01*
X141222142Y-115289039D01*
X141236696Y-115280316D01*
X141252034Y-115273061D01*
X141268010Y-115267345D01*
X141284469Y-115263222D01*
X141301253Y-115260733D01*
X141318200Y-115259900D01*
X141714000Y-115259900D01*
X141730947Y-115260733D01*
X141730947Y-115260733D01*
G37*
D24*
X141516100Y-115605700D03*
D11*
G36*
X141730947Y-116230733D02*
G01*
X141747731Y-116233222D01*
X141764190Y-116237345D01*
X141780166Y-116243061D01*
X141795504Y-116250316D01*
X141810058Y-116259039D01*
X141823687Y-116269146D01*
X141836259Y-116280541D01*
X141847654Y-116293113D01*
X141857761Y-116306742D01*
X141866484Y-116321296D01*
X141873739Y-116336634D01*
X141879455Y-116352610D01*
X141883578Y-116369069D01*
X141886067Y-116385853D01*
X141886900Y-116402800D01*
X141886900Y-116748600D01*
X141886067Y-116765547D01*
X141883578Y-116782331D01*
X141879455Y-116798790D01*
X141873739Y-116814766D01*
X141866484Y-116830104D01*
X141857761Y-116844658D01*
X141847654Y-116858287D01*
X141836259Y-116870859D01*
X141823687Y-116882254D01*
X141810058Y-116892361D01*
X141795504Y-116901084D01*
X141780166Y-116908339D01*
X141764190Y-116914055D01*
X141747731Y-116918178D01*
X141730947Y-116920667D01*
X141714000Y-116921500D01*
X141318200Y-116921500D01*
X141301253Y-116920667D01*
X141284469Y-116918178D01*
X141268010Y-116914055D01*
X141252034Y-116908339D01*
X141236696Y-116901084D01*
X141222142Y-116892361D01*
X141208513Y-116882254D01*
X141195941Y-116870859D01*
X141184546Y-116858287D01*
X141174439Y-116844658D01*
X141165716Y-116830104D01*
X141158461Y-116814766D01*
X141152745Y-116798790D01*
X141148622Y-116782331D01*
X141146133Y-116765547D01*
X141145300Y-116748600D01*
X141145300Y-116402800D01*
X141146133Y-116385853D01*
X141148622Y-116369069D01*
X141152745Y-116352610D01*
X141158461Y-116336634D01*
X141165716Y-116321296D01*
X141174439Y-116306742D01*
X141184546Y-116293113D01*
X141195941Y-116280541D01*
X141208513Y-116269146D01*
X141222142Y-116259039D01*
X141236696Y-116250316D01*
X141252034Y-116243061D01*
X141268010Y-116237345D01*
X141284469Y-116233222D01*
X141301253Y-116230733D01*
X141318200Y-116229900D01*
X141714000Y-116229900D01*
X141730947Y-116230733D01*
X141730947Y-116230733D01*
G37*
D24*
X141516100Y-116575700D03*
M02*
