%TF.GenerationSoftware,KiCad,Pcbnew,5.0.2-bee76a0~70~ubuntu18.04.1*%
%TF.CreationDate,2020-02-29T13:06:47-08:00*%
%TF.ProjectId,ypanel,7970616e-656c-42e6-9b69-6361645f7063,rev?*%
%TF.SameCoordinates,Original*%
%TF.FileFunction,Soldermask,Bot*%
%TF.FilePolarity,Negative*%
%FSLAX46Y46*%
G04 Gerber Fmt 4.6, Leading zero omitted, Abs format (unit mm)*
G04 Created by KiCad (PCBNEW 5.0.2-bee76a0~70~ubuntu18.04.1) date Sat 29 Feb 2020 01:06:47 PM PST*
%MOMM*%
%LPD*%
G01*
G04 APERTURE LIST*
%ADD10C,0.100000*%
%ADD11C,0.050000*%
%ADD12C,0.300000*%
G04 APERTURE END LIST*
D10*
X151587000Y-99000001D02*
G75*
G03X151587000Y-99000001I-8000000J0D01*
G01*
X134779564Y-114100000D02*
G75*
G03X134779564Y-114100000I-1029564J0D01*
G01*
X141279564Y-114100000D02*
G75*
G03X141279564Y-114100000I-1029564J0D01*
G01*
X126375000Y-118900000D02*
G75*
G03X126375000Y-118900000I-1300000J0D01*
G01*
X140979564Y-83920436D02*
G75*
G03X140979564Y-83920436I-1029564J0D01*
G01*
X147479564Y-83920436D02*
G75*
G03X147479564Y-83920436I-1029564J0D01*
G01*
X176975000Y-70000000D02*
X176975000Y-128000000D01*
X166200000Y-118900000D02*
G75*
G03X166200000Y-118900000I-1300000J0D01*
G01*
D11*
X126372800Y-79100000D02*
G75*
G03X126372800Y-79100000I-1300000J0D01*
G01*
D10*
X166195000Y-79102480D02*
G75*
G03X166195000Y-79102480I-1300000J0D01*
G01*
X176975000Y-70000000D02*
X113000000Y-70000000D01*
X113000000Y-128000000D02*
X176975000Y-128000000D01*
X113000000Y-70000000D02*
X113000000Y-128000000D01*
D12*
X139714285Y-86621428D02*
X140071428Y-85621428D01*
X140428571Y-86621428D01*
X141285714Y-87121428D02*
X141428571Y-87121428D01*
X141571428Y-87050000D01*
X141642857Y-86978571D01*
X141714285Y-86835714D01*
X141785714Y-86550000D01*
X141785714Y-86192857D01*
X141714285Y-85907142D01*
X141642857Y-85764285D01*
X141571428Y-85692857D01*
X141428571Y-85621428D01*
X141285714Y-85621428D01*
X141142857Y-85692857D01*
X141071428Y-85764285D01*
X141000000Y-85907142D01*
X140928571Y-86192857D01*
X140928571Y-86550000D01*
X141000000Y-86835714D01*
X141071428Y-86978571D01*
X141142857Y-87050000D01*
X141285714Y-87121428D01*
X143214285Y-85621428D02*
X142357142Y-85621428D01*
X142785714Y-85621428D02*
X142785714Y-87121428D01*
X142642857Y-86907142D01*
X142500000Y-86764285D01*
X142357142Y-86692857D01*
D10*
G36*
X153628905Y-113500920D02*
X153707705Y-113533560D01*
X153865307Y-113598841D01*
X154078064Y-113741001D01*
X154258999Y-113921936D01*
X154401159Y-114134693D01*
X154499080Y-114371096D01*
X154549000Y-114622060D01*
X154549000Y-114877940D01*
X154499080Y-115128904D01*
X154401159Y-115365307D01*
X154258999Y-115578064D01*
X154078064Y-115758999D01*
X153865307Y-115901159D01*
X153707705Y-115966440D01*
X153628905Y-115999080D01*
X153377940Y-116049000D01*
X153122060Y-116049000D01*
X152871095Y-115999080D01*
X152792295Y-115966440D01*
X152634693Y-115901159D01*
X152421936Y-115758999D01*
X152241001Y-115578064D01*
X152098841Y-115365307D01*
X152000920Y-115128904D01*
X151951000Y-114877940D01*
X151951000Y-114622060D01*
X152000920Y-114371096D01*
X152098841Y-114134693D01*
X152241001Y-113921936D01*
X152421936Y-113741001D01*
X152634693Y-113598841D01*
X152792295Y-113533560D01*
X152871095Y-113500920D01*
X153122060Y-113451000D01*
X153377940Y-113451000D01*
X153628905Y-113500920D01*
X153628905Y-113500920D01*
G37*
G36*
X161349000Y-115799000D02*
X159751000Y-115799000D01*
X159751000Y-114001000D01*
X161349000Y-114001000D01*
X161349000Y-115799000D01*
X161349000Y-115799000D01*
G37*
G36*
X165049000Y-113424000D02*
X163851000Y-113424000D01*
X163851000Y-113076000D01*
X165049000Y-113076000D01*
X165049000Y-113424000D01*
X165049000Y-113424000D01*
G37*
G36*
X151905385Y-111246893D02*
X151923642Y-111253764D01*
X151940204Y-111264062D01*
X151954445Y-111277402D01*
X151967233Y-111295247D01*
X152144047Y-111601497D01*
X152153108Y-111621496D01*
X152157537Y-111640491D01*
X152158176Y-111659992D01*
X152154998Y-111679241D01*
X152148128Y-111697492D01*
X152137825Y-111714062D01*
X152134422Y-111717695D01*
X152128515Y-111725394D01*
X152124223Y-111734097D01*
X152121711Y-111743470D01*
X152121077Y-111753153D01*
X152122343Y-111762773D01*
X152125462Y-111771962D01*
X152130314Y-111780366D01*
X152136712Y-111787661D01*
X152144411Y-111793568D01*
X152153114Y-111797860D01*
X152162487Y-111800372D01*
X152172170Y-111801006D01*
X152181791Y-111799740D01*
X152186639Y-111798610D01*
X152206139Y-111797971D01*
X152225385Y-111801149D01*
X152243642Y-111808020D01*
X152260204Y-111818318D01*
X152274445Y-111831658D01*
X152287233Y-111849503D01*
X152298389Y-111868825D01*
X152298390Y-111868827D01*
X152366004Y-111985938D01*
X152464047Y-112155753D01*
X152473108Y-112175752D01*
X152477537Y-112194747D01*
X152478176Y-112214248D01*
X152474998Y-112233497D01*
X152468128Y-112251748D01*
X152457827Y-112268314D01*
X152444489Y-112282554D01*
X152426644Y-112295342D01*
X152407322Y-112306498D01*
X152407320Y-112306499D01*
X152391165Y-112315826D01*
X152172356Y-112442156D01*
X152152357Y-112451217D01*
X152133362Y-112455646D01*
X152113864Y-112456285D01*
X152111451Y-112455886D01*
X152101768Y-112455251D01*
X152092148Y-112456518D01*
X152082959Y-112459636D01*
X152074555Y-112464488D01*
X152067259Y-112470886D01*
X152061352Y-112478584D01*
X152057059Y-112487287D01*
X152054547Y-112496663D01*
X152053107Y-112505385D01*
X152046236Y-112523642D01*
X152035938Y-112540204D01*
X152022598Y-112554445D01*
X152004753Y-112567233D01*
X151698503Y-112744047D01*
X151678504Y-112753108D01*
X151659509Y-112757537D01*
X151640008Y-112758176D01*
X151620759Y-112754998D01*
X151602508Y-112748128D01*
X151585938Y-112737825D01*
X151582305Y-112734422D01*
X151574606Y-112728515D01*
X151565903Y-112724223D01*
X151556530Y-112721711D01*
X151546847Y-112721077D01*
X151537227Y-112722343D01*
X151528038Y-112725462D01*
X151519634Y-112730314D01*
X151512339Y-112736712D01*
X151506432Y-112744411D01*
X151502140Y-112753114D01*
X151499628Y-112762487D01*
X151498994Y-112772170D01*
X151500260Y-112781791D01*
X151501390Y-112786639D01*
X151502029Y-112806139D01*
X151498851Y-112825385D01*
X151491980Y-112843642D01*
X151481682Y-112860204D01*
X151468342Y-112874445D01*
X151450497Y-112887233D01*
X151144247Y-113064047D01*
X151124248Y-113073108D01*
X151105253Y-113077537D01*
X151085752Y-113078176D01*
X151066503Y-113074998D01*
X151048252Y-113068128D01*
X151031686Y-113057827D01*
X151017446Y-113044489D01*
X151004658Y-113026644D01*
X150857844Y-112772356D01*
X150848783Y-112752357D01*
X150844354Y-112733362D01*
X150843715Y-112713861D01*
X150846893Y-112694615D01*
X150853764Y-112676358D01*
X150864062Y-112659796D01*
X150877402Y-112645555D01*
X150895247Y-112632767D01*
X151201497Y-112455953D01*
X151221496Y-112446892D01*
X151240491Y-112442463D01*
X151259992Y-112441824D01*
X151279241Y-112445002D01*
X151297492Y-112451872D01*
X151314062Y-112462175D01*
X151317695Y-112465578D01*
X151325394Y-112471485D01*
X151334097Y-112475777D01*
X151343470Y-112478289D01*
X151353153Y-112478923D01*
X151362773Y-112477657D01*
X151371962Y-112474538D01*
X151380366Y-112469686D01*
X151387661Y-112463288D01*
X151393568Y-112455589D01*
X151397860Y-112446886D01*
X151400372Y-112437513D01*
X151401006Y-112427830D01*
X151399740Y-112418209D01*
X151398610Y-112413361D01*
X151397971Y-112393861D01*
X151401149Y-112374615D01*
X151408020Y-112356358D01*
X151418318Y-112339796D01*
X151431658Y-112325555D01*
X151449503Y-112312767D01*
X151474405Y-112298390D01*
X151605342Y-112222793D01*
X151755753Y-112135953D01*
X151775752Y-112126892D01*
X151794747Y-112122463D01*
X151796384Y-112122409D01*
X151806005Y-112121142D01*
X151815194Y-112118023D01*
X151823597Y-112113171D01*
X151830893Y-112106773D01*
X151836800Y-112099075D01*
X151841092Y-112090372D01*
X151843604Y-112080999D01*
X151844239Y-112071316D01*
X151842972Y-112061696D01*
X151842463Y-112059511D01*
X151841824Y-112040008D01*
X151845002Y-112020759D01*
X151851872Y-112002508D01*
X151862175Y-111985938D01*
X151865578Y-111982305D01*
X151871485Y-111974606D01*
X151875777Y-111965903D01*
X151878289Y-111956530D01*
X151878923Y-111946847D01*
X151877657Y-111937227D01*
X151874538Y-111928038D01*
X151869686Y-111919634D01*
X151863288Y-111912339D01*
X151855589Y-111906432D01*
X151846886Y-111902140D01*
X151837513Y-111899628D01*
X151827830Y-111898994D01*
X151818209Y-111900260D01*
X151813361Y-111901390D01*
X151793861Y-111902029D01*
X151774615Y-111898851D01*
X151760462Y-111893524D01*
X151751089Y-111891012D01*
X151741406Y-111890377D01*
X151731786Y-111891644D01*
X151722597Y-111894763D01*
X151714193Y-111899615D01*
X151706897Y-111906012D01*
X151700990Y-111913711D01*
X151696698Y-111922413D01*
X151696235Y-111923643D01*
X151685938Y-111940204D01*
X151672598Y-111954445D01*
X151654753Y-111967233D01*
X151635431Y-111978389D01*
X151635429Y-111978390D01*
X151593655Y-112002508D01*
X151348503Y-112144047D01*
X151328504Y-112153108D01*
X151309509Y-112157537D01*
X151290008Y-112158176D01*
X151270759Y-112154998D01*
X151252508Y-112148128D01*
X151235938Y-112137825D01*
X151232305Y-112134422D01*
X151224606Y-112128515D01*
X151215903Y-112124223D01*
X151206530Y-112121711D01*
X151196847Y-112121077D01*
X151187227Y-112122343D01*
X151178038Y-112125462D01*
X151169634Y-112130314D01*
X151162339Y-112136712D01*
X151156432Y-112144411D01*
X151152140Y-112153114D01*
X151149628Y-112162487D01*
X151148994Y-112172170D01*
X151150260Y-112181791D01*
X151151390Y-112186639D01*
X151152029Y-112206139D01*
X151148851Y-112225385D01*
X151141980Y-112243642D01*
X151131682Y-112260204D01*
X151118342Y-112274445D01*
X151100497Y-112287233D01*
X151081175Y-112298389D01*
X151081173Y-112298390D01*
X150984221Y-112354365D01*
X150794247Y-112464047D01*
X150774248Y-112473108D01*
X150755253Y-112477537D01*
X150735752Y-112478176D01*
X150716503Y-112474998D01*
X150698252Y-112468128D01*
X150681686Y-112457827D01*
X150667446Y-112444489D01*
X150654658Y-112426644D01*
X150635731Y-112393861D01*
X150574169Y-112287233D01*
X150507844Y-112172356D01*
X150498783Y-112152357D01*
X150494354Y-112133362D01*
X150493715Y-112113861D01*
X150496893Y-112094615D01*
X150503764Y-112076358D01*
X150514062Y-112059796D01*
X150527402Y-112045555D01*
X150545247Y-112032767D01*
X150632650Y-111982305D01*
X150710727Y-111937227D01*
X150851497Y-111855953D01*
X150871496Y-111846892D01*
X150890491Y-111842463D01*
X150909992Y-111841824D01*
X150929241Y-111845002D01*
X150947492Y-111851872D01*
X150964062Y-111862175D01*
X150967695Y-111865578D01*
X150975394Y-111871485D01*
X150984097Y-111875777D01*
X150993470Y-111878289D01*
X151003153Y-111878923D01*
X151012773Y-111877657D01*
X151021962Y-111874538D01*
X151030366Y-111869686D01*
X151037661Y-111863288D01*
X151043568Y-111855589D01*
X151047860Y-111846886D01*
X151050372Y-111837513D01*
X151051006Y-111827830D01*
X151049740Y-111818209D01*
X151048610Y-111813361D01*
X151047971Y-111793861D01*
X151051149Y-111774615D01*
X151058020Y-111756358D01*
X151068318Y-111739796D01*
X151081658Y-111725555D01*
X151099503Y-111712767D01*
X151122503Y-111699488D01*
X151336390Y-111576000D01*
X151405753Y-111535953D01*
X151425752Y-111526892D01*
X151444747Y-111522463D01*
X151464249Y-111521824D01*
X151465657Y-111522057D01*
X151475339Y-111522693D01*
X151484960Y-111521427D01*
X151494149Y-111518308D01*
X151502553Y-111513457D01*
X151509849Y-111507059D01*
X151515757Y-111499361D01*
X151520049Y-111490658D01*
X151522562Y-111481283D01*
X151525002Y-111466503D01*
X151531872Y-111448252D01*
X151542173Y-111431686D01*
X151555511Y-111417446D01*
X151573356Y-111404658D01*
X151827644Y-111257844D01*
X151847643Y-111248783D01*
X151866638Y-111244354D01*
X151886139Y-111243715D01*
X151905385Y-111246893D01*
X151905385Y-111246893D01*
G37*
G36*
X165049000Y-112924000D02*
X163851000Y-112924000D01*
X163851000Y-112576000D01*
X165049000Y-112576000D01*
X165049000Y-112924000D01*
X165049000Y-112924000D01*
G37*
G36*
X165049000Y-112424000D02*
X163851000Y-112424000D01*
X163851000Y-112076000D01*
X165049000Y-112076000D01*
X165049000Y-112424000D01*
X165049000Y-112424000D01*
G37*
G36*
X165049000Y-111924000D02*
X163851000Y-111924000D01*
X163851000Y-111576000D01*
X165049000Y-111576000D01*
X165049000Y-111924000D01*
X165049000Y-111924000D01*
G37*
G36*
X165049000Y-111424000D02*
X163851000Y-111424000D01*
X163851000Y-111076000D01*
X165049000Y-111076000D01*
X165049000Y-111424000D01*
X165049000Y-111424000D01*
G37*
G36*
X165049000Y-110924000D02*
X163851000Y-110924000D01*
X163851000Y-110576000D01*
X165049000Y-110576000D01*
X165049000Y-110924000D01*
X165049000Y-110924000D01*
G37*
G36*
X151747561Y-110280788D02*
X150796665Y-110829788D01*
X150222665Y-109835590D01*
X151173561Y-109286590D01*
X151747561Y-110280788D01*
X151747561Y-110280788D01*
G37*
G36*
X150016825Y-110183063D02*
X149022627Y-110757063D01*
X147873627Y-108766937D01*
X148867825Y-108192937D01*
X150016825Y-110183063D01*
X150016825Y-110183063D01*
G37*
G36*
X142316561Y-109120166D02*
X142464151Y-109181300D01*
X142464153Y-109181301D01*
X142596982Y-109270055D01*
X142709945Y-109383018D01*
X142798699Y-109515847D01*
X142859834Y-109663440D01*
X142891000Y-109820123D01*
X142891000Y-109979877D01*
X142859834Y-110136560D01*
X142798699Y-110284153D01*
X142709945Y-110416982D01*
X142596982Y-110529945D01*
X142464153Y-110618699D01*
X142464152Y-110618700D01*
X142464151Y-110618700D01*
X142316561Y-110679834D01*
X142159877Y-110711000D01*
X142000123Y-110711000D01*
X141843439Y-110679834D01*
X141695849Y-110618700D01*
X141695848Y-110618700D01*
X141695847Y-110618699D01*
X141563018Y-110529945D01*
X141450055Y-110416982D01*
X141361301Y-110284153D01*
X141300166Y-110136560D01*
X141269000Y-109979877D01*
X141269000Y-109820123D01*
X141300166Y-109663440D01*
X141361301Y-109515847D01*
X141450055Y-109383018D01*
X141563018Y-109270055D01*
X141695847Y-109181301D01*
X141695849Y-109181300D01*
X141843439Y-109120166D01*
X142000123Y-109089000D01*
X142159877Y-109089000D01*
X142316561Y-109120166D01*
X142316561Y-109120166D01*
G37*
G36*
X137236561Y-109120166D02*
X137384151Y-109181300D01*
X137384153Y-109181301D01*
X137516982Y-109270055D01*
X137629945Y-109383018D01*
X137718699Y-109515847D01*
X137779834Y-109663440D01*
X137811000Y-109820123D01*
X137811000Y-109979877D01*
X137779834Y-110136560D01*
X137718699Y-110284153D01*
X137629945Y-110416982D01*
X137516982Y-110529945D01*
X137384153Y-110618699D01*
X137384152Y-110618700D01*
X137384151Y-110618700D01*
X137236561Y-110679834D01*
X137079877Y-110711000D01*
X136920123Y-110711000D01*
X136763439Y-110679834D01*
X136615849Y-110618700D01*
X136615848Y-110618700D01*
X136615847Y-110618699D01*
X136483018Y-110529945D01*
X136370055Y-110416982D01*
X136281301Y-110284153D01*
X136220166Y-110136560D01*
X136189000Y-109979877D01*
X136189000Y-109820123D01*
X136220166Y-109663440D01*
X136281301Y-109515847D01*
X136370055Y-109383018D01*
X136483018Y-109270055D01*
X136615847Y-109181301D01*
X136615849Y-109181300D01*
X136763439Y-109120166D01*
X136920123Y-109089000D01*
X137079877Y-109089000D01*
X137236561Y-109120166D01*
X137236561Y-109120166D01*
G37*
G36*
X132156561Y-109120166D02*
X132304151Y-109181300D01*
X132304153Y-109181301D01*
X132436982Y-109270055D01*
X132549945Y-109383018D01*
X132638699Y-109515847D01*
X132699834Y-109663440D01*
X132731000Y-109820123D01*
X132731000Y-109979877D01*
X132699834Y-110136560D01*
X132638699Y-110284153D01*
X132549945Y-110416982D01*
X132436982Y-110529945D01*
X132304153Y-110618699D01*
X132304152Y-110618700D01*
X132304151Y-110618700D01*
X132156561Y-110679834D01*
X131999877Y-110711000D01*
X131840123Y-110711000D01*
X131683439Y-110679834D01*
X131535849Y-110618700D01*
X131535848Y-110618700D01*
X131535847Y-110618699D01*
X131403018Y-110529945D01*
X131290055Y-110416982D01*
X131201301Y-110284153D01*
X131140166Y-110136560D01*
X131109000Y-109979877D01*
X131109000Y-109820123D01*
X131140166Y-109663440D01*
X131201301Y-109515847D01*
X131290055Y-109383018D01*
X131403018Y-109270055D01*
X131535847Y-109181301D01*
X131535849Y-109181300D01*
X131683439Y-109120166D01*
X131840123Y-109089000D01*
X131999877Y-109089000D01*
X132156561Y-109120166D01*
X132156561Y-109120166D01*
G37*
G36*
X165049000Y-110424000D02*
X163851000Y-110424000D01*
X163851000Y-110076000D01*
X165049000Y-110076000D01*
X165049000Y-110424000D01*
X165049000Y-110424000D01*
G37*
G36*
X165049000Y-109924000D02*
X163851000Y-109924000D01*
X163851000Y-109576000D01*
X165049000Y-109576000D01*
X165049000Y-109924000D01*
X165049000Y-109924000D01*
G37*
G36*
X165049000Y-109424000D02*
X163851000Y-109424000D01*
X163851000Y-109076000D01*
X165049000Y-109076000D01*
X165049000Y-109424000D01*
X165049000Y-109424000D01*
G37*
G36*
X152571599Y-108708063D02*
X151577401Y-109282063D01*
X150428401Y-107291937D01*
X151422599Y-106717937D01*
X152571599Y-108708063D01*
X152571599Y-108708063D01*
G37*
G36*
X165049000Y-108924000D02*
X163851000Y-108924000D01*
X163851000Y-108576000D01*
X165049000Y-108576000D01*
X165049000Y-108924000D01*
X165049000Y-108924000D01*
G37*
G36*
X161349000Y-107999000D02*
X159751000Y-107999000D01*
X159751000Y-106201000D01*
X161349000Y-106201000D01*
X161349000Y-107999000D01*
X161349000Y-107999000D01*
G37*
G36*
X157015500Y-104535500D02*
X154917500Y-104535500D01*
X154917500Y-103337500D01*
X157015500Y-103337500D01*
X157015500Y-104535500D01*
X157015500Y-104535500D01*
G37*
G36*
X154515500Y-104385500D02*
X153617500Y-104385500D01*
X153617500Y-103487500D01*
X154515500Y-103487500D01*
X154515500Y-104385500D01*
X154515500Y-104385500D01*
G37*
G36*
X130612793Y-102055679D02*
X130656137Y-102068828D01*
X130696077Y-102090176D01*
X130731090Y-102118910D01*
X130759824Y-102153923D01*
X130781172Y-102193863D01*
X130794321Y-102237207D01*
X130799000Y-102284716D01*
X130799000Y-103515284D01*
X130794321Y-103562793D01*
X130781172Y-103606137D01*
X130759824Y-103646077D01*
X130731090Y-103681090D01*
X130696077Y-103709824D01*
X130656137Y-103731172D01*
X130612793Y-103744321D01*
X130565284Y-103749000D01*
X127934716Y-103749000D01*
X127887207Y-103744321D01*
X127843863Y-103731172D01*
X127803923Y-103709824D01*
X127768910Y-103681090D01*
X127740176Y-103646077D01*
X127718828Y-103606137D01*
X127705679Y-103562793D01*
X127701000Y-103515284D01*
X127701000Y-102284716D01*
X127705679Y-102237207D01*
X127718828Y-102193863D01*
X127740176Y-102153923D01*
X127768910Y-102118910D01*
X127803923Y-102090176D01*
X127843863Y-102068828D01*
X127887207Y-102055679D01*
X127934716Y-102051000D01*
X130565284Y-102051000D01*
X130612793Y-102055679D01*
X130612793Y-102055679D01*
G37*
G36*
X161091433Y-102366064D02*
X161119008Y-102374430D01*
X161144422Y-102388014D01*
X161166702Y-102406298D01*
X161184986Y-102428578D01*
X161198570Y-102453992D01*
X161206936Y-102481567D01*
X161210000Y-102512684D01*
X161210000Y-102901316D01*
X161206936Y-102932433D01*
X161198570Y-102960008D01*
X161184986Y-102985422D01*
X161166702Y-103007702D01*
X161144422Y-103025986D01*
X161119008Y-103039570D01*
X161091433Y-103047936D01*
X161060316Y-103051000D01*
X160621684Y-103051000D01*
X160590567Y-103047936D01*
X160562992Y-103039570D01*
X160537578Y-103025986D01*
X160515298Y-103007702D01*
X160497014Y-102985422D01*
X160483430Y-102960008D01*
X160475064Y-102932433D01*
X160472000Y-102901316D01*
X160472000Y-102512684D01*
X160475064Y-102481567D01*
X160483430Y-102453992D01*
X160497014Y-102428578D01*
X160515298Y-102406298D01*
X160537578Y-102388014D01*
X160562992Y-102374430D01*
X160590567Y-102366064D01*
X160621684Y-102363000D01*
X161060316Y-102363000D01*
X161091433Y-102366064D01*
X161091433Y-102366064D01*
G37*
G36*
X157102120Y-103010600D02*
X152580920Y-103010600D01*
X152580920Y-101448500D01*
X157102120Y-101448500D01*
X157102120Y-103010600D01*
X157102120Y-103010600D01*
G37*
G36*
X125844300Y-102626160D02*
X123685300Y-102626160D01*
X123685300Y-100467160D01*
X125844300Y-100467160D01*
X125844300Y-102626160D01*
X125844300Y-102626160D01*
G37*
G36*
X161091433Y-101396064D02*
X161119008Y-101404430D01*
X161144422Y-101418014D01*
X161166702Y-101436298D01*
X161184986Y-101458578D01*
X161198570Y-101483992D01*
X161206936Y-101511567D01*
X161210000Y-101542684D01*
X161210000Y-101931316D01*
X161206936Y-101962433D01*
X161198570Y-101990008D01*
X161184986Y-102015422D01*
X161166702Y-102037702D01*
X161144422Y-102055986D01*
X161119008Y-102069570D01*
X161091433Y-102077936D01*
X161060316Y-102081000D01*
X160621684Y-102081000D01*
X160590567Y-102077936D01*
X160562992Y-102069570D01*
X160537578Y-102055986D01*
X160515298Y-102037702D01*
X160497014Y-102015422D01*
X160483430Y-101990008D01*
X160475064Y-101962433D01*
X160472000Y-101931316D01*
X160472000Y-101542684D01*
X160475064Y-101511567D01*
X160483430Y-101483992D01*
X160497014Y-101458578D01*
X160515298Y-101436298D01*
X160537578Y-101418014D01*
X160562992Y-101404430D01*
X160590567Y-101396064D01*
X160621684Y-101393000D01*
X161060316Y-101393000D01*
X161091433Y-101396064D01*
X161091433Y-101396064D01*
G37*
G36*
X158297433Y-101159564D02*
X158325008Y-101167930D01*
X158350422Y-101181514D01*
X158372702Y-101199798D01*
X158390986Y-101222078D01*
X158404570Y-101247492D01*
X158412936Y-101275067D01*
X158416000Y-101306184D01*
X158416000Y-101694816D01*
X158412936Y-101725933D01*
X158404570Y-101753508D01*
X158390986Y-101778922D01*
X158372702Y-101801202D01*
X158350422Y-101819486D01*
X158325008Y-101833070D01*
X158297433Y-101841436D01*
X158266316Y-101844500D01*
X157827684Y-101844500D01*
X157796567Y-101841436D01*
X157768992Y-101833070D01*
X157743578Y-101819486D01*
X157721298Y-101801202D01*
X157703014Y-101778922D01*
X157689430Y-101753508D01*
X157681064Y-101725933D01*
X157678000Y-101694816D01*
X157678000Y-101306184D01*
X157681064Y-101275067D01*
X157689430Y-101247492D01*
X157703014Y-101222078D01*
X157721298Y-101199798D01*
X157743578Y-101181514D01*
X157768992Y-101167930D01*
X157796567Y-101159564D01*
X157827684Y-101156500D01*
X158266316Y-101156500D01*
X158297433Y-101159564D01*
X158297433Y-101159564D01*
G37*
G36*
X160075433Y-100397564D02*
X160103008Y-100405930D01*
X160128422Y-100419514D01*
X160150702Y-100437798D01*
X160168986Y-100460078D01*
X160182570Y-100485492D01*
X160190936Y-100513067D01*
X160194000Y-100544184D01*
X160194000Y-100932816D01*
X160190936Y-100963933D01*
X160182570Y-100991508D01*
X160168986Y-101016922D01*
X160150702Y-101039202D01*
X160128422Y-101057486D01*
X160103008Y-101071070D01*
X160075433Y-101079436D01*
X160044316Y-101082500D01*
X159605684Y-101082500D01*
X159574567Y-101079436D01*
X159546992Y-101071070D01*
X159521578Y-101057486D01*
X159499298Y-101039202D01*
X159481014Y-101016922D01*
X159467430Y-100991508D01*
X159459064Y-100963933D01*
X159456000Y-100932816D01*
X159456000Y-100544184D01*
X159459064Y-100513067D01*
X159467430Y-100485492D01*
X159481014Y-100460078D01*
X159499298Y-100437798D01*
X159521578Y-100419514D01*
X159546992Y-100405930D01*
X159574567Y-100397564D01*
X159605684Y-100394500D01*
X160044316Y-100394500D01*
X160075433Y-100397564D01*
X160075433Y-100397564D01*
G37*
G36*
X163631433Y-100397564D02*
X163659008Y-100405930D01*
X163684422Y-100419514D01*
X163706702Y-100437798D01*
X163724986Y-100460078D01*
X163738570Y-100485492D01*
X163746936Y-100513067D01*
X163750000Y-100544184D01*
X163750000Y-100932816D01*
X163746936Y-100963933D01*
X163738570Y-100991508D01*
X163724986Y-101016922D01*
X163706702Y-101039202D01*
X163684422Y-101057486D01*
X163659008Y-101071070D01*
X163631433Y-101079436D01*
X163600316Y-101082500D01*
X163161684Y-101082500D01*
X163130567Y-101079436D01*
X163102992Y-101071070D01*
X163077578Y-101057486D01*
X163055298Y-101039202D01*
X163037014Y-101016922D01*
X163023430Y-100991508D01*
X163015064Y-100963933D01*
X163012000Y-100932816D01*
X163012000Y-100544184D01*
X163015064Y-100513067D01*
X163023430Y-100485492D01*
X163037014Y-100460078D01*
X163055298Y-100437798D01*
X163077578Y-100419514D01*
X163102992Y-100405930D01*
X163130567Y-100397564D01*
X163161684Y-100394500D01*
X163600316Y-100394500D01*
X163631433Y-100397564D01*
X163631433Y-100397564D01*
G37*
G36*
X161150433Y-100394064D02*
X161178008Y-100402430D01*
X161203422Y-100416014D01*
X161225702Y-100434298D01*
X161243986Y-100456578D01*
X161257570Y-100481992D01*
X161265936Y-100509567D01*
X161269000Y-100540684D01*
X161269000Y-100929316D01*
X161265936Y-100960433D01*
X161257570Y-100988008D01*
X161243986Y-101013422D01*
X161225702Y-101035702D01*
X161203422Y-101053986D01*
X161178008Y-101067570D01*
X161150433Y-101075936D01*
X161119316Y-101079000D01*
X160680684Y-101079000D01*
X160649567Y-101075936D01*
X160621992Y-101067570D01*
X160596578Y-101053986D01*
X160574298Y-101035702D01*
X160556014Y-101013422D01*
X160542430Y-100988008D01*
X160534064Y-100960433D01*
X160531000Y-100929316D01*
X160531000Y-100540684D01*
X160534064Y-100509567D01*
X160542430Y-100481992D01*
X160556014Y-100456578D01*
X160574298Y-100434298D01*
X160596578Y-100416014D01*
X160621992Y-100402430D01*
X160649567Y-100394064D01*
X160680684Y-100391000D01*
X161119316Y-100391000D01*
X161150433Y-100394064D01*
X161150433Y-100394064D01*
G37*
G36*
X162650433Y-100394064D02*
X162678008Y-100402430D01*
X162703422Y-100416014D01*
X162725702Y-100434298D01*
X162743986Y-100456578D01*
X162757570Y-100481992D01*
X162765936Y-100509567D01*
X162769000Y-100540684D01*
X162769000Y-100929316D01*
X162765936Y-100960433D01*
X162757570Y-100988008D01*
X162743986Y-101013422D01*
X162725702Y-101035702D01*
X162703422Y-101053986D01*
X162678008Y-101067570D01*
X162650433Y-101075936D01*
X162619316Y-101079000D01*
X162180684Y-101079000D01*
X162149567Y-101075936D01*
X162121992Y-101067570D01*
X162096578Y-101053986D01*
X162074298Y-101035702D01*
X162056014Y-101013422D01*
X162042430Y-100988008D01*
X162034064Y-100960433D01*
X162031000Y-100929316D01*
X162031000Y-100540684D01*
X162034064Y-100509567D01*
X162042430Y-100481992D01*
X162056014Y-100456578D01*
X162074298Y-100434298D01*
X162096578Y-100416014D01*
X162121992Y-100402430D01*
X162149567Y-100394064D01*
X162180684Y-100391000D01*
X162619316Y-100391000D01*
X162650433Y-100394064D01*
X162650433Y-100394064D01*
G37*
G36*
X134097927Y-99956034D02*
X134144736Y-99970233D01*
X134187871Y-99993290D01*
X134225681Y-100024319D01*
X134256710Y-100062129D01*
X134279767Y-100105264D01*
X134293966Y-100152073D01*
X134299000Y-100203186D01*
X134299000Y-100796814D01*
X134293966Y-100847927D01*
X134279767Y-100894736D01*
X134256710Y-100937871D01*
X134225681Y-100975681D01*
X134187871Y-101006710D01*
X134144736Y-101029767D01*
X134097927Y-101043966D01*
X134046814Y-101049000D01*
X128953186Y-101049000D01*
X128902073Y-101043966D01*
X128855264Y-101029767D01*
X128812129Y-101006710D01*
X128774319Y-100975681D01*
X128743290Y-100937871D01*
X128720233Y-100894736D01*
X128706034Y-100847927D01*
X128701000Y-100796814D01*
X128701000Y-100203186D01*
X128706034Y-100152073D01*
X128720233Y-100105264D01*
X128743290Y-100062129D01*
X128774319Y-100024319D01*
X128812129Y-99993290D01*
X128855264Y-99970233D01*
X128902073Y-99956034D01*
X128953186Y-99951000D01*
X134046814Y-99951000D01*
X134097927Y-99956034D01*
X134097927Y-99956034D01*
G37*
G36*
X158297433Y-100189564D02*
X158325008Y-100197930D01*
X158350422Y-100211514D01*
X158372702Y-100229798D01*
X158390986Y-100252078D01*
X158404570Y-100277492D01*
X158412936Y-100305067D01*
X158416000Y-100336184D01*
X158416000Y-100724816D01*
X158412936Y-100755933D01*
X158404570Y-100783508D01*
X158390986Y-100808922D01*
X158372702Y-100831202D01*
X158350422Y-100849486D01*
X158325008Y-100863070D01*
X158297433Y-100871436D01*
X158266316Y-100874500D01*
X157827684Y-100874500D01*
X157796567Y-100871436D01*
X157768992Y-100863070D01*
X157743578Y-100849486D01*
X157721298Y-100831202D01*
X157703014Y-100808922D01*
X157689430Y-100783508D01*
X157681064Y-100755933D01*
X157678000Y-100724816D01*
X157678000Y-100336184D01*
X157681064Y-100305067D01*
X157689430Y-100277492D01*
X157703014Y-100252078D01*
X157721298Y-100229798D01*
X157743578Y-100211514D01*
X157768992Y-100197930D01*
X157796567Y-100189564D01*
X157827684Y-100186500D01*
X158266316Y-100186500D01*
X158297433Y-100189564D01*
X158297433Y-100189564D01*
G37*
G36*
X163631433Y-99427564D02*
X163659008Y-99435930D01*
X163684422Y-99449514D01*
X163706702Y-99467798D01*
X163724986Y-99490078D01*
X163738570Y-99515492D01*
X163746936Y-99543067D01*
X163750000Y-99574184D01*
X163750000Y-99962816D01*
X163746936Y-99993933D01*
X163738570Y-100021508D01*
X163724986Y-100046922D01*
X163706702Y-100069202D01*
X163684422Y-100087486D01*
X163659008Y-100101070D01*
X163631433Y-100109436D01*
X163600316Y-100112500D01*
X163161684Y-100112500D01*
X163130567Y-100109436D01*
X163102992Y-100101070D01*
X163077578Y-100087486D01*
X163055298Y-100069202D01*
X163037014Y-100046922D01*
X163023430Y-100021508D01*
X163015064Y-99993933D01*
X163012000Y-99962816D01*
X163012000Y-99574184D01*
X163015064Y-99543067D01*
X163023430Y-99515492D01*
X163037014Y-99490078D01*
X163055298Y-99467798D01*
X163077578Y-99449514D01*
X163102992Y-99435930D01*
X163130567Y-99427564D01*
X163161684Y-99424500D01*
X163600316Y-99424500D01*
X163631433Y-99427564D01*
X163631433Y-99427564D01*
G37*
G36*
X160075433Y-99427564D02*
X160103008Y-99435930D01*
X160128422Y-99449514D01*
X160150702Y-99467798D01*
X160168986Y-99490078D01*
X160182570Y-99515492D01*
X160190936Y-99543067D01*
X160194000Y-99574184D01*
X160194000Y-99962816D01*
X160190936Y-99993933D01*
X160182570Y-100021508D01*
X160168986Y-100046922D01*
X160150702Y-100069202D01*
X160128422Y-100087486D01*
X160103008Y-100101070D01*
X160075433Y-100109436D01*
X160044316Y-100112500D01*
X159605684Y-100112500D01*
X159574567Y-100109436D01*
X159546992Y-100101070D01*
X159521578Y-100087486D01*
X159499298Y-100069202D01*
X159481014Y-100046922D01*
X159467430Y-100021508D01*
X159459064Y-99993933D01*
X159456000Y-99962816D01*
X159456000Y-99574184D01*
X159459064Y-99543067D01*
X159467430Y-99515492D01*
X159481014Y-99490078D01*
X159499298Y-99467798D01*
X159521578Y-99449514D01*
X159546992Y-99435930D01*
X159574567Y-99427564D01*
X159605684Y-99424500D01*
X160044316Y-99424500D01*
X160075433Y-99427564D01*
X160075433Y-99427564D01*
G37*
G36*
X162650433Y-99424064D02*
X162678008Y-99432430D01*
X162703422Y-99446014D01*
X162725702Y-99464298D01*
X162743986Y-99486578D01*
X162757570Y-99511992D01*
X162765936Y-99539567D01*
X162769000Y-99570684D01*
X162769000Y-99959316D01*
X162765936Y-99990433D01*
X162757570Y-100018008D01*
X162743986Y-100043422D01*
X162725702Y-100065702D01*
X162703422Y-100083986D01*
X162678008Y-100097570D01*
X162650433Y-100105936D01*
X162619316Y-100109000D01*
X162180684Y-100109000D01*
X162149567Y-100105936D01*
X162121992Y-100097570D01*
X162096578Y-100083986D01*
X162074298Y-100065702D01*
X162056014Y-100043422D01*
X162042430Y-100018008D01*
X162034064Y-99990433D01*
X162031000Y-99959316D01*
X162031000Y-99570684D01*
X162034064Y-99539567D01*
X162042430Y-99511992D01*
X162056014Y-99486578D01*
X162074298Y-99464298D01*
X162096578Y-99446014D01*
X162121992Y-99432430D01*
X162149567Y-99424064D01*
X162180684Y-99421000D01*
X162619316Y-99421000D01*
X162650433Y-99424064D01*
X162650433Y-99424064D01*
G37*
G36*
X161150433Y-99424064D02*
X161178008Y-99432430D01*
X161203422Y-99446014D01*
X161225702Y-99464298D01*
X161243986Y-99486578D01*
X161257570Y-99511992D01*
X161265936Y-99539567D01*
X161269000Y-99570684D01*
X161269000Y-99959316D01*
X161265936Y-99990433D01*
X161257570Y-100018008D01*
X161243986Y-100043422D01*
X161225702Y-100065702D01*
X161203422Y-100083986D01*
X161178008Y-100097570D01*
X161150433Y-100105936D01*
X161119316Y-100109000D01*
X160680684Y-100109000D01*
X160649567Y-100105936D01*
X160621992Y-100097570D01*
X160596578Y-100083986D01*
X160574298Y-100065702D01*
X160556014Y-100043422D01*
X160542430Y-100018008D01*
X160534064Y-99990433D01*
X160531000Y-99959316D01*
X160531000Y-99570684D01*
X160534064Y-99539567D01*
X160542430Y-99511992D01*
X160556014Y-99486578D01*
X160574298Y-99464298D01*
X160596578Y-99446014D01*
X160621992Y-99432430D01*
X160649567Y-99424064D01*
X160680684Y-99421000D01*
X161119316Y-99421000D01*
X161150433Y-99424064D01*
X161150433Y-99424064D01*
G37*
G36*
X157102120Y-100051500D02*
X152580920Y-100051500D01*
X152580920Y-98489400D01*
X157102120Y-98489400D01*
X157102120Y-100051500D01*
X157102120Y-100051500D01*
G37*
G36*
X165425508Y-98105264D02*
X165510138Y-98122098D01*
X165582503Y-98152073D01*
X165610049Y-98163483D01*
X165669469Y-98203186D01*
X165699968Y-98223565D01*
X165776435Y-98300032D01*
X165836518Y-98389953D01*
X165877902Y-98489862D01*
X165899000Y-98595929D01*
X165899000Y-98704071D01*
X165877902Y-98810138D01*
X165842860Y-98894736D01*
X165836517Y-98910049D01*
X165776436Y-98999967D01*
X165699967Y-99076436D01*
X165610049Y-99136517D01*
X165610048Y-99136518D01*
X165610047Y-99136518D01*
X165510138Y-99177902D01*
X165457104Y-99188451D01*
X165404072Y-99199000D01*
X165295928Y-99199000D01*
X165189862Y-99177902D01*
X165089953Y-99136518D01*
X165089952Y-99136518D01*
X165089951Y-99136517D01*
X165000033Y-99076436D01*
X164923564Y-98999967D01*
X164863483Y-98910049D01*
X164857140Y-98894736D01*
X164822098Y-98810138D01*
X164801000Y-98704071D01*
X164801000Y-98595929D01*
X164822098Y-98489862D01*
X164863482Y-98389953D01*
X164923565Y-98300032D01*
X165000032Y-98223565D01*
X165030531Y-98203186D01*
X165089951Y-98163483D01*
X165117497Y-98152073D01*
X165189862Y-98122098D01*
X165274492Y-98105264D01*
X165295928Y-98101000D01*
X165404072Y-98101000D01*
X165425508Y-98105264D01*
X165425508Y-98105264D01*
G37*
G36*
X134097927Y-97956034D02*
X134144736Y-97970233D01*
X134187871Y-97993290D01*
X134225681Y-98024319D01*
X134256710Y-98062129D01*
X134279767Y-98105264D01*
X134293966Y-98152073D01*
X134299000Y-98203186D01*
X134299000Y-98796814D01*
X134293966Y-98847927D01*
X134279767Y-98894736D01*
X134256710Y-98937871D01*
X134225681Y-98975681D01*
X134187871Y-99006710D01*
X134144736Y-99029767D01*
X134097927Y-99043966D01*
X134046814Y-99049000D01*
X128953186Y-99049000D01*
X128902073Y-99043966D01*
X128855264Y-99029767D01*
X128812129Y-99006710D01*
X128774319Y-98975681D01*
X128743290Y-98937871D01*
X128720233Y-98894736D01*
X128706034Y-98847927D01*
X128701000Y-98796814D01*
X128701000Y-98203186D01*
X128706034Y-98152073D01*
X128720233Y-98105264D01*
X128743290Y-98062129D01*
X128774319Y-98024319D01*
X128812129Y-97993290D01*
X128855264Y-97970233D01*
X128902073Y-97956034D01*
X128953186Y-97951000D01*
X134046814Y-97951000D01*
X134097927Y-97956034D01*
X134097927Y-97956034D01*
G37*
G36*
X158869844Y-95547160D02*
X158870795Y-95556817D01*
X158873612Y-95566103D01*
X158878186Y-95574661D01*
X158884342Y-95582162D01*
X158891843Y-95588318D01*
X158900401Y-95592892D01*
X158909687Y-95595709D01*
X158919344Y-95596660D01*
X158922344Y-95596660D01*
X158932001Y-95595709D01*
X158941287Y-95592892D01*
X158949845Y-95588318D01*
X158957346Y-95582162D01*
X158963502Y-95574661D01*
X158968076Y-95566103D01*
X158970893Y-95556817D01*
X158971844Y-95547160D01*
X158971844Y-94521660D01*
X159369844Y-94521660D01*
X159369844Y-95547160D01*
X159370795Y-95556817D01*
X159373612Y-95566103D01*
X159378186Y-95574661D01*
X159384342Y-95582162D01*
X159391843Y-95588318D01*
X159400401Y-95592892D01*
X159409687Y-95595709D01*
X159419344Y-95596660D01*
X159422344Y-95596660D01*
X159432001Y-95595709D01*
X159441287Y-95592892D01*
X159449845Y-95588318D01*
X159457346Y-95582162D01*
X159463502Y-95574661D01*
X159468076Y-95566103D01*
X159470893Y-95556817D01*
X159471844Y-95547160D01*
X159471844Y-94521660D01*
X159869844Y-94521660D01*
X159869844Y-95547160D01*
X159870795Y-95556817D01*
X159873612Y-95566103D01*
X159878186Y-95574661D01*
X159884342Y-95582162D01*
X159891843Y-95588318D01*
X159900401Y-95592892D01*
X159909687Y-95595709D01*
X159919344Y-95596660D01*
X159922344Y-95596660D01*
X159932001Y-95595709D01*
X159941287Y-95592892D01*
X159949845Y-95588318D01*
X159957346Y-95582162D01*
X159963502Y-95574661D01*
X159968076Y-95566103D01*
X159970893Y-95556817D01*
X159971844Y-95547160D01*
X159971844Y-94521660D01*
X160369844Y-94521660D01*
X160369844Y-95547160D01*
X160370795Y-95556817D01*
X160373612Y-95566103D01*
X160378186Y-95574661D01*
X160384342Y-95582162D01*
X160391843Y-95588318D01*
X160400401Y-95592892D01*
X160409687Y-95595709D01*
X160419344Y-95596660D01*
X160422344Y-95596660D01*
X160432001Y-95595709D01*
X160441287Y-95592892D01*
X160449845Y-95588318D01*
X160457346Y-95582162D01*
X160463502Y-95574661D01*
X160468076Y-95566103D01*
X160470893Y-95556817D01*
X160471844Y-95547160D01*
X160471844Y-94521660D01*
X160869844Y-94521660D01*
X160869844Y-95472160D01*
X160870795Y-95481817D01*
X160873612Y-95491103D01*
X160878186Y-95499661D01*
X160884342Y-95507162D01*
X160891843Y-95513318D01*
X160900401Y-95517892D01*
X160909687Y-95520709D01*
X160919344Y-95521660D01*
X161869844Y-95521660D01*
X161869844Y-95919660D01*
X160844344Y-95919660D01*
X160834687Y-95920611D01*
X160825401Y-95923428D01*
X160816843Y-95928002D01*
X160809342Y-95934158D01*
X160803186Y-95941659D01*
X160798612Y-95950217D01*
X160795795Y-95959503D01*
X160794844Y-95969160D01*
X160794844Y-95972160D01*
X160795795Y-95981817D01*
X160798612Y-95991103D01*
X160803186Y-95999661D01*
X160809342Y-96007162D01*
X160816843Y-96013318D01*
X160825401Y-96017892D01*
X160834687Y-96020709D01*
X160844344Y-96021660D01*
X161869844Y-96021660D01*
X161869844Y-96419660D01*
X160844344Y-96419660D01*
X160834687Y-96420611D01*
X160825401Y-96423428D01*
X160816843Y-96428002D01*
X160809342Y-96434158D01*
X160803186Y-96441659D01*
X160798612Y-96450217D01*
X160795795Y-96459503D01*
X160794844Y-96469160D01*
X160794844Y-96472160D01*
X160795795Y-96481817D01*
X160798612Y-96491103D01*
X160803186Y-96499661D01*
X160809342Y-96507162D01*
X160816843Y-96513318D01*
X160825401Y-96517892D01*
X160834687Y-96520709D01*
X160844344Y-96521660D01*
X161869844Y-96521660D01*
X161869844Y-96919660D01*
X160844344Y-96919660D01*
X160834687Y-96920611D01*
X160825401Y-96923428D01*
X160816843Y-96928002D01*
X160809342Y-96934158D01*
X160803186Y-96941659D01*
X160798612Y-96950217D01*
X160795795Y-96959503D01*
X160794844Y-96969160D01*
X160794844Y-96972160D01*
X160795795Y-96981817D01*
X160798612Y-96991103D01*
X160803186Y-96999661D01*
X160809342Y-97007162D01*
X160816843Y-97013318D01*
X160825401Y-97017892D01*
X160834687Y-97020709D01*
X160844344Y-97021660D01*
X161869844Y-97021660D01*
X161869844Y-97419660D01*
X160844344Y-97419660D01*
X160834687Y-97420611D01*
X160825401Y-97423428D01*
X160816843Y-97428002D01*
X160809342Y-97434158D01*
X160803186Y-97441659D01*
X160798612Y-97450217D01*
X160795795Y-97459503D01*
X160794844Y-97469160D01*
X160794844Y-97472160D01*
X160795795Y-97481817D01*
X160798612Y-97491103D01*
X160803186Y-97499661D01*
X160809342Y-97507162D01*
X160816843Y-97513318D01*
X160825401Y-97517892D01*
X160834687Y-97520709D01*
X160844344Y-97521660D01*
X161869844Y-97521660D01*
X161869844Y-97919660D01*
X160919344Y-97919660D01*
X160909687Y-97920611D01*
X160900401Y-97923428D01*
X160891843Y-97928002D01*
X160884342Y-97934158D01*
X160878186Y-97941659D01*
X160873612Y-97950217D01*
X160870795Y-97959503D01*
X160869844Y-97969160D01*
X160869844Y-98919660D01*
X160471844Y-98919660D01*
X160471844Y-97894160D01*
X160470893Y-97884503D01*
X160468076Y-97875217D01*
X160463502Y-97866659D01*
X160457346Y-97859158D01*
X160449845Y-97853002D01*
X160441287Y-97848428D01*
X160432001Y-97845611D01*
X160422344Y-97844660D01*
X160419344Y-97844660D01*
X160409687Y-97845611D01*
X160400401Y-97848428D01*
X160391843Y-97853002D01*
X160384342Y-97859158D01*
X160378186Y-97866659D01*
X160373612Y-97875217D01*
X160370795Y-97884503D01*
X160369844Y-97894160D01*
X160369844Y-98919660D01*
X159971844Y-98919660D01*
X159971844Y-97894160D01*
X159970893Y-97884503D01*
X159968076Y-97875217D01*
X159963502Y-97866659D01*
X159957346Y-97859158D01*
X159949845Y-97853002D01*
X159941287Y-97848428D01*
X159932001Y-97845611D01*
X159922344Y-97844660D01*
X159919344Y-97844660D01*
X159909687Y-97845611D01*
X159900401Y-97848428D01*
X159891843Y-97853002D01*
X159884342Y-97859158D01*
X159878186Y-97866659D01*
X159873612Y-97875217D01*
X159870795Y-97884503D01*
X159869844Y-97894160D01*
X159869844Y-98919660D01*
X159471844Y-98919660D01*
X159471844Y-97894160D01*
X159470893Y-97884503D01*
X159468076Y-97875217D01*
X159463502Y-97866659D01*
X159457346Y-97859158D01*
X159449845Y-97853002D01*
X159441287Y-97848428D01*
X159432001Y-97845611D01*
X159422344Y-97844660D01*
X159419344Y-97844660D01*
X159409687Y-97845611D01*
X159400401Y-97848428D01*
X159391843Y-97853002D01*
X159384342Y-97859158D01*
X159378186Y-97866659D01*
X159373612Y-97875217D01*
X159370795Y-97884503D01*
X159369844Y-97894160D01*
X159369844Y-98919660D01*
X158971844Y-98919660D01*
X158971844Y-97894160D01*
X158970893Y-97884503D01*
X158968076Y-97875217D01*
X158963502Y-97866659D01*
X158957346Y-97859158D01*
X158949845Y-97853002D01*
X158941287Y-97848428D01*
X158932001Y-97845611D01*
X158922344Y-97844660D01*
X158919344Y-97844660D01*
X158909687Y-97845611D01*
X158900401Y-97848428D01*
X158891843Y-97853002D01*
X158884342Y-97859158D01*
X158878186Y-97866659D01*
X158873612Y-97875217D01*
X158870795Y-97884503D01*
X158869844Y-97894160D01*
X158869844Y-98919660D01*
X158471844Y-98919660D01*
X158471844Y-97969160D01*
X158470893Y-97959503D01*
X158468076Y-97950217D01*
X158463502Y-97941659D01*
X158457346Y-97934158D01*
X158449845Y-97928002D01*
X158441287Y-97923428D01*
X158432001Y-97920611D01*
X158422344Y-97919660D01*
X157471844Y-97919660D01*
X157471844Y-97521660D01*
X158497344Y-97521660D01*
X158507001Y-97520709D01*
X158516287Y-97517892D01*
X158524845Y-97513318D01*
X158532346Y-97507162D01*
X158538502Y-97499661D01*
X158543076Y-97491103D01*
X158545893Y-97481817D01*
X158546844Y-97472160D01*
X158546844Y-97469160D01*
X158545893Y-97459503D01*
X158543076Y-97450217D01*
X158538502Y-97441659D01*
X158532346Y-97434158D01*
X158524845Y-97428002D01*
X158516287Y-97423428D01*
X158507001Y-97420611D01*
X158497344Y-97419660D01*
X157471844Y-97419660D01*
X157471844Y-97021660D01*
X158497344Y-97021660D01*
X158507001Y-97020709D01*
X158516287Y-97017892D01*
X158524845Y-97013318D01*
X158532346Y-97007162D01*
X158538502Y-96999661D01*
X158543076Y-96991103D01*
X158545893Y-96981817D01*
X158546844Y-96972160D01*
X158546844Y-96969160D01*
X158545893Y-96959503D01*
X158543076Y-96950217D01*
X158538502Y-96941659D01*
X158532346Y-96934158D01*
X158524845Y-96928002D01*
X158516287Y-96923428D01*
X158507001Y-96920611D01*
X158497344Y-96919660D01*
X157471844Y-96919660D01*
X157471844Y-96521660D01*
X158497344Y-96521660D01*
X158507001Y-96520709D01*
X158516287Y-96517892D01*
X158524845Y-96513318D01*
X158532346Y-96507162D01*
X158538502Y-96499661D01*
X158543076Y-96491103D01*
X158545893Y-96481817D01*
X158546844Y-96472160D01*
X158546844Y-96469160D01*
X158545893Y-96459503D01*
X158543076Y-96450217D01*
X158538502Y-96441659D01*
X158532346Y-96434158D01*
X158524845Y-96428002D01*
X158516287Y-96423428D01*
X158507001Y-96420611D01*
X158497344Y-96419660D01*
X157471844Y-96419660D01*
X157471844Y-96021660D01*
X158497344Y-96021660D01*
X158507001Y-96020709D01*
X158516287Y-96017892D01*
X158524845Y-96013318D01*
X158532346Y-96007162D01*
X158538502Y-95999661D01*
X158543076Y-95991103D01*
X158545893Y-95981817D01*
X158546844Y-95972160D01*
X158546844Y-95969160D01*
X158545893Y-95959503D01*
X158543076Y-95950217D01*
X158538502Y-95941659D01*
X158532346Y-95934158D01*
X158524845Y-95928002D01*
X158516287Y-95923428D01*
X158507001Y-95920611D01*
X158497344Y-95919660D01*
X157471844Y-95919660D01*
X157471844Y-95521660D01*
X158422344Y-95521660D01*
X158432001Y-95520709D01*
X158441287Y-95517892D01*
X158449845Y-95513318D01*
X158457346Y-95507162D01*
X158463502Y-95499661D01*
X158468076Y-95491103D01*
X158470893Y-95481817D01*
X158471844Y-95472160D01*
X158471844Y-94521660D01*
X158869844Y-94521660D01*
X158869844Y-95547160D01*
X158869844Y-95547160D01*
G37*
G36*
X163631433Y-98111564D02*
X163659008Y-98119930D01*
X163684422Y-98133514D01*
X163706702Y-98151798D01*
X163724986Y-98174078D01*
X163738570Y-98199492D01*
X163746936Y-98227067D01*
X163750000Y-98258184D01*
X163750000Y-98646816D01*
X163746936Y-98677933D01*
X163738570Y-98705508D01*
X163724986Y-98730922D01*
X163706702Y-98753202D01*
X163684422Y-98771486D01*
X163659008Y-98785070D01*
X163631433Y-98793436D01*
X163600316Y-98796500D01*
X163161684Y-98796500D01*
X163130567Y-98793436D01*
X163102992Y-98785070D01*
X163077578Y-98771486D01*
X163055298Y-98753202D01*
X163037014Y-98730922D01*
X163023430Y-98705508D01*
X163015064Y-98677933D01*
X163012000Y-98646816D01*
X163012000Y-98258184D01*
X163015064Y-98227067D01*
X163023430Y-98199492D01*
X163037014Y-98174078D01*
X163055298Y-98151798D01*
X163077578Y-98133514D01*
X163102992Y-98119930D01*
X163130567Y-98111564D01*
X163161684Y-98108500D01*
X163600316Y-98108500D01*
X163631433Y-98111564D01*
X163631433Y-98111564D01*
G37*
G36*
X125075450Y-96666987D02*
X125088899Y-96672558D01*
X125269267Y-96747269D01*
X125357368Y-96806137D01*
X125443699Y-96863821D01*
X125592039Y-97012161D01*
X125611097Y-97040684D01*
X125708591Y-97186593D01*
X125750671Y-97288184D01*
X125788873Y-97380410D01*
X125829800Y-97586167D01*
X125829800Y-97795953D01*
X125788873Y-98001710D01*
X125779640Y-98024000D01*
X125708591Y-98195527D01*
X125651813Y-98280500D01*
X125592039Y-98369959D01*
X125443699Y-98518299D01*
X125385554Y-98557150D01*
X125269267Y-98634851D01*
X125140055Y-98688372D01*
X125075450Y-98715133D01*
X124869693Y-98756060D01*
X124659907Y-98756060D01*
X124454150Y-98715133D01*
X124389545Y-98688372D01*
X124260333Y-98634851D01*
X124144046Y-98557150D01*
X124085901Y-98518299D01*
X123937561Y-98369959D01*
X123877787Y-98280500D01*
X123821009Y-98195527D01*
X123749960Y-98024000D01*
X123740727Y-98001710D01*
X123699800Y-97795953D01*
X123699800Y-97586167D01*
X123740727Y-97380410D01*
X123778929Y-97288184D01*
X123821009Y-97186593D01*
X123918503Y-97040684D01*
X123937561Y-97012161D01*
X124085901Y-96863821D01*
X124172232Y-96806137D01*
X124260333Y-96747269D01*
X124440701Y-96672558D01*
X124454150Y-96666987D01*
X124659907Y-96626060D01*
X124869693Y-96626060D01*
X125075450Y-96666987D01*
X125075450Y-96666987D01*
G37*
G36*
X156348082Y-97055434D02*
X156389026Y-97067854D01*
X156426760Y-97088023D01*
X156459834Y-97115166D01*
X156486977Y-97148240D01*
X156507146Y-97185974D01*
X156519566Y-97226918D01*
X156524000Y-97271936D01*
X156524000Y-97803064D01*
X156519566Y-97848082D01*
X156507146Y-97889026D01*
X156486977Y-97926760D01*
X156459834Y-97959834D01*
X156426760Y-97986977D01*
X156389026Y-98007146D01*
X156348082Y-98019566D01*
X156303064Y-98024000D01*
X155696936Y-98024000D01*
X155651918Y-98019566D01*
X155610974Y-98007146D01*
X155573240Y-97986977D01*
X155540166Y-97959834D01*
X155513023Y-97926760D01*
X155492854Y-97889026D01*
X155480434Y-97848082D01*
X155476000Y-97803064D01*
X155476000Y-97271936D01*
X155480434Y-97226918D01*
X155492854Y-97185974D01*
X155513023Y-97148240D01*
X155540166Y-97115166D01*
X155573240Y-97088023D01*
X155610974Y-97067854D01*
X155651918Y-97055434D01*
X155696936Y-97051000D01*
X156303064Y-97051000D01*
X156348082Y-97055434D01*
X156348082Y-97055434D01*
G37*
G36*
X163631433Y-97141564D02*
X163659008Y-97149930D01*
X163684422Y-97163514D01*
X163706702Y-97181798D01*
X163724986Y-97204078D01*
X163738570Y-97229492D01*
X163746936Y-97257067D01*
X163750000Y-97288184D01*
X163750000Y-97676816D01*
X163746936Y-97707933D01*
X163738570Y-97735508D01*
X163724986Y-97760922D01*
X163706702Y-97783202D01*
X163684422Y-97801486D01*
X163659008Y-97815070D01*
X163631433Y-97823436D01*
X163600316Y-97826500D01*
X163161684Y-97826500D01*
X163130567Y-97823436D01*
X163102992Y-97815070D01*
X163077578Y-97801486D01*
X163055298Y-97783202D01*
X163037014Y-97760922D01*
X163023430Y-97735508D01*
X163015064Y-97707933D01*
X163012000Y-97676816D01*
X163012000Y-97288184D01*
X163015064Y-97257067D01*
X163023430Y-97229492D01*
X163037014Y-97204078D01*
X163055298Y-97181798D01*
X163077578Y-97163514D01*
X163102992Y-97149930D01*
X163130567Y-97141564D01*
X163161684Y-97138500D01*
X163600316Y-97138500D01*
X163631433Y-97141564D01*
X163631433Y-97141564D01*
G37*
G36*
X154000433Y-96894064D02*
X154028008Y-96902430D01*
X154053422Y-96916014D01*
X154075702Y-96934298D01*
X154093986Y-96956578D01*
X154107570Y-96981992D01*
X154115936Y-97009567D01*
X154119000Y-97040684D01*
X154119000Y-97429316D01*
X154115936Y-97460433D01*
X154107570Y-97488008D01*
X154093986Y-97513422D01*
X154075702Y-97535702D01*
X154053422Y-97553986D01*
X154028008Y-97567570D01*
X154000433Y-97575936D01*
X153969316Y-97579000D01*
X153530684Y-97579000D01*
X153499567Y-97575936D01*
X153471992Y-97567570D01*
X153446578Y-97553986D01*
X153424298Y-97535702D01*
X153406014Y-97513422D01*
X153392430Y-97488008D01*
X153384064Y-97460433D01*
X153381000Y-97429316D01*
X153381000Y-97040684D01*
X153384064Y-97009567D01*
X153392430Y-96981992D01*
X153406014Y-96956578D01*
X153424298Y-96934298D01*
X153446578Y-96916014D01*
X153471992Y-96902430D01*
X153499567Y-96894064D01*
X153530684Y-96891000D01*
X153969316Y-96891000D01*
X154000433Y-96894064D01*
X154000433Y-96894064D01*
G37*
G36*
X155000433Y-96884724D02*
X155028008Y-96893090D01*
X155053422Y-96906674D01*
X155075702Y-96924958D01*
X155093986Y-96947238D01*
X155107570Y-96972652D01*
X155115936Y-97000227D01*
X155119000Y-97031344D01*
X155119000Y-97419976D01*
X155115936Y-97451093D01*
X155107570Y-97478668D01*
X155093986Y-97504082D01*
X155075702Y-97526362D01*
X155053422Y-97544646D01*
X155028008Y-97558230D01*
X155000433Y-97566596D01*
X154969316Y-97569660D01*
X154530684Y-97569660D01*
X154499567Y-97566596D01*
X154471992Y-97558230D01*
X154446578Y-97544646D01*
X154424298Y-97526362D01*
X154406014Y-97504082D01*
X154392430Y-97478668D01*
X154384064Y-97451093D01*
X154381000Y-97419976D01*
X154381000Y-97031344D01*
X154384064Y-97000227D01*
X154392430Y-96972652D01*
X154406014Y-96947238D01*
X154424298Y-96924958D01*
X154446578Y-96906674D01*
X154471992Y-96893090D01*
X154499567Y-96884724D01*
X154530684Y-96881660D01*
X154969316Y-96881660D01*
X155000433Y-96884724D01*
X155000433Y-96884724D01*
G37*
G36*
X166160138Y-96022098D02*
X166260047Y-96063482D01*
X166260049Y-96063483D01*
X166349967Y-96123564D01*
X166426436Y-96200033D01*
X166475246Y-96273082D01*
X166486518Y-96289953D01*
X166527902Y-96389862D01*
X166549000Y-96495929D01*
X166549000Y-96604071D01*
X166527902Y-96710138D01*
X166486518Y-96810047D01*
X166486517Y-96810049D01*
X166426436Y-96899967D01*
X166349967Y-96976436D01*
X166260049Y-97036517D01*
X166260048Y-97036518D01*
X166260047Y-97036518D01*
X166160138Y-97077902D01*
X166109256Y-97088023D01*
X166054072Y-97099000D01*
X165945928Y-97099000D01*
X165890744Y-97088023D01*
X165839862Y-97077902D01*
X165739953Y-97036518D01*
X165739952Y-97036518D01*
X165739951Y-97036517D01*
X165650033Y-96976436D01*
X165573564Y-96899967D01*
X165513483Y-96810049D01*
X165513482Y-96810047D01*
X165472098Y-96710138D01*
X165451000Y-96604071D01*
X165451000Y-96495929D01*
X165472098Y-96389862D01*
X165513482Y-96289953D01*
X165524755Y-96273082D01*
X165573564Y-96200033D01*
X165650033Y-96123564D01*
X165739951Y-96063483D01*
X165739953Y-96063482D01*
X165839862Y-96022098D01*
X165945928Y-96001000D01*
X166054072Y-96001000D01*
X166160138Y-96022098D01*
X166160138Y-96022098D01*
G37*
G36*
X130612793Y-95255679D02*
X130656137Y-95268828D01*
X130696077Y-95290176D01*
X130731090Y-95318910D01*
X130759824Y-95353923D01*
X130781172Y-95393863D01*
X130794321Y-95437207D01*
X130799000Y-95484716D01*
X130799000Y-96715284D01*
X130794321Y-96762793D01*
X130781172Y-96806137D01*
X130759824Y-96846077D01*
X130731090Y-96881090D01*
X130696077Y-96909824D01*
X130656137Y-96931172D01*
X130612793Y-96944321D01*
X130565284Y-96949000D01*
X127934716Y-96949000D01*
X127887207Y-96944321D01*
X127843863Y-96931172D01*
X127803923Y-96909824D01*
X127768910Y-96881090D01*
X127740176Y-96846077D01*
X127718828Y-96806137D01*
X127705679Y-96762793D01*
X127701000Y-96715284D01*
X127701000Y-95484716D01*
X127705679Y-95437207D01*
X127718828Y-95393863D01*
X127740176Y-95353923D01*
X127768910Y-95318910D01*
X127803923Y-95290176D01*
X127843863Y-95268828D01*
X127887207Y-95255679D01*
X127934716Y-95251000D01*
X130565284Y-95251000D01*
X130612793Y-95255679D01*
X130612793Y-95255679D01*
G37*
G36*
X163565933Y-96014064D02*
X163593508Y-96022430D01*
X163618922Y-96036014D01*
X163641202Y-96054298D01*
X163659486Y-96076578D01*
X163673070Y-96101992D01*
X163681436Y-96129567D01*
X163684500Y-96160684D01*
X163684500Y-96599316D01*
X163681436Y-96630433D01*
X163673070Y-96658008D01*
X163659486Y-96683422D01*
X163641202Y-96705702D01*
X163618922Y-96723986D01*
X163593508Y-96737570D01*
X163565933Y-96745936D01*
X163534816Y-96749000D01*
X163146184Y-96749000D01*
X163115067Y-96745936D01*
X163087492Y-96737570D01*
X163062078Y-96723986D01*
X163039798Y-96705702D01*
X163021514Y-96683422D01*
X163007930Y-96658008D01*
X162999564Y-96630433D01*
X162996500Y-96599316D01*
X162996500Y-96160684D01*
X162999564Y-96129567D01*
X163007930Y-96101992D01*
X163021514Y-96076578D01*
X163039798Y-96054298D01*
X163062078Y-96036014D01*
X163087492Y-96022430D01*
X163115067Y-96014064D01*
X163146184Y-96011000D01*
X163534816Y-96011000D01*
X163565933Y-96014064D01*
X163565933Y-96014064D01*
G37*
G36*
X164535933Y-96014064D02*
X164563508Y-96022430D01*
X164588922Y-96036014D01*
X164611202Y-96054298D01*
X164629486Y-96076578D01*
X164643070Y-96101992D01*
X164651436Y-96129567D01*
X164654500Y-96160684D01*
X164654500Y-96599316D01*
X164651436Y-96630433D01*
X164643070Y-96658008D01*
X164629486Y-96683422D01*
X164611202Y-96705702D01*
X164588922Y-96723986D01*
X164563508Y-96737570D01*
X164535933Y-96745936D01*
X164504816Y-96749000D01*
X164116184Y-96749000D01*
X164085067Y-96745936D01*
X164057492Y-96737570D01*
X164032078Y-96723986D01*
X164009798Y-96705702D01*
X163991514Y-96683422D01*
X163977930Y-96658008D01*
X163969564Y-96630433D01*
X163966500Y-96599316D01*
X163966500Y-96160684D01*
X163969564Y-96129567D01*
X163977930Y-96101992D01*
X163991514Y-96076578D01*
X164009798Y-96054298D01*
X164032078Y-96036014D01*
X164057492Y-96022430D01*
X164085067Y-96014064D01*
X164116184Y-96011000D01*
X164504816Y-96011000D01*
X164535933Y-96014064D01*
X164535933Y-96014064D01*
G37*
G36*
X154000433Y-95924064D02*
X154028008Y-95932430D01*
X154053422Y-95946014D01*
X154075702Y-95964298D01*
X154093986Y-95986578D01*
X154107570Y-96011992D01*
X154115936Y-96039567D01*
X154119000Y-96070684D01*
X154119000Y-96459316D01*
X154115936Y-96490433D01*
X154107570Y-96518008D01*
X154093986Y-96543422D01*
X154075702Y-96565702D01*
X154053422Y-96583986D01*
X154028008Y-96597570D01*
X154000433Y-96605936D01*
X153969316Y-96609000D01*
X153530684Y-96609000D01*
X153499567Y-96605936D01*
X153471992Y-96597570D01*
X153446578Y-96583986D01*
X153424298Y-96565702D01*
X153406014Y-96543422D01*
X153392430Y-96518008D01*
X153384064Y-96490433D01*
X153381000Y-96459316D01*
X153381000Y-96070684D01*
X153384064Y-96039567D01*
X153392430Y-96011992D01*
X153406014Y-95986578D01*
X153424298Y-95964298D01*
X153446578Y-95946014D01*
X153471992Y-95932430D01*
X153499567Y-95924064D01*
X153530684Y-95921000D01*
X153969316Y-95921000D01*
X154000433Y-95924064D01*
X154000433Y-95924064D01*
G37*
G36*
X155000433Y-95914724D02*
X155028008Y-95923090D01*
X155053422Y-95936674D01*
X155075702Y-95954958D01*
X155093986Y-95977238D01*
X155107570Y-96002652D01*
X155115936Y-96030227D01*
X155119000Y-96061344D01*
X155119000Y-96449976D01*
X155115936Y-96481093D01*
X155107570Y-96508668D01*
X155093986Y-96534082D01*
X155075702Y-96556362D01*
X155053422Y-96574646D01*
X155028008Y-96588230D01*
X155000433Y-96596596D01*
X154969316Y-96599660D01*
X154530684Y-96599660D01*
X154499567Y-96596596D01*
X154471992Y-96588230D01*
X154446578Y-96574646D01*
X154424298Y-96556362D01*
X154406014Y-96534082D01*
X154392430Y-96508668D01*
X154384064Y-96481093D01*
X154381000Y-96449976D01*
X154381000Y-96061344D01*
X154384064Y-96030227D01*
X154392430Y-96002652D01*
X154406014Y-95977238D01*
X154424298Y-95954958D01*
X154446578Y-95936674D01*
X154471992Y-95923090D01*
X154499567Y-95914724D01*
X154530684Y-95911660D01*
X154969316Y-95911660D01*
X155000433Y-95914724D01*
X155000433Y-95914724D01*
G37*
G36*
X156348082Y-95480434D02*
X156389026Y-95492854D01*
X156426760Y-95513023D01*
X156459834Y-95540166D01*
X156486977Y-95573240D01*
X156507146Y-95610974D01*
X156519566Y-95651918D01*
X156524000Y-95696936D01*
X156524000Y-96228064D01*
X156519566Y-96273082D01*
X156507146Y-96314026D01*
X156486977Y-96351760D01*
X156459834Y-96384834D01*
X156426760Y-96411977D01*
X156389026Y-96432146D01*
X156348082Y-96444566D01*
X156303064Y-96449000D01*
X155696936Y-96449000D01*
X155651918Y-96444566D01*
X155610974Y-96432146D01*
X155573240Y-96411977D01*
X155540166Y-96384834D01*
X155513023Y-96351760D01*
X155492854Y-96314026D01*
X155480434Y-96273082D01*
X155476000Y-96228064D01*
X155476000Y-95696936D01*
X155480434Y-95651918D01*
X155492854Y-95610974D01*
X155513023Y-95573240D01*
X155540166Y-95540166D01*
X155573240Y-95513023D01*
X155610974Y-95492854D01*
X155651918Y-95480434D01*
X155696936Y-95476000D01*
X156303064Y-95476000D01*
X156348082Y-95480434D01*
X156348082Y-95480434D01*
G37*
G36*
X164535933Y-94984064D02*
X164563508Y-94992430D01*
X164588922Y-95006014D01*
X164611202Y-95024298D01*
X164629486Y-95046578D01*
X164643070Y-95071992D01*
X164651436Y-95099567D01*
X164654500Y-95130684D01*
X164654500Y-95569316D01*
X164651436Y-95600433D01*
X164643070Y-95628008D01*
X164629486Y-95653422D01*
X164611202Y-95675702D01*
X164588922Y-95693986D01*
X164563508Y-95707570D01*
X164535933Y-95715936D01*
X164504816Y-95719000D01*
X164116184Y-95719000D01*
X164085067Y-95715936D01*
X164057492Y-95707570D01*
X164032078Y-95693986D01*
X164009798Y-95675702D01*
X163991514Y-95653422D01*
X163977930Y-95628008D01*
X163969564Y-95600433D01*
X163966500Y-95569316D01*
X163966500Y-95130684D01*
X163969564Y-95099567D01*
X163977930Y-95071992D01*
X163991514Y-95046578D01*
X164009798Y-95024298D01*
X164032078Y-95006014D01*
X164057492Y-94992430D01*
X164085067Y-94984064D01*
X164116184Y-94981000D01*
X164504816Y-94981000D01*
X164535933Y-94984064D01*
X164535933Y-94984064D01*
G37*
G36*
X163565933Y-94984064D02*
X163593508Y-94992430D01*
X163618922Y-95006014D01*
X163641202Y-95024298D01*
X163659486Y-95046578D01*
X163673070Y-95071992D01*
X163681436Y-95099567D01*
X163684500Y-95130684D01*
X163684500Y-95569316D01*
X163681436Y-95600433D01*
X163673070Y-95628008D01*
X163659486Y-95653422D01*
X163641202Y-95675702D01*
X163618922Y-95693986D01*
X163593508Y-95707570D01*
X163565933Y-95715936D01*
X163534816Y-95719000D01*
X163146184Y-95719000D01*
X163115067Y-95715936D01*
X163087492Y-95707570D01*
X163062078Y-95693986D01*
X163039798Y-95675702D01*
X163021514Y-95653422D01*
X163007930Y-95628008D01*
X162999564Y-95600433D01*
X162996500Y-95569316D01*
X162996500Y-95130684D01*
X162999564Y-95099567D01*
X163007930Y-95071992D01*
X163021514Y-95046578D01*
X163039798Y-95024298D01*
X163062078Y-95006014D01*
X163087492Y-94992430D01*
X163115067Y-94984064D01*
X163146184Y-94981000D01*
X163534816Y-94981000D01*
X163565933Y-94984064D01*
X163565933Y-94984064D01*
G37*
G36*
X157069100Y-94894100D02*
X152547900Y-94894100D01*
X152547900Y-93332000D01*
X157069100Y-93332000D01*
X157069100Y-94894100D01*
X157069100Y-94894100D01*
G37*
G36*
X164560433Y-93984064D02*
X164588008Y-93992430D01*
X164613422Y-94006014D01*
X164635702Y-94024298D01*
X164653986Y-94046578D01*
X164667570Y-94071992D01*
X164675936Y-94099567D01*
X164679000Y-94130684D01*
X164679000Y-94569316D01*
X164675936Y-94600433D01*
X164667570Y-94628008D01*
X164653986Y-94653422D01*
X164635702Y-94675702D01*
X164613422Y-94693986D01*
X164588008Y-94707570D01*
X164560433Y-94715936D01*
X164529316Y-94719000D01*
X164140684Y-94719000D01*
X164109567Y-94715936D01*
X164081992Y-94707570D01*
X164056578Y-94693986D01*
X164034298Y-94675702D01*
X164016014Y-94653422D01*
X164002430Y-94628008D01*
X163994064Y-94600433D01*
X163991000Y-94569316D01*
X163991000Y-94130684D01*
X163994064Y-94099567D01*
X164002430Y-94071992D01*
X164016014Y-94046578D01*
X164034298Y-94024298D01*
X164056578Y-94006014D01*
X164081992Y-93992430D01*
X164109567Y-93984064D01*
X164140684Y-93981000D01*
X164529316Y-93981000D01*
X164560433Y-93984064D01*
X164560433Y-93984064D01*
G37*
G36*
X163590433Y-93984064D02*
X163618008Y-93992430D01*
X163643422Y-94006014D01*
X163665702Y-94024298D01*
X163683986Y-94046578D01*
X163697570Y-94071992D01*
X163705936Y-94099567D01*
X163709000Y-94130684D01*
X163709000Y-94569316D01*
X163705936Y-94600433D01*
X163697570Y-94628008D01*
X163683986Y-94653422D01*
X163665702Y-94675702D01*
X163643422Y-94693986D01*
X163618008Y-94707570D01*
X163590433Y-94715936D01*
X163559316Y-94719000D01*
X163170684Y-94719000D01*
X163139567Y-94715936D01*
X163111992Y-94707570D01*
X163086578Y-94693986D01*
X163064298Y-94675702D01*
X163046014Y-94653422D01*
X163032430Y-94628008D01*
X163024064Y-94600433D01*
X163021000Y-94569316D01*
X163021000Y-94130684D01*
X163024064Y-94099567D01*
X163032430Y-94071992D01*
X163046014Y-94046578D01*
X163064298Y-94024298D01*
X163086578Y-94006014D01*
X163111992Y-93992430D01*
X163139567Y-93984064D01*
X163170684Y-93981000D01*
X163559316Y-93981000D01*
X163590433Y-93984064D01*
X163590433Y-93984064D01*
G37*
G36*
X161662933Y-92968064D02*
X161690508Y-92976430D01*
X161715922Y-92990014D01*
X161738202Y-93008298D01*
X161756486Y-93030578D01*
X161770070Y-93055992D01*
X161778436Y-93083567D01*
X161781500Y-93114684D01*
X161781500Y-93503316D01*
X161778436Y-93534433D01*
X161770070Y-93562008D01*
X161756486Y-93587422D01*
X161738202Y-93609702D01*
X161715922Y-93627986D01*
X161690508Y-93641570D01*
X161662933Y-93649936D01*
X161631816Y-93653000D01*
X161193184Y-93653000D01*
X161162067Y-93649936D01*
X161134492Y-93641570D01*
X161109078Y-93627986D01*
X161086798Y-93609702D01*
X161068514Y-93587422D01*
X161054930Y-93562008D01*
X161046564Y-93534433D01*
X161043500Y-93503316D01*
X161043500Y-93114684D01*
X161046564Y-93083567D01*
X161054930Y-93055992D01*
X161068514Y-93030578D01*
X161086798Y-93008298D01*
X161109078Y-92990014D01*
X161134492Y-92976430D01*
X161162067Y-92968064D01*
X161193184Y-92965000D01*
X161631816Y-92965000D01*
X161662933Y-92968064D01*
X161662933Y-92968064D01*
G37*
G36*
X159122933Y-92968064D02*
X159150508Y-92976430D01*
X159175922Y-92990014D01*
X159198202Y-93008298D01*
X159216486Y-93030578D01*
X159230070Y-93055992D01*
X159238436Y-93083567D01*
X159241500Y-93114684D01*
X159241500Y-93503316D01*
X159238436Y-93534433D01*
X159230070Y-93562008D01*
X159216486Y-93587422D01*
X159198202Y-93609702D01*
X159175922Y-93627986D01*
X159150508Y-93641570D01*
X159122933Y-93649936D01*
X159091816Y-93653000D01*
X158653184Y-93653000D01*
X158622067Y-93649936D01*
X158594492Y-93641570D01*
X158569078Y-93627986D01*
X158546798Y-93609702D01*
X158528514Y-93587422D01*
X158514930Y-93562008D01*
X158506564Y-93534433D01*
X158503500Y-93503316D01*
X158503500Y-93114684D01*
X158506564Y-93083567D01*
X158514930Y-93055992D01*
X158528514Y-93030578D01*
X158546798Y-93008298D01*
X158569078Y-92990014D01*
X158594492Y-92976430D01*
X158622067Y-92968064D01*
X158653184Y-92965000D01*
X159091816Y-92965000D01*
X159122933Y-92968064D01*
X159122933Y-92968064D01*
G37*
G36*
X160583433Y-92968064D02*
X160611008Y-92976430D01*
X160636422Y-92990014D01*
X160658702Y-93008298D01*
X160676986Y-93030578D01*
X160690570Y-93055992D01*
X160698936Y-93083567D01*
X160702000Y-93114684D01*
X160702000Y-93503316D01*
X160698936Y-93534433D01*
X160690570Y-93562008D01*
X160676986Y-93587422D01*
X160658702Y-93609702D01*
X160636422Y-93627986D01*
X160611008Y-93641570D01*
X160583433Y-93649936D01*
X160552316Y-93653000D01*
X160113684Y-93653000D01*
X160082567Y-93649936D01*
X160054992Y-93641570D01*
X160029578Y-93627986D01*
X160007298Y-93609702D01*
X159989014Y-93587422D01*
X159975430Y-93562008D01*
X159967064Y-93534433D01*
X159964000Y-93503316D01*
X159964000Y-93114684D01*
X159967064Y-93083567D01*
X159975430Y-93055992D01*
X159989014Y-93030578D01*
X160007298Y-93008298D01*
X160029578Y-92990014D01*
X160054992Y-92976430D01*
X160082567Y-92968064D01*
X160113684Y-92965000D01*
X160552316Y-92965000D01*
X160583433Y-92968064D01*
X160583433Y-92968064D01*
G37*
G36*
X162700433Y-92944064D02*
X162728008Y-92952430D01*
X162753422Y-92966014D01*
X162775702Y-92984298D01*
X162793986Y-93006578D01*
X162807570Y-93031992D01*
X162815936Y-93059567D01*
X162819000Y-93090684D01*
X162819000Y-93479316D01*
X162815936Y-93510433D01*
X162807570Y-93538008D01*
X162793986Y-93563422D01*
X162775702Y-93585702D01*
X162753422Y-93603986D01*
X162728008Y-93617570D01*
X162700433Y-93625936D01*
X162669316Y-93629000D01*
X162230684Y-93629000D01*
X162199567Y-93625936D01*
X162171992Y-93617570D01*
X162146578Y-93603986D01*
X162124298Y-93585702D01*
X162106014Y-93563422D01*
X162092430Y-93538008D01*
X162084064Y-93510433D01*
X162081000Y-93479316D01*
X162081000Y-93090684D01*
X162084064Y-93059567D01*
X162092430Y-93031992D01*
X162106014Y-93006578D01*
X162124298Y-92984298D01*
X162146578Y-92966014D01*
X162171992Y-92952430D01*
X162199567Y-92944064D01*
X162230684Y-92941000D01*
X162669316Y-92941000D01*
X162700433Y-92944064D01*
X162700433Y-92944064D01*
G37*
G36*
X163750433Y-92944064D02*
X163778008Y-92952430D01*
X163803422Y-92966014D01*
X163825702Y-92984298D01*
X163843986Y-93006578D01*
X163857570Y-93031992D01*
X163865936Y-93059567D01*
X163869000Y-93090684D01*
X163869000Y-93479316D01*
X163865936Y-93510433D01*
X163857570Y-93538008D01*
X163843986Y-93563422D01*
X163825702Y-93585702D01*
X163803422Y-93603986D01*
X163778008Y-93617570D01*
X163750433Y-93625936D01*
X163719316Y-93629000D01*
X163280684Y-93629000D01*
X163249567Y-93625936D01*
X163221992Y-93617570D01*
X163196578Y-93603986D01*
X163174298Y-93585702D01*
X163156014Y-93563422D01*
X163142430Y-93538008D01*
X163134064Y-93510433D01*
X163131000Y-93479316D01*
X163131000Y-93090684D01*
X163134064Y-93059567D01*
X163142430Y-93031992D01*
X163156014Y-93006578D01*
X163174298Y-92984298D01*
X163196578Y-92966014D01*
X163221992Y-92952430D01*
X163249567Y-92944064D01*
X163280684Y-92941000D01*
X163719316Y-92941000D01*
X163750433Y-92944064D01*
X163750433Y-92944064D01*
G37*
G36*
X159122933Y-91998064D02*
X159150508Y-92006430D01*
X159175922Y-92020014D01*
X159198202Y-92038298D01*
X159216486Y-92060578D01*
X159230070Y-92085992D01*
X159238436Y-92113567D01*
X159241500Y-92144684D01*
X159241500Y-92533316D01*
X159238436Y-92564433D01*
X159230070Y-92592008D01*
X159216486Y-92617422D01*
X159198202Y-92639702D01*
X159175922Y-92657986D01*
X159150508Y-92671570D01*
X159122933Y-92679936D01*
X159091816Y-92683000D01*
X158653184Y-92683000D01*
X158622067Y-92679936D01*
X158594492Y-92671570D01*
X158569078Y-92657986D01*
X158546798Y-92639702D01*
X158528514Y-92617422D01*
X158514930Y-92592008D01*
X158506564Y-92564433D01*
X158503500Y-92533316D01*
X158503500Y-92144684D01*
X158506564Y-92113567D01*
X158514930Y-92085992D01*
X158528514Y-92060578D01*
X158546798Y-92038298D01*
X158569078Y-92020014D01*
X158594492Y-92006430D01*
X158622067Y-91998064D01*
X158653184Y-91995000D01*
X159091816Y-91995000D01*
X159122933Y-91998064D01*
X159122933Y-91998064D01*
G37*
G36*
X160583433Y-91998064D02*
X160611008Y-92006430D01*
X160636422Y-92020014D01*
X160658702Y-92038298D01*
X160676986Y-92060578D01*
X160690570Y-92085992D01*
X160698936Y-92113567D01*
X160702000Y-92144684D01*
X160702000Y-92533316D01*
X160698936Y-92564433D01*
X160690570Y-92592008D01*
X160676986Y-92617422D01*
X160658702Y-92639702D01*
X160636422Y-92657986D01*
X160611008Y-92671570D01*
X160583433Y-92679936D01*
X160552316Y-92683000D01*
X160113684Y-92683000D01*
X160082567Y-92679936D01*
X160054992Y-92671570D01*
X160029578Y-92657986D01*
X160007298Y-92639702D01*
X159989014Y-92617422D01*
X159975430Y-92592008D01*
X159967064Y-92564433D01*
X159964000Y-92533316D01*
X159964000Y-92144684D01*
X159967064Y-92113567D01*
X159975430Y-92085992D01*
X159989014Y-92060578D01*
X160007298Y-92038298D01*
X160029578Y-92020014D01*
X160054992Y-92006430D01*
X160082567Y-91998064D01*
X160113684Y-91995000D01*
X160552316Y-91995000D01*
X160583433Y-91998064D01*
X160583433Y-91998064D01*
G37*
G36*
X161662933Y-91998064D02*
X161690508Y-92006430D01*
X161715922Y-92020014D01*
X161738202Y-92038298D01*
X161756486Y-92060578D01*
X161770070Y-92085992D01*
X161778436Y-92113567D01*
X161781500Y-92144684D01*
X161781500Y-92533316D01*
X161778436Y-92564433D01*
X161770070Y-92592008D01*
X161756486Y-92617422D01*
X161738202Y-92639702D01*
X161715922Y-92657986D01*
X161690508Y-92671570D01*
X161662933Y-92679936D01*
X161631816Y-92683000D01*
X161193184Y-92683000D01*
X161162067Y-92679936D01*
X161134492Y-92671570D01*
X161109078Y-92657986D01*
X161086798Y-92639702D01*
X161068514Y-92617422D01*
X161054930Y-92592008D01*
X161046564Y-92564433D01*
X161043500Y-92533316D01*
X161043500Y-92144684D01*
X161046564Y-92113567D01*
X161054930Y-92085992D01*
X161068514Y-92060578D01*
X161086798Y-92038298D01*
X161109078Y-92020014D01*
X161134492Y-92006430D01*
X161162067Y-91998064D01*
X161193184Y-91995000D01*
X161631816Y-91995000D01*
X161662933Y-91998064D01*
X161662933Y-91998064D01*
G37*
G36*
X163750433Y-91974064D02*
X163778008Y-91982430D01*
X163803422Y-91996014D01*
X163825702Y-92014298D01*
X163843986Y-92036578D01*
X163857570Y-92061992D01*
X163865936Y-92089567D01*
X163869000Y-92120684D01*
X163869000Y-92509316D01*
X163865936Y-92540433D01*
X163857570Y-92568008D01*
X163843986Y-92593422D01*
X163825702Y-92615702D01*
X163803422Y-92633986D01*
X163778008Y-92647570D01*
X163750433Y-92655936D01*
X163719316Y-92659000D01*
X163280684Y-92659000D01*
X163249567Y-92655936D01*
X163221992Y-92647570D01*
X163196578Y-92633986D01*
X163174298Y-92615702D01*
X163156014Y-92593422D01*
X163142430Y-92568008D01*
X163134064Y-92540433D01*
X163131000Y-92509316D01*
X163131000Y-92120684D01*
X163134064Y-92089567D01*
X163142430Y-92061992D01*
X163156014Y-92036578D01*
X163174298Y-92014298D01*
X163196578Y-91996014D01*
X163221992Y-91982430D01*
X163249567Y-91974064D01*
X163280684Y-91971000D01*
X163719316Y-91971000D01*
X163750433Y-91974064D01*
X163750433Y-91974064D01*
G37*
G36*
X162700433Y-91974064D02*
X162728008Y-91982430D01*
X162753422Y-91996014D01*
X162775702Y-92014298D01*
X162793986Y-92036578D01*
X162807570Y-92061992D01*
X162815936Y-92089567D01*
X162819000Y-92120684D01*
X162819000Y-92509316D01*
X162815936Y-92540433D01*
X162807570Y-92568008D01*
X162793986Y-92593422D01*
X162775702Y-92615702D01*
X162753422Y-92633986D01*
X162728008Y-92647570D01*
X162700433Y-92655936D01*
X162669316Y-92659000D01*
X162230684Y-92659000D01*
X162199567Y-92655936D01*
X162171992Y-92647570D01*
X162146578Y-92633986D01*
X162124298Y-92615702D01*
X162106014Y-92593422D01*
X162092430Y-92568008D01*
X162084064Y-92540433D01*
X162081000Y-92509316D01*
X162081000Y-92120684D01*
X162084064Y-92089567D01*
X162092430Y-92061992D01*
X162106014Y-92036578D01*
X162124298Y-92014298D01*
X162146578Y-91996014D01*
X162171992Y-91982430D01*
X162199567Y-91974064D01*
X162230684Y-91971000D01*
X162669316Y-91971000D01*
X162700433Y-91974064D01*
X162700433Y-91974064D01*
G37*
G36*
X157069100Y-91935000D02*
X152547900Y-91935000D01*
X152547900Y-90372900D01*
X157069100Y-90372900D01*
X157069100Y-91935000D01*
X157069100Y-91935000D01*
G37*
G36*
X160713000Y-91359500D02*
X159886000Y-91359500D01*
X159886000Y-90732500D01*
X160713000Y-90732500D01*
X160713000Y-91359500D01*
X160713000Y-91359500D01*
G37*
G36*
X159413000Y-91359500D02*
X158586000Y-91359500D01*
X158586000Y-90732500D01*
X159413000Y-90732500D01*
X159413000Y-91359500D01*
X159413000Y-91359500D01*
G37*
G36*
X152000433Y-89644064D02*
X152028008Y-89652430D01*
X152053422Y-89666014D01*
X152075702Y-89684298D01*
X152093986Y-89706578D01*
X152107570Y-89731992D01*
X152115936Y-89759567D01*
X152119000Y-89790684D01*
X152119000Y-90179316D01*
X152115936Y-90210433D01*
X152107570Y-90238008D01*
X152093986Y-90263422D01*
X152075702Y-90285702D01*
X152053422Y-90303986D01*
X152028008Y-90317570D01*
X152000433Y-90325936D01*
X151969316Y-90329000D01*
X151530684Y-90329000D01*
X151499567Y-90325936D01*
X151471992Y-90317570D01*
X151446578Y-90303986D01*
X151424298Y-90285702D01*
X151406014Y-90263422D01*
X151392430Y-90238008D01*
X151384064Y-90210433D01*
X151381000Y-90179316D01*
X151381000Y-89790684D01*
X151384064Y-89759567D01*
X151392430Y-89731992D01*
X151406014Y-89706578D01*
X151424298Y-89684298D01*
X151446578Y-89666014D01*
X151471992Y-89652430D01*
X151499567Y-89644064D01*
X151530684Y-89641000D01*
X151969316Y-89641000D01*
X152000433Y-89644064D01*
X152000433Y-89644064D01*
G37*
G36*
X161427858Y-89245558D02*
X161517183Y-89282558D01*
X161527769Y-89286943D01*
X161560214Y-89308622D01*
X161617688Y-89347025D01*
X161694155Y-89423492D01*
X161754238Y-89513413D01*
X161789690Y-89599000D01*
X161795622Y-89613323D01*
X161816720Y-89719388D01*
X161816720Y-89827532D01*
X161795622Y-89933597D01*
X161754237Y-90033509D01*
X161694156Y-90123427D01*
X161617687Y-90199896D01*
X161527769Y-90259977D01*
X161527768Y-90259978D01*
X161527767Y-90259978D01*
X161427858Y-90301362D01*
X161374824Y-90311911D01*
X161321792Y-90322460D01*
X161213648Y-90322460D01*
X161160616Y-90311911D01*
X161107582Y-90301362D01*
X161007673Y-90259978D01*
X161007672Y-90259978D01*
X161007671Y-90259977D01*
X160917753Y-90199896D01*
X160841284Y-90123427D01*
X160781203Y-90033509D01*
X160739818Y-89933597D01*
X160718720Y-89827532D01*
X160718720Y-89719388D01*
X160739818Y-89613323D01*
X160745751Y-89599000D01*
X160781202Y-89513413D01*
X160841285Y-89423492D01*
X160917752Y-89347025D01*
X160975226Y-89308622D01*
X161007671Y-89286943D01*
X161018257Y-89282558D01*
X161107582Y-89245558D01*
X161213648Y-89224460D01*
X161321792Y-89224460D01*
X161427858Y-89245558D01*
X161427858Y-89245558D01*
G37*
G36*
X154572500Y-89599000D02*
X152474500Y-89599000D01*
X152474500Y-88401000D01*
X154572500Y-88401000D01*
X154572500Y-89599000D01*
X154572500Y-89599000D01*
G37*
G36*
X155872500Y-89449000D02*
X154974500Y-89449000D01*
X154974500Y-88551000D01*
X155872500Y-88551000D01*
X155872500Y-89449000D01*
X155872500Y-89449000D01*
G37*
G36*
X152000433Y-88674064D02*
X152028008Y-88682430D01*
X152053422Y-88696014D01*
X152075702Y-88714298D01*
X152093986Y-88736578D01*
X152107570Y-88761992D01*
X152115936Y-88789567D01*
X152119000Y-88820684D01*
X152119000Y-89209316D01*
X152115936Y-89240433D01*
X152107570Y-89268008D01*
X152093986Y-89293422D01*
X152075702Y-89315702D01*
X152053422Y-89333986D01*
X152028008Y-89347570D01*
X152000433Y-89355936D01*
X151969316Y-89359000D01*
X151530684Y-89359000D01*
X151499567Y-89355936D01*
X151471992Y-89347570D01*
X151446578Y-89333986D01*
X151424298Y-89315702D01*
X151406014Y-89293422D01*
X151392430Y-89268008D01*
X151384064Y-89240433D01*
X151381000Y-89209316D01*
X151381000Y-88820684D01*
X151384064Y-88789567D01*
X151392430Y-88761992D01*
X151406014Y-88736578D01*
X151424298Y-88714298D01*
X151446578Y-88696014D01*
X151471992Y-88682430D01*
X151499567Y-88674064D01*
X151530684Y-88671000D01*
X151969316Y-88671000D01*
X152000433Y-88674064D01*
X152000433Y-88674064D01*
G37*
G36*
X138258218Y-87304583D02*
X138336561Y-87320166D01*
X138484151Y-87381300D01*
X138484153Y-87381301D01*
X138616982Y-87470055D01*
X138729945Y-87583018D01*
X138818699Y-87715847D01*
X138879834Y-87863440D01*
X138911000Y-88020123D01*
X138911000Y-88179877D01*
X138879834Y-88336560D01*
X138818699Y-88484153D01*
X138729945Y-88616982D01*
X138616982Y-88729945D01*
X138484153Y-88818699D01*
X138484152Y-88818700D01*
X138484151Y-88818700D01*
X138336561Y-88879834D01*
X138179877Y-88911000D01*
X138020123Y-88911000D01*
X137941782Y-88895417D01*
X137863439Y-88879834D01*
X137715849Y-88818700D01*
X137715848Y-88818700D01*
X137715847Y-88818699D01*
X137583018Y-88729945D01*
X137470055Y-88616982D01*
X137381301Y-88484153D01*
X137320166Y-88336560D01*
X137289000Y-88179877D01*
X137289000Y-88020123D01*
X137320166Y-87863440D01*
X137381301Y-87715847D01*
X137470055Y-87583018D01*
X137583018Y-87470055D01*
X137715847Y-87381301D01*
X137715849Y-87381300D01*
X137863439Y-87320166D01*
X138020123Y-87289000D01*
X138179877Y-87289000D01*
X138258218Y-87304583D01*
X138258218Y-87304583D01*
G37*
G36*
X148458218Y-87304583D02*
X148536561Y-87320166D01*
X148684151Y-87381300D01*
X148684153Y-87381301D01*
X148816982Y-87470055D01*
X148929945Y-87583018D01*
X149018699Y-87715847D01*
X149079834Y-87863440D01*
X149111000Y-88020123D01*
X149111000Y-88179877D01*
X149079834Y-88336560D01*
X149018699Y-88484153D01*
X148929945Y-88616982D01*
X148816982Y-88729945D01*
X148684153Y-88818699D01*
X148684152Y-88818700D01*
X148684151Y-88818700D01*
X148536561Y-88879834D01*
X148379877Y-88911000D01*
X148220123Y-88911000D01*
X148141782Y-88895417D01*
X148063439Y-88879834D01*
X147915849Y-88818700D01*
X147915848Y-88818700D01*
X147915847Y-88818699D01*
X147783018Y-88729945D01*
X147670055Y-88616982D01*
X147581301Y-88484153D01*
X147520166Y-88336560D01*
X147489000Y-88179877D01*
X147489000Y-88020123D01*
X147520166Y-87863440D01*
X147581301Y-87715847D01*
X147670055Y-87583018D01*
X147783018Y-87470055D01*
X147915847Y-87381301D01*
X147915849Y-87381300D01*
X148063439Y-87320166D01*
X148220123Y-87289000D01*
X148379877Y-87289000D01*
X148458218Y-87304583D01*
X148458218Y-87304583D01*
G37*
G36*
X143358218Y-87304583D02*
X143436561Y-87320166D01*
X143584151Y-87381300D01*
X143584153Y-87381301D01*
X143716982Y-87470055D01*
X143829945Y-87583018D01*
X143918699Y-87715847D01*
X143979834Y-87863440D01*
X144011000Y-88020123D01*
X144011000Y-88179877D01*
X143979834Y-88336560D01*
X143918699Y-88484153D01*
X143829945Y-88616982D01*
X143716982Y-88729945D01*
X143584153Y-88818699D01*
X143584152Y-88818700D01*
X143584151Y-88818700D01*
X143436561Y-88879834D01*
X143279877Y-88911000D01*
X143120123Y-88911000D01*
X143041782Y-88895417D01*
X142963439Y-88879834D01*
X142815849Y-88818700D01*
X142815848Y-88818700D01*
X142815847Y-88818699D01*
X142683018Y-88729945D01*
X142570055Y-88616982D01*
X142481301Y-88484153D01*
X142420166Y-88336560D01*
X142389000Y-88179877D01*
X142389000Y-88020123D01*
X142420166Y-87863440D01*
X142481301Y-87715847D01*
X142570055Y-87583018D01*
X142683018Y-87470055D01*
X142815847Y-87381301D01*
X142815849Y-87381300D01*
X142963439Y-87320166D01*
X143120123Y-87289000D01*
X143279877Y-87289000D01*
X143358218Y-87304583D01*
X143358218Y-87304583D01*
G37*
G36*
X161365433Y-85613064D02*
X161393008Y-85621430D01*
X161418422Y-85635014D01*
X161440702Y-85653298D01*
X161458986Y-85675578D01*
X161472570Y-85700992D01*
X161480936Y-85728567D01*
X161484000Y-85759684D01*
X161484000Y-86198316D01*
X161480936Y-86229433D01*
X161472570Y-86257008D01*
X161458986Y-86282422D01*
X161440702Y-86304702D01*
X161418422Y-86322986D01*
X161393008Y-86336570D01*
X161365433Y-86344936D01*
X161334316Y-86348000D01*
X160945684Y-86348000D01*
X160914567Y-86344936D01*
X160886992Y-86336570D01*
X160861578Y-86322986D01*
X160839298Y-86304702D01*
X160821014Y-86282422D01*
X160807430Y-86257008D01*
X160799064Y-86229433D01*
X160796000Y-86198316D01*
X160796000Y-85759684D01*
X160799064Y-85728567D01*
X160807430Y-85700992D01*
X160821014Y-85675578D01*
X160839298Y-85653298D01*
X160861578Y-85635014D01*
X160886992Y-85621430D01*
X160914567Y-85613064D01*
X160945684Y-85610000D01*
X161334316Y-85610000D01*
X161365433Y-85613064D01*
X161365433Y-85613064D01*
G37*
G36*
X160395433Y-85613064D02*
X160423008Y-85621430D01*
X160448422Y-85635014D01*
X160470702Y-85653298D01*
X160488986Y-85675578D01*
X160502570Y-85700992D01*
X160510936Y-85728567D01*
X160514000Y-85759684D01*
X160514000Y-86198316D01*
X160510936Y-86229433D01*
X160502570Y-86257008D01*
X160488986Y-86282422D01*
X160470702Y-86304702D01*
X160448422Y-86322986D01*
X160423008Y-86336570D01*
X160395433Y-86344936D01*
X160364316Y-86348000D01*
X159975684Y-86348000D01*
X159944567Y-86344936D01*
X159916992Y-86336570D01*
X159891578Y-86322986D01*
X159869298Y-86304702D01*
X159851014Y-86282422D01*
X159837430Y-86257008D01*
X159829064Y-86229433D01*
X159826000Y-86198316D01*
X159826000Y-85759684D01*
X159829064Y-85728567D01*
X159837430Y-85700992D01*
X159851014Y-85675578D01*
X159869298Y-85653298D01*
X159891578Y-85635014D01*
X159916992Y-85621430D01*
X159944567Y-85613064D01*
X159975684Y-85610000D01*
X160364316Y-85610000D01*
X160395433Y-85613064D01*
X160395433Y-85613064D01*
G37*
G36*
X155783882Y-84214834D02*
X155824826Y-84227254D01*
X155862560Y-84247423D01*
X155895634Y-84274566D01*
X155922777Y-84307640D01*
X155942946Y-84345374D01*
X155955366Y-84386318D01*
X155959800Y-84431336D01*
X155959800Y-85037464D01*
X155955366Y-85082482D01*
X155942946Y-85123426D01*
X155922777Y-85161160D01*
X155895634Y-85194234D01*
X155862560Y-85221377D01*
X155824826Y-85241546D01*
X155783882Y-85253966D01*
X155738864Y-85258400D01*
X155207736Y-85258400D01*
X155162718Y-85253966D01*
X155121774Y-85241546D01*
X155084040Y-85221377D01*
X155050966Y-85194234D01*
X155023823Y-85161160D01*
X155003654Y-85123426D01*
X154991234Y-85082482D01*
X154986800Y-85037464D01*
X154986800Y-84431336D01*
X154991234Y-84386318D01*
X155003654Y-84345374D01*
X155023823Y-84307640D01*
X155050966Y-84274566D01*
X155084040Y-84247423D01*
X155121774Y-84227254D01*
X155162718Y-84214834D01*
X155207736Y-84210400D01*
X155738864Y-84210400D01*
X155783882Y-84214834D01*
X155783882Y-84214834D01*
G37*
G36*
X157358882Y-84214834D02*
X157399826Y-84227254D01*
X157437560Y-84247423D01*
X157470634Y-84274566D01*
X157497777Y-84307640D01*
X157517946Y-84345374D01*
X157530366Y-84386318D01*
X157534800Y-84431336D01*
X157534800Y-85037464D01*
X157530366Y-85082482D01*
X157517946Y-85123426D01*
X157497777Y-85161160D01*
X157470634Y-85194234D01*
X157437560Y-85221377D01*
X157399826Y-85241546D01*
X157358882Y-85253966D01*
X157313864Y-85258400D01*
X156782736Y-85258400D01*
X156737718Y-85253966D01*
X156696774Y-85241546D01*
X156659040Y-85221377D01*
X156625966Y-85194234D01*
X156598823Y-85161160D01*
X156578654Y-85123426D01*
X156566234Y-85082482D01*
X156561800Y-85037464D01*
X156561800Y-84431336D01*
X156566234Y-84386318D01*
X156578654Y-84345374D01*
X156598823Y-84307640D01*
X156625966Y-84274566D01*
X156659040Y-84247423D01*
X156696774Y-84227254D01*
X156737718Y-84214834D01*
X156782736Y-84210400D01*
X157313864Y-84210400D01*
X157358882Y-84214834D01*
X157358882Y-84214834D01*
G37*
G36*
X161157433Y-84343064D02*
X161185008Y-84351430D01*
X161210422Y-84365014D01*
X161232702Y-84383298D01*
X161250986Y-84405578D01*
X161264570Y-84430992D01*
X161272936Y-84458567D01*
X161276000Y-84489684D01*
X161276000Y-84928316D01*
X161272936Y-84959433D01*
X161264570Y-84987008D01*
X161250986Y-85012422D01*
X161232702Y-85034702D01*
X161210422Y-85052986D01*
X161185008Y-85066570D01*
X161157433Y-85074936D01*
X161126316Y-85078000D01*
X160737684Y-85078000D01*
X160706567Y-85074936D01*
X160678992Y-85066570D01*
X160653578Y-85052986D01*
X160631298Y-85034702D01*
X160613014Y-85012422D01*
X160599430Y-84987008D01*
X160591064Y-84959433D01*
X160588000Y-84928316D01*
X160588000Y-84489684D01*
X160591064Y-84458567D01*
X160599430Y-84430992D01*
X160613014Y-84405578D01*
X160631298Y-84383298D01*
X160653578Y-84365014D01*
X160678992Y-84351430D01*
X160706567Y-84343064D01*
X160737684Y-84340000D01*
X161126316Y-84340000D01*
X161157433Y-84343064D01*
X161157433Y-84343064D01*
G37*
G36*
X162127433Y-84343064D02*
X162155008Y-84351430D01*
X162180422Y-84365014D01*
X162202702Y-84383298D01*
X162220986Y-84405578D01*
X162234570Y-84430992D01*
X162242936Y-84458567D01*
X162246000Y-84489684D01*
X162246000Y-84928316D01*
X162242936Y-84959433D01*
X162234570Y-84987008D01*
X162220986Y-85012422D01*
X162202702Y-85034702D01*
X162180422Y-85052986D01*
X162155008Y-85066570D01*
X162127433Y-85074936D01*
X162096316Y-85078000D01*
X161707684Y-85078000D01*
X161676567Y-85074936D01*
X161648992Y-85066570D01*
X161623578Y-85052986D01*
X161601298Y-85034702D01*
X161583014Y-85012422D01*
X161569430Y-84987008D01*
X161561064Y-84959433D01*
X161558000Y-84928316D01*
X161558000Y-84489684D01*
X161561064Y-84458567D01*
X161569430Y-84430992D01*
X161583014Y-84405578D01*
X161601298Y-84383298D01*
X161623578Y-84365014D01*
X161648992Y-84351430D01*
X161676567Y-84343064D01*
X161707684Y-84340000D01*
X162096316Y-84340000D01*
X162127433Y-84343064D01*
X162127433Y-84343064D01*
G37*
M02*
