%TF.GenerationSoftware,KiCad,Pcbnew,(5.1.5)-3*%
%TF.CreationDate,2020-08-29T16:56:36-07:00*%
%TF.ProjectId,ypanel,7970616e-656c-42e6-9b69-6361645f7063,rev?*%
%TF.SameCoordinates,Original*%
%TF.FileFunction,Copper,L3,Inr*%
%TF.FilePolarity,Positive*%
%FSLAX46Y46*%
G04 Gerber Fmt 4.6, Leading zero omitted, Abs format (unit mm)*
G04 Created by KiCad (PCBNEW (5.1.5)-3) date 2020-08-29 16:56:36*
%MOMM*%
%LPD*%
G04 APERTURE LIST*
%ADD10C,0.100000*%
%ADD11C,0.050000*%
%ADD12C,2.032000*%
%ADD13R,2.032000X2.032000*%
%ADD14C,1.000000*%
%ADD15C,1.524000*%
%ADD16C,0.600000*%
%ADD17C,0.190000*%
G04 APERTURE END LIST*
D10*
X151587000Y-99000001D02*
G75*
G03X151587000Y-99000001I-8000000J0D01*
G01*
X134779564Y-114100000D02*
G75*
G03X134779564Y-114100000I-1029564J0D01*
G01*
X141279564Y-114100000D02*
G75*
G03X141279564Y-114100000I-1029564J0D01*
G01*
X126375000Y-118900000D02*
G75*
G03X126375000Y-118900000I-1300000J0D01*
G01*
X140979564Y-83920436D02*
G75*
G03X140979564Y-83920436I-1029564J0D01*
G01*
X147479564Y-83920436D02*
G75*
G03X147479564Y-83920436I-1029564J0D01*
G01*
X176975000Y-70000000D02*
X176975000Y-128000000D01*
X166200000Y-118900000D02*
G75*
G03X166200000Y-118900000I-1300000J0D01*
G01*
D11*
X126372800Y-79100000D02*
G75*
G03X126372800Y-79100000I-1300000J0D01*
G01*
D10*
X166195000Y-79102480D02*
G75*
G03X166195000Y-79102480I-1300000J0D01*
G01*
X176975000Y-70000000D02*
X113000000Y-70000000D01*
X113000000Y-128000000D02*
X176975000Y-128000000D01*
X113000000Y-70000000D02*
X113000000Y-128000000D01*
D12*
X124764800Y-97691060D03*
D13*
X124764800Y-101546660D03*
D14*
X161267720Y-89773460D03*
X130873500Y-88138000D03*
X165036500Y-99568000D03*
D15*
X142080000Y-109900000D03*
X137000000Y-109900000D03*
X131920000Y-109900000D03*
X148300000Y-88100000D03*
X143200000Y-88100000D03*
X138100000Y-88100000D03*
D16*
X150197820Y-86072980D03*
X159634500Y-96507000D03*
X160350000Y-96150000D03*
X159200000Y-97050000D03*
X160050000Y-97150000D03*
X163220400Y-112369600D03*
X165100000Y-94350000D03*
X121900000Y-99250000D03*
X130558000Y-106991000D03*
X131800000Y-79600000D03*
X132650000Y-79600000D03*
X120200000Y-91300000D03*
X120200000Y-92000000D03*
X120500000Y-109000000D03*
X121250000Y-109000000D03*
X152146000Y-107950000D03*
X145923000Y-109982000D03*
X146939000Y-111252000D03*
X149987000Y-111887000D03*
X150749000Y-113030000D03*
X151765000Y-110744000D03*
X152527000Y-111887000D03*
X152019000Y-109347000D03*
X148590000Y-111760000D03*
X151130000Y-106934000D03*
X149225000Y-113284000D03*
X147447000Y-112903000D03*
X152908000Y-110236000D03*
X153162000Y-108712000D03*
X126492000Y-112014000D03*
X127532575Y-108101584D03*
X162149946Y-95220946D03*
X159829500Y-101536494D03*
X157483120Y-91084100D03*
X163200000Y-111500000D03*
X156301440Y-105384600D03*
X126600000Y-108077020D03*
X157050000Y-84800000D03*
X156876844Y-96740660D03*
X162450000Y-91500000D03*
X154750000Y-95550000D03*
X163200000Y-110650000D03*
X129550000Y-112050000D03*
X127400000Y-110150000D03*
X163100000Y-109750000D03*
X166200000Y-112250000D03*
X153340597Y-83865157D03*
X161100000Y-87150000D03*
X166700000Y-109300000D03*
X166700000Y-108550000D03*
X161870307Y-87229693D03*
X167100000Y-112300000D03*
X153339000Y-86767200D03*
X124400000Y-127450000D03*
X123250000Y-127400000D03*
X121300000Y-112395000D03*
X120142000Y-88392000D03*
X120950000Y-86550000D03*
X152894500Y-85332100D03*
X153897800Y-85332100D03*
X162115500Y-101600000D03*
X162496500Y-96520000D03*
X159670844Y-93971156D03*
X164401500Y-93027500D03*
X156641703Y-89002155D03*
X157504833Y-89002155D03*
D17*
X115700000Y-125300000D02*
X115700000Y-72700000D01*
X170400000Y-76550000D02*
X170400000Y-121450000D01*
X119550000Y-76550000D02*
X170400000Y-76550000D01*
X121450000Y-72000000D02*
X121500000Y-72000000D01*
X129650000Y-73050000D02*
X173900000Y-73050000D01*
X129550000Y-73050000D02*
X129650000Y-73050000D01*
X173900000Y-124950000D02*
X126300000Y-124950000D01*
X120650000Y-72700000D02*
X120800000Y-72700000D01*
X119450000Y-73400000D02*
X120100000Y-73400000D01*
X129200000Y-72700000D02*
X129350000Y-72700000D01*
X129350000Y-72700000D02*
X120650000Y-72700000D01*
X115700000Y-72700000D02*
X120650000Y-72700000D01*
X170400000Y-121450000D02*
X127300000Y-121450000D01*
X173900000Y-73050000D02*
X173900000Y-124950000D01*
X123800000Y-126850000D02*
X123250000Y-127400000D01*
X124600000Y-126850000D02*
X123800000Y-126850000D01*
X125050000Y-127300000D02*
X124600000Y-126850000D01*
X176622010Y-127727990D02*
X125050000Y-127727990D01*
X125800000Y-126700000D02*
X124900000Y-125800000D01*
X176702990Y-127697010D02*
X176652990Y-127697010D01*
X176702990Y-126802990D02*
X176702990Y-127697010D01*
X125400000Y-127400000D02*
X125400000Y-127200000D01*
X176700000Y-70272010D02*
X176700000Y-126800000D01*
X113272010Y-70272010D02*
X176700000Y-70272010D01*
X176700000Y-126800000D02*
X176702990Y-126802990D01*
X113272010Y-127727990D02*
X113272010Y-70272010D01*
X124700000Y-126500000D02*
X123400000Y-126500000D01*
X122050000Y-127400000D02*
X113600000Y-127400000D01*
X124800000Y-126150000D02*
X123300000Y-126150000D01*
X125700000Y-127050000D02*
X124800000Y-126150000D01*
X176000000Y-127050000D02*
X125700000Y-127050000D01*
X125400000Y-127200000D02*
X124700000Y-126500000D01*
X176000000Y-70950000D02*
X176000000Y-127050000D01*
X113950000Y-70950000D02*
X176000000Y-70950000D01*
X113950000Y-127050000D02*
X113950000Y-70950000D01*
X124900000Y-125800000D02*
X123200000Y-125800000D01*
X175650000Y-71300000D02*
X175650000Y-126700000D01*
X176652990Y-127697010D02*
X176622010Y-127727990D01*
X121850000Y-126700000D02*
X114300000Y-126700000D01*
X122172010Y-127727990D02*
X113272010Y-127727990D01*
X176350000Y-70600000D02*
X176350000Y-127400000D01*
X123200000Y-125800000D02*
X121950000Y-127050000D01*
X113600000Y-127400000D02*
X113600000Y-70600000D01*
X123100000Y-125450000D02*
X121850000Y-126700000D01*
X174950000Y-72000000D02*
X174950000Y-126000000D01*
X125900000Y-126350000D02*
X125000000Y-125450000D01*
X123300000Y-126150000D02*
X122050000Y-127400000D01*
X125000000Y-125450000D02*
X123100000Y-125450000D01*
X176350000Y-127400000D02*
X125400000Y-127400000D01*
X113600000Y-70600000D02*
X176350000Y-70600000D01*
X125100000Y-125100000D02*
X123000000Y-125100000D01*
X175300000Y-71650000D02*
X175300000Y-126350000D01*
X121950000Y-127050000D02*
X113950000Y-127050000D01*
X114650000Y-71650000D02*
X175300000Y-71650000D01*
X123000000Y-125100000D02*
X121750000Y-126350000D01*
X114300000Y-126700000D02*
X114300000Y-71300000D01*
X175650000Y-126700000D02*
X125800000Y-126700000D01*
X123400000Y-126500000D02*
X122172010Y-127727990D01*
X114300000Y-71300000D02*
X175650000Y-71300000D01*
X175300000Y-126350000D02*
X125900000Y-126350000D01*
X125050000Y-127727990D02*
X125050000Y-127300000D01*
X114650000Y-126350000D02*
X114650000Y-71650000D01*
X121750000Y-126350000D02*
X114650000Y-126350000D01*
X174950000Y-126000000D02*
X126000000Y-126000000D01*
X126000000Y-126000000D02*
X125100000Y-125100000D01*
X121450000Y-72000000D02*
X174950000Y-72000000D01*
X115000000Y-72000000D02*
X121450000Y-72000000D01*
X122900000Y-124750000D02*
X121650000Y-126000000D01*
X174600000Y-125650000D02*
X126100000Y-125650000D01*
X174600000Y-72350000D02*
X174600000Y-125650000D01*
X115350000Y-72350000D02*
X174600000Y-72350000D01*
X126100000Y-125650000D02*
X125200000Y-124750000D01*
X115350000Y-125650000D02*
X115350000Y-72350000D01*
X115000000Y-126000000D02*
X115000000Y-72000000D01*
X121650000Y-126000000D02*
X115000000Y-126000000D01*
X121550000Y-125650000D02*
X115350000Y-125650000D01*
X125200000Y-124750000D02*
X122900000Y-124750000D01*
X126200000Y-125300000D02*
X125300000Y-124400000D01*
X122800000Y-124400000D02*
X121550000Y-125650000D01*
X125300000Y-124400000D02*
X122800000Y-124400000D01*
X174250000Y-125300000D02*
X126200000Y-125300000D01*
X174250000Y-72700000D02*
X174250000Y-125300000D01*
X129350000Y-72700000D02*
X174250000Y-72700000D01*
X115700000Y-125300000D02*
X121450000Y-125300000D01*
X121450000Y-125300000D02*
X122700000Y-124050000D01*
X125400000Y-124050000D02*
X126300000Y-124950000D01*
X122700000Y-124050000D02*
X125400000Y-124050000D01*
X120450000Y-73050000D02*
X129650000Y-73050000D01*
X116050000Y-73050000D02*
X120450000Y-73050000D01*
X121350000Y-124950000D02*
X116050000Y-124950000D01*
X122600000Y-123700000D02*
X121350000Y-124950000D01*
X125500000Y-123700000D02*
X122600000Y-123700000D01*
X126400000Y-124600000D02*
X125500000Y-123700000D01*
X173550000Y-124600000D02*
X126400000Y-124600000D01*
X173550000Y-73400000D02*
X173550000Y-124600000D01*
X116050000Y-124950000D02*
X116050000Y-73050000D01*
X119450000Y-73400000D02*
X173550000Y-73400000D01*
X121250000Y-124600000D02*
X116400000Y-124600000D01*
X122500000Y-123350000D02*
X121250000Y-124600000D01*
X125600000Y-123350000D02*
X122500000Y-123350000D01*
X126500000Y-124250000D02*
X125600000Y-123350000D01*
X173200000Y-124250000D02*
X126500000Y-124250000D01*
X116750000Y-73750000D02*
X173200000Y-73750000D01*
X116750000Y-124250000D02*
X116750000Y-73750000D01*
X121150000Y-124250000D02*
X116750000Y-124250000D01*
X125700000Y-123000000D02*
X122400000Y-123000000D01*
X172850000Y-123900000D02*
X126600000Y-123900000D01*
X117100000Y-74100000D02*
X172850000Y-74100000D01*
X118500000Y-122500000D02*
X118500000Y-75500000D01*
X172500000Y-123550000D02*
X126700000Y-123550000D01*
X125900000Y-122300000D02*
X122200000Y-122300000D01*
X126800000Y-123200000D02*
X125900000Y-122300000D01*
X117450000Y-74450000D02*
X172500000Y-74450000D01*
X117800000Y-123200000D02*
X117800000Y-74800000D01*
X126600000Y-123900000D02*
X125700000Y-123000000D01*
X125800000Y-122650000D02*
X122300000Y-122650000D01*
X173200000Y-73750000D02*
X173200000Y-124250000D01*
X172150000Y-123200000D02*
X126800000Y-123200000D01*
X126000000Y-121950000D02*
X122100000Y-121950000D01*
X122400000Y-123000000D02*
X121150000Y-124250000D01*
X119200000Y-121800000D02*
X119200000Y-76200000D01*
X126900000Y-122850000D02*
X126000000Y-121950000D01*
X122100000Y-121950000D02*
X120850000Y-123200000D01*
X126200000Y-121250000D02*
X121900000Y-121250000D01*
X118150000Y-75150000D02*
X171800000Y-75150000D01*
X118150000Y-122850000D02*
X118150000Y-75150000D01*
X120750000Y-122850000D02*
X118150000Y-122850000D01*
X172500000Y-74450000D02*
X172500000Y-123550000D01*
X126100000Y-121600000D02*
X122000000Y-121600000D01*
X170750000Y-121800000D02*
X127200000Y-121800000D01*
X171450000Y-122500000D02*
X127000000Y-122500000D01*
X118500000Y-75500000D02*
X171450000Y-75500000D01*
X117450000Y-123550000D02*
X117450000Y-74450000D01*
X170750000Y-76200000D02*
X170750000Y-121800000D01*
X120650000Y-122500000D02*
X118500000Y-122500000D01*
X116400000Y-73400000D02*
X119450000Y-73400000D01*
X117100000Y-123900000D02*
X117100000Y-74100000D01*
X127000000Y-122500000D02*
X126100000Y-121600000D01*
X171450000Y-75500000D02*
X171450000Y-122500000D01*
X122300000Y-122650000D02*
X121050000Y-123900000D01*
X121900000Y-121250000D02*
X120650000Y-122500000D01*
X117800000Y-74800000D02*
X172150000Y-74800000D01*
X122200000Y-122300000D02*
X120950000Y-123550000D01*
X116400000Y-124600000D02*
X116400000Y-73400000D01*
X122000000Y-121600000D02*
X120750000Y-122850000D01*
X171800000Y-122850000D02*
X126900000Y-122850000D01*
X171800000Y-75150000D02*
X171800000Y-122850000D01*
X121050000Y-123900000D02*
X117100000Y-123900000D01*
X127100000Y-122150000D02*
X126200000Y-121250000D01*
X171100000Y-122150000D02*
X127100000Y-122150000D01*
X120550000Y-122150000D02*
X118850000Y-122150000D01*
X172150000Y-74800000D02*
X172150000Y-123200000D01*
X118850000Y-75850000D02*
X171100000Y-75850000D01*
X120850000Y-123200000D02*
X117800000Y-123200000D01*
X118850000Y-122150000D02*
X118850000Y-75850000D01*
X121800000Y-120900000D02*
X120550000Y-122150000D01*
X119200000Y-76200000D02*
X170750000Y-76200000D01*
X120950000Y-123550000D02*
X117450000Y-123550000D01*
X171100000Y-75850000D02*
X171100000Y-122150000D01*
X126300000Y-120900000D02*
X121800000Y-120900000D01*
X126700000Y-123550000D02*
X125800000Y-122650000D01*
X172850000Y-74100000D02*
X172850000Y-123900000D01*
X127200000Y-121800000D02*
X126300000Y-120900000D01*
X119200000Y-121800000D02*
X120450000Y-121800000D01*
X120450000Y-121800000D02*
X121700000Y-120550000D01*
X126400000Y-120550000D02*
X127300000Y-121450000D01*
X121700000Y-120550000D02*
X126400000Y-120550000D01*
X119550000Y-110645000D02*
X121300000Y-112395000D01*
X119550000Y-76550000D02*
X119550000Y-110645000D01*
M02*
