%TF.GenerationSoftware,KiCad,Pcbnew,(5.1.4)-1*%
%TF.CreationDate,2019-12-19T17:17:14-07:00*%
%TF.ProjectId,ypanel,7970616e-656c-42e6-9b69-6361645f7063,rev?*%
%TF.SameCoordinates,Original*%
%TF.FileFunction,Legend,Bot*%
%TF.FilePolarity,Positive*%
%FSLAX46Y46*%
G04 Gerber Fmt 4.6, Leading zero omitted, Abs format (unit mm)*
G04 Created by KiCad (PCBNEW (5.1.4)-1) date 2019-12-19 17:17:14*
%MOMM*%
%LPD*%
G04 APERTURE LIST*
%ADD10C,0.177800*%
%ADD11C,0.150000*%
%ADD12C,0.101600*%
%ADD13C,0.120000*%
%ADD14C,0.254000*%
%ADD15C,0.100000*%
%ADD16C,0.050000*%
%ADD17C,0.200000*%
%ADD18C,0.010000*%
%ADD19C,0.250000*%
%ADD20C,0.127000*%
G04 APERTURE END LIST*
D10*
X168903685Y-84119980D02*
X169475114Y-84119980D01*
X169189400Y-84119980D02*
X169189400Y-83119980D01*
X169284638Y-83262838D01*
X169379876Y-83358076D01*
X169475114Y-83405695D01*
X158638523Y-113136419D02*
X158590904Y-113088800D01*
X158495666Y-113041180D01*
X158257571Y-113041180D01*
X158162333Y-113088800D01*
X158114714Y-113136419D01*
X158067095Y-113231657D01*
X158067095Y-113326895D01*
X158114714Y-113469752D01*
X158686142Y-114041180D01*
X158067095Y-114041180D01*
X157638523Y-113945942D02*
X157590904Y-113993561D01*
X157638523Y-114041180D01*
X157686142Y-113993561D01*
X157638523Y-113945942D01*
X157638523Y-114041180D01*
X156733761Y-113374514D02*
X156733761Y-114041180D01*
X156971857Y-112993561D02*
X157209952Y-113707847D01*
X156590904Y-113707847D01*
X154924238Y-113088800D02*
X155019476Y-113041180D01*
X155162333Y-113041180D01*
X155305190Y-113088800D01*
X155400428Y-113184038D01*
X155448047Y-113279276D01*
X155495666Y-113469752D01*
X155495666Y-113612609D01*
X155448047Y-113803085D01*
X155400428Y-113898323D01*
X155305190Y-113993561D01*
X155162333Y-114041180D01*
X155067095Y-114041180D01*
X154924238Y-113993561D01*
X154876619Y-113945942D01*
X154876619Y-113612609D01*
X155067095Y-113612609D01*
X154448047Y-114041180D02*
X154448047Y-113041180D01*
X154448047Y-113517371D02*
X153876619Y-113517371D01*
X153876619Y-114041180D02*
X153876619Y-113041180D01*
X153495666Y-113374514D02*
X152971857Y-113374514D01*
X153495666Y-114041180D01*
X152971857Y-114041180D01*
D11*
X122232176Y-94164342D02*
X122279795Y-94211961D01*
X122422652Y-94259580D01*
X122517890Y-94259580D01*
X122660747Y-94211961D01*
X122755985Y-94116723D01*
X122803604Y-94021485D01*
X122851223Y-93831009D01*
X122851223Y-93688152D01*
X122803604Y-93497676D01*
X122755985Y-93402438D01*
X122660747Y-93307200D01*
X122517890Y-93259580D01*
X122422652Y-93259580D01*
X122279795Y-93307200D01*
X122232176Y-93354819D01*
X121375033Y-94259580D02*
X121375033Y-93735771D01*
X121422652Y-93640533D01*
X121517890Y-93592914D01*
X121708366Y-93592914D01*
X121803604Y-93640533D01*
X121375033Y-94211961D02*
X121470271Y-94259580D01*
X121708366Y-94259580D01*
X121803604Y-94211961D01*
X121851223Y-94116723D01*
X121851223Y-94021485D01*
X121803604Y-93926247D01*
X121708366Y-93878628D01*
X121470271Y-93878628D01*
X121375033Y-93831009D01*
X120898842Y-94259580D02*
X120898842Y-93259580D01*
X120898842Y-93640533D02*
X120803604Y-93592914D01*
X120613128Y-93592914D01*
X120517890Y-93640533D01*
X120470271Y-93688152D01*
X120422652Y-93783390D01*
X120422652Y-94069104D01*
X120470271Y-94164342D01*
X120517890Y-94211961D01*
X120613128Y-94259580D01*
X120803604Y-94259580D01*
X120898842Y-94211961D01*
X119851223Y-94259580D02*
X119946461Y-94211961D01*
X119994080Y-94116723D01*
X119994080Y-93259580D01*
X119089319Y-94211961D02*
X119184557Y-94259580D01*
X119375033Y-94259580D01*
X119470271Y-94211961D01*
X119517890Y-94116723D01*
X119517890Y-93735771D01*
X119470271Y-93640533D01*
X119375033Y-93592914D01*
X119184557Y-93592914D01*
X119089319Y-93640533D01*
X119041700Y-93735771D01*
X119041700Y-93831009D01*
X119517890Y-93926247D01*
X117851223Y-94259580D02*
X117851223Y-93259580D01*
X117470271Y-93259580D01*
X117375033Y-93307200D01*
X117327414Y-93354819D01*
X117279795Y-93450057D01*
X117279795Y-93592914D01*
X117327414Y-93688152D01*
X117375033Y-93735771D01*
X117470271Y-93783390D01*
X117851223Y-93783390D01*
X116851223Y-94259580D02*
X116851223Y-93592914D01*
X116851223Y-93259580D02*
X116898842Y-93307200D01*
X116851223Y-93354819D01*
X116803604Y-93307200D01*
X116851223Y-93259580D01*
X116851223Y-93354819D01*
X116375033Y-93592914D02*
X116375033Y-94259580D01*
X116375033Y-93688152D02*
X116327414Y-93640533D01*
X116232176Y-93592914D01*
X116089319Y-93592914D01*
X115994080Y-93640533D01*
X115946461Y-93735771D01*
X115946461Y-94259580D01*
X115327414Y-94259580D02*
X115422652Y-94211961D01*
X115470271Y-94164342D01*
X115517890Y-94069104D01*
X115517890Y-93783390D01*
X115470271Y-93688152D01*
X115422652Y-93640533D01*
X115327414Y-93592914D01*
X115184557Y-93592914D01*
X115089319Y-93640533D01*
X115041700Y-93688152D01*
X114994080Y-93783390D01*
X114994080Y-94069104D01*
X115041700Y-94164342D01*
X115089319Y-94211961D01*
X115184557Y-94259580D01*
X115327414Y-94259580D01*
X114136938Y-93592914D02*
X114136938Y-94259580D01*
X114565509Y-93592914D02*
X114565509Y-94116723D01*
X114517890Y-94211961D01*
X114422652Y-94259580D01*
X114279795Y-94259580D01*
X114184557Y-94211961D01*
X114136938Y-94164342D01*
X113803604Y-93592914D02*
X113422652Y-93592914D01*
X113660747Y-93259580D02*
X113660747Y-94116723D01*
X113613128Y-94211961D01*
X113517890Y-94259580D01*
X113422652Y-94259580D01*
X122279795Y-95909580D02*
X122851223Y-95909580D01*
X122565509Y-95909580D02*
X122565509Y-94909580D01*
X122660747Y-95052438D01*
X122755985Y-95147676D01*
X122851223Y-95195295D01*
X121851223Y-95814342D02*
X121803604Y-95861961D01*
X121851223Y-95909580D01*
X121898842Y-95861961D01*
X121851223Y-95814342D01*
X121851223Y-95909580D01*
X121041700Y-95385771D02*
X120898842Y-95433390D01*
X120851223Y-95481009D01*
X120803604Y-95576247D01*
X120803604Y-95719104D01*
X120851223Y-95814342D01*
X120898842Y-95861961D01*
X120994080Y-95909580D01*
X121375033Y-95909580D01*
X121375033Y-94909580D01*
X121041700Y-94909580D01*
X120946461Y-94957200D01*
X120898842Y-95004819D01*
X120851223Y-95100057D01*
X120851223Y-95195295D01*
X120898842Y-95290533D01*
X120946461Y-95338152D01*
X121041700Y-95385771D01*
X121375033Y-95385771D01*
X120422652Y-95623866D02*
X119946461Y-95623866D01*
X120517890Y-95909580D02*
X120184557Y-94909580D01*
X119851223Y-95909580D01*
X119660747Y-94909580D02*
X119089319Y-94909580D01*
X119375033Y-95909580D02*
X119375033Y-94909580D01*
X118898842Y-94909580D02*
X118327414Y-94909580D01*
X118613128Y-95909580D02*
X118613128Y-94909580D01*
X118232176Y-96004819D02*
X117470271Y-96004819D01*
X117232176Y-95909580D02*
X117232176Y-94909580D01*
X116851223Y-94909580D01*
X116755985Y-94957200D01*
X116708366Y-95004819D01*
X116660747Y-95100057D01*
X116660747Y-95242914D01*
X116708366Y-95338152D01*
X116755985Y-95385771D01*
X116851223Y-95433390D01*
X117232176Y-95433390D01*
X122851223Y-96654819D02*
X122803604Y-96607200D01*
X122708366Y-96559580D01*
X122470271Y-96559580D01*
X122375033Y-96607200D01*
X122327414Y-96654819D01*
X122279795Y-96750057D01*
X122279795Y-96845295D01*
X122327414Y-96988152D01*
X122898842Y-97559580D01*
X122279795Y-97559580D01*
X121851223Y-97464342D02*
X121803604Y-97511961D01*
X121851223Y-97559580D01*
X121898842Y-97511961D01*
X121851223Y-97464342D01*
X121851223Y-97559580D01*
X121041700Y-97035771D02*
X120898842Y-97083390D01*
X120851223Y-97131009D01*
X120803604Y-97226247D01*
X120803604Y-97369104D01*
X120851223Y-97464342D01*
X120898842Y-97511961D01*
X120994080Y-97559580D01*
X121375033Y-97559580D01*
X121375033Y-96559580D01*
X121041700Y-96559580D01*
X120946461Y-96607200D01*
X120898842Y-96654819D01*
X120851223Y-96750057D01*
X120851223Y-96845295D01*
X120898842Y-96940533D01*
X120946461Y-96988152D01*
X121041700Y-97035771D01*
X121375033Y-97035771D01*
X120422652Y-97273866D02*
X119946461Y-97273866D01*
X120517890Y-97559580D02*
X120184557Y-96559580D01*
X119851223Y-97559580D01*
X119660747Y-96559580D02*
X119089319Y-96559580D01*
X119375033Y-97559580D02*
X119375033Y-96559580D01*
X118898842Y-96559580D02*
X118327414Y-96559580D01*
X118613128Y-97559580D02*
X118613128Y-96559580D01*
X118232176Y-97654819D02*
X117470271Y-97654819D01*
X117232176Y-97559580D02*
X117232176Y-96559580D01*
X116660747Y-97559580D01*
X116660747Y-96559580D01*
X122898842Y-98209580D02*
X122279795Y-98209580D01*
X122613128Y-98590533D01*
X122470271Y-98590533D01*
X122375033Y-98638152D01*
X122327414Y-98685771D01*
X122279795Y-98781009D01*
X122279795Y-99019104D01*
X122327414Y-99114342D01*
X122375033Y-99161961D01*
X122470271Y-99209580D01*
X122755985Y-99209580D01*
X122851223Y-99161961D01*
X122898842Y-99114342D01*
X121851223Y-99114342D02*
X121803604Y-99161961D01*
X121851223Y-99209580D01*
X121898842Y-99161961D01*
X121851223Y-99114342D01*
X121851223Y-99209580D01*
X121422652Y-99161961D02*
X121279795Y-99209580D01*
X121041700Y-99209580D01*
X120946461Y-99161961D01*
X120898842Y-99114342D01*
X120851223Y-99019104D01*
X120851223Y-98923866D01*
X120898842Y-98828628D01*
X120946461Y-98781009D01*
X121041700Y-98733390D01*
X121232176Y-98685771D01*
X121327414Y-98638152D01*
X121375033Y-98590533D01*
X121422652Y-98495295D01*
X121422652Y-98400057D01*
X121375033Y-98304819D01*
X121327414Y-98257200D01*
X121232176Y-98209580D01*
X120994080Y-98209580D01*
X120851223Y-98257200D01*
X120422652Y-99209580D02*
X120422652Y-98209580D01*
X120184557Y-98209580D01*
X120041700Y-98257200D01*
X119946461Y-98352438D01*
X119898842Y-98447676D01*
X119851223Y-98638152D01*
X119851223Y-98781009D01*
X119898842Y-98971485D01*
X119946461Y-99066723D01*
X120041700Y-99161961D01*
X120184557Y-99209580D01*
X120422652Y-99209580D01*
X119470271Y-98923866D02*
X118994080Y-98923866D01*
X119565509Y-99209580D02*
X119232176Y-98209580D01*
X118898842Y-99209580D01*
X122375033Y-100192914D02*
X122375033Y-100859580D01*
X122613128Y-99811961D02*
X122851223Y-100526247D01*
X122232176Y-100526247D01*
X121851223Y-100764342D02*
X121803604Y-100811961D01*
X121851223Y-100859580D01*
X121898842Y-100811961D01*
X121851223Y-100764342D01*
X121851223Y-100859580D01*
X121422652Y-100811961D02*
X121279795Y-100859580D01*
X121041700Y-100859580D01*
X120946461Y-100811961D01*
X120898842Y-100764342D01*
X120851223Y-100669104D01*
X120851223Y-100573866D01*
X120898842Y-100478628D01*
X120946461Y-100431009D01*
X121041700Y-100383390D01*
X121232176Y-100335771D01*
X121327414Y-100288152D01*
X121375033Y-100240533D01*
X121422652Y-100145295D01*
X121422652Y-100050057D01*
X121375033Y-99954819D01*
X121327414Y-99907200D01*
X121232176Y-99859580D01*
X120994080Y-99859580D01*
X120851223Y-99907200D01*
X119851223Y-100764342D02*
X119898842Y-100811961D01*
X120041700Y-100859580D01*
X120136938Y-100859580D01*
X120279795Y-100811961D01*
X120375033Y-100716723D01*
X120422652Y-100621485D01*
X120470271Y-100431009D01*
X120470271Y-100288152D01*
X120422652Y-100097676D01*
X120375033Y-100002438D01*
X120279795Y-99907200D01*
X120136938Y-99859580D01*
X120041700Y-99859580D01*
X119898842Y-99907200D01*
X119851223Y-99954819D01*
X118946461Y-100859580D02*
X119422652Y-100859580D01*
X119422652Y-99859580D01*
X122327414Y-101509580D02*
X122803604Y-101509580D01*
X122851223Y-101985771D01*
X122803604Y-101938152D01*
X122708366Y-101890533D01*
X122470271Y-101890533D01*
X122375033Y-101938152D01*
X122327414Y-101985771D01*
X122279795Y-102081009D01*
X122279795Y-102319104D01*
X122327414Y-102414342D01*
X122375033Y-102461961D01*
X122470271Y-102509580D01*
X122708366Y-102509580D01*
X122803604Y-102461961D01*
X122851223Y-102414342D01*
X121851223Y-102414342D02*
X121803604Y-102461961D01*
X121851223Y-102509580D01*
X121898842Y-102461961D01*
X121851223Y-102414342D01*
X121851223Y-102509580D01*
X121041700Y-101985771D02*
X120898842Y-102033390D01*
X120851223Y-102081009D01*
X120803604Y-102176247D01*
X120803604Y-102319104D01*
X120851223Y-102414342D01*
X120898842Y-102461961D01*
X120994080Y-102509580D01*
X121375033Y-102509580D01*
X121375033Y-101509580D01*
X121041700Y-101509580D01*
X120946461Y-101557200D01*
X120898842Y-101604819D01*
X120851223Y-101700057D01*
X120851223Y-101795295D01*
X120898842Y-101890533D01*
X120946461Y-101938152D01*
X121041700Y-101985771D01*
X121375033Y-101985771D01*
X120375033Y-101509580D02*
X120375033Y-102319104D01*
X120327414Y-102414342D01*
X120279795Y-102461961D01*
X120184557Y-102509580D01*
X119994080Y-102509580D01*
X119898842Y-102461961D01*
X119851223Y-102414342D01*
X119803604Y-102319104D01*
X119803604Y-101509580D01*
X118755985Y-102509580D02*
X119089319Y-102033390D01*
X119327414Y-102509580D02*
X119327414Y-101509580D01*
X118946461Y-101509580D01*
X118851223Y-101557200D01*
X118803604Y-101604819D01*
X118755985Y-101700057D01*
X118755985Y-101842914D01*
X118803604Y-101938152D01*
X118851223Y-101985771D01*
X118946461Y-102033390D01*
X119327414Y-102033390D01*
X118327414Y-102509580D02*
X118327414Y-101509580D01*
X117755985Y-102509580D01*
X117755985Y-101509580D01*
X122375033Y-103159580D02*
X122565509Y-103159580D01*
X122660747Y-103207200D01*
X122708366Y-103254819D01*
X122803604Y-103397676D01*
X122851223Y-103588152D01*
X122851223Y-103969104D01*
X122803604Y-104064342D01*
X122755985Y-104111961D01*
X122660747Y-104159580D01*
X122470271Y-104159580D01*
X122375033Y-104111961D01*
X122327414Y-104064342D01*
X122279795Y-103969104D01*
X122279795Y-103731009D01*
X122327414Y-103635771D01*
X122375033Y-103588152D01*
X122470271Y-103540533D01*
X122660747Y-103540533D01*
X122755985Y-103588152D01*
X122803604Y-103635771D01*
X122851223Y-103731009D01*
X121851223Y-104064342D02*
X121803604Y-104111961D01*
X121851223Y-104159580D01*
X121898842Y-104111961D01*
X121851223Y-104064342D01*
X121851223Y-104159580D01*
X121470271Y-103159580D02*
X120851223Y-103159580D01*
X121184557Y-103540533D01*
X121041700Y-103540533D01*
X120946461Y-103588152D01*
X120898842Y-103635771D01*
X120851223Y-103731009D01*
X120851223Y-103969104D01*
X120898842Y-104064342D01*
X120946461Y-104111961D01*
X121041700Y-104159580D01*
X121327414Y-104159580D01*
X121422652Y-104111961D01*
X121470271Y-104064342D01*
X120565509Y-103159580D02*
X120232176Y-104159580D01*
X119898842Y-103159580D01*
X119660747Y-103159580D02*
X119041700Y-103159580D01*
X119375033Y-103540533D01*
X119232176Y-103540533D01*
X119136938Y-103588152D01*
X119089319Y-103635771D01*
X119041700Y-103731009D01*
X119041700Y-103969104D01*
X119089319Y-104064342D01*
X119136938Y-104111961D01*
X119232176Y-104159580D01*
X119517890Y-104159580D01*
X119613128Y-104111961D01*
X119660747Y-104064342D01*
X122898842Y-104809580D02*
X122232176Y-104809580D01*
X122660747Y-105809580D01*
X121851223Y-105714342D02*
X121803604Y-105761961D01*
X121851223Y-105809580D01*
X121898842Y-105761961D01*
X121851223Y-105714342D01*
X121851223Y-105809580D01*
X120851223Y-104857200D02*
X120946461Y-104809580D01*
X121089319Y-104809580D01*
X121232176Y-104857200D01*
X121327414Y-104952438D01*
X121375033Y-105047676D01*
X121422652Y-105238152D01*
X121422652Y-105381009D01*
X121375033Y-105571485D01*
X121327414Y-105666723D01*
X121232176Y-105761961D01*
X121089319Y-105809580D01*
X120994080Y-105809580D01*
X120851223Y-105761961D01*
X120803604Y-105714342D01*
X120803604Y-105381009D01*
X120994080Y-105381009D01*
X120375033Y-105809580D02*
X120375033Y-104809580D01*
X119803604Y-105809580D01*
X119803604Y-104809580D01*
X119327414Y-105809580D02*
X119327414Y-104809580D01*
X119089319Y-104809580D01*
X118946461Y-104857200D01*
X118851223Y-104952438D01*
X118803604Y-105047676D01*
X118755985Y-105238152D01*
X118755985Y-105381009D01*
X118803604Y-105571485D01*
X118851223Y-105666723D01*
X118946461Y-105761961D01*
X119089319Y-105809580D01*
X119327414Y-105809580D01*
X122660747Y-106888152D02*
X122755985Y-106840533D01*
X122803604Y-106792914D01*
X122851223Y-106697676D01*
X122851223Y-106650057D01*
X122803604Y-106554819D01*
X122755985Y-106507200D01*
X122660747Y-106459580D01*
X122470271Y-106459580D01*
X122375033Y-106507200D01*
X122327414Y-106554819D01*
X122279795Y-106650057D01*
X122279795Y-106697676D01*
X122327414Y-106792914D01*
X122375033Y-106840533D01*
X122470271Y-106888152D01*
X122660747Y-106888152D01*
X122755985Y-106935771D01*
X122803604Y-106983390D01*
X122851223Y-107078628D01*
X122851223Y-107269104D01*
X122803604Y-107364342D01*
X122755985Y-107411961D01*
X122660747Y-107459580D01*
X122470271Y-107459580D01*
X122375033Y-107411961D01*
X122327414Y-107364342D01*
X122279795Y-107269104D01*
X122279795Y-107078628D01*
X122327414Y-106983390D01*
X122375033Y-106935771D01*
X122470271Y-106888152D01*
X121851223Y-107364342D02*
X121803604Y-107411961D01*
X121851223Y-107459580D01*
X121898842Y-107411961D01*
X121851223Y-107364342D01*
X121851223Y-107459580D01*
X120851223Y-106507200D02*
X120946461Y-106459580D01*
X121089319Y-106459580D01*
X121232176Y-106507200D01*
X121327414Y-106602438D01*
X121375033Y-106697676D01*
X121422652Y-106888152D01*
X121422652Y-107031009D01*
X121375033Y-107221485D01*
X121327414Y-107316723D01*
X121232176Y-107411961D01*
X121089319Y-107459580D01*
X120994080Y-107459580D01*
X120851223Y-107411961D01*
X120803604Y-107364342D01*
X120803604Y-107031009D01*
X120994080Y-107031009D01*
X120375033Y-107459580D02*
X120375033Y-106459580D01*
X119803604Y-107459580D01*
X119803604Y-106459580D01*
X119327414Y-107459580D02*
X119327414Y-106459580D01*
X119089319Y-106459580D01*
X118946461Y-106507200D01*
X118851223Y-106602438D01*
X118803604Y-106697676D01*
X118755985Y-106888152D01*
X118755985Y-107031009D01*
X118803604Y-107221485D01*
X118851223Y-107316723D01*
X118946461Y-107411961D01*
X119089319Y-107459580D01*
X119327414Y-107459580D01*
X122755985Y-109109580D02*
X122565509Y-109109580D01*
X122470271Y-109061961D01*
X122422652Y-109014342D01*
X122327414Y-108871485D01*
X122279795Y-108681009D01*
X122279795Y-108300057D01*
X122327414Y-108204819D01*
X122375033Y-108157200D01*
X122470271Y-108109580D01*
X122660747Y-108109580D01*
X122755985Y-108157200D01*
X122803604Y-108204819D01*
X122851223Y-108300057D01*
X122851223Y-108538152D01*
X122803604Y-108633390D01*
X122755985Y-108681009D01*
X122660747Y-108728628D01*
X122470271Y-108728628D01*
X122375033Y-108681009D01*
X122327414Y-108633390D01*
X122279795Y-108538152D01*
X121851223Y-109014342D02*
X121803604Y-109061961D01*
X121851223Y-109109580D01*
X121898842Y-109061961D01*
X121851223Y-109014342D01*
X121851223Y-109109580D01*
X120803604Y-109014342D02*
X120851223Y-109061961D01*
X120994080Y-109109580D01*
X121089319Y-109109580D01*
X121232176Y-109061961D01*
X121327414Y-108966723D01*
X121375033Y-108871485D01*
X121422652Y-108681009D01*
X121422652Y-108538152D01*
X121375033Y-108347676D01*
X121327414Y-108252438D01*
X121232176Y-108157200D01*
X121089319Y-108109580D01*
X120994080Y-108109580D01*
X120851223Y-108157200D01*
X120803604Y-108204819D01*
X120184557Y-108109580D02*
X119994080Y-108109580D01*
X119898842Y-108157200D01*
X119803604Y-108252438D01*
X119755985Y-108442914D01*
X119755985Y-108776247D01*
X119803604Y-108966723D01*
X119898842Y-109061961D01*
X119994080Y-109109580D01*
X120184557Y-109109580D01*
X120279795Y-109061961D01*
X120375033Y-108966723D01*
X120422652Y-108776247D01*
X120422652Y-108442914D01*
X120375033Y-108252438D01*
X120279795Y-108157200D01*
X120184557Y-108109580D01*
X119327414Y-109109580D02*
X119327414Y-108109580D01*
X118375033Y-109109580D02*
X118851223Y-109109580D01*
X118851223Y-108109580D01*
X118279795Y-109204819D02*
X117517890Y-109204819D01*
X117279795Y-109109580D02*
X117279795Y-108109580D01*
X116708366Y-109109580D01*
X116708366Y-108109580D01*
X122279795Y-110759580D02*
X122851223Y-110759580D01*
X122565509Y-110759580D02*
X122565509Y-109759580D01*
X122660747Y-109902438D01*
X122755985Y-109997676D01*
X122851223Y-110045295D01*
X121660747Y-109759580D02*
X121565509Y-109759580D01*
X121470271Y-109807200D01*
X121422652Y-109854819D01*
X121375033Y-109950057D01*
X121327414Y-110140533D01*
X121327414Y-110378628D01*
X121375033Y-110569104D01*
X121422652Y-110664342D01*
X121470271Y-110711961D01*
X121565509Y-110759580D01*
X121660747Y-110759580D01*
X121755985Y-110711961D01*
X121803604Y-110664342D01*
X121851223Y-110569104D01*
X121898842Y-110378628D01*
X121898842Y-110140533D01*
X121851223Y-109950057D01*
X121803604Y-109854819D01*
X121755985Y-109807200D01*
X121660747Y-109759580D01*
X120898842Y-110664342D02*
X120851223Y-110711961D01*
X120898842Y-110759580D01*
X120946461Y-110711961D01*
X120898842Y-110664342D01*
X120898842Y-110759580D01*
X119851223Y-110664342D02*
X119898842Y-110711961D01*
X120041700Y-110759580D01*
X120136938Y-110759580D01*
X120279795Y-110711961D01*
X120375033Y-110616723D01*
X120422652Y-110521485D01*
X120470271Y-110331009D01*
X120470271Y-110188152D01*
X120422652Y-109997676D01*
X120375033Y-109902438D01*
X120279795Y-109807200D01*
X120136938Y-109759580D01*
X120041700Y-109759580D01*
X119898842Y-109807200D01*
X119851223Y-109854819D01*
X119232176Y-109759580D02*
X119041700Y-109759580D01*
X118946461Y-109807200D01*
X118851223Y-109902438D01*
X118803604Y-110092914D01*
X118803604Y-110426247D01*
X118851223Y-110616723D01*
X118946461Y-110711961D01*
X119041700Y-110759580D01*
X119232176Y-110759580D01*
X119327414Y-110711961D01*
X119422652Y-110616723D01*
X119470271Y-110426247D01*
X119470271Y-110092914D01*
X119422652Y-109902438D01*
X119327414Y-109807200D01*
X119232176Y-109759580D01*
X118375033Y-110759580D02*
X118375033Y-109759580D01*
X117422652Y-110759580D02*
X117898842Y-110759580D01*
X117898842Y-109759580D01*
X117327414Y-110854819D02*
X116565509Y-110854819D01*
X116327414Y-110759580D02*
X116327414Y-109759580D01*
X115946461Y-109759580D01*
X115851223Y-109807200D01*
X115803604Y-109854819D01*
X115755985Y-109950057D01*
X115755985Y-110092914D01*
X115803604Y-110188152D01*
X115851223Y-110235771D01*
X115946461Y-110283390D01*
X116327414Y-110283390D01*
D12*
X172297271Y-109659420D02*
X172369842Y-109623134D01*
X172478700Y-109623134D01*
X172587557Y-109659420D01*
X172660128Y-109731991D01*
X172696414Y-109804562D01*
X172732700Y-109949705D01*
X172732700Y-110058562D01*
X172696414Y-110203705D01*
X172660128Y-110276277D01*
X172587557Y-110348848D01*
X172478700Y-110385134D01*
X172406128Y-110385134D01*
X172297271Y-110348848D01*
X172260985Y-110312562D01*
X172260985Y-110058562D01*
X172406128Y-110058562D01*
X171934414Y-110385134D02*
X171934414Y-109623134D01*
X171498985Y-110385134D01*
X171498985Y-109623134D01*
X171136128Y-110385134D02*
X171136128Y-109623134D01*
X170954700Y-109623134D01*
X170845842Y-109659420D01*
X170773271Y-109731991D01*
X170736985Y-109804562D01*
X170700700Y-109949705D01*
X170700700Y-110058562D01*
X170736985Y-110203705D01*
X170773271Y-110276277D01*
X170845842Y-110348848D01*
X170954700Y-110385134D01*
X171136128Y-110385134D01*
X169990588Y-109595194D02*
X169518874Y-109595194D01*
X169772874Y-109885480D01*
X169664017Y-109885480D01*
X169591445Y-109921765D01*
X169555160Y-109958051D01*
X169518874Y-110030622D01*
X169518874Y-110212051D01*
X169555160Y-110284622D01*
X169591445Y-110320908D01*
X169664017Y-110357194D01*
X169881731Y-110357194D01*
X169954302Y-110320908D01*
X169990588Y-110284622D01*
X169301160Y-109595194D02*
X169047160Y-110357194D01*
X168793160Y-109595194D01*
X168611731Y-109595194D02*
X168140017Y-109595194D01*
X168394017Y-109885480D01*
X168285160Y-109885480D01*
X168212588Y-109921765D01*
X168176302Y-109958051D01*
X168140017Y-110030622D01*
X168140017Y-110212051D01*
X168176302Y-110284622D01*
X168212588Y-110320908D01*
X168285160Y-110357194D01*
X168502874Y-110357194D01*
X168575445Y-110320908D01*
X168611731Y-110284622D01*
X175039020Y-93331574D02*
X174785020Y-94093574D01*
X174531020Y-93331574D01*
X174313305Y-94057288D02*
X174204448Y-94093574D01*
X174023020Y-94093574D01*
X173950448Y-94057288D01*
X173914162Y-94021002D01*
X173877877Y-93948431D01*
X173877877Y-93875860D01*
X173914162Y-93803288D01*
X173950448Y-93767002D01*
X174023020Y-93730717D01*
X174168162Y-93694431D01*
X174240734Y-93658145D01*
X174277020Y-93621860D01*
X174313305Y-93549288D01*
X174313305Y-93476717D01*
X174277020Y-93404145D01*
X174240734Y-93367860D01*
X174168162Y-93331574D01*
X173986734Y-93331574D01*
X173877877Y-93367860D01*
X173406162Y-93331574D02*
X173261020Y-93331574D01*
X173188448Y-93367860D01*
X173115877Y-93440431D01*
X173079591Y-93585574D01*
X173079591Y-93839574D01*
X173115877Y-93984717D01*
X173188448Y-94057288D01*
X173261020Y-94093574D01*
X173406162Y-94093574D01*
X173478734Y-94057288D01*
X173551305Y-93984717D01*
X173587591Y-93839574D01*
X173587591Y-93585574D01*
X173551305Y-93440431D01*
X173478734Y-93367860D01*
X173406162Y-93331574D01*
X172390162Y-94093574D02*
X172753020Y-94093574D01*
X172753020Y-93331574D01*
X172172448Y-93875860D02*
X171809591Y-93875860D01*
X172245020Y-94093574D02*
X171991020Y-93331574D01*
X171737020Y-94093574D01*
X171047591Y-94093574D02*
X171301591Y-93730717D01*
X171483020Y-94093574D02*
X171483020Y-93331574D01*
X171192734Y-93331574D01*
X171120162Y-93367860D01*
X171083877Y-93404145D01*
X171047591Y-93476717D01*
X171047591Y-93585574D01*
X171083877Y-93658145D01*
X171120162Y-93694431D01*
X171192734Y-93730717D01*
X171483020Y-93730717D01*
D13*
X167970200Y-94437200D02*
X167970200Y-95554800D01*
X169265600Y-97739200D02*
X169265600Y-95808800D01*
X168300400Y-97739200D02*
X169265600Y-97739200D01*
X168300400Y-95808800D02*
X168300400Y-97739200D01*
X169265600Y-95808800D02*
X168300400Y-95808800D01*
X159461200Y-96824800D02*
X159461200Y-98755200D01*
X160477200Y-96824800D02*
X159461200Y-96824800D01*
X160477200Y-98755200D02*
X160477200Y-96824800D01*
X159461200Y-98755200D02*
X160477200Y-98755200D01*
X169265600Y-95808800D02*
X169519600Y-95504000D01*
D14*
X113000000Y-125000000D02*
X176987200Y-125000000D01*
X113030000Y-72999600D02*
X177017200Y-72999600D01*
D15*
X158291000Y-99002479D02*
G75*
G03X158291000Y-99002479I-11000000J0D01*
G01*
X166000000Y-118900000D02*
G75*
G03X166000000Y-118900000I-1100000J0D01*
G01*
X177000000Y-128000000D02*
X177000000Y-70000000D01*
D16*
X126172800Y-118876400D02*
G75*
G03X126172800Y-118876400I-1100000J0D01*
G01*
X126172800Y-79100000D02*
G75*
G03X126172800Y-79100000I-1100000J0D01*
G01*
D15*
X131024564Y-85002478D02*
G75*
G03X131024564Y-85002478I-1029564J0D01*
G01*
X137499564Y-85002478D02*
G75*
G03X137499564Y-85002478I-1029564J0D01*
G01*
X165995000Y-79102480D02*
G75*
G03X165995000Y-79102480I-1100000J0D01*
G01*
X137499564Y-113002480D02*
G75*
G03X137499564Y-113002480I-1029564J0D01*
G01*
X131024564Y-113002480D02*
G75*
G03X131024564Y-113002480I-1029564J0D01*
G01*
X121804809Y-89229380D02*
X121852428Y-89253190D01*
X121947666Y-89253190D01*
X121995285Y-89229380D01*
X122019095Y-89205571D01*
X122042904Y-89157952D01*
X122042904Y-89015095D01*
X122019095Y-88967476D01*
X121995285Y-88943666D01*
X121947666Y-88919857D01*
X121852428Y-88919857D01*
X121804809Y-88943666D01*
X121519095Y-89253190D02*
X121566714Y-89229380D01*
X121590523Y-89205571D01*
X121614333Y-89157952D01*
X121614333Y-89015095D01*
X121590523Y-88967476D01*
X121566714Y-88943666D01*
X121519095Y-88919857D01*
X121447666Y-88919857D01*
X121400047Y-88943666D01*
X121376238Y-88967476D01*
X121352428Y-89015095D01*
X121352428Y-89157952D01*
X121376238Y-89205571D01*
X121400047Y-89229380D01*
X121447666Y-89253190D01*
X121519095Y-89253190D01*
X121138142Y-89253190D02*
X121138142Y-88919857D01*
X121138142Y-88753190D02*
X121161952Y-88777000D01*
X121138142Y-88800809D01*
X121114333Y-88777000D01*
X121138142Y-88753190D01*
X121138142Y-88800809D01*
X120828619Y-89253190D02*
X120876238Y-89229380D01*
X120900047Y-89181761D01*
X120900047Y-88753190D01*
X120757190Y-89300809D02*
X120376238Y-89300809D01*
X120257190Y-88919857D02*
X120257190Y-89419857D01*
X120257190Y-88943666D02*
X120209571Y-88919857D01*
X120114333Y-88919857D01*
X120066714Y-88943666D01*
X120042904Y-88967476D01*
X120019095Y-89015095D01*
X120019095Y-89157952D01*
X120042904Y-89205571D01*
X120066714Y-89229380D01*
X120114333Y-89253190D01*
X120209571Y-89253190D01*
X120257190Y-89229380D01*
X121677809Y-86816380D02*
X121725428Y-86840190D01*
X121820666Y-86840190D01*
X121868285Y-86816380D01*
X121892095Y-86792571D01*
X121915904Y-86744952D01*
X121915904Y-86602095D01*
X121892095Y-86554476D01*
X121868285Y-86530666D01*
X121820666Y-86506857D01*
X121725428Y-86506857D01*
X121677809Y-86530666D01*
X121392095Y-86840190D02*
X121439714Y-86816380D01*
X121463523Y-86792571D01*
X121487333Y-86744952D01*
X121487333Y-86602095D01*
X121463523Y-86554476D01*
X121439714Y-86530666D01*
X121392095Y-86506857D01*
X121320666Y-86506857D01*
X121273047Y-86530666D01*
X121249238Y-86554476D01*
X121225428Y-86602095D01*
X121225428Y-86744952D01*
X121249238Y-86792571D01*
X121273047Y-86816380D01*
X121320666Y-86840190D01*
X121392095Y-86840190D01*
X121011142Y-86840190D02*
X121011142Y-86506857D01*
X121011142Y-86340190D02*
X121034952Y-86364000D01*
X121011142Y-86387809D01*
X120987333Y-86364000D01*
X121011142Y-86340190D01*
X121011142Y-86387809D01*
X120701619Y-86840190D02*
X120749238Y-86816380D01*
X120773047Y-86768761D01*
X120773047Y-86340190D01*
X120630190Y-86887809D02*
X120249238Y-86887809D01*
X120130190Y-86506857D02*
X120130190Y-86840190D01*
X120130190Y-86554476D02*
X120106380Y-86530666D01*
X120058761Y-86506857D01*
X119987333Y-86506857D01*
X119939714Y-86530666D01*
X119915904Y-86578285D01*
X119915904Y-86840190D01*
D13*
X146654520Y-112582960D02*
G75*
G02X143610774Y-112254102I-1332859J1913849D01*
G01*
X144368520Y-112176560D02*
G75*
G02X143521232Y-111983552I-390089J243807D01*
G01*
X144375578Y-112169223D02*
G75*
G02X146679919Y-112125761I1161342J-464537D01*
G01*
X149765248Y-112024117D02*
G75*
G02X146722520Y-112600360I-1899729J1709756D01*
G01*
X149982520Y-111575360D02*
G75*
G02X148966520Y-112083360I-635000J0D01*
G01*
X146661578Y-112118822D02*
G75*
G02X148965919Y-112075360I1161342J-464537D01*
G01*
D11*
X134945428Y-93051571D02*
X134945428Y-93813476D01*
X135326380Y-93432523D02*
X134564476Y-93432523D01*
X134802571Y-94623000D02*
X134850190Y-94765857D01*
X134897809Y-94813476D01*
X134993047Y-94861095D01*
X135135904Y-94861095D01*
X135231142Y-94813476D01*
X135278761Y-94765857D01*
X135326380Y-94670619D01*
X135326380Y-94289666D01*
X134326380Y-94289666D01*
X134326380Y-94623000D01*
X134374000Y-94718238D01*
X134421619Y-94765857D01*
X134516857Y-94813476D01*
X134612095Y-94813476D01*
X134707333Y-94765857D01*
X134754952Y-94718238D01*
X134802571Y-94623000D01*
X134802571Y-94289666D01*
X135040666Y-95242047D02*
X135040666Y-95718238D01*
X135326380Y-95146809D02*
X134326380Y-95480142D01*
X135326380Y-95813476D01*
X134326380Y-96003952D02*
X134326380Y-96575380D01*
X135326380Y-96289666D02*
X134326380Y-96289666D01*
X134326380Y-96765857D02*
X134326380Y-97337285D01*
X135326380Y-97051571D02*
X134326380Y-97051571D01*
X134945428Y-101560571D02*
X134945428Y-102322476D01*
X134802571Y-103132000D02*
X134850190Y-103274857D01*
X134897809Y-103322476D01*
X134993047Y-103370095D01*
X135135904Y-103370095D01*
X135231142Y-103322476D01*
X135278761Y-103274857D01*
X135326380Y-103179619D01*
X135326380Y-102798666D01*
X134326380Y-102798666D01*
X134326380Y-103132000D01*
X134374000Y-103227238D01*
X134421619Y-103274857D01*
X134516857Y-103322476D01*
X134612095Y-103322476D01*
X134707333Y-103274857D01*
X134754952Y-103227238D01*
X134802571Y-103132000D01*
X134802571Y-102798666D01*
X135040666Y-103751047D02*
X135040666Y-104227238D01*
X135326380Y-103655809D02*
X134326380Y-103989142D01*
X135326380Y-104322476D01*
X134326380Y-104512952D02*
X134326380Y-105084380D01*
X135326380Y-104798666D02*
X134326380Y-104798666D01*
X134326380Y-105274857D02*
X134326380Y-105846285D01*
X135326380Y-105560571D02*
X134326380Y-105560571D01*
D15*
X177000000Y-70000000D02*
X113000000Y-70000000D01*
X113000000Y-128000000D02*
X177000000Y-128000000D01*
X113000000Y-70000000D02*
X113000000Y-128000000D01*
D13*
X170417720Y-93723460D02*
G75*
G03X170417720Y-93723460I-700000J0D01*
G01*
X171908700Y-108191300D02*
G75*
G03X171908700Y-108191300I-700000J0D01*
G01*
X170102760Y-108186220D02*
G75*
G03X170102760Y-108186220I-700000J0D01*
G01*
X127956220Y-103576800D02*
X128806220Y-103576800D01*
X127956220Y-95406800D02*
X127956220Y-103576800D01*
X128806220Y-95406800D02*
X127956220Y-95406800D01*
X133176220Y-103576800D02*
X133176220Y-101251800D01*
X132326220Y-103576800D02*
X133176220Y-103576800D01*
X133176220Y-97731800D02*
X135566220Y-97731800D01*
X133176220Y-95406800D02*
X133176220Y-97731800D01*
X132326220Y-95406800D02*
X133176220Y-95406800D01*
D17*
X160811500Y-93307500D02*
G75*
G03X160811500Y-93307500I-19000J0D01*
G01*
X163068000Y-91981600D02*
X163068000Y-90431600D01*
X163068000Y-83481600D02*
X163068000Y-85031600D01*
X163068000Y-91981600D02*
X165918000Y-91981600D01*
X163068000Y-83481600D02*
X165918000Y-83481600D01*
X167948000Y-83481600D02*
X167948000Y-91981600D01*
D18*
G36*
X145445214Y-82003265D02*
G01*
X145536609Y-81788406D01*
X145618706Y-81594887D01*
X145692318Y-81420750D01*
X145758257Y-81264034D01*
X145817334Y-81122779D01*
X145870361Y-80995025D01*
X145918150Y-80878812D01*
X145961513Y-80772180D01*
X146001262Y-80673168D01*
X146038209Y-80579817D01*
X146073165Y-80490166D01*
X146089613Y-80447515D01*
X146115072Y-80382652D01*
X146137923Y-80327024D01*
X146156461Y-80284577D01*
X146168984Y-80259259D01*
X146173220Y-80253841D01*
X146181711Y-80264845D01*
X146195949Y-80294008D01*
X146213178Y-80335554D01*
X146217146Y-80345915D01*
X146251363Y-80436288D01*
X146284429Y-80522910D01*
X146317139Y-80607739D01*
X146350293Y-80692730D01*
X146384688Y-80779841D01*
X146421120Y-80871028D01*
X146460387Y-80968249D01*
X146503288Y-81073460D01*
X146550618Y-81188619D01*
X146603177Y-81315681D01*
X146661760Y-81456605D01*
X146727166Y-81613346D01*
X146800192Y-81787861D01*
X146881636Y-81982108D01*
X146959830Y-82168365D01*
X147243865Y-82844640D01*
X148763613Y-82844640D01*
X148748717Y-82816065D01*
X148740881Y-82801949D01*
X148721234Y-82766934D01*
X148690459Y-82712235D01*
X148649243Y-82639067D01*
X148598271Y-82548645D01*
X148538228Y-82442183D01*
X148469800Y-82320895D01*
X148393671Y-82185996D01*
X148310528Y-82038701D01*
X148221056Y-81880224D01*
X148125939Y-81711780D01*
X148025864Y-81534583D01*
X147921516Y-81349847D01*
X147813580Y-81158788D01*
X147764020Y-81071070D01*
X146794220Y-79354650D01*
X146794220Y-76850240D01*
X145435320Y-76850240D01*
X145435320Y-79300252D01*
X144489170Y-81067406D01*
X144383634Y-81264550D01*
X144281403Y-81455582D01*
X144183116Y-81639304D01*
X144089413Y-81814519D01*
X144000932Y-81980030D01*
X143918314Y-82134640D01*
X143842196Y-82277150D01*
X143773219Y-82406363D01*
X143712022Y-82521083D01*
X143659245Y-82620111D01*
X143615525Y-82702250D01*
X143581503Y-82766303D01*
X143557819Y-82811072D01*
X143545110Y-82835360D01*
X143543020Y-82839601D01*
X143555356Y-82840498D01*
X143590912Y-82841344D01*
X143647506Y-82842125D01*
X143722957Y-82842826D01*
X143815085Y-82843433D01*
X143921708Y-82843933D01*
X144040647Y-82844310D01*
X144169719Y-82844550D01*
X144306745Y-82844640D01*
X145086939Y-82844640D01*
X145445214Y-82003265D01*
X145445214Y-82003265D01*
G37*
X145445214Y-82003265D02*
X145536609Y-81788406D01*
X145618706Y-81594887D01*
X145692318Y-81420750D01*
X145758257Y-81264034D01*
X145817334Y-81122779D01*
X145870361Y-80995025D01*
X145918150Y-80878812D01*
X145961513Y-80772180D01*
X146001262Y-80673168D01*
X146038209Y-80579817D01*
X146073165Y-80490166D01*
X146089613Y-80447515D01*
X146115072Y-80382652D01*
X146137923Y-80327024D01*
X146156461Y-80284577D01*
X146168984Y-80259259D01*
X146173220Y-80253841D01*
X146181711Y-80264845D01*
X146195949Y-80294008D01*
X146213178Y-80335554D01*
X146217146Y-80345915D01*
X146251363Y-80436288D01*
X146284429Y-80522910D01*
X146317139Y-80607739D01*
X146350293Y-80692730D01*
X146384688Y-80779841D01*
X146421120Y-80871028D01*
X146460387Y-80968249D01*
X146503288Y-81073460D01*
X146550618Y-81188619D01*
X146603177Y-81315681D01*
X146661760Y-81456605D01*
X146727166Y-81613346D01*
X146800192Y-81787861D01*
X146881636Y-81982108D01*
X146959830Y-82168365D01*
X147243865Y-82844640D01*
X148763613Y-82844640D01*
X148748717Y-82816065D01*
X148740881Y-82801949D01*
X148721234Y-82766934D01*
X148690459Y-82712235D01*
X148649243Y-82639067D01*
X148598271Y-82548645D01*
X148538228Y-82442183D01*
X148469800Y-82320895D01*
X148393671Y-82185996D01*
X148310528Y-82038701D01*
X148221056Y-81880224D01*
X148125939Y-81711780D01*
X148025864Y-81534583D01*
X147921516Y-81349847D01*
X147813580Y-81158788D01*
X147764020Y-81071070D01*
X146794220Y-79354650D01*
X146794220Y-76850240D01*
X145435320Y-76850240D01*
X145435320Y-79300252D01*
X144489170Y-81067406D01*
X144383634Y-81264550D01*
X144281403Y-81455582D01*
X144183116Y-81639304D01*
X144089413Y-81814519D01*
X144000932Y-81980030D01*
X143918314Y-82134640D01*
X143842196Y-82277150D01*
X143773219Y-82406363D01*
X143712022Y-82521083D01*
X143659245Y-82620111D01*
X143615525Y-82702250D01*
X143581503Y-82766303D01*
X143557819Y-82811072D01*
X143545110Y-82835360D01*
X143543020Y-82839601D01*
X143555356Y-82840498D01*
X143590912Y-82841344D01*
X143647506Y-82842125D01*
X143722957Y-82842826D01*
X143815085Y-82843433D01*
X143921708Y-82843933D01*
X144040647Y-82844310D01*
X144169719Y-82844550D01*
X144306745Y-82844640D01*
X145086939Y-82844640D01*
X145445214Y-82003265D01*
D15*
X156146500Y-111820478D02*
X156583966Y-111383012D01*
X157984978Y-109982000D02*
X157547512Y-110419466D01*
X156146500Y-108143522D02*
X154308022Y-109982000D01*
D13*
X156423579Y-85244400D02*
X156098021Y-85244400D01*
X156423579Y-84224400D02*
X156098021Y-84224400D01*
D19*
X166495844Y-98520660D02*
G75*
G03X166495844Y-98520660I-125000J0D01*
G01*
D17*
X165616500Y-107860500D02*
G75*
G03X165616500Y-107860500I-19000J0D01*
G01*
D14*
X163418520Y-101932740D02*
G75*
G03X163418520Y-101932740I-127000J0D01*
G01*
D20*
X161342070Y-105152190D02*
X161342070Y-103793290D01*
X165240970Y-103793290D02*
X165240970Y-105152190D01*
D14*
X163385500Y-94043500D02*
G75*
G03X163385500Y-94043500I-127000J0D01*
G01*
D20*
X161309050Y-97262950D02*
X161309050Y-95904050D01*
X165207950Y-95904050D02*
X165207950Y-97262950D01*
D13*
X160466500Y-100484721D02*
X160466500Y-100810279D01*
X159446500Y-100484721D02*
X159446500Y-100810279D01*
D11*
X128547880Y-98980666D02*
X129262166Y-98980666D01*
X129405023Y-98933047D01*
X129500261Y-98837809D01*
X129547880Y-98694952D01*
X129547880Y-98599714D01*
X128881214Y-99885428D02*
X129547880Y-99885428D01*
X128500261Y-99647333D02*
X129214547Y-99409238D01*
X129214547Y-100028285D01*
D12*
X160335685Y-93664314D02*
X160335685Y-92902314D01*
X160154257Y-92902314D01*
X160045400Y-92938600D01*
X159972828Y-93011171D01*
X159936542Y-93083742D01*
X159900257Y-93228885D01*
X159900257Y-93337742D01*
X159936542Y-93482885D01*
X159972828Y-93555457D01*
X160045400Y-93628028D01*
X160154257Y-93664314D01*
X160335685Y-93664314D01*
X159646257Y-92902314D02*
X159174542Y-92902314D01*
X159428542Y-93192600D01*
X159319685Y-93192600D01*
X159247114Y-93228885D01*
X159210828Y-93265171D01*
X159174542Y-93337742D01*
X159174542Y-93519171D01*
X159210828Y-93591742D01*
X159247114Y-93628028D01*
X159319685Y-93664314D01*
X159537400Y-93664314D01*
X159609971Y-93628028D01*
X159646257Y-93591742D01*
X158702828Y-92902314D02*
X158630257Y-92902314D01*
X158557685Y-92938600D01*
X158521400Y-92974885D01*
X158485114Y-93047457D01*
X158448828Y-93192600D01*
X158448828Y-93374028D01*
X158485114Y-93519171D01*
X158521400Y-93591742D01*
X158557685Y-93628028D01*
X158630257Y-93664314D01*
X158702828Y-93664314D01*
X158775400Y-93628028D01*
X158811685Y-93591742D01*
X158847971Y-93519171D01*
X158884257Y-93374028D01*
X158884257Y-93192600D01*
X158847971Y-93047457D01*
X158811685Y-92974885D01*
X158775400Y-92938600D01*
X158702828Y-92902314D01*
D14*
X165056563Y-86936406D02*
X165963706Y-86936406D01*
X166145135Y-86875930D01*
X166266087Y-86754978D01*
X166326563Y-86573549D01*
X166326563Y-86452597D01*
X166326563Y-88206406D02*
X166326563Y-87480692D01*
X166326563Y-87843549D02*
X165056563Y-87843549D01*
X165237992Y-87722597D01*
X165358944Y-87601644D01*
X165419420Y-87480692D01*
D12*
X154051000Y-85006542D02*
X154087285Y-85042828D01*
X154196142Y-85079114D01*
X154268714Y-85079114D01*
X154377571Y-85042828D01*
X154450142Y-84970257D01*
X154486428Y-84897685D01*
X154522714Y-84752542D01*
X154522714Y-84643685D01*
X154486428Y-84498542D01*
X154450142Y-84425971D01*
X154377571Y-84353400D01*
X154268714Y-84317114D01*
X154196142Y-84317114D01*
X154087285Y-84353400D01*
X154051000Y-84389685D01*
X153397857Y-84317114D02*
X153543000Y-84317114D01*
X153615571Y-84353400D01*
X153651857Y-84389685D01*
X153724428Y-84498542D01*
X153760714Y-84643685D01*
X153760714Y-84933971D01*
X153724428Y-85006542D01*
X153688142Y-85042828D01*
X153615571Y-85079114D01*
X153470428Y-85079114D01*
X153397857Y-85042828D01*
X153361571Y-85006542D01*
X153325285Y-84933971D01*
X153325285Y-84752542D01*
X153361571Y-84679971D01*
X153397857Y-84643685D01*
X153470428Y-84607400D01*
X153615571Y-84607400D01*
X153688142Y-84643685D01*
X153724428Y-84679971D01*
X153760714Y-84752542D01*
X162705142Y-100584000D02*
X162741428Y-100547714D01*
X162777714Y-100438857D01*
X162777714Y-100366285D01*
X162741428Y-100257428D01*
X162668857Y-100184857D01*
X162596285Y-100148571D01*
X162451142Y-100112285D01*
X162342285Y-100112285D01*
X162197142Y-100148571D01*
X162124571Y-100184857D01*
X162052000Y-100257428D01*
X162015714Y-100366285D01*
X162015714Y-100438857D01*
X162052000Y-100547714D01*
X162088285Y-100584000D01*
X162777714Y-100946857D02*
X162777714Y-101092000D01*
X162741428Y-101164571D01*
X162705142Y-101200857D01*
X162596285Y-101273428D01*
X162451142Y-101309714D01*
X162160857Y-101309714D01*
X162088285Y-101273428D01*
X162052000Y-101237142D01*
X162015714Y-101164571D01*
X162015714Y-101019428D01*
X162052000Y-100946857D01*
X162088285Y-100910571D01*
X162160857Y-100874285D01*
X162342285Y-100874285D01*
X162414857Y-100910571D01*
X162451142Y-100946857D01*
X162487428Y-101019428D01*
X162487428Y-101164571D01*
X162451142Y-101237142D01*
X162414857Y-101273428D01*
X162342285Y-101309714D01*
X168605925Y-94146914D02*
X168605925Y-93384914D01*
X168424497Y-93384914D01*
X168315640Y-93421200D01*
X168243068Y-93493771D01*
X168206782Y-93566342D01*
X168170497Y-93711485D01*
X168170497Y-93820342D01*
X168206782Y-93965485D01*
X168243068Y-94038057D01*
X168315640Y-94110628D01*
X168424497Y-94146914D01*
X168605925Y-94146914D01*
X167444782Y-94146914D02*
X167880211Y-94146914D01*
X167662497Y-94146914D02*
X167662497Y-93384914D01*
X167735068Y-93493771D01*
X167807640Y-93566342D01*
X167880211Y-93602628D01*
X167703558Y-100090088D02*
X168320415Y-100090088D01*
X168392986Y-100126374D01*
X168429272Y-100162660D01*
X168465558Y-100235231D01*
X168465558Y-100380374D01*
X168429272Y-100452945D01*
X168392986Y-100489231D01*
X168320415Y-100525517D01*
X167703558Y-100525517D01*
X167776129Y-100852088D02*
X167739844Y-100888374D01*
X167703558Y-100960945D01*
X167703558Y-101142374D01*
X167739844Y-101214945D01*
X167776129Y-101251231D01*
X167848701Y-101287517D01*
X167921272Y-101287517D01*
X168030129Y-101251231D01*
X168465558Y-100815802D01*
X168465558Y-101287517D01*
X167122928Y-107850214D02*
X167122928Y-107088214D01*
X166941500Y-107088214D01*
X166832642Y-107124500D01*
X166760071Y-107197071D01*
X166723785Y-107269642D01*
X166687500Y-107414785D01*
X166687500Y-107523642D01*
X166723785Y-107668785D01*
X166760071Y-107741357D01*
X166832642Y-107813928D01*
X166941500Y-107850214D01*
X167122928Y-107850214D01*
X166397214Y-107160785D02*
X166360928Y-107124500D01*
X166288357Y-107088214D01*
X166106928Y-107088214D01*
X166034357Y-107124500D01*
X165998071Y-107160785D01*
X165961785Y-107233357D01*
X165961785Y-107305928D01*
X165998071Y-107414785D01*
X166433500Y-107850214D01*
X165961785Y-107850214D01*
X173128214Y-97155000D02*
X172765357Y-96901000D01*
X173128214Y-96719571D02*
X172366214Y-96719571D01*
X172366214Y-97009857D01*
X172402500Y-97082428D01*
X172438785Y-97118714D01*
X172511357Y-97155000D01*
X172620214Y-97155000D01*
X172692785Y-97118714D01*
X172729071Y-97082428D01*
X172765357Y-97009857D01*
X172765357Y-96719571D01*
X172366214Y-97409000D02*
X172366214Y-97880714D01*
X172656500Y-97626714D01*
X172656500Y-97735571D01*
X172692785Y-97808142D01*
X172729071Y-97844428D01*
X172801642Y-97880714D01*
X172983071Y-97880714D01*
X173055642Y-97844428D01*
X173091928Y-97808142D01*
X173128214Y-97735571D01*
X173128214Y-97517857D01*
X173091928Y-97445285D01*
X173055642Y-97409000D01*
X174307500Y-99341214D02*
X174561500Y-98978357D01*
X174742928Y-99341214D02*
X174742928Y-98579214D01*
X174452642Y-98579214D01*
X174380071Y-98615500D01*
X174343785Y-98651785D01*
X174307500Y-98724357D01*
X174307500Y-98833214D01*
X174343785Y-98905785D01*
X174380071Y-98942071D01*
X174452642Y-98978357D01*
X174742928Y-98978357D01*
X174017214Y-98651785D02*
X173980928Y-98615500D01*
X173908357Y-98579214D01*
X173726928Y-98579214D01*
X173654357Y-98615500D01*
X173618071Y-98651785D01*
X173581785Y-98724357D01*
X173581785Y-98796928D01*
X173618071Y-98905785D01*
X174053500Y-99341214D01*
X173581785Y-99341214D01*
X159285214Y-97363642D02*
X158922357Y-97109642D01*
X159285214Y-96928214D02*
X158523214Y-96928214D01*
X158523214Y-97218500D01*
X158559500Y-97291071D01*
X158595785Y-97327357D01*
X158668357Y-97363642D01*
X158777214Y-97363642D01*
X158849785Y-97327357D01*
X158886071Y-97291071D01*
X158922357Y-97218500D01*
X158922357Y-96928214D01*
X159285214Y-98089357D02*
X159285214Y-97653928D01*
X159285214Y-97871642D02*
X158523214Y-97871642D01*
X158632071Y-97799071D01*
X158704642Y-97726500D01*
X158740928Y-97653928D01*
X158523214Y-98343357D02*
X158523214Y-98815071D01*
X158813500Y-98561071D01*
X158813500Y-98669928D01*
X158849785Y-98742500D01*
X158886071Y-98778785D01*
X158958642Y-98815071D01*
X159140071Y-98815071D01*
X159212642Y-98778785D01*
X159248928Y-98742500D01*
X159285214Y-98669928D01*
X159285214Y-98452214D01*
X159248928Y-98379642D01*
X159212642Y-98343357D01*
X164673642Y-100584000D02*
X164709928Y-100547714D01*
X164746214Y-100438857D01*
X164746214Y-100366285D01*
X164709928Y-100257428D01*
X164637357Y-100184857D01*
X164564785Y-100148571D01*
X164419642Y-100112285D01*
X164310785Y-100112285D01*
X164165642Y-100148571D01*
X164093071Y-100184857D01*
X164020500Y-100257428D01*
X163984214Y-100366285D01*
X163984214Y-100438857D01*
X164020500Y-100547714D01*
X164056785Y-100584000D01*
X164310785Y-101019428D02*
X164274500Y-100946857D01*
X164238214Y-100910571D01*
X164165642Y-100874285D01*
X164129357Y-100874285D01*
X164056785Y-100910571D01*
X164020500Y-100946857D01*
X163984214Y-101019428D01*
X163984214Y-101164571D01*
X164020500Y-101237142D01*
X164056785Y-101273428D01*
X164129357Y-101309714D01*
X164165642Y-101309714D01*
X164238214Y-101273428D01*
X164274500Y-101237142D01*
X164310785Y-101164571D01*
X164310785Y-101019428D01*
X164347071Y-100946857D01*
X164383357Y-100910571D01*
X164455928Y-100874285D01*
X164601071Y-100874285D01*
X164673642Y-100910571D01*
X164709928Y-100946857D01*
X164746214Y-101019428D01*
X164746214Y-101164571D01*
X164709928Y-101237142D01*
X164673642Y-101273428D01*
X164601071Y-101309714D01*
X164455928Y-101309714D01*
X164383357Y-101273428D01*
X164347071Y-101237142D01*
X164310785Y-101164571D01*
X174307500Y-100611214D02*
X174561500Y-100248357D01*
X174742928Y-100611214D02*
X174742928Y-99849214D01*
X174452642Y-99849214D01*
X174380071Y-99885500D01*
X174343785Y-99921785D01*
X174307500Y-99994357D01*
X174307500Y-100103214D01*
X174343785Y-100175785D01*
X174380071Y-100212071D01*
X174452642Y-100248357D01*
X174742928Y-100248357D01*
X173654357Y-100103214D02*
X173654357Y-100611214D01*
X173835785Y-99812928D02*
X174017214Y-100357214D01*
X173545500Y-100357214D01*
X170324054Y-102664260D02*
X169961197Y-102410260D01*
X170324054Y-102228831D02*
X169562054Y-102228831D01*
X169562054Y-102519117D01*
X169598340Y-102591688D01*
X169634625Y-102627974D01*
X169707197Y-102664260D01*
X169816054Y-102664260D01*
X169888625Y-102627974D01*
X169924911Y-102591688D01*
X169961197Y-102519117D01*
X169961197Y-102228831D01*
X169888625Y-103099688D02*
X169852340Y-103027117D01*
X169816054Y-102990831D01*
X169743482Y-102954545D01*
X169707197Y-102954545D01*
X169634625Y-102990831D01*
X169598340Y-103027117D01*
X169562054Y-103099688D01*
X169562054Y-103244831D01*
X169598340Y-103317402D01*
X169634625Y-103353688D01*
X169707197Y-103389974D01*
X169743482Y-103389974D01*
X169816054Y-103353688D01*
X169852340Y-103317402D01*
X169888625Y-103244831D01*
X169888625Y-103099688D01*
X169924911Y-103027117D01*
X169961197Y-102990831D01*
X170033768Y-102954545D01*
X170178911Y-102954545D01*
X170251482Y-102990831D01*
X170287768Y-103027117D01*
X170324054Y-103099688D01*
X170324054Y-103244831D01*
X170287768Y-103317402D01*
X170251482Y-103353688D01*
X170178911Y-103389974D01*
X170033768Y-103389974D01*
X169961197Y-103353688D01*
X169924911Y-103317402D01*
X169888625Y-103244831D01*
X173227274Y-104033320D02*
X172864417Y-103779320D01*
X173227274Y-103597891D02*
X172465274Y-103597891D01*
X172465274Y-103888177D01*
X172501560Y-103960748D01*
X172537845Y-103997034D01*
X172610417Y-104033320D01*
X172719274Y-104033320D01*
X172791845Y-103997034D01*
X172828131Y-103960748D01*
X172864417Y-103888177D01*
X172864417Y-103597891D01*
X172465274Y-104686462D02*
X172465274Y-104541320D01*
X172501560Y-104468748D01*
X172537845Y-104432462D01*
X172646702Y-104359891D01*
X172791845Y-104323605D01*
X173082131Y-104323605D01*
X173154702Y-104359891D01*
X173190988Y-104396177D01*
X173227274Y-104468748D01*
X173227274Y-104613891D01*
X173190988Y-104686462D01*
X173154702Y-104722748D01*
X173082131Y-104759034D01*
X172900702Y-104759034D01*
X172828131Y-104722748D01*
X172791845Y-104686462D01*
X172755560Y-104613891D01*
X172755560Y-104468748D01*
X172791845Y-104396177D01*
X172828131Y-104359891D01*
X172900702Y-104323605D01*
X171266394Y-102664260D02*
X170903537Y-102410260D01*
X171266394Y-102228831D02*
X170504394Y-102228831D01*
X170504394Y-102519117D01*
X170540680Y-102591688D01*
X170576965Y-102627974D01*
X170649537Y-102664260D01*
X170758394Y-102664260D01*
X170830965Y-102627974D01*
X170867251Y-102591688D01*
X170903537Y-102519117D01*
X170903537Y-102228831D01*
X170504394Y-102918260D02*
X170504394Y-103426260D01*
X171266394Y-103099688D01*
X173345714Y-101790500D02*
X172982857Y-101536500D01*
X173345714Y-101355071D02*
X172583714Y-101355071D01*
X172583714Y-101645357D01*
X172620000Y-101717928D01*
X172656285Y-101754214D01*
X172728857Y-101790500D01*
X172837714Y-101790500D01*
X172910285Y-101754214D01*
X172946571Y-101717928D01*
X172982857Y-101645357D01*
X172982857Y-101355071D01*
X172583714Y-102479928D02*
X172583714Y-102117071D01*
X172946571Y-102080785D01*
X172910285Y-102117071D01*
X172874000Y-102189642D01*
X172874000Y-102371071D01*
X172910285Y-102443642D01*
X172946571Y-102479928D01*
X173019142Y-102516214D01*
X173200571Y-102516214D01*
X173273142Y-102479928D01*
X173309428Y-102443642D01*
X173345714Y-102371071D01*
X173345714Y-102189642D01*
X173309428Y-102117071D01*
X173273142Y-102080785D01*
X171119437Y-95467714D02*
X171373437Y-95104857D01*
X171554865Y-95467714D02*
X171554865Y-94705714D01*
X171264580Y-94705714D01*
X171192008Y-94742000D01*
X171155722Y-94778285D01*
X171119437Y-94850857D01*
X171119437Y-94959714D01*
X171155722Y-95032285D01*
X171192008Y-95068571D01*
X171264580Y-95104857D01*
X171554865Y-95104857D01*
X170393722Y-95467714D02*
X170829151Y-95467714D01*
X170611437Y-95467714D02*
X170611437Y-94705714D01*
X170684008Y-94814571D01*
X170756580Y-94887142D01*
X170829151Y-94923428D01*
X169668008Y-95467714D02*
X170103437Y-95467714D01*
X169885722Y-95467714D02*
X169885722Y-94705714D01*
X169958294Y-94814571D01*
X170030865Y-94887142D01*
X170103437Y-94923428D01*
X159285214Y-95014142D02*
X158922357Y-94760142D01*
X159285214Y-94578714D02*
X158523214Y-94578714D01*
X158523214Y-94869000D01*
X158559500Y-94941571D01*
X158595785Y-94977857D01*
X158668357Y-95014142D01*
X158777214Y-95014142D01*
X158849785Y-94977857D01*
X158886071Y-94941571D01*
X158922357Y-94869000D01*
X158922357Y-94578714D01*
X159285214Y-95739857D02*
X159285214Y-95304428D01*
X159285214Y-95522142D02*
X158523214Y-95522142D01*
X158632071Y-95449571D01*
X158704642Y-95377000D01*
X158740928Y-95304428D01*
X158595785Y-96030142D02*
X158559500Y-96066428D01*
X158523214Y-96139000D01*
X158523214Y-96320428D01*
X158559500Y-96393000D01*
X158595785Y-96429285D01*
X158668357Y-96465571D01*
X158740928Y-96465571D01*
X158849785Y-96429285D01*
X159285214Y-95993857D01*
X159285214Y-96465571D01*
X161856057Y-83936114D02*
X162110057Y-83573257D01*
X162291485Y-83936114D02*
X162291485Y-83174114D01*
X162001200Y-83174114D01*
X161928628Y-83210400D01*
X161892342Y-83246685D01*
X161856057Y-83319257D01*
X161856057Y-83428114D01*
X161892342Y-83500685D01*
X161928628Y-83536971D01*
X162001200Y-83573257D01*
X162291485Y-83573257D01*
X161130342Y-83936114D02*
X161565771Y-83936114D01*
X161348057Y-83936114D02*
X161348057Y-83174114D01*
X161420628Y-83282971D01*
X161493200Y-83355542D01*
X161565771Y-83391828D01*
X160477200Y-83428114D02*
X160477200Y-83936114D01*
X160658628Y-83137828D02*
X160840057Y-83682114D01*
X160368342Y-83682114D01*
X158960457Y-86374514D02*
X159214457Y-86011657D01*
X159395885Y-86374514D02*
X159395885Y-85612514D01*
X159105600Y-85612514D01*
X159033028Y-85648800D01*
X158996742Y-85685085D01*
X158960457Y-85757657D01*
X158960457Y-85866514D01*
X158996742Y-85939085D01*
X159033028Y-85975371D01*
X159105600Y-86011657D01*
X159395885Y-86011657D01*
X158234742Y-86374514D02*
X158670171Y-86374514D01*
X158452457Y-86374514D02*
X158452457Y-85612514D01*
X158525028Y-85721371D01*
X158597600Y-85793942D01*
X158670171Y-85830228D01*
X157545314Y-85612514D02*
X157908171Y-85612514D01*
X157944457Y-85975371D01*
X157908171Y-85939085D01*
X157835600Y-85902800D01*
X157654171Y-85902800D01*
X157581600Y-85939085D01*
X157545314Y-85975371D01*
X157509028Y-86047942D01*
X157509028Y-86229371D01*
X157545314Y-86301942D01*
X157581600Y-86338228D01*
X157654171Y-86374514D01*
X157835600Y-86374514D01*
X157908171Y-86338228D01*
X157944457Y-86301942D01*
X167794214Y-104013000D02*
X167431357Y-103759000D01*
X167794214Y-103577571D02*
X167032214Y-103577571D01*
X167032214Y-103867857D01*
X167068500Y-103940428D01*
X167104785Y-103976714D01*
X167177357Y-104013000D01*
X167286214Y-104013000D01*
X167358785Y-103976714D01*
X167395071Y-103940428D01*
X167431357Y-103867857D01*
X167431357Y-103577571D01*
X167794214Y-104738714D02*
X167794214Y-104303285D01*
X167794214Y-104521000D02*
X167032214Y-104521000D01*
X167141071Y-104448428D01*
X167213642Y-104375857D01*
X167249928Y-104303285D01*
X160419142Y-102761142D02*
X160455428Y-102724857D01*
X160491714Y-102616000D01*
X160491714Y-102543428D01*
X160455428Y-102434571D01*
X160382857Y-102362000D01*
X160310285Y-102325714D01*
X160165142Y-102289428D01*
X160056285Y-102289428D01*
X159911142Y-102325714D01*
X159838571Y-102362000D01*
X159766000Y-102434571D01*
X159729714Y-102543428D01*
X159729714Y-102616000D01*
X159766000Y-102724857D01*
X159802285Y-102761142D01*
X160491714Y-103486857D02*
X160491714Y-103051428D01*
X160491714Y-103269142D02*
X159729714Y-103269142D01*
X159838571Y-103196571D01*
X159911142Y-103124000D01*
X159947428Y-103051428D01*
X160491714Y-104212571D02*
X160491714Y-103777142D01*
X160491714Y-103994857D02*
X159729714Y-103994857D01*
X159838571Y-103922285D01*
X159911142Y-103849714D01*
X159947428Y-103777142D01*
X166324642Y-103251000D02*
X166360928Y-103214714D01*
X166397214Y-103105857D01*
X166397214Y-103033285D01*
X166360928Y-102924428D01*
X166288357Y-102851857D01*
X166215785Y-102815571D01*
X166070642Y-102779285D01*
X165961785Y-102779285D01*
X165816642Y-102815571D01*
X165744071Y-102851857D01*
X165671500Y-102924428D01*
X165635214Y-103033285D01*
X165635214Y-103105857D01*
X165671500Y-103214714D01*
X165707785Y-103251000D01*
X165635214Y-103505000D02*
X165635214Y-104013000D01*
X166397214Y-103686428D01*
X171112542Y-96596200D02*
X171148828Y-96559914D01*
X171185114Y-96451057D01*
X171185114Y-96378485D01*
X171148828Y-96269628D01*
X171076257Y-96197057D01*
X171003685Y-96160771D01*
X170858542Y-96124485D01*
X170749685Y-96124485D01*
X170604542Y-96160771D01*
X170531971Y-96197057D01*
X170459400Y-96269628D01*
X170423114Y-96378485D01*
X170423114Y-96451057D01*
X170459400Y-96559914D01*
X170495685Y-96596200D01*
X170677114Y-97249342D02*
X171185114Y-97249342D01*
X170386828Y-97067914D02*
X170931114Y-96886485D01*
X170931114Y-97358200D01*
X159232600Y-92016942D02*
X159268885Y-92053228D01*
X159377742Y-92089514D01*
X159450314Y-92089514D01*
X159559171Y-92053228D01*
X159631742Y-91980657D01*
X159668028Y-91908085D01*
X159704314Y-91762942D01*
X159704314Y-91654085D01*
X159668028Y-91508942D01*
X159631742Y-91436371D01*
X159559171Y-91363800D01*
X159450314Y-91327514D01*
X159377742Y-91327514D01*
X159268885Y-91363800D01*
X159232600Y-91400085D01*
X158942314Y-91400085D02*
X158906028Y-91363800D01*
X158833457Y-91327514D01*
X158652028Y-91327514D01*
X158579457Y-91363800D01*
X158543171Y-91400085D01*
X158506885Y-91472657D01*
X158506885Y-91545228D01*
X158543171Y-91654085D01*
X158978600Y-92089514D01*
X158506885Y-92089514D01*
X166515142Y-96647000D02*
X166551428Y-96610714D01*
X166587714Y-96501857D01*
X166587714Y-96429285D01*
X166551428Y-96320428D01*
X166478857Y-96247857D01*
X166406285Y-96211571D01*
X166261142Y-96175285D01*
X166152285Y-96175285D01*
X166007142Y-96211571D01*
X165934571Y-96247857D01*
X165862000Y-96320428D01*
X165825714Y-96429285D01*
X165825714Y-96501857D01*
X165862000Y-96610714D01*
X165898285Y-96647000D01*
X165825714Y-96901000D02*
X165825714Y-97372714D01*
X166116000Y-97118714D01*
X166116000Y-97227571D01*
X166152285Y-97300142D01*
X166188571Y-97336428D01*
X166261142Y-97372714D01*
X166442571Y-97372714D01*
X166515142Y-97336428D01*
X166551428Y-97300142D01*
X166587714Y-97227571D01*
X166587714Y-97009857D01*
X166551428Y-96937285D01*
X166515142Y-96901000D01*
X168393142Y-106045000D02*
X168429428Y-106008714D01*
X168465714Y-105899857D01*
X168465714Y-105827285D01*
X168429428Y-105718428D01*
X168356857Y-105645857D01*
X168284285Y-105609571D01*
X168139142Y-105573285D01*
X168030285Y-105573285D01*
X167885142Y-105609571D01*
X167812571Y-105645857D01*
X167740000Y-105718428D01*
X167703714Y-105827285D01*
X167703714Y-105899857D01*
X167740000Y-106008714D01*
X167776285Y-106045000D01*
X168465714Y-106770714D02*
X168465714Y-106335285D01*
X168465714Y-106553000D02*
X167703714Y-106553000D01*
X167812571Y-106480428D01*
X167885142Y-106407857D01*
X167921428Y-106335285D01*
D14*
G36*
X148501136Y-111664359D02*
G01*
X148793294Y-112005211D01*
X148799917Y-112012363D01*
X149104717Y-112317163D01*
X149123963Y-112332957D01*
X149145919Y-112344693D01*
X149169744Y-112351920D01*
X149173586Y-112352298D01*
X148595937Y-112663340D01*
X147872731Y-112759768D01*
X147050661Y-112663054D01*
X146717530Y-112472693D01*
X146694807Y-112462519D01*
X146670536Y-112456974D01*
X146645650Y-112456270D01*
X146621104Y-112460435D01*
X146593706Y-112471467D01*
X146053711Y-112766010D01*
X145480469Y-112861550D01*
X144852417Y-112813238D01*
X144179976Y-112573081D01*
X144098218Y-112501543D01*
X144129061Y-112488662D01*
X144383061Y-112336262D01*
X144403051Y-112321422D01*
X144423390Y-112297807D01*
X144713020Y-111863362D01*
X145076566Y-111636146D01*
X145542494Y-111542961D01*
X145947220Y-111587930D01*
X146260959Y-111812030D01*
X146561510Y-112196624D01*
X146578689Y-112214644D01*
X146599053Y-112228966D01*
X146621820Y-112239039D01*
X146646115Y-112244478D01*
X146671005Y-112245073D01*
X146695532Y-112240800D01*
X146718754Y-112231825D01*
X146739779Y-112218491D01*
X146757799Y-112201312D01*
X146772121Y-112180948D01*
X146783170Y-112155088D01*
X146818983Y-112036320D01*
X147135000Y-111675158D01*
X147647634Y-111488746D01*
X148147453Y-111443308D01*
X148501136Y-111664359D01*
X148501136Y-111664359D01*
G37*
X148501136Y-111664359D02*
X148793294Y-112005211D01*
X148799917Y-112012363D01*
X149104717Y-112317163D01*
X149123963Y-112332957D01*
X149145919Y-112344693D01*
X149169744Y-112351920D01*
X149173586Y-112352298D01*
X148595937Y-112663340D01*
X147872731Y-112759768D01*
X147050661Y-112663054D01*
X146717530Y-112472693D01*
X146694807Y-112462519D01*
X146670536Y-112456974D01*
X146645650Y-112456270D01*
X146621104Y-112460435D01*
X146593706Y-112471467D01*
X146053711Y-112766010D01*
X145480469Y-112861550D01*
X144852417Y-112813238D01*
X144179976Y-112573081D01*
X144098218Y-112501543D01*
X144129061Y-112488662D01*
X144383061Y-112336262D01*
X144403051Y-112321422D01*
X144423390Y-112297807D01*
X144713020Y-111863362D01*
X145076566Y-111636146D01*
X145542494Y-111542961D01*
X145947220Y-111587930D01*
X146260959Y-111812030D01*
X146561510Y-112196624D01*
X146578689Y-112214644D01*
X146599053Y-112228966D01*
X146621820Y-112239039D01*
X146646115Y-112244478D01*
X146671005Y-112245073D01*
X146695532Y-112240800D01*
X146718754Y-112231825D01*
X146739779Y-112218491D01*
X146757799Y-112201312D01*
X146772121Y-112180948D01*
X146783170Y-112155088D01*
X146818983Y-112036320D01*
X147135000Y-111675158D01*
X147647634Y-111488746D01*
X148147453Y-111443308D01*
X148501136Y-111664359D01*
M02*
