M48
;DRILL file {KiCad 5.0.2-bee76a0~70~ubuntu18.04.1} date Sat 29 Feb 2020 05:26:00 PM PST
;FORMAT={-:-/ absolute / inch / decimal}
FMAT,2
INCH,TZ
T1C0.0118
T2C0.0197
T3C0.0394
T4C0.0472
%
G90
G05
T1
X4.73Y-3.48
X4.7323Y-3.5945
X4.7323Y-3.622
X4.7441Y-4.2913
X4.7618Y-3.4075
X4.7736Y-4.2913
X4.7756Y-4.425
X4.7992Y-3.9075
X4.8346Y-4.4114
X4.8524Y-5.0157
X4.8976Y-5.0177
X4.9783Y-4.3366
X4.9843Y-4.25
X5.0157Y-4.3366
X5.0551Y-4.2874
X5.1004Y-4.4114
X5.1201Y-4.2972
X5.189Y-3.1339
X5.2224Y-3.1339
X5.8071Y-4.3012
X5.8268Y-4.3307
X5.8366Y-4.3602
X5.9133Y-3.3887
X5.9173Y-4.4272
X5.9311Y-4.4528
X5.9941Y-4.2224
X6.0138Y-4.252
X6.0195Y-3.3595
X6.0236Y-4.2815
X6.037Y-3.416
X6.037Y-3.3018
X6.0531Y-3.8563
X6.059Y-3.3595
X6.0925Y-3.7618
X6.0925Y-3.8543
X6.1398Y-4.1339
X6.1613Y-3.5205
X6.1763Y-3.8087
X6.1831Y-3.3386
X6.1953Y-3.5205
X6.2001Y-3.586
X6.2321Y-3.7059
X6.2677Y-3.8209
X6.2848Y-3.7995
X6.2863Y-3.6997
X6.2933Y-3.9665
X6.3012Y-3.8248
X6.313Y-3.7854
X6.3346Y-3.9665
X6.3425Y-3.4311
X6.3563Y-3.6024
X6.3563Y-3.7087
X6.376Y-3.4311
X6.3878Y-3.7067
X6.3937Y-3.998
X6.3957Y-3.6024
X6.3957Y-3.8031
X6.4213Y-4.3209
X6.4252Y-4.3563
X6.4252Y-4.3898
X6.426Y-4.424
X6.4705Y-3.6339
X6.4724Y-3.6713
X6.5Y-3.7146
X6.5433Y-4.4193
X6.563Y-4.2736
X6.563Y-4.3031
X6.5787Y-4.4213
T2
X6.5098Y-3.8839
X6.5354Y-3.8012
X6.3491Y-3.5344
T3
X6.0335Y-4.5177
T4
X5.1937Y-4.3268
X5.3937Y-4.3268
X5.5937Y-4.3268
X4.912Y-3.8461
X4.912Y-3.9979
X5.437Y-3.4685
X5.6378Y-3.4685
X5.8386Y-3.4685
T0
M30
